<svg width="21" height="21" viewBox="0 0 21 21" fill="none" xmlns="http://www.w3.org/2000/svg">
<rect y="0.68054" width="19.5" height="19.5" rx="4.23913" transform="rotate(-2 0 0.68054)" fill="#F6931A"/>
<path d="M13.6672 10.3097C13.8529 10.3998 14.0304 10.5059 14.1977 10.6266C14.7823 11.0578 15.0433 11.636 14.9769 12.3582C14.9349 12.8935 14.7643 13.4108 14.4795 13.8661C14.129 14.4155 13.6148 14.7237 12.9863 14.8544C12.4651 14.9631 11.9404 14.952 11.4149 14.9001C11.2236 14.8817 11.0332 14.856 10.8434 14.8278C10.782 14.8183 10.7637 14.8385 10.7517 14.897C10.6282 15.4892 10.4991 16.0804 10.3768 16.6731C10.3596 16.7568 10.3356 16.7723 10.2512 16.7527C9.91792 16.6751 9.58183 16.6056 9.24639 16.5372C9.18488 16.5259 9.17757 16.5091 9.18961 16.4512C9.31694 15.8625 9.43995 15.2728 9.5679 14.6841C9.58207 14.6176 9.57501 14.5904 9.503 14.5758C9.24321 14.5213 8.98411 14.4631 8.72569 14.4013C8.65974 14.3852 8.64146 14.4042 8.62833 14.4658C8.50479 15.058 8.37635 15.6497 8.25342 16.2419C8.23924 16.3084 8.2207 16.32 8.15484 16.3065C7.81569 16.2311 7.47523 16.1589 7.13345 16.0897C7.0719 16.0772 7.06246 16.0519 7.07447 15.9934C7.20283 15.3992 7.32627 14.804 7.45578 14.2079C7.47265 14.1309 7.45591 14.1064 7.38072 14.0883C6.64189 13.9307 5.90855 13.773 5.17217 13.6154C5.11984 13.6044 5.10352 13.5921 5.12602 13.5364C5.29004 13.1232 5.45181 12.7102 5.61135 12.2972C5.63151 12.2445 5.65902 12.2448 5.70586 12.256C5.95963 12.3131 6.21287 12.3727 6.46814 12.4201C6.78675 12.4792 6.9692 12.3488 7.03641 12.0335C7.2432 11.0604 7.45041 10.0874 7.65803 9.11458C7.81556 8.37575 7.97309 7.63693 8.13062 6.8981C8.19412 6.59888 8.0285 6.31867 7.71984 6.21211C7.47977 6.13958 7.23528 6.08259 6.98789 6.04151C6.91525 6.02633 6.84317 6.0099 6.77007 5.99901C6.73014 5.99307 6.72412 5.978 6.73193 5.93923C6.81448 5.55563 6.89702 5.17202 6.97587 4.78733C6.98935 4.71841 7.03101 4.73896 7.06856 4.74681C7.36037 4.80812 7.65106 4.87253 7.94345 4.9332C8.3854 5.0241 8.82426 5.13161 9.26838 5.21449C9.34158 5.22843 9.36873 5.21832 9.38497 5.14075C9.50512 4.55661 9.63134 3.97105 9.7516 3.38996C9.76677 3.31671 9.78802 3.29519 9.86502 3.31267C10.1989 3.38901 10.5344 3.45979 10.8698 3.52752C10.9406 3.54216 10.9483 3.56878 10.9347 3.63465C10.8094 4.21163 10.6884 4.78968 10.5637 5.36664C10.5506 5.42821 10.5573 5.4457 10.6225 5.45809C10.8833 5.50581 11.1442 5.55781 11.4035 5.61415C11.478 5.6311 11.4979 5.60657 11.5121 5.54008C11.6293 4.97621 11.7502 4.41344 11.8668 3.84959C11.883 3.77203 11.9034 3.74382 11.9922 3.76455C12.3224 3.84163 12.6554 3.91067 12.9878 3.97789C13.053 3.99089 13.0666 4.01181 13.0524 4.07769C12.925 4.66635 12.8032 5.25605 12.6741 5.84416C12.6577 5.91929 12.6774 5.9406 12.7442 5.96394C13.2075 6.09714 13.6508 6.2917 14.0624 6.54245C14.4493 6.78744 14.7734 7.09146 14.9583 7.52072C15.158 7.99102 15.1388 8.47202 15.0126 8.95431C14.8348 9.63722 14.4068 10.0799 13.7286 10.2825C13.7055 10.2869 13.6906 10.296 13.6672 10.3097ZM11.1152 13.2832L11.1945 13.2804C11.4799 13.2613 11.7595 13.2204 12.0158 13.0849C12.6632 12.7421 12.7736 11.8607 12.2349 11.3454C11.9188 11.0448 11.533 10.881 11.1305 10.7472C10.6358 10.5811 10.1176 10.4941 9.60552 10.3892C9.53105 10.3741 9.51782 10.3977 9.50474 10.4605C9.33469 11.2727 9.16218 12.0842 8.9872 12.8949C8.97298 12.9602 8.99367 12.9754 9.05152 12.9868C9.27125 13.0317 9.48938 13.0833 9.70914 13.1288C10.1704 13.2308 10.6415 13.2816 11.1139 13.2802L11.1152 13.2832ZM11.5079 9.44397C11.6648 9.44126 11.821 9.42229 11.974 9.38736C12.3781 9.28769 12.6647 9.05769 12.7687 8.64278C12.8728 8.22787 12.7628 7.86078 12.4259 7.57554C12.2474 7.42901 12.0465 7.31222 11.8308 7.22966C11.3492 7.03442 10.8395 6.94589 10.3314 6.84997C10.2698 6.83806 10.2663 6.87608 10.2574 6.91855C10.1944 7.21571 10.1309 7.5131 10.0667 7.8107C9.97481 8.24169 9.88367 8.67692 9.78877 9.10923C9.77503 9.17082 9.78634 9.19731 9.85338 9.20964C9.98128 9.23206 10.1065 9.26619 10.234 9.29291C10.6536 9.37603 11.075 9.4542 11.5066 9.44097L11.5079 9.44397Z" fill="white"/>
</svg>
