<svg width="29" height="29" viewBox="0 0 29 29" fill="none" xmlns="http://www.w3.org/2000/svg">
<rect width="28.5" height="28.5" rx="6.19565" fill="#26A07B"/>
<path d="M19.0656 12.0713C19.3671 12.0603 19.6689 12.0754 19.9677 12.1164C21.018 12.2717 21.7515 12.8387 22.1613 13.8163C22.4745 14.5359 22.6092 15.3205 22.5541 16.1034C22.4787 17.0529 22.0267 17.8034 21.3053 18.4034C20.7073 18.9012 20.0226 19.247 19.3088 19.5406C19.0493 19.6481 18.786 19.7455 18.5217 19.8394C18.436 19.8693 18.4263 19.9079 18.4509 19.9916C18.6978 20.8406 18.9369 21.692 19.1858 22.5409C19.221 22.6607 19.2008 22.6971 19.0783 22.7297C18.595 22.8583 18.1135 22.9991 17.6338 23.1411C17.5467 23.1687 17.5257 23.152 17.5015 23.0691C17.2619 22.222 17.016 21.3766 16.7772 20.5292C16.7498 20.4336 16.722 20.4033 16.6191 20.4339C16.2464 20.5418 15.8722 20.6445 15.4962 20.742C15.4001 20.7666 15.3896 20.8036 15.4149 20.8921C15.6618 21.741 15.9021 22.5928 16.1498 23.4413C16.1771 23.5369 16.1611 23.5646 16.0668 23.5923C15.5775 23.7278 15.0886 23.8681 14.6001 24.0134C14.512 24.0395 14.4825 24.0133 14.4579 23.9296C14.2158 23.0747 13.9666 22.2219 13.7248 21.3638C13.6937 21.2529 13.6553 21.2328 13.5459 21.261C12.4843 21.5646 11.4298 21.8643 10.3713 22.1662C10.2963 22.1879 10.2668 22.1832 10.2576 22.0958C10.1857 21.4501 10.1111 20.8061 10.0336 20.1637C10.0235 20.0819 10.0592 20.0634 10.1273 20.0457C10.494 19.9453 10.8617 19.8485 11.2236 19.7344C11.6753 19.5921 11.8212 19.2986 11.6917 18.8457C11.2908 17.4479 10.8906 16.0501 10.491 14.6523C10.1873 13.5908 9.88369 12.5293 9.58003 11.4678C9.45666 11.0381 9.05067 10.7901 8.57924 10.8644C8.21968 10.9355 7.86507 11.0297 7.51763 11.1465C7.41347 11.1767 7.30918 11.205 7.20738 11.2411C7.15177 11.2608 7.13366 11.2455 7.11714 11.1901C6.96046 10.6384 6.80377 10.0868 6.64155 9.53624C6.61167 9.43806 6.67953 9.43598 6.73338 9.42036C7.15201 9.29925 7.57132 9.1829 7.99028 9.06058C8.62297 8.87464 9.26307 8.71224 9.89305 8.51447C9.99709 8.48223 10.0252 8.45055 9.99291 8.33931C9.74716 7.50306 9.50825 6.66081 9.26474 5.82842C9.23404 5.72349 9.2467 5.68114 9.35806 5.65086C9.8413 5.52028 10.3228 5.3814 10.8022 5.23866C10.9036 5.20898 10.9317 5.23808 10.9594 5.3324C11.1936 6.16294 11.4341 6.99191 11.6691 7.82201C11.6944 7.91047 11.715 7.92842 11.8077 7.89966C12.177 7.78232 12.5494 7.67039 12.9226 7.56521C13.0304 7.53594 13.0392 7.49062 13.0119 7.39508C12.7763 6.58702 12.5461 5.77783 12.3097 4.97021C12.2774 4.85898 12.2844 4.80857 12.4131 4.77445C12.8922 4.64732 13.3693 4.5079 13.8443 4.36662C13.9374 4.33864 13.9693 4.35632 13.9961 4.45108C14.2357 5.2981 14.4832 6.14265 14.72 6.99023C14.7505 7.09837 14.7905 7.11237 14.8928 7.09663C15.5819 6.95068 16.2875 6.89757 16.9908 6.93871C17.6581 6.98943 18.2849 7.15936 18.818 7.58645C19.3985 8.05629 19.7037 8.69022 19.8718 9.39916C20.1109 10.4024 19.8624 11.2674 19.1262 11.9941C19.0995 12.0157 19.0864 12.0377 19.0656 12.0713ZM17.8126 17.6597L17.9131 17.6016C18.2682 17.3812 18.601 17.1364 18.8387 16.7859C19.439 15.8992 18.9766 14.6861 17.928 14.3907C17.3138 14.2196 16.7036 14.273 16.0923 14.3765C15.34 14.5016 14.6116 14.7449 13.8787 14.9609C13.7723 14.9925 13.7714 15.0321 13.7976 15.1221C14.1355 16.2869 14.4697 17.4524 14.8001 18.6187C14.8266 18.7127 14.8637 18.7181 14.9462 18.6931C15.2605 18.6003 15.5775 18.5172 15.8923 18.4252C16.5575 18.2403 17.2002 17.9826 17.8089 17.6567L17.8126 17.6597ZM15.6851 12.4358C15.8858 12.3246 16.0743 12.193 16.2478 12.0429C16.7009 11.637 16.9128 11.1436 16.7625 10.5368C16.6121 9.92994 16.2182 9.53169 15.5878 9.39477C15.2569 9.32814 14.9175 9.31529 14.5825 9.35673C13.827 9.43527 13.1085 9.67075 12.387 9.89561C12.2994 9.92247 12.3209 9.97397 12.3386 10.0349C12.4612 10.4616 12.5832 10.8889 12.7047 11.317C12.8818 11.9362 13.0628 12.5604 13.237 13.1834C13.2615 13.2723 13.2943 13.2987 13.3893 13.2686C13.5697 13.2098 13.7547 13.1679 13.9375 13.115C14.5361 12.9343 15.1335 12.7461 15.6813 12.4328L15.6851 12.4358Z" fill="white"/>
</svg>
