<svg width="29" height="29" viewBox="0 0 29 29" fill="none" xmlns="http://www.w3.org/2000/svg">
<rect width="28.5" height="28.5" rx="6.19565" fill="#F6931A"/>
<path d="M19.4719 14.7617C19.7384 14.9028 19.9923 15.0668 20.2306 15.2517C21.0625 15.9113 21.4142 16.7691 21.2803 17.8206C21.1917 18.6004 20.9161 19.3473 20.4769 19.9977C19.9369 20.7823 19.1702 21.2063 18.2454 21.3652C17.4787 21.4973 16.7128 21.4545 15.9478 21.3518C15.6693 21.3152 15.3926 21.2679 15.1168 21.217C15.0275 21.2001 14.9999 21.2286 14.9793 21.3134C14.7687 22.1721 14.55 23.029 14.3411 23.8886C14.3117 24.01 14.276 24.0314 14.1537 23.9984C13.6708 23.8681 13.1834 23.7494 12.6969 23.6324C12.6077 23.6128 12.5979 23.5878 12.6184 23.5039C12.8344 22.6505 13.0442 21.7954 13.2611 20.9421C13.2852 20.8457 13.2762 20.8055 13.1718 20.7805C12.7951 20.6877 12.4196 20.5895 12.0453 20.486C11.9498 20.4592 11.9222 20.486 11.8998 20.5752C11.6892 21.4339 11.4714 22.2917 11.2616 23.1504C11.2375 23.2468 11.2098 23.2629 11.1143 23.2397C10.6228 23.1123 10.1292 22.9894 9.6335 22.871C9.54424 22.8496 9.53174 22.8121 9.55227 22.7273C9.77007 21.8659 9.98072 21.0028 10.2003 20.1387C10.2289 20.0272 10.2057 19.9906 10.0968 19.9602C9.02563 19.6924 7.96253 19.4247 6.89497 19.1569C6.8191 19.1381 6.79589 19.1194 6.83159 19.0391C7.09224 18.444 7.3496 17.8489 7.6037 17.2538C7.63583 17.178 7.676 17.1797 7.74384 17.1985C8.1116 17.2949 8.47846 17.3949 8.84889 17.477C9.31126 17.5796 9.58441 17.3984 9.69866 16.9414C10.0503 15.5305 10.4026 14.1199 10.7555 12.7095C11.0233 11.6384 11.2911 10.5673 11.5589 9.49615C11.6669 9.06234 11.4393 8.64459 10.9938 8.47321C10.6469 8.35502 10.2927 8.25931 9.93342 8.18669C9.82809 8.1608 9.72365 8.13313 9.61743 8.11349C9.55941 8.10278 9.55138 8.08047 9.56477 8.02423C9.70491 7.46813 9.84504 6.91204 9.97983 6.35415C10.003 6.25418 10.0628 6.28632 10.1173 6.29971C10.5404 6.40414 10.9617 6.51304 11.3857 6.61658C12.0266 6.7719 12.6621 6.95131 13.3066 7.09502C13.4128 7.11912 13.453 7.10573 13.4807 6.99326C13.686 6.14617 13.9002 5.29731 14.1055 4.45468C14.1314 4.34846 14.1635 4.31811 14.2751 4.34757C14.7589 4.4761 15.2453 4.5966 15.7318 4.71264C15.8345 4.73763 15.8443 4.77691 15.8211 4.87242C15.6086 5.7088 15.4024 6.54696 15.1909 7.38334C15.1686 7.4726 15.1775 7.49848 15.2721 7.5199C15.6506 7.60292 16.0291 7.69218 16.4048 7.78769C16.5129 7.81625 16.5432 7.78144 16.5673 7.68504C16.7672 6.8674 16.9725 6.05156 17.1716 5.23393C17.1993 5.12146 17.2305 5.08129 17.359 5.1161C17.8375 5.24553 18.3204 5.36336 18.8024 5.4785C18.897 5.50082 18.9158 5.53206 18.8917 5.62757C18.6756 6.4809 18.4677 7.33603 18.249 8.18847C18.2213 8.29737 18.249 8.3295 18.3454 8.36699C19.0152 8.58518 19.6528 8.89198 20.2413 9.27924C20.7938 9.65681 21.2517 10.1174 21.4999 10.7538C21.7677 11.451 21.715 12.1526 21.5061 12.8506C21.2116 13.839 20.5638 14.4638 19.5629 14.7251C19.529 14.7304 19.5067 14.7429 19.4719 14.7617ZM15.5926 18.9748H15.7086C16.1264 18.9614 16.537 18.9159 16.9181 18.7311C17.8812 18.2634 18.0874 16.9816 17.3269 16.2014C16.8806 15.7462 16.3254 15.4873 15.7443 15.2713C15.0302 15.0036 14.2778 14.85 13.5351 14.6706C13.4271 14.6447 13.4066 14.6786 13.3842 14.7697C13.0944 15.9473 12.8011 17.1238 12.5041 18.2991C12.48 18.3937 12.5095 18.4169 12.5934 18.4365C12.9121 18.5133 13.228 18.5999 13.5467 18.6775C14.2152 18.8501 14.9007 18.9483 15.5908 18.9703L15.5926 18.9748ZM16.362 13.387C16.5913 13.3911 16.8205 13.3713 17.0457 13.3281C17.6411 13.2032 18.0714 12.8818 18.2445 12.2811C18.4177 11.6804 18.2758 11.1386 17.7982 10.7047C17.545 10.4816 17.2575 10.3008 16.9467 10.1692C16.2531 9.85944 15.5131 9.70412 14.7758 9.5381C14.6866 9.51757 14.6794 9.57292 14.6643 9.63451C14.5571 10.0653 14.4491 10.4965 14.3402 10.9279C14.184 11.5527 14.0287 12.1838 13.868 12.8104C13.8448 12.8997 13.86 12.9389 13.9573 12.9604C14.143 12.9996 14.3242 13.0559 14.5089 13.1014C15.1177 13.2442 15.7291 13.3799 16.3602 13.3826L16.362 13.387Z" fill="white"/>
</svg>
