<svg width="9" height="14" viewBox="0 0 9 14" fill="none" xmlns="http://www.w3.org/2000/svg">
<g clip-path="url(#clip0_4005_21)">
<path d="M4.2527 9.52731C4.21145 9.54134 4.18794 9.50545 4.1599 9.48895C2.78507 8.67753 1.41176 7.86556 0.039963 7.05304C0.0266794 7.04633 0.0128887 7.04068 -0.00128174 7.03613V7.01799L0.0230537 7.00396C0.0576061 6.99489 0.0916197 6.98387 0.124929 6.97097L3.3647 5.49688C3.65341 5.36531 3.94213 5.2358 4.23084 5.10547H4.25146C4.25146 5.14671 4.25146 5.18342 4.25146 5.2226C4.25256 6.65764 4.25297 8.09255 4.2527 9.52731Z" fill="#393939"/>
<path d="M4.25469 5.10647H4.23407C4.23407 5.06522 4.2382 5.02398 4.2382 4.98067C4.2382 3.36883 4.2382 1.75685 4.2382 0.14473C4.23345 0.103326 4.23625 0.0614048 4.24645 0.0209961H4.25511C4.42462 0.271351 4.57228 0.535317 4.72818 0.793922C5.96332 2.84268 7.19778 4.89117 8.43155 6.93938C8.44351 6.95959 8.45299 6.98063 8.46371 7.0029C8.42878 6.99544 8.39445 6.98537 8.36102 6.97279C8.13458 6.87051 7.90733 6.76657 7.68295 6.66222C7.33155 6.50136 6.98 6.34079 6.62832 6.18048L4.93399 5.41292C4.70839 5.30898 4.48154 5.20793 4.25469 5.10647Z" fill="#343434"/>
<path d="M4.24787 0.018939C4.23767 0.0593477 4.23488 0.101269 4.23962 0.142673C4.23962 1.75452 4.23962 3.3665 4.23962 4.97861C4.23962 5.01986 4.23715 5.0611 4.2355 5.10441C3.94678 5.23474 3.65807 5.36425 3.36936 5.49582L0.129586 6.96991C0.0962759 6.98282 0.0622623 6.99383 0.02771 7.0029C0.121335 6.80823 0.243009 6.6317 0.353957 6.44528C1.63942 4.30853 2.92584 2.17219 4.21322 0.0362624C4.22173 0.02443 4.23096 0.0131346 4.24086 0.00244141L4.24787 0.018939Z" fill="#8C8C8C"/>
<path d="M4.25481 5.10645C4.48165 5.20791 4.7085 5.30896 4.93494 5.41124L6.62927 6.17881C6.98122 6.33884 7.33277 6.49942 7.6839 6.66055C7.90992 6.76407 8.13759 6.86883 8.36196 6.97112C8.39539 6.9837 8.42972 6.99376 8.46466 7.00123C8.5059 7.05278 8.44486 7.05484 8.4263 7.06598C8.07448 7.27633 7.72102 7.48379 7.36837 7.69249C6.35623 8.29136 5.34436 8.8901 4.33276 9.4887C4.30719 9.50354 4.27956 9.51468 4.25275 9.52747C4.25275 8.09298 4.25275 6.65835 4.25275 5.22358C4.25316 5.1844 4.2544 5.14563 4.25481 5.10645Z" fill="#141414"/>
<path d="M4.23816 10.3422L6.88813 8.78022C7.39407 8.4816 7.89973 8.18272 8.40511 7.88356L8.4509 7.8584C8.45543 7.89964 8.42697 7.9215 8.40965 7.94542C7.2548 9.57349 6.09995 11.201 4.9451 12.828C4.7265 13.1365 4.50831 13.4466 4.28765 13.7527C4.27611 13.7688 4.25837 13.8442 4.2229 13.7642C4.25095 13.7403 4.23857 13.7081 4.23857 13.6817C4.23885 12.5681 4.23871 11.4549 4.23816 10.3422Z" fill="#3D3D3C"/>
<path d="M4.23793 10.3424C4.23793 11.4552 4.23793 12.5677 4.23793 13.68C4.23793 13.7084 4.25031 13.7406 4.22226 13.7624C4.16328 13.727 4.13771 13.6635 4.09853 13.6111C2.75945 11.7248 1.42106 9.83829 0.0833543 7.95148C0.0664439 7.92756 0.05077 7.90199 0.0334473 7.87559C0.0680928 7.85538 0.0866541 7.88301 0.106864 7.89498C1.46107 8.69457 2.81499 9.49486 4.16864 10.2958C4.1938 10.3115 4.21525 10.3276 4.23793 10.3424Z" fill="#8C8C8C"/>
<path d="M4.24806 0.0189209L4.23816 0.00366057C4.25631 -0.00788794 4.25383 0.00902223 4.25672 0.0176836L4.24806 0.0189209Z" fill="#393939"/>
</g>
<defs>
<clipPath id="clip0_4005_21">
<rect width="8.47826" height="13.8009" fill="white"/>
</clipPath>
</defs>
</svg>
