<svg width="13" height="21" viewBox="0 0 13 21" fill="none" xmlns="http://www.w3.org/2000/svg">
<g clip-path="url(#clip0_4005_62)">
<path d="M6.21552 13.9246C6.15524 13.9451 6.12088 13.8927 6.07989 13.8685C4.07053 12.6826 2.06339 11.4959 0.0584497 10.3084C0.0390353 10.2986 0.0188795 10.2903 -0.00183105 10.2837V10.2571L0.0337362 10.2366C0.0842357 10.2234 0.133948 10.2073 0.182631 10.1884L4.91768 8.03398C5.33965 7.84168 5.76161 7.6524 6.18358 7.46191H6.21372C6.21372 7.52219 6.21372 7.57584 6.21372 7.63311C6.21532 9.73048 6.21593 11.8276 6.21552 13.9246Z" fill="#393939"/>
<path d="M6.21837 7.46337H6.18823C6.18823 7.40309 6.19426 7.34281 6.19426 7.27952C6.19426 4.92375 6.19426 2.56778 6.19426 0.211604C6.18733 0.15109 6.19142 0.0898206 6.20632 0.0307617H6.21898C6.46673 0.396666 6.68254 0.782462 6.9104 1.16042C8.7156 4.15477 10.5198 7.14871 12.323 10.1423C12.3405 10.1718 12.3543 10.2025 12.37 10.2351C12.319 10.2242 12.2688 10.2095 12.2199 10.1911C11.889 10.0416 11.5568 9.88967 11.2289 9.73716C10.7153 9.50207 10.2015 9.26738 9.68753 9.03309L7.2112 7.91126C6.88146 7.75935 6.54992 7.61167 6.21837 7.46337Z" fill="#343434"/>
<path d="M6.20839 0.0275299C6.19349 0.0865887 6.1894 0.147858 6.19633 0.208372C6.19633 2.56414 6.19633 4.92011 6.19633 7.27629C6.19633 7.33657 6.19272 7.39685 6.19031 7.46014C5.76834 7.65063 5.34638 7.83991 4.92441 8.03221L0.189362 10.1866C0.140678 10.2055 0.0909659 10.2216 0.0404663 10.2349C0.177304 9.95034 0.355134 9.69234 0.517289 9.41987C2.39604 6.29693 4.27619 3.17459 6.15775 0.0528486C6.17018 0.0355551 6.18368 0.0190464 6.19814 0.00341797L6.20839 0.0275299Z" fill="#8C8C8C"/>
<path d="M6.21853 7.46338C6.55007 7.61167 6.88162 7.75936 7.21256 7.90885L9.68889 9.03068C10.2033 9.26457 10.7171 9.49926 11.2303 9.73476C11.5606 9.88606 11.8934 10.0392 12.2213 10.1887C12.2702 10.2071 12.3203 10.2218 12.3714 10.2327C12.4317 10.308 12.3425 10.311 12.3153 10.3273C11.8011 10.6347 11.2845 10.938 10.7691 11.243C9.28983 12.1183 7.81095 12.9933 6.33246 13.8682C6.29509 13.8899 6.2547 13.9062 6.21552 13.9249C6.21552 11.8283 6.21552 9.73154 6.21552 7.63458C6.21612 7.57731 6.21793 7.52065 6.21853 7.46338Z" fill="#141414"/>
<path d="M6.19424 15.1155L10.0673 12.8326C10.8067 12.3962 11.5458 11.9594 12.2844 11.5221L12.3513 11.4854C12.3579 11.5456 12.3164 11.5776 12.291 11.6125C10.6032 13.992 8.91531 16.3707 7.22745 18.7486C6.90796 19.1995 6.58908 19.6528 6.26658 20.1001C6.2497 20.1236 6.22378 20.2339 6.17194 20.1169C6.21293 20.082 6.19484 20.035 6.19484 19.9964C6.19524 18.3688 6.19504 16.7418 6.19424 15.1155Z" fill="#3D3D3C"/>
<path d="M6.19391 15.1159C6.19391 16.7423 6.19391 18.3682 6.19391 19.9938C6.19391 20.0354 6.21199 20.0824 6.171 20.1144C6.0848 20.0625 6.04742 19.9697 5.99016 19.8931C4.03304 17.1363 2.07693 14.3791 0.12183 11.6214C0.0971151 11.5864 0.0742071 11.5491 0.0488892 11.5105C0.099525 11.481 0.126653 11.5213 0.156191 11.5388C2.13541 12.7075 4.11422 13.8771 6.09263 15.0478C6.12941 15.0707 6.16075 15.0942 6.19391 15.1159Z" fill="#8C8C8C"/>
<path d="M6.20874 0.0275222L6.19427 0.00521861C6.2208 -0.01166 6.21718 0.0130549 6.2214 0.0257138L6.20874 0.0275222Z" fill="#393939"/>
</g>
<defs>
<clipPath id="clip0_4005_62">
<rect width="12.3913" height="20.1705" fill="white"/>
</clipPath>
</defs>
</svg>
