<svg width="19" height="19" viewBox="0 0 19 19" fill="none" xmlns="http://www.w3.org/2000/svg">
<rect width="19" height="19" rx="9.5" fill="#3E5C98"/>
<path fill-rule="evenodd" clip-rule="evenodd" d="M11.0498 3.52799C11.0843 3.52678 11.119 3.5325 11.1514 3.54459C11.1836 3.55664 11.2131 3.57489 11.2383 3.5983C11.2635 3.62186 11.2845 3.65086 11.2988 3.68229C11.313 3.71359 11.3211 3.74756 11.3223 3.7819V3.86783L9.73633 9.25748L11.2314 8.80533L10.9141 9.89225L9.39648 10.3219L8.42285 13.6061H13.6318C13.6663 13.6049 13.7011 13.6106 13.7334 13.6227C13.7656 13.6348 13.7952 13.653 13.8203 13.6764C13.8456 13.7 13.8656 13.729 13.8799 13.7604C13.8941 13.7918 13.9022 13.8256 13.9033 13.86V13.946L13.4512 15.5085C13.4312 15.5824 13.386 15.6478 13.3242 15.693C13.2626 15.7381 13.1876 15.7606 13.1113 15.7575H5.13867L6.47559 11.2057L4.98047 11.6589L5.32031 10.6169L6.81543 10.1637L8.69434 3.77701C8.715 3.70372 8.75995 3.63951 8.82129 3.5944C8.88277 3.54931 8.95798 3.52571 9.03418 3.52799H11.0498Z" fill="white"/>
</svg>
