<svg width="29" height="29" viewBox="0 0 29 29" fill="none" xmlns="http://www.w3.org/2000/svg">
<rect width="28.5" height="28.5" rx="6.19565" fill="#3E5C98"/>
<path fill-rule="evenodd" clip-rule="evenodd" d="M16.5752 5.29174C16.6268 5.28994 16.6781 5.29906 16.7266 5.31713C16.7749 5.3352 16.8197 5.36208 16.8574 5.39721C16.8952 5.43243 16.9258 5.47527 16.9473 5.52221C16.9687 5.56935 16.9807 5.62084 16.9824 5.6726V5.80151L14.6045 13.8865L16.8467 13.2068L16.3711 14.8376L14.0957 15.4832L12.6348 20.4089H20.4482C20.4999 20.4072 20.5512 20.4162 20.5996 20.4343C20.648 20.4524 20.6927 20.4792 20.7305 20.5144C20.7682 20.5496 20.7989 20.5924 20.8203 20.6394C20.8418 20.6865 20.8537 20.738 20.8555 20.7898V20.9187L20.1758 23.2624C20.1458 23.3733 20.0789 23.4709 19.9863 23.5388C19.8939 23.6065 19.7814 23.6411 19.667 23.6365H7.70898L9.71289 16.8083L7.4707 17.488L7.98047 15.9246L10.2227 15.2458L13.042 5.66577C13.073 5.55564 13.1402 5.45906 13.2324 5.39135C13.3248 5.32363 13.4373 5.28822 13.5518 5.29174H16.5752Z" fill="white"/>
</svg>
