<svg width="19" height="19" viewBox="0 0 19 19" fill="none" xmlns="http://www.w3.org/2000/svg">
<rect width="19" height="19" rx="9.5" fill="#26A07B"/>
<path d="M9.49323 4.3663C10.8971 4.3663 12.301 4.3663 13.7092 4.3663C13.8345 4.3663 13.869 4.39653 13.869 4.52396C13.869 5.13952 13.869 5.75292 13.869 6.36631C13.869 6.4851 13.8345 6.51101 13.7222 6.50885C12.7481 6.50885 11.7783 6.50885 10.7978 6.50885C10.6703 6.50885 10.6444 6.54341 10.6466 6.6622C10.6552 7.03226 10.6552 7.40159 10.6466 7.7702C10.6466 7.88683 10.6703 7.92355 10.7956 7.93003C11.8212 7.96385 12.8408 8.10134 13.8388 8.3404C14.1668 8.41657 14.4844 8.53186 14.7848 8.68381C14.9058 8.74359 15.0154 8.82399 15.1088 8.9214C15.1443 8.9532 15.1728 8.99214 15.1922 9.03569C15.2117 9.07923 15.2218 9.12639 15.2218 9.17409C15.2218 9.22179 15.2117 9.26895 15.1922 9.3125C15.1728 9.35604 15.1443 9.39498 15.1088 9.42679C14.9261 9.60461 14.7041 9.73704 14.4608 9.81341C13.8686 10.0237 13.2552 10.1686 12.6315 10.2454C12.0148 10.3397 11.3931 10.3974 10.7697 10.4182C10.6531 10.4182 10.6531 10.4786 10.6531 10.565C10.6531 11.9646 10.6531 13.3728 10.6531 14.7637C10.6531 14.9063 10.6163 14.9365 10.4781 14.9365C9.80424 14.9365 9.12821 14.9365 8.45435 14.9365C8.33987 14.9365 8.31828 14.9041 8.31828 14.7983C8.31828 13.4117 8.31828 12.0272 8.31828 10.6406C8.31828 10.4246 8.31828 10.4246 8.10229 10.4246C7.0936 10.3801 6.09169 10.2369 5.11092 9.99699C4.74046 9.91675 4.38532 9.77746 4.05908 9.58445C3.62712 9.31447 3.62712 9.01426 4.05908 8.7486C4.4945 8.50285 4.96967 8.33545 5.46297 8.254C6.36269 8.0659 7.27665 7.95391 8.19516 7.91923C8.301 7.91923 8.32476 7.88467 8.3226 7.78532C8.3226 7.40951 8.3226 7.03586 8.3226 6.6622C8.3226 6.54125 8.29884 6.50022 8.16709 6.50238C7.19516 6.50238 6.22324 6.50238 5.25347 6.50238C5.12172 6.50238 5.09796 6.46134 5.09796 6.34039C5.09796 5.73132 5.09796 5.12224 5.09796 4.51101C5.09796 4.3771 5.14116 4.35767 5.25995 4.35767C6.67248 4.36847 8.08285 4.3663 9.49323 4.3663ZM9.56882 10.0596C10.3058 10.0674 11.0426 10.0357 11.7762 9.96459C12.4323 9.91106 13.0827 9.80124 13.72 9.6363C13.9767 9.57769 14.2224 9.47852 14.4479 9.34255C14.7351 9.15465 14.7308 8.95595 14.4479 8.76804C14.3078 8.67471 14.1551 8.60197 13.9943 8.55206C12.929 8.25874 11.8312 8.09984 10.7265 8.07906C10.625 8.07906 10.6423 8.13522 10.6423 8.19353C10.6423 8.6255 10.6423 9.07042 10.6423 9.50886C10.6423 9.60822 10.6185 9.64925 10.5148 9.65357C9.8172 9.67949 9.11957 9.68381 8.42195 9.65357C8.33123 9.65357 8.30964 9.61685 8.30964 9.53046C8.30964 9.08553 8.30964 8.64277 8.30964 8.20001C8.30964 8.10065 8.28156 8.07906 8.18437 8.08122C7.70488 8.10282 7.2254 8.14385 6.74808 8.20001C6.14147 8.26057 5.5424 8.38139 4.95973 8.56069C4.78746 8.60876 4.62304 8.6815 4.47161 8.77668C4.21027 8.95594 4.21243 9.15033 4.47161 9.32959C4.57265 9.39576 4.68055 9.4508 4.79343 9.49374C5.17472 9.63406 5.56904 9.73608 5.97054 9.79829C7.15989 9.99153 8.36403 10.079 9.56882 10.0596Z" fill="white"/>
</svg>
