<svg width="29" height="29" viewBox="0 0 29 29" fill="none" xmlns="http://www.w3.org/2000/svg">
<rect width="28.5" height="28.5" rx="6.19565" fill="#26A07B"/>
<path d="M14.2398 6.54957C16.3457 6.54957 18.4515 6.54957 20.5638 6.54957C20.7517 6.54957 20.8036 6.59492 20.8036 6.78607C20.8036 7.7094 20.8036 8.6295 20.8036 9.54959C20.8036 9.72777 20.7517 9.76664 20.5833 9.7634C19.1221 9.7634 17.6675 9.7634 16.1966 9.7634C16.0055 9.7634 15.9666 9.81524 15.9699 9.99343C15.9828 10.5485 15.9828 11.1025 15.9699 11.6554C15.9699 11.8304 16.0055 11.8854 16.1934 11.8952C17.7319 11.9459 19.2613 12.1521 20.7582 12.5107C21.2501 12.625 21.7266 12.7979 22.1772 13.0258C22.3587 13.1155 22.5231 13.2361 22.6632 13.3822C22.7165 13.4299 22.7592 13.4883 22.7884 13.5537C22.8176 13.619 22.8327 13.6897 22.8327 13.7613C22.8327 13.8328 22.8176 13.9036 22.7884 13.9689C22.7592 14.0342 22.7165 14.0926 22.6632 14.1403C22.3891 14.407 22.0562 14.6057 21.6913 14.7202C20.803 15.0357 19.8828 15.253 18.9472 15.3682C18.0222 15.5097 17.0897 15.5962 16.1545 15.6274C15.9796 15.6274 15.9796 15.7181 15.9796 15.8477C15.9796 17.947 15.9796 20.0593 15.9796 22.1457C15.9796 22.3596 15.9245 22.4049 15.7172 22.4049C14.7064 22.4049 13.6923 22.4049 12.6815 22.4049C12.5098 22.4049 12.4774 22.3563 12.4774 22.1976C12.4774 20.1176 12.4774 18.041 12.4774 15.961C12.4774 15.6371 12.4774 15.6371 12.1534 15.6371C10.6404 15.5703 9.13753 15.3554 7.66638 14.9956C7.11069 14.8752 6.57797 14.6663 6.08862 14.3768C5.44067 13.9718 5.44067 13.5215 6.08862 13.123C6.74175 12.7544 7.45451 12.5033 8.19446 12.3811C9.54404 12.099 10.915 11.931 12.2927 11.879C12.4515 11.879 12.4871 11.8271 12.4839 11.6781C12.4839 11.1144 12.4839 10.5539 12.4839 9.99343C12.4839 9.812 12.4483 9.75045 12.2506 9.75369C10.7927 9.75369 9.33486 9.75369 7.88021 9.75369C7.68258 9.75369 7.64695 9.69214 7.64695 9.51071C7.64695 8.5971 7.64695 7.68348 7.64695 6.76663C7.64695 6.56577 7.71174 6.53662 7.88993 6.53662C10.0087 6.55282 12.1243 6.54957 14.2398 6.54957ZM14.3532 15.0896C15.4587 15.1013 16.5639 15.0537 17.6643 14.947C18.6485 14.8667 19.624 14.702 20.58 14.4546C20.9651 14.3667 21.3336 14.2179 21.6718 14.014C22.1027 13.7321 22.0962 13.434 21.6718 13.1522C21.4617 13.0122 21.2326 12.9031 20.9915 12.8282C19.3935 12.3882 17.7468 12.1499 16.0897 12.1187C15.9375 12.1187 15.9634 12.2029 15.9634 12.2904C15.9634 12.9384 15.9634 13.6057 15.9634 14.2634C15.9634 14.4124 15.9277 14.474 15.7722 14.4805C14.7258 14.5194 13.6794 14.5258 12.6329 14.4805C12.4969 14.4805 12.4645 14.4254 12.4645 14.2958C12.4645 13.6284 12.4645 12.9643 12.4645 12.3001C12.4645 12.1511 12.4223 12.1187 12.2765 12.1219C11.5573 12.1543 10.8381 12.2159 10.1221 12.3001C9.2122 12.391 8.31359 12.5722 7.4396 12.8412C7.18119 12.9133 6.93457 13.0224 6.70742 13.1651C6.31541 13.434 6.31865 13.7256 6.70742 13.9945C6.85897 14.0938 7.02082 14.1763 7.19014 14.2407C7.76208 14.4512 8.35355 14.6042 8.95581 14.6976C10.7398 14.9874 12.546 15.1186 14.3532 15.0896Z" fill="white"/>
</svg>
