<svg width="29" height="29" viewBox="0 0 29 29" fill="none" xmlns="http://www.w3.org/2000/svg">
<rect width="28.5" height="28.5" rx="6.19565" fill="#2775CA"/>
<path d="M17.7211 15.8356C17.7211 14.0086 16.6269 13.382 14.4383 13.1215C12.875 12.9124 12.5623 12.4949 12.5623 11.7641C12.5623 11.0333 13.0834 10.563 14.1256 10.563C15.0636 10.563 15.5872 10.8763 15.8452 11.6592C15.8719 11.7349 15.9212 11.8006 15.9865 11.8473C16.0517 11.894 16.1297 11.9195 16.21 11.9204H17.0545C17.1029 11.9216 17.151 11.913 17.1959 11.8951C17.2408 11.8772 17.2816 11.8503 17.3158 11.8162C17.3501 11.782 17.377 11.7412 17.395 11.6963C17.413 11.6514 17.4217 11.6034 17.4206 11.555V11.5029C17.3188 10.9373 17.0331 10.421 16.608 10.0343C16.1829 9.64752 15.642 9.41187 15.0693 9.36388V8.1177C15.0693 7.90863 14.913 7.7523 14.6524 7.7002H13.8676C13.6585 7.7002 13.5022 7.85652 13.4501 8.1177V9.31686C11.8868 9.52529 10.8967 10.5681 10.8967 11.8715C10.8967 13.5917 11.9389 14.2698 14.1281 14.5303C15.5897 14.7909 16.0562 15.1023 16.0562 15.9379C16.0562 16.7736 15.326 17.3462 14.3366 17.3462C12.9811 17.3462 12.5121 16.7742 12.3558 15.99C12.3401 15.9041 12.2954 15.8262 12.2291 15.7692C12.1628 15.7123 12.079 15.6799 11.9917 15.6774H11.0982C11.0499 15.6763 11.0018 15.6849 10.957 15.7029C10.9122 15.7209 10.8714 15.7477 10.8373 15.7819C10.8031 15.816 10.7762 15.8568 10.7583 15.9016C10.7403 15.9465 10.7316 15.9945 10.7328 16.0428V16.0949C10.9418 17.3995 11.7775 18.3388 13.5003 18.5993V19.8557C13.5003 20.0648 13.6566 20.2211 13.9172 20.2732H14.6988C14.9072 20.2732 15.0636 20.1169 15.1157 19.8557V18.6025C16.679 18.342 17.7211 17.2451 17.7211 15.8356Z" fill="white"/>
<path d="M11.6221 21.3123C7.55504 19.8507 5.46494 15.3121 6.97866 11.294C7.76093 9.1022 9.48309 7.43279 11.6221 6.64988C11.8312 6.54566 11.9354 6.38933 11.9354 6.12815V5.39798C11.9354 5.18891 11.8312 5.03258 11.6221 4.98047C11.57 4.98047 11.4658 4.98047 11.4137 5.03258C6.45693 6.59777 3.74342 11.8678 5.30861 16.8252C5.76342 18.2571 6.55527 19.5589 7.61762 20.6213C8.67997 21.6836 9.98179 22.4755 11.4137 22.9303C11.4571 22.9553 11.5058 22.9698 11.5559 22.9724C11.606 22.975 11.6559 22.9657 11.7017 22.9454C11.7475 22.925 11.7879 22.894 11.8194 22.8551C11.851 22.8161 11.8729 22.7702 11.8833 22.7212C11.9354 22.6691 11.9354 22.617 11.9354 22.5128V21.782C11.9354 21.6256 11.7804 21.4166 11.6221 21.3123ZM17.1508 5.03258C17.1074 5.00752 17.0587 4.99306 17.0087 4.99041C16.9587 4.98775 16.9087 4.99696 16.8629 5.01729C16.8172 5.03761 16.7768 5.06846 16.7452 5.10735C16.7136 5.14623 16.6917 5.19203 16.6812 5.24101C16.6291 5.29312 16.6291 5.34524 16.6291 5.45009V6.18026C16.6291 6.38933 16.7854 6.59777 16.9424 6.70198C21.0094 8.16359 23.0995 12.7028 21.5858 16.7203C21.2011 17.7883 20.5854 18.7583 19.7828 19.561C18.9802 20.3638 18.0103 20.9795 16.9424 21.3644C16.7333 21.4687 16.6291 21.6256 16.6291 21.8862V22.6163C16.6291 22.8248 16.7333 22.9817 16.9424 23.0338C16.9945 23.0338 17.0987 23.0339 17.1508 22.9817C22.1076 21.4159 24.8211 16.1459 23.2559 11.1891C22.8025 9.75061 22.0119 8.44128 20.9499 7.37026C19.888 6.29923 18.5854 5.49753 17.1508 5.03195V5.03258Z" fill="white"/>
</svg>
