<svg width="537" height="269" viewBox="0 0 537 269" fill="none" xmlns="http://www.w3.org/2000/svg">
<g clip-path="url(#clip0_2012_1727)">
<path d="M497.686 168.003L510.873 203.95L524.64 187.792L511.451 151.844L497.686 168.003Z" fill="#8C0072"/>
<path d="M429.097 73.5374L415.332 89.6965L391.386 154.246L405.885 150.432L398.892 166.526L427.846 154.325L419.985 146.719L434.819 142.816L448.584 126.657L424.411 133.02L424.43 140.052L419.308 138.464L415.159 140.418L410.676 136.635L405.153 138.089L429.097 73.5374Z" fill="#8C0072"/>
<path d="M520.832 161.911L534.597 145.752L520.542 107.437L497.396 113.529L487.322 86.0685L481.855 79.9829L482.259 72.2653L472.418 65.9934L478.821 62.8987L456.284 1.46472L405.303 14.8827L391.536 31.0419L442.519 17.6218L450.588 39.6231L421.991 56.4765L448.584 96.0066L474.097 103.701L483.631 129.686L506.775 123.594L520.832 161.911Z" fill="#8C0072"/>
<path d="M510.873 205.414C510.787 205.414 510.702 205.406 510.615 205.391C510.103 205.3 509.678 204.942 509.498 204.453L496.31 168.505C496.128 168.01 496.228 167.453 496.571 167.051L510.338 150.894C510.674 150.498 511.199 150.312 511.71 150.403C512.222 150.494 512.647 150.851 512.827 151.34L526.014 187.289C526.197 187.784 526.097 188.341 525.754 188.743L511.989 204.9C511.71 205.23 511.299 205.414 510.876 205.414H510.873ZM499.354 168.3L511.384 201.092L522.968 187.494L510.939 154.702L499.352 168.3H499.354Z" fill="#4A003D"/>
<path d="M398.892 167.99C398.509 167.99 398.132 167.84 397.851 167.557C397.43 167.131 397.311 166.492 397.548 165.944L403.34 152.617L391.757 155.665C391.23 155.802 390.667 155.637 390.298 155.233C389.932 154.829 389.82 154.253 390.01 153.741L413.957 89.1908C414.016 89.0299 414.103 88.8817 414.215 88.7505L427.98 72.5935C428.44 72.0537 429.221 71.9204 429.835 72.2802C430.449 72.64 430.713 73.3872 430.468 74.0519L407.503 135.96L410.301 135.223C410.761 135.105 411.254 135.213 411.618 135.52L415.384 138.695L418.682 137.143C419.012 136.989 419.391 136.963 419.738 137.069L422.96 138.066L422.945 133.026C422.945 132.359 423.391 131.775 424.037 131.606L448.21 125.243C448.826 125.08 449.482 125.338 449.821 125.88C450.162 126.422 450.111 127.123 449.696 127.61L435.931 143.769C435.738 143.997 435.478 144.158 435.19 144.234L422.869 147.477L428.863 153.275C429.217 153.616 429.375 154.113 429.284 154.596C429.193 155.078 428.867 155.485 428.412 155.675L399.455 167.876C399.273 167.952 399.079 167.99 398.888 167.99H398.892ZM405.886 148.967C406.307 148.967 406.716 149.149 406.997 149.478C407.361 149.903 407.452 150.5 407.228 151.014L401.688 163.757L425.235 153.836L418.965 147.771C418.584 147.403 418.434 146.861 418.567 146.349C418.701 145.837 419.101 145.439 419.611 145.303L434 141.516L444.442 129.261L425.879 134.146L425.895 140.045C425.895 140.511 425.675 140.949 425.301 141.226C424.928 141.504 424.445 141.586 423.997 141.449L419.414 140.031L415.78 141.741C415.261 141.984 414.649 141.904 414.213 141.536L410.31 138.244L405.522 139.506C404.995 139.645 404.432 139.478 404.063 139.074C403.697 138.669 403.585 138.094 403.776 137.581L424.843 80.7852L416.609 90.4502L393.732 152.115L405.507 149.016C405.632 148.984 405.757 148.967 405.88 148.967H405.886Z" fill="#4A003D"/>
<path d="M520.83 163.374C520.743 163.374 520.659 163.365 520.572 163.351C520.06 163.26 519.634 162.902 519.454 162.413L505.856 125.349L483.999 131.102C483.269 131.295 482.513 130.901 482.253 130.19L472.971 104.891L448.156 97.4058C447.832 97.3084 447.553 97.101 447.365 96.8216L420.772 57.2915C420.546 56.9571 420.469 56.5443 420.558 56.1506C420.647 55.7569 420.895 55.4182 421.242 55.2129L448.789 38.9776L441.597 19.3745L391.902 32.4538C391.282 32.6147 390.63 32.3585 390.291 31.8166C389.95 31.2748 390.001 30.5741 390.416 30.0873L404.183 13.9281C404.376 13.6995 404.636 13.5386 404.924 13.4624L455.912 0.0486932C456.642 -0.14393 457.398 0.2519 457.658 0.961006L480.195 62.395C480.453 63.102 480.136 63.8894 479.459 64.2175L475.418 66.1712L483.044 71.0334C483.489 71.317 483.747 71.8166 483.72 72.3436L483.347 79.4559L488.41 85.0906C488.535 85.2282 488.63 85.3891 488.696 85.5648L498.312 111.774L520.17 106.021C520.9 105.828 521.656 106.224 521.916 106.933L535.971 145.248C536.153 145.744 536.054 146.3 535.711 146.702L521.946 162.862C521.666 163.192 521.256 163.376 520.832 163.376L520.83 163.374ZM506.777 122.131C507.378 122.131 507.935 122.504 508.151 123.092L521.342 159.054L532.927 145.454L519.626 109.192L497.768 114.945C497.04 115.138 496.28 114.744 496.022 114.033L486.046 86.8369L480.767 80.9609C480.509 80.673 480.373 80.2941 480.394 79.9067L480.754 73.0422L471.635 67.2275C471.188 66.9417 470.93 66.438 470.962 65.9066C470.992 65.3775 471.307 64.9054 471.785 64.6747L476.995 62.1579L455.372 3.21956L406.122 16.1824L395.68 28.4383L442.149 16.2078C442.877 16.0152 443.637 16.4089 443.895 17.1202L451.966 39.1194C452.21 39.784 451.945 40.5249 451.336 40.8847L424.076 56.9507L449.509 94.7577L474.522 102.302C474.963 102.435 475.316 102.767 475.473 103.199L484.547 127.933L506.405 122.18C506.529 122.146 506.654 122.131 506.779 122.131H506.777Z" fill="#4A003D"/>
<path d="M520.833 161.911L506.778 123.596L483.631 129.688L471.274 96.0045L468.192 97.2279L463.069 85.8399H456.48L455.504 76.7295L439.237 70.2226L451.925 60.4624L443.14 49.5633L455.384 52.6876L442.52 17.6239L391.539 31.0419L339.01 170.067L353.715 193.218L360.624 191.903L364.61 194.382L370.384 190.561L371.237 198.49L374.38 200.455L448.781 180.873L456.628 202.26L467.54 194.668L468.842 203.949H478.115L472.747 208.333L474.239 213.593L510.876 203.952L497.689 168.003L520.835 161.911H520.833ZM420.771 153.654L413.102 151.275L404.91 158.778L405.886 150.43L391.386 154.246L415.331 89.6945L434.817 142.814L419.983 146.717L420.769 153.652L420.771 153.654Z" fill="#FF2AD8"/>
<path d="M474.238 215.056C473.598 215.056 473.012 214.635 472.83 213.991L471.338 208.731C471.179 208.17 471.367 207.567 471.82 207.196L474.007 205.412H468.842C468.112 205.412 467.494 204.874 467.392 204.15L466.42 197.229L457.462 203.463C457.09 203.721 456.618 203.793 456.186 203.657C455.754 203.522 455.409 203.192 455.253 202.766L447.865 182.63L374.753 201.873C374.364 201.977 373.947 201.913 373.604 201.699L370.46 199.735C370.079 199.496 369.827 199.096 369.781 198.649L369.184 193.11L365.416 195.603C364.938 195.919 364.322 195.929 363.835 195.624L360.334 193.448L353.986 194.655C353.393 194.765 352.798 194.509 352.477 194.003L337.772 170.852C337.524 170.463 337.475 169.98 337.638 169.55L390.167 30.5253C390.334 30.0829 390.705 29.7485 391.164 29.6278L442.148 16.2099C442.876 16.0172 443.636 16.4109 443.894 17.1222L456.758 52.1859C456.944 52.696 456.834 53.2675 456.47 53.6718C456.106 54.074 455.551 54.2455 455.022 54.11L447.04 52.0737L453.064 59.5479C453.312 59.8548 453.424 60.2485 453.377 60.6401C453.331 61.0317 453.127 61.3873 452.816 61.6286L442.163 69.8225L456.046 75.3747C456.55 75.5758 456.902 76.0394 456.959 76.5791L457.795 84.3814H463.07C463.645 84.3814 464.168 84.7201 464.405 85.245L468.954 95.3546L470.736 94.6476C471.103 94.5015 471.515 94.51 471.875 94.6709C472.235 94.8317 472.517 95.1323 472.652 95.5027L484.552 127.935L506.41 122.182C507.14 121.989 507.896 122.383 508.156 123.094L522.211 161.409C522.353 161.797 522.326 162.224 522.135 162.591C521.945 162.957 521.608 163.223 521.21 163.329L499.619 169.011L512.254 203.448C512.396 203.835 512.368 204.263 512.178 204.629C511.987 204.993 511.651 205.262 511.253 205.368L474.616 215.011C474.492 215.045 474.367 215.06 474.242 215.06L474.238 215.056ZM474.417 208.858L475.256 211.811L508.948 202.942L496.313 168.505C496.171 168.117 496.199 167.69 496.389 167.324C496.58 166.957 496.916 166.691 497.314 166.585L518.905 160.903L505.862 125.349L484.004 131.102C483.274 131.295 482.518 130.901 482.258 130.19L470.417 97.9179L468.732 98.5868C468.002 98.8768 467.178 98.5402 466.857 97.8269L462.121 87.3025H456.478C455.731 87.3025 455.102 86.7373 455.022 85.9944L454.139 77.7603L438.691 71.5794C438.202 71.3847 437.857 70.9423 437.785 70.4215C437.713 69.9008 437.925 69.3801 438.342 69.0605L449.844 60.2125L442 50.4798C441.604 49.9887 441.568 49.3008 441.909 48.7695C442.249 48.2382 442.887 47.9863 443.503 48.1429L453.053 50.5793L441.606 19.3765L392.642 32.2653L340.638 169.9L354.418 191.594L360.351 190.466C360.711 190.398 361.085 190.466 361.397 190.661L364.584 192.642L369.576 189.34C370.003 189.058 370.545 189.018 371.007 189.236C371.468 189.454 371.783 189.896 371.838 190.404L372.615 197.627L374.62 198.88L448.409 179.459C449.137 179.264 449.897 179.66 450.155 180.369L457.348 199.974L466.704 193.465C467.121 193.175 467.659 193.12 468.127 193.326C468.592 193.529 468.92 193.961 468.99 194.464L470.116 202.485H478.115C478.736 202.485 479.286 202.874 479.496 203.456C479.703 204.04 479.523 204.69 479.043 205.082L474.42 208.856L474.417 208.858ZM404.91 160.243C404.684 160.243 404.455 160.19 404.243 160.082C403.699 159.805 403.386 159.216 403.456 158.609L404.184 152.394L391.759 155.665C391.234 155.804 390.669 155.637 390.301 155.233C389.934 154.828 389.822 154.253 390.013 153.74L413.959 89.1906C414.171 88.617 414.719 88.236 415.331 88.236H415.333C415.947 88.236 416.493 88.6191 416.705 89.1949L436.191 142.314C436.333 142.702 436.306 143.129 436.115 143.495C435.925 143.862 435.588 144.128 435.19 144.234L421.582 147.816L422.225 153.493C422.282 153.984 422.085 154.471 421.704 154.786C421.323 155.102 420.809 155.203 420.337 155.057L413.47 152.928L405.897 159.862C405.621 160.116 405.266 160.247 404.908 160.247L404.91 160.243ZM405.886 148.967C406.235 148.967 406.576 149.092 406.845 149.325C407.209 149.642 407.395 150.121 407.34 150.601L406.822 155.044L412.116 150.197C412.499 149.846 413.041 149.723 413.538 149.877L419.065 151.592L418.531 146.884C418.449 146.163 418.91 145.489 419.613 145.303L432.891 141.808L415.325 93.9258L393.74 152.113L405.516 149.014C405.638 148.982 405.765 148.965 405.888 148.965L405.886 148.967Z" fill="#4A003D"/>
<path d="M472.421 67.4582C472.318 67.4582 472.21 67.4476 472.106 67.4243L459.581 64.6598C458.792 64.4863 458.292 63.7031 458.468 62.9156C458.641 62.1261 459.427 61.6287 460.212 61.8022L472.737 64.5667C473.526 64.7403 474.026 65.5235 473.85 66.3109C473.7 66.9946 473.092 67.4603 472.421 67.4603V67.4582Z" fill="#4A003D"/>
<path d="M472.418 83.7254C471.758 83.7254 471.159 83.2745 470.996 82.6035C470.806 81.8182 471.29 81.0266 472.076 80.8361L481.512 78.5585C482.297 78.3658 483.087 78.8527 483.277 79.638C483.468 80.4233 482.983 81.215 482.198 81.4055L472.761 83.6831C472.647 83.7106 472.531 83.7254 472.416 83.7254H472.418Z" fill="#4A003D"/>
<path d="M413.106 152.739C413.015 152.739 412.924 152.731 412.831 152.714C412.037 152.564 411.514 151.797 411.664 151.004L413.72 140.145C413.87 139.351 414.634 138.826 415.43 138.978C416.224 139.129 416.747 139.895 416.596 140.689L414.541 151.548C414.408 152.25 413.794 152.739 413.104 152.739H413.106Z" fill="#4A003D"/>
<path d="M477.137 94.5417C476.329 94.5417 475.673 93.8856 475.673 93.077V88.1958L474.445 87.0866C473.948 86.6357 473.821 85.9055 474.136 85.3128L476.737 80.4316C477.118 79.7182 478.005 79.4494 478.719 79.8283C479.432 80.2093 479.701 81.0962 479.322 81.8096L477.258 85.6811L478.12 86.46C478.427 86.7373 478.6 87.131 478.6 87.5459V93.077C478.6 93.8856 477.944 94.5417 477.135 94.5417H477.137Z" fill="#4A003D"/>
<path d="M467.277 66.3236C466.767 66.3236 466.272 66.0569 466.001 65.5806L463.742 61.5905C463.548 61.2455 463.501 60.837 463.611 60.456C463.723 60.075 463.986 59.7574 464.335 59.5733L467.832 57.736L465.758 53.8285C465.379 53.1151 465.65 52.2282 466.363 51.8493C467.078 51.4704 467.963 51.7414 468.342 52.4547L471.109 57.6598C471.291 58.0027 471.329 58.407 471.214 58.7774C471.1 59.1499 470.84 59.4611 470.495 59.641L467.034 61.4593L468.549 64.1327C468.947 64.8376 468.7 65.7288 467.997 66.1288C467.768 66.2579 467.521 66.3193 467.277 66.3193V66.3236Z" fill="#4A003D"/>
<path d="M513.659 116.979C513.322 116.979 512.986 116.865 512.71 116.63C512.094 116.105 512.02 115.182 512.545 114.566L519.429 106.487C519.954 105.873 520.877 105.797 521.493 106.321C522.109 106.846 522.183 107.769 521.658 108.385L514.774 116.465C514.484 116.806 514.074 116.979 513.659 116.979Z" fill="#4A003D"/>
<path d="M311.317 154.344L311.535 154.873C316.056 165.812 318.298 176.207 318.289 185.309C318.289 186.522 318.247 187.714 318.166 188.88C318.126 189.462 318.075 190.04 318.016 190.61C317.169 198.596 314.367 205.325 309.632 210.19L321.921 197.559C327.203 192.132 330.079 184.384 330.52 175.164C330.657 172.3 352.762 179.023 352.428 175.898C352.267 174.391 337.244 150.29 336.973 148.732C336.722 147.28 328.672 157.148 328.672 157.148C327.552 152.35 325.937 147.354 323.822 142.24L323.604 141.711C311.48 112.373 288.977 95.7821 269.117 102.778C265.04 104.213 261.607 106.419 258.828 109.274L246.538 121.905C249.315 119.049 252.751 116.844 256.828 115.409C276.687 108.413 299.19 125.004 311.314 154.342L311.317 154.344Z" fill="#8C0072"/>
<path d="M309.631 211.656C309.263 211.656 308.895 211.519 308.611 211.242C308.319 210.958 308.171 210.581 308.169 210.202C308.167 209.83 308.304 209.457 308.584 209.169L308.673 209.078C313.082 204.5 315.736 198.234 316.562 190.455C316.619 189.903 316.667 189.342 316.708 188.777C316.786 187.651 316.826 186.484 316.826 185.307C316.835 176.299 314.538 165.969 310.182 155.43L309.964 154.9C297.93 125.781 276.284 110.11 257.316 116.789C253.534 118.122 250.265 120.18 247.607 122.908L247.59 122.925C247.025 123.505 246.1 123.518 245.52 122.955C244.94 122.39 244.927 121.465 245.49 120.885L257.78 108.256C260.762 105.193 264.412 102.886 268.632 101.4C289.141 94.1756 312.301 110.525 324.959 141.154L325.177 141.686C326.891 145.832 328.303 149.96 329.387 153.99C335.498 146.719 336.419 146.965 337.234 147.179C337.822 147.333 338.262 147.797 338.398 148.4C338.783 149.452 342.6 155.874 345.673 161.043C352.404 172.364 353.784 174.838 353.882 175.746C353.949 176.377 353.725 176.989 353.264 177.423C351.901 178.705 348.694 178.309 341.156 177.033C338.068 176.51 333.555 175.744 331.944 175.911C331.37 185.303 328.276 193.131 322.969 198.584L310.679 211.214C310.391 211.508 310.01 211.656 309.629 211.656H309.631ZM312.669 153.785L312.889 154.314C317.389 165.205 319.764 175.924 319.756 185.314C319.756 186.556 319.711 187.79 319.629 188.984C319.586 189.585 319.534 190.18 319.474 190.766C319.121 194.102 318.426 197.229 317.413 200.101L320.876 196.543C325.803 191.48 328.633 184.065 329.061 175.098C329.088 174.529 329.353 174.015 329.808 173.648C331.216 172.516 334.334 172.908 341.649 174.148C344.547 174.639 348.715 175.342 350.575 175.304C349.341 172.937 345.836 167.038 343.163 162.542C339.181 155.845 337.227 152.509 336.3 150.754C334.793 152.204 332.062 155.317 329.81 158.08C329.457 158.512 328.892 158.706 328.345 158.581C327.801 158.457 327.376 158.031 327.249 157.489C326.136 152.727 324.529 147.786 322.472 142.808L322.254 142.276C310.22 113.158 288.572 97.4861 269.606 104.167C265.815 105.502 262.543 107.566 259.88 110.303L256.199 114.086C256.247 114.069 256.296 114.052 256.345 114.033C276.852 106.812 300.013 123.158 312.671 153.787L312.669 153.785ZM338.408 148.432C338.411 148.449 338.415 148.466 338.419 148.485C338.417 148.47 338.413 148.453 338.408 148.432Z" fill="#4A003D"/>
<path d="M329.849 249.737C315.391 254.829 301.086 255.964 287.507 253.807L299.484 243.251L283.615 238.533L276.458 223.078L270.114 225.03L261.493 214.457L245.713 214.783L234.488 214.457L239.301 229.985C225.815 217.857 214.675 201.879 207.031 183.383C190.576 143.565 194.661 102.351 219.607 76.7126L207.317 89.3432C182.371 114.981 178.286 156.196 194.742 196.014C206.422 224.274 226.266 246.65 250.168 258.405L250.918 254.844L255.473 258.32L264.257 252.359L262.632 260.818L267.024 260.655L266.571 264.59C282.656 268.893 299.994 268.552 317.559 262.365C330.295 257.878 340.748 251.132 348.935 242.715L361.225 230.085C353.037 238.499 342.585 245.247 329.849 249.735V249.737Z" fill="#8C0072"/>
<path d="M288.396 268.956C280.964 268.956 273.549 267.972 266.193 266.004C265.493 265.815 265.033 265.142 265.118 264.422L265.376 262.181L262.688 262.28C262.244 262.31 261.814 262.109 261.522 261.77C261.232 261.431 261.111 260.978 261.196 260.54L262.155 255.555L256.298 259.528C255.777 259.882 255.087 259.865 254.587 259.48L251.876 257.41L251.603 258.701C251.51 259.143 251.218 259.518 250.811 259.717C250.405 259.916 249.931 259.914 249.524 259.715C225.216 247.762 205.28 225.335 193.39 196.568C176.391 155.432 181.325 113.952 206.269 88.3185L218.556 75.6901C219.122 75.108 220.049 75.0953 220.627 75.6604C221.207 76.2256 221.219 77.1506 220.656 77.7306C196.54 102.513 191.837 142.782 208.383 182.82C215.1 199.072 224.674 213.574 236.246 225.079L233.088 214.884C232.948 214.434 233.035 213.942 233.321 213.566C233.606 213.189 234.038 212.981 234.529 212.988L245.754 213.314L261.46 212.988C261.958 212.958 262.341 213.178 262.625 213.525L270.624 223.334L276.026 221.673C276.726 221.459 277.478 221.791 277.785 222.456L284.664 237.311L299.9 241.841C300.41 241.993 300.798 242.408 300.912 242.929C301.026 243.448 300.851 243.99 300.451 244.341L290.864 252.791C303.679 254.328 316.612 252.84 329.359 248.35C341.517 244.066 351.885 237.578 360.172 229.062C360.735 228.482 361.665 228.47 362.242 229.033C362.822 229.596 362.835 230.523 362.272 231.103L349.982 243.731C341.376 252.575 330.631 259.306 318.043 263.741C308.187 267.212 298.275 268.95 288.394 268.95L288.396 268.956ZM268.173 263.493C284.334 267.568 300.781 266.723 317.073 260.985C327.939 257.158 337.373 251.567 345.173 244.343C340.565 246.995 335.612 249.258 330.335 251.117C316.087 256.135 301.6 257.528 287.278 255.251C286.717 255.162 286.26 254.757 286.101 254.213C285.943 253.669 286.114 253.081 286.539 252.708L296.533 243.898L283.197 239.934C282.795 239.815 282.463 239.527 282.287 239.146L275.668 224.852L270.545 226.429C269.976 226.605 269.356 226.416 268.981 225.955L260.811 215.934L245.746 216.245L236.496 215.979L240.702 229.551C240.896 230.18 240.647 230.862 240.092 231.217C239.537 231.573 238.813 231.513 238.325 231.073C224.617 218.745 213.33 202.449 205.682 183.942C192.11 151.101 192.518 118.044 205.926 93.0028C183.952 117.944 180.127 156.805 196.098 195.453C207.437 222.89 226.225 244.402 249.13 256.239L249.488 254.541C249.592 254.05 249.939 253.646 250.411 253.47C250.881 253.297 251.41 253.375 251.808 253.68L255.525 256.516L263.437 251.148C263.926 250.814 264.57 250.812 265.065 251.138C265.561 251.464 265.81 252.056 265.698 252.636L264.42 259.287L266.972 259.192C267.389 259.169 267.811 259.346 268.101 259.662C268.391 259.975 268.53 260.401 268.482 260.824L268.175 263.495L268.173 263.493Z" fill="#4A003D"/>
<path d="M373.667 123.484C367.596 108.794 359.298 95.6996 349.369 84.8619L336.649 88.4731L332.746 79.2738L326.239 80.8994V72.6124L309.322 78.298L317.131 66.2601L311.926 64.0566L312.339 58.5234C293.385 50.7868 272.241 49.595 250.847 57.1306C199.544 75.2012 185.193 130.522 207.037 183.381C214.681 201.877 225.823 217.85 239.311 229.979L240.757 224.704L249.052 228.853L262.718 224.704L270.77 239.832H276.871L277.846 243.249L290.363 247.884L287.513 253.803C301.092 255.96 315.397 254.827 329.852 249.734C381.422 231.569 395.516 176.339 373.671 123.482L373.667 123.484ZM338.357 172.093L330.536 174.616C330.003 188.967 323.65 199.835 311.577 204.087C291.468 211.17 269.326 194.746 257.094 165.143L256.878 164.623C244.643 135.02 249.268 109.776 269.119 102.782C288.978 95.7864 311.481 112.377 323.606 141.715L323.824 142.245C325.896 147.259 327.48 152.157 328.595 156.871L335.428 153.457V161.018L344.945 162.483L336.404 166.174L338.355 172.095L338.357 172.093Z" fill="#FF2AD8"/>
<path d="M300.674 256.311C296.201 256.311 291.733 255.958 287.279 255.251C286.822 255.179 286.426 254.893 286.212 254.484C285.998 254.074 285.99 253.587 286.191 253.17L288.344 248.699L277.334 244.623C276.898 244.46 276.564 244.1 276.435 243.653L275.762 241.299H270.766C270.224 241.299 269.729 241.001 269.473 240.522L261.986 226.457L249.474 230.256C249.116 230.364 248.729 230.332 248.394 230.165L241.693 226.814L240.719 230.371C240.586 230.86 240.207 231.245 239.72 231.389C239.233 231.533 238.706 231.412 238.329 231.073C224.615 218.741 213.327 202.444 205.683 183.946C193.283 153.942 192.453 122.669 203.405 98.1488C212.372 78.0758 228.609 63.4174 250.359 55.7548C271.101 48.4478 292.723 48.9389 312.891 57.173C313.478 57.4122 313.844 58.0049 313.797 58.6378L313.461 63.1231L317.699 64.916C318.096 65.0854 318.399 65.4219 318.528 65.8347C318.655 66.2474 318.592 66.6983 318.357 67.0603L312.832 75.5759L325.772 71.2281C326.216 71.0778 326.709 71.1519 327.093 71.4271C327.476 71.7023 327.702 72.1447 327.702 72.6167V79.0283L332.389 77.8577C333.089 77.6842 333.811 78.0419 334.093 78.7065L337.492 86.7163L348.969 83.4565C349.502 83.3041 350.074 83.4671 350.449 83.8756C360.641 95.0012 368.909 108.14 375.022 122.927C387.449 153 388.309 184.277 377.38 208.738C368.428 228.777 352.161 243.431 330.335 251.121C320.518 254.58 310.586 256.315 300.674 256.315V256.311ZM289.692 252.645C302.894 254.423 316.227 252.982 329.362 248.354C350.411 240.942 366.089 226.827 374.706 207.539C385.307 183.809 384.437 153.374 372.314 124.041C366.455 109.865 358.579 97.2428 348.897 86.5152L337.05 89.8787C336.338 90.0798 335.589 89.722 335.301 89.0426L331.887 80.9969L326.595 82.3198C326.155 82.4299 325.693 82.3304 325.34 82.0531C324.984 81.7758 324.777 81.3504 324.777 80.8995V74.6488L309.788 79.6845C309.202 79.8835 308.548 79.6845 308.165 79.1934C307.784 78.7023 307.754 78.0207 308.093 77.5L314.951 66.9269L311.353 65.405C310.775 65.1594 310.417 64.5731 310.463 63.9466L310.798 59.4824C291.584 51.9066 271.048 51.5658 251.333 58.5108C230.358 65.8982 214.711 80.0147 206.079 99.3362C195.453 123.126 196.293 153.554 208.388 182.82C215.536 200.118 225.932 215.437 238.531 227.274L239.341 224.315C239.458 223.891 239.756 223.542 240.156 223.364C240.556 223.186 241.016 223.197 241.407 223.392L249.182 227.28L262.289 223.301C262.96 223.1 263.677 223.396 264.005 224.014L271.645 238.365H276.867C277.521 238.365 278.094 238.799 278.274 239.428L279.047 242.131L290.869 246.511C291.256 246.655 291.563 246.953 291.718 247.336C291.872 247.719 291.86 248.149 291.68 248.519L289.694 252.645H289.692ZM302.191 207.163C284.5 207.163 266.397 191.495 255.74 165.702L255.524 165.179C247.751 146.372 246.519 129.193 252.052 116.806C255.369 109.38 261.101 104.052 268.63 101.4C289.14 94.1756 312.299 110.525 324.957 141.157L325.175 141.688C326.982 146.061 328.46 150.445 329.576 154.746L334.772 152.149C335.225 151.92 335.765 151.946 336.197 152.212C336.628 152.479 336.891 152.951 336.891 153.457V159.763L345.167 161.037C345.811 161.136 346.313 161.651 346.397 162.299C346.48 162.946 346.124 163.571 345.525 163.829L338.214 166.989L339.746 171.638C339.869 172.008 339.837 172.412 339.66 172.759C339.484 173.107 339.175 173.369 338.804 173.49L331.948 175.702C331.102 190.69 324.066 201.242 312.06 205.471C308.819 206.612 305.51 207.165 302.189 207.165L302.191 207.163ZM278.522 102.634C275.516 102.634 272.53 103.134 269.604 104.162C262.757 106.573 257.75 111.23 254.726 117.999C249.599 129.479 250.875 146.266 258.231 164.062L258.447 164.585C270.483 193.707 292.126 209.385 311.09 202.707C322.156 198.808 328.543 188.813 329.072 174.563C329.095 173.949 329.499 173.413 330.086 173.223L336.506 171.153L335.015 166.631C334.778 165.912 335.13 165.131 335.826 164.828L339.698 163.154L335.208 162.464C334.495 162.354 333.968 161.74 333.968 161.016V155.823L329.254 158.179C328.854 158.38 328.384 158.385 327.979 158.196C327.575 158.008 327.279 157.644 327.173 157.208C326.053 152.487 324.472 147.642 322.472 142.803L322.254 142.272C312.074 117.644 295.016 102.634 278.522 102.634Z" fill="#4A003D"/>
<path d="M323.962 161.994C323.549 161.994 323.138 161.82 322.848 161.481L318.7 156.643C318.172 156.029 318.244 155.104 318.858 154.579C319.474 154.052 320.397 154.124 320.922 154.738L324.154 158.51L327.687 155.722C328.322 155.222 329.243 155.33 329.745 155.965C330.244 156.6 330.136 157.521 329.503 158.023L324.868 161.68C324.599 161.892 324.279 161.996 323.962 161.996V161.994Z" fill="#4A003D"/>
<path d="M316.201 170.484C315.628 170.484 315.084 170.145 314.849 169.582C314.538 168.835 314.891 167.98 315.638 167.669L334.865 159.668C335.614 159.356 336.467 159.71 336.778 160.457C337.089 161.204 336.736 162.059 335.989 162.371L316.762 170.372C316.578 170.448 316.388 170.484 316.201 170.484Z" fill="#4A003D"/>
<path d="M324.205 181.108C323.67 181.108 323.156 180.813 322.897 180.303C322.533 179.581 322.821 178.701 323.545 178.337L324.351 177.928V175.166C324.351 174.357 325.008 173.701 325.816 173.701H330.522C331.33 173.701 331.987 174.357 331.987 175.166C331.987 175.975 331.33 176.631 330.522 176.631H327.281V178.83C327.281 179.382 326.97 179.888 326.477 180.136L324.866 180.949C324.654 181.055 324.43 181.108 324.208 181.108H324.205Z" fill="#4A003D"/>
<path d="M264.259 253.822C264.031 253.822 263.8 253.769 263.586 253.657C262.869 253.284 262.589 252.402 262.962 251.682L269.469 239.157C269.841 238.438 270.728 238.16 271.444 238.533C272.161 238.905 272.441 239.788 272.068 240.508L265.561 253.033C265.301 253.534 264.791 253.822 264.262 253.822H264.259Z" fill="#4A003D"/>
<path d="M248.56 247.56C247.861 247.56 247.245 247.061 247.12 246.35C246.981 245.554 247.514 244.796 248.31 244.654L256.371 243.24V238.613C256.371 237.804 257.027 237.148 257.835 237.148H260.155L261.258 224.577C261.328 223.77 262.054 223.178 262.843 223.246C263.65 223.315 264.245 224.027 264.175 224.831L262.956 238.74C262.89 239.496 262.255 240.076 261.497 240.076H259.302V244.468C259.302 245.179 258.792 245.787 258.091 245.909L248.82 247.537C248.733 247.552 248.649 247.558 248.566 247.558L248.56 247.56Z" fill="#4A003D"/>
<path d="M235.302 241.297C234.959 241.297 234.614 241.177 234.335 240.933L230.268 237.354C229.811 236.952 229.65 236.308 229.866 235.739C230.082 235.167 230.626 234.79 231.236 234.79H241.333L238.17 230.904C237.66 230.278 237.755 229.355 238.382 228.845C239.008 228.334 239.931 228.43 240.441 229.056L245.547 235.33C245.903 235.768 245.977 236.374 245.733 236.884C245.49 237.394 244.976 237.718 244.41 237.718H235.114L236.269 238.734C236.877 239.267 236.936 240.192 236.401 240.8C236.111 241.128 235.706 241.297 235.302 241.297Z" fill="#4A003D"/>
<path d="M79.9529 115.663H84.0191L85.3209 108.993C85.3209 108.993 89.7618 111.27 89.656 108.993C89.5502 106.715 91.1779 95.6531 91.1779 95.6531L99.7994 101.997L101.914 99.2324L106.632 95.6531L110.55 103.066L134.751 85.5139L120.26 65.2927L59.0522 109.685L73.5434 129.906L83.3248 122.813L79.955 115.663H79.9529Z" fill="#8C0072"/>
<path d="M31.6791 157.997L33.5101 159.217L41.8056 154.826L40.3408 159.217H43.1476L46.075 161.657V164.591L104.899 174.957L90.4079 154.735L1.46484 139.063L15.9539 159.284L29.0268 161.587L31.6791 157.997Z" fill="#8C0072"/>
<path d="M181.135 87.5184L187.195 84.8577L203.454 36.1432L188.965 15.922L170.393 71.571L168.365 66.9417L162.673 64.0121L160.232 68.4043L152.341 69.3801L143.72 74.0983L151.854 88.0074L138.352 100.126L147.219 106.146L161.363 98.6207L152.28 125.836L166.771 146.057L185.182 90.8925L181.135 87.5184Z" fill="#8C0072"/>
<path d="M163.092 167.542L139.734 163.427L127.969 198.679L102.34 194.164L118.505 165.603L84.1422 173.506L84.9953 179.105L86.7839 185.449L82.5547 189.026V198.679L91.6651 201.553L93.132 210.209L142.46 218.9L154.225 183.648L177.583 187.763L190.129 150.172L175.638 129.95L163.092 167.542Z" fill="#8C0072"/>
<path d="M142.46 220.363C142.376 220.363 142.291 220.356 142.206 220.342L92.8799 211.65C92.2703 211.542 91.794 211.064 91.6903 210.452L90.3716 202.68L82.1163 200.074C81.5067 199.881 81.0918 199.316 81.0918 198.677V189.027C81.0918 188.595 81.2823 188.186 81.6104 187.909L85.1199 184.939L83.5853 179.501C83.5684 179.444 83.5557 179.385 83.5472 179.323L82.6942 173.725C82.5799 172.967 83.0667 172.249 83.8139 172.078L118.177 164.174C118.742 164.043 119.333 164.261 119.678 164.724C120.025 165.19 120.065 165.817 119.779 166.32L104.634 193.078L126.978 197.015L138.345 162.959C138.576 162.271 139.277 161.856 139.988 161.981L162.101 165.878L174.247 129.485C174.421 128.962 174.874 128.583 175.418 128.501C175.957 128.418 176.506 128.649 176.827 129.095L191.317 149.317C191.59 149.698 191.664 150.187 191.516 150.633L178.97 188.222C178.741 188.912 178.04 189.331 177.327 189.2L155.211 185.303L143.847 219.357C143.646 219.963 143.078 220.358 142.458 220.358L142.46 220.363ZM94.4039 208.945L141.472 217.238L152.836 183.184C153.067 182.494 153.768 182.079 154.479 182.206L176.593 186.103L188.501 150.419L176.116 133.138L164.478 168.007C164.25 168.695 163.551 169.117 162.836 168.985L140.722 165.088L129.355 199.142C129.127 199.83 128.426 200.252 127.713 200.12L102.083 195.605C101.616 195.523 101.216 195.218 101.012 194.788C100.809 194.359 100.828 193.857 101.063 193.442L115.59 167.775L85.7909 174.629L86.4239 178.794L88.1892 185.051C88.3437 185.604 88.1638 186.197 87.7256 186.567L84.015 189.706V197.606L92.1009 200.156C92.6259 200.321 93.0111 200.766 93.1043 201.308L94.3997 208.945H94.4039Z" fill="#4A003D"/>
<path d="M166.771 147.519C166.303 147.519 165.859 147.295 165.581 146.908L151.09 126.687C150.817 126.306 150.743 125.817 150.891 125.37L158.814 101.633L147.907 107.435C147.426 107.689 146.846 107.659 146.395 107.354L137.53 101.334C137.158 101.08 136.923 100.672 136.893 100.221C136.864 99.7723 137.042 99.3342 137.376 99.0336L149.99 87.7133L142.458 74.8351C142.259 74.4943 142.206 74.0857 142.312 73.7047C142.418 73.3237 142.672 73.002 143.019 72.8115L151.641 68.0933C151.804 68.0044 151.981 67.9472 152.163 67.9239L159.314 67.0391L161.392 63.2967C161.776 62.6067 162.639 62.3442 163.342 62.7062L169.036 65.6336C169.334 65.7881 169.574 66.04 169.707 66.3491L170.209 67.4942L187.576 15.4543C187.75 14.9315 188.203 14.5526 188.747 14.47C189.295 14.3875 189.835 14.6182 190.157 15.0648L204.648 35.286C204.921 35.667 204.995 36.156 204.847 36.6026L188.588 85.3193C188.457 85.7109 188.167 86.0305 187.788 86.1956L183.893 87.9059L186.122 89.7644C186.586 90.1496 186.764 90.7804 186.573 91.352L168.162 146.516C167.988 147.039 167.535 147.418 166.991 147.5C166.917 147.511 166.845 147.517 166.773 147.517L166.771 147.519ZM153.906 125.59L166.291 142.871L183.478 91.3752L180.2 88.6425C179.81 88.3187 179.615 87.8149 179.687 87.3132C179.759 86.8115 180.085 86.3819 180.549 86.1765L186.014 83.7762L201.833 36.3846L189.448 19.1036L171.783 72.0304C171.591 72.604 171.066 73.002 170.461 73.0295C169.866 73.0591 169.296 72.7099 169.053 72.1532L167.235 68.0001L163.266 65.9575L161.513 69.1114C161.287 69.5199 160.878 69.7951 160.412 69.8544L152.801 70.7963L145.746 74.6573L153.118 87.2645C153.469 87.8636 153.349 88.6298 152.832 89.0934L140.723 99.9628L147.31 104.435L160.677 97.3254C161.206 97.0417 161.854 97.1137 162.311 97.4989C162.768 97.8863 162.944 98.5129 162.753 99.0801L153.908 125.586L153.906 125.59Z" fill="#4A003D"/>
<path d="M104.899 176.419C104.814 176.419 104.73 176.413 104.645 176.396L45.8231 166.033C45.1225 165.91 44.6123 165.302 44.6123 164.591V162.343L42.6184 160.681H40.3429C39.873 160.681 39.4306 160.455 39.1554 160.074C38.8802 159.693 38.8061 159.202 38.9543 158.755L39.2633 157.83L34.1959 160.512C33.7217 160.764 33.146 160.734 32.6994 160.436L32.0305 159.989L30.2058 162.457C29.8756 162.904 29.3189 163.124 28.7749 163.029L15.7041 160.726C15.3273 160.66 14.9908 160.449 14.7685 160.137L0.275212 139.916C-0.071933 139.434 -0.0909836 138.788 0.226527 138.284C0.544037 137.78 1.13249 137.516 1.71882 137.622L90.6619 153.294C91.0387 153.36 91.3752 153.571 91.5975 153.882L106.089 174.104C106.436 174.586 106.455 175.232 106.137 175.736C105.866 176.167 105.396 176.419 104.899 176.419ZM47.5398 163.363L101.618 172.891L89.5654 156.073L4.74576 141.129L16.7984 157.947L28.3897 159.989L30.5043 157.127C30.9679 156.499 31.8442 156.346 32.494 156.78L33.599 157.517L41.124 153.533C41.6531 153.254 42.2987 153.324 42.756 153.711C43.2132 154.098 43.3867 154.723 43.1984 155.29L42.3771 157.756H43.1518C43.4947 157.756 43.827 157.877 44.0895 158.095L47.0169 160.535C47.3514 160.813 47.544 161.225 47.544 161.659V163.365L47.5398 163.363Z" fill="#4A003D"/>
<path d="M73.5411 131.369C73.4628 131.369 73.3845 131.362 73.3062 131.35C72.9209 131.288 72.578 131.075 72.3515 130.757L57.8625 110.536C57.3926 109.882 57.5407 108.972 58.1927 108.497L119.4 64.1053C119.716 63.8767 120.107 63.7814 120.495 63.8449C120.88 63.9063 121.223 64.1201 121.449 64.4376L135.938 84.6588C136.408 85.3129 136.26 86.2231 135.608 86.6972L111.407 104.249C111.064 104.499 110.631 104.588 110.216 104.49C109.803 104.395 109.452 104.124 109.253 103.748L106.141 97.8588L102.955 100.276L100.961 102.884C100.477 103.517 99.5727 103.646 98.9314 103.174L92.2806 98.28C91.6942 102.494 91.0592 107.619 91.1185 108.923C91.1608 109.837 90.7883 110.616 90.094 111.063C89.0991 111.702 87.6682 111.478 86.4109 111.048L85.4562 115.938C85.3229 116.626 84.7196 117.121 84.019 117.121H82.26L84.6455 122.182C84.9461 122.819 84.7514 123.579 84.1798 123.992L74.3984 131.085C74.1465 131.267 73.8459 131.365 73.539 131.365L73.5411 131.369ZM61.0905 110.015L73.8756 127.855L81.4831 122.339L78.6298 116.287C78.416 115.834 78.4498 115.303 78.7187 114.879C78.9875 114.456 79.4532 114.2 79.9548 114.2H82.8167L83.8877 108.713C83.9766 108.263 84.2709 107.879 84.6836 107.678C85.0964 107.477 85.5811 107.481 85.9896 107.691C86.722 108.066 87.6216 108.387 88.1953 108.502C88.28 105.396 89.5754 96.5125 89.732 95.4414C89.8061 94.9334 90.1427 94.5016 90.6168 94.3026C91.091 94.1058 91.6329 94.1714 92.0477 94.4741L99.5113 99.967L100.754 98.3435C100.834 98.2398 100.927 98.1466 101.031 98.0662L105.749 94.4868C106.092 94.2264 106.53 94.1291 106.952 94.2243C107.371 94.3175 107.729 94.5884 107.93 94.9694L111.058 100.89L132.714 85.1837L119.929 67.3439L61.0926 110.015H61.0905Z" fill="#4A003D"/>
<path d="M31.6791 159.462C31.5627 159.462 31.442 159.447 31.3235 159.418C30.5382 159.221 30.0619 158.427 30.2588 157.642L31.4949 152.693L30.3053 152.115C29.7804 151.859 29.4565 151.315 29.484 150.733C29.5116 150.149 29.882 149.636 30.4281 149.431L34.9431 147.723C35.7009 147.435 36.5455 147.818 36.8312 148.574C37.117 149.329 36.736 150.176 35.9803 150.462L34.4033 151.059C34.6404 151.397 34.7293 151.831 34.6235 152.255L33.0994 158.355C32.9322 159.02 32.3374 159.464 31.6812 159.464L31.6791 159.462Z" fill="#4A003D"/>
<path d="M46.077 163.122C45.5986 163.122 45.1308 162.887 44.8493 162.457C44.4069 161.78 44.5995 160.874 45.2768 160.432L50.8883 156.772C51.4154 156.429 52.1012 156.461 52.5944 156.848L54.3576 158.241L61.4783 156.573C62.2658 156.391 63.0532 156.878 63.2373 157.665C63.4215 158.452 62.9325 159.24 62.1451 159.424L54.3365 161.255C53.9047 161.357 53.4453 161.255 53.0939 160.978L51.6016 159.799L46.8707 162.885C46.6231 163.046 46.3458 163.122 46.0727 163.122H46.077Z" fill="#4A003D"/>
<path d="M91.6666 203.018C91.2009 203.018 90.7458 202.798 90.4621 202.387C90.0028 201.723 90.1679 200.81 90.8326 200.351L101.507 192.961C102.172 192.5 103.084 192.667 103.544 193.332C104.003 193.997 103.838 194.909 103.173 195.368L92.4984 202.758C92.2444 202.933 91.9544 203.018 91.6666 203.018Z" fill="#4A003D"/>
<path d="M89.4698 192.932C89.3914 192.932 89.3131 192.925 89.2327 192.913C88.4347 192.784 87.8928 192.032 88.0219 191.234L88.7226 186.914H86.7836C85.975 186.914 85.3188 186.258 85.3188 185.449C85.3188 184.64 85.975 183.984 86.7836 183.984H90.4435C90.8732 183.984 91.2796 184.173 91.559 184.501C91.8363 184.827 91.9569 185.259 91.8892 185.684L90.9134 191.704C90.797 192.424 90.1746 192.934 89.4698 192.934V192.932Z" fill="#4A003D"/>
<path d="M154.225 185.11C153.793 185.11 153.364 184.92 153.076 184.554L143.059 171.877C142.558 171.241 142.666 170.321 143.301 169.819C143.933 169.317 144.856 169.425 145.358 170.06L155.374 182.737C155.876 183.37 155.768 184.291 155.133 184.793C154.864 185.004 154.545 185.108 154.227 185.108L154.225 185.11Z" fill="#4A003D"/>
<path d="M173.164 107.528C172.52 107.528 171.93 107.1 171.752 106.448L169.512 98.2503L166.022 102.734C165.77 103.055 165.395 103.259 164.989 103.292C164.576 103.326 164.178 103.189 163.878 102.914L160.372 99.7003C159.775 99.1542 159.735 98.2271 160.283 97.6323C160.829 97.0353 161.757 96.9972 162.351 97.5434L164.686 99.6834L168.998 94.1439C169.339 93.7057 169.895 93.4962 170.442 93.6083C170.986 93.7163 171.419 94.1227 171.566 94.6582L174.576 105.68C174.789 106.459 174.33 107.266 173.549 107.477C173.42 107.513 173.291 107.53 173.162 107.53L173.164 107.528Z" fill="#4A003D"/>
<path d="M170.902 89.4701C170.723 89.4701 170.543 89.4363 170.371 89.3707L166.006 87.6688V88.0075C166.006 88.8161 165.35 89.4723 164.542 89.4723H151.854C151.045 89.4723 150.389 88.8161 150.389 88.0075C150.389 87.1989 151.045 86.5427 151.854 86.5427H163.079V85.5267C163.079 85.0419 163.318 84.5911 163.716 84.318C164.114 84.045 164.622 83.9857 165.073 84.1635L169.438 85.8653V82.5992C169.438 82.0954 169.696 81.6276 170.123 81.3588C170.551 81.0921 171.082 81.0604 171.537 81.2784L181.77 86.1998C182.498 86.5491 182.805 87.4254 182.456 88.1535C182.106 88.8838 181.23 89.1907 180.502 88.8394L172.369 84.9276V88.0075C172.369 88.4922 172.13 88.9431 171.732 89.2161C171.485 89.3855 171.197 89.4723 170.907 89.4723L170.902 89.4701Z" fill="#4A003D"/>
<path d="M161.363 98.6207L147.217 101.021L157.71 93.2124L155.514 88.0878L158.687 86.1362L150.635 74.4285H162.544V68.5673L170.393 71.5688L188.965 15.9199L137.543 6.86023L89.2522 41.5239L87.1926 53.1934H79.5067L84.3879 72.4705L66.9418 64.5412L57.6684 73.8147L54.4954 71.0079L50.5921 74.5471L50.3275 69.4669L4.91512 102.062L1.46484 139.063L90.4079 154.735L83.8355 174.425H89.6544V177.928L102.562 176.178L95.2129 183.011L96.8999 185.938V188.542H104.897L102.34 194.166L127.969 198.681L139.734 163.429L163.092 167.544L175.638 129.953L152.28 125.838L161.363 98.6228V98.6207ZM102.867 117.405L59.0527 109.685L120.26 65.2927L102.867 117.405Z" fill="#FF2AD8"/>
<path d="M127.969 200.143C127.885 200.143 127.8 200.137 127.715 200.122L102.086 195.607C101.639 195.529 101.256 195.247 101.044 194.847C100.833 194.447 100.82 193.971 101.006 193.558L102.621 190.004H96.8977C96.0891 190.004 95.4329 189.348 95.4329 188.54V186.328L93.9427 183.739C93.6019 183.148 93.7141 182.401 94.2136 181.935L98.1804 178.248L89.8468 179.378C89.4277 179.433 89.0044 179.308 88.6869 179.031C88.3693 178.754 88.1852 178.35 88.1852 177.928V175.89H83.8289C83.359 175.89 82.9166 175.663 82.6415 175.282C82.3663 174.899 82.2922 174.41 82.4404 173.964L88.4752 155.885L1.21067 140.505C0.459232 140.373 -0.0636012 139.685 0.00625104 138.928L3.45653 101.927C3.49675 101.506 3.71689 101.121 4.0598 100.873L49.4701 68.2773C49.904 67.9661 50.4756 67.9153 50.9582 68.1482C51.4408 68.381 51.7583 68.8573 51.7858 69.3907L51.8895 71.391L53.5088 69.9241C54.0613 69.4245 54.9038 69.4182 55.4626 69.9114L57.6026 71.8059L65.9023 63.5083C66.3341 63.0765 66.9882 62.96 67.5428 63.2098L82.2181 69.8796L78.0841 53.5554C77.9741 53.1172 78.0714 52.6537 78.3487 52.2959C78.626 51.9382 79.0515 51.7308 79.5045 51.7308H85.9626L87.8084 41.2699C87.874 40.8931 88.0857 40.5586 88.3969 40.3343L136.688 5.67061C137.008 5.43989 137.41 5.34887 137.795 5.41872L189.217 14.4805C189.636 14.5545 190.002 14.8064 190.22 15.1726C190.438 15.5388 190.487 15.9812 190.351 16.3855L171.779 72.0324C171.652 72.4113 171.377 72.7224 171.017 72.8918C170.655 73.0611 170.24 73.078 169.868 72.9362L164.004 70.6946V74.4285C164.004 75.2371 163.348 75.8933 162.54 75.8933H153.414L159.89 85.3064C160.116 85.6366 160.199 86.0473 160.116 86.4389C160.033 86.8326 159.792 87.1734 159.451 87.3829L157.356 88.672L159.053 92.6345C159.32 93.2569 159.125 93.9808 158.581 94.3851L152.976 98.5572L161.115 97.1771C161.625 97.0882 162.138 97.2787 162.472 97.6681C162.806 98.0597 162.912 98.5974 162.749 99.0842L154.204 124.688L175.89 128.509C176.309 128.583 176.675 128.835 176.893 129.201C177.111 129.567 177.16 130.01 177.025 130.414L164.479 168.005C164.25 168.693 163.552 169.114 162.836 168.983L140.723 165.086L129.356 199.14C129.155 199.746 128.587 200.141 127.967 200.141L127.969 200.143ZM104.457 193.048L126.981 197.017L138.348 162.961C138.578 162.273 139.279 161.858 139.99 161.983L162.104 165.88L173.712 131.098L152.026 127.277C151.607 127.203 151.241 126.951 151.023 126.585C150.805 126.219 150.756 125.776 150.891 125.372L159.202 100.473L147.462 102.465C146.791 102.577 146.137 102.219 145.87 101.597C145.604 100.974 145.801 100.251 146.342 99.8463L155.908 92.7277L154.166 88.6657C153.88 87.9989 154.126 87.222 154.744 86.8432L156.604 85.698L149.424 75.2604C149.115 74.8116 149.082 74.2295 149.336 73.749C149.59 73.2685 150.087 72.9658 150.631 72.9658H161.075V68.5694C161.075 68.0868 161.312 67.6359 161.708 67.3628C162.106 67.0898 162.61 67.0305 163.06 67.202L169.483 69.6574L187.035 17.0692L137.892 8.40967L90.5856 42.3663L88.6297 53.4495C88.5069 54.1502 87.8994 54.6582 87.1882 54.6582H81.382L85.7996 72.1107C85.9372 72.6568 85.7509 73.2326 85.3191 73.5924C84.8873 73.9522 84.2883 74.0348 83.7739 73.802L67.2507 66.2918L58.6948 74.8455C58.1466 75.3916 57.2682 75.4191 56.6903 74.9069L54.4995 72.9701L51.5657 75.6287C51.1466 76.0076 50.5475 76.1134 50.0247 75.8975C49.5019 75.6816 49.1505 75.1842 49.1208 74.6211L48.996 72.2165L6.30989 102.863L3.04588 137.856L90.6596 153.294C91.0788 153.368 91.445 153.62 91.663 153.986C91.881 154.352 91.9297 154.795 91.7942 155.199L85.8652 172.962H89.6521C90.4607 172.962 91.1169 173.619 91.1169 174.427V176.254L102.365 174.728C103 174.639 103.612 174.976 103.885 175.553C104.158 176.131 104.025 176.817 103.559 177.251L97.0628 183.29L98.1677 185.208C98.2968 185.43 98.3624 185.682 98.3624 185.938V187.077H104.897C105.394 187.077 105.858 187.329 106.129 187.748C106.398 188.167 106.436 188.692 106.23 189.147L104.454 193.05L104.457 193.048ZM102.869 118.867C102.784 118.867 102.7 118.861 102.615 118.844L58.8007 111.124C58.2207 111.023 57.7592 110.584 57.628 110.011C57.4968 109.437 57.719 108.842 58.1953 108.497L119.403 64.1052C119.917 63.7326 120.616 63.7326 121.128 64.1094C121.64 64.4862 121.852 65.1509 121.651 65.7541L104.258 117.866C104.056 118.471 103.489 118.867 102.869 118.867ZM62.7082 108.842L101.878 115.743L117.428 69.1557L62.7082 108.842Z" fill="#4A003D"/>
<path d="M170.903 176.419C170.547 176.419 170.202 176.29 169.931 176.051C169.618 175.773 169.438 175.373 169.438 174.954V173.898H166.005C165.488 173.898 165.012 173.627 164.747 173.183L161.832 168.289C161.418 167.594 161.646 166.695 162.341 166.282C163.035 165.867 163.934 166.096 164.347 166.79L166.836 170.968H170.901C171.709 170.968 172.365 171.625 172.365 172.433V173.301L175.1 172.969C175.907 172.873 176.633 173.443 176.73 174.245C176.827 175.047 176.256 175.778 175.454 175.875L171.078 176.406C171.019 176.413 170.96 176.417 170.903 176.417V176.419Z" fill="#4A003D"/>
</g>
<defs>
<clipPath id="clip0_2012_1727">
<rect width="536.061" height="268.957" fill="white"/>
</clipPath>
</defs>
</svg>
