<svg width="275" height="143" viewBox="0 0 275 143" fill="none" xmlns="http://www.w3.org/2000/svg">
<g filter="url(#filter0_d_7_775)">
<g clip-path="url(#clip0_7_775)">
<path d="M8.62759 16.6276C8.62759 12.2093 12.2093 8.62756 16.6276 8.62756H257.628C262.046 8.62756 265.628 12.2093 265.628 16.6276V125.628C265.628 130.046 262.046 133.628 257.628 133.628H16.6276C12.2093 133.628 8.62759 130.046 8.62759 125.628V16.6276Z" fill="#DC1337"/>
<g opacity="0.05">
<path d="M142.254 -79.3724L129.813 -76.7497L133.958 -25.9776L129.568 -28.3405L133.958 17.6949L129.334 13.5872L137.629 63.5744L135.179 26.9277L139.436 30.71L135.179 -18.8752L142.254 -15.3309V-79.3724Z" fill="white"/>
<path d="M90.8522 -71.9146L80.0553 -65.1787L101.257 -18.8917L96.3243 -19.6082L116.141 22.1472L110.394 19.8746L135.223 63.9983L120.433 30.4037L125.723 32.4986L104.824 -12.6371L112.678 -11.7346L90.8522 -71.9146Z" fill="white"/>
<path d="M45.0947 -47.2628L37.2436 -37.2287L72.9428 -1.00859L68.0648 0.0114972L100.913 32.4466L94.7383 32.2825L133.111 65.2235L107.762 38.7312L113.446 38.8816L78.423 3.64335L86.1133 1.79734L45.0947 -47.2628Z" fill="white"/>
<path d="M10.4966 -8.39264L6.5397 3.73086L52.428 25.5138L48.1932 28.1474L90.1165 47.3514L84.2575 49.3178L131.541 67.0996L98.6924 50.9067L104.085 49.0962L59.1673 28.0052L65.7621 23.6295L10.4966 -8.39264Z" fill="white"/>
<path d="M-8.76731 40.0111L-8.35309 52.7609L42.1925 57.4785L39.1076 61.4057L85.0477 65.0622L80.2134 68.921L130.704 69.4023L94.3186 65.4587L98.7715 61.9089L49.3704 57.5058L54.0795 51.131L-8.76731 40.0111Z" fill="white"/>
<path d="M-10.3724 92.1042L-5.63887 103.943L43.4651 91.0294L41.9063 95.7798L86.3231 83.4457L83.0938 88.7294L130.704 71.8528L95.1688 80.6371L98.1419 75.7718L50.2234 88.5899L52.4716 80.9844L-10.3724 92.1042Z" fill="white"/>
<path d="M5.87205 141.61L14.3554 151.108L56.096 122.119L56.2514 127.118L93.7845 100.281L92.5527 106.358L131.541 74.1555L101.14 94.6066L102.276 89.0138L61.6144 117.508L61.1375 109.588L5.87205 141.61Z" fill="white"/>
<path d="M38.0094 182.551L49.2178 188.567L78.562 146.998L80.4096 151.641L106.535 113.543L107.448 119.674L133.111 76.0316L111.514 105.685L110.675 100.041L82.1755 140.771L79.0279 133.493L38.0094 182.551Z" fill="white"/>
<path d="M82.1618 209.995L94.7437 211.8L108.151 162.666L111.471 166.396L123.036 121.627L125.982 127.074L135.223 77.2568L125.036 112.533L122.325 107.518L109.427 155.574L103.987 149.815L82.1618 209.995Z" fill="white"/>
<path d="M133.004 220.628L145.442 218.008L141.297 167.233L145.687 169.598L141.297 123.56L145.922 127.668L137.629 77.6834L140.076 114.327L135.819 110.545L140.076 160.13L133.004 156.586V220.628Z" fill="white"/>
<path d="M184.403 213.17L195.2 206.437L173.998 160.147L178.931 160.863L159.114 119.108L164.861 121.381L140.033 77.2568L154.822 110.851L149.532 108.759L170.431 153.892L162.577 152.99L184.403 213.17Z" fill="white"/>
<path d="M230.16 188.518L238.012 178.484L202.315 142.264L207.193 141.244L174.342 108.809L180.517 108.973L142.147 76.0316L167.494 102.524L161.809 102.373L196.832 137.612L189.142 139.458L230.16 188.518Z" fill="white"/>
<path d="M264.759 149.648L268.716 137.524L222.827 115.741L227.065 113.108L185.139 93.9064L190.998 91.9401L143.714 74.1555L176.563 90.3484L171.17 92.1589L216.091 113.25L209.493 117.626L264.759 149.648Z" fill="white"/>
<path d="M284.023 101.247L283.608 88.497L233.065 83.7766L236.148 79.8494L190.207 76.193L195.042 72.3341L144.551 71.8528L180.937 75.7964L176.484 79.3462L225.885 83.7493L221.176 90.1242L284.023 101.247Z" fill="white"/>
<path d="M285.628 49.151L280.894 37.3119L231.79 50.2257L233.349 45.4781L188.935 57.8094L192.161 52.5257L144.551 69.4024L180.086 60.6181L177.113 65.4833L225.035 52.6652L222.784 60.2708L285.628 49.151Z" fill="white"/>
<path d="M269.383 -0.352228L260.9 -9.85304L219.159 19.1362L219.004 14.1396L181.471 40.9738L182.702 34.8997L143.714 67.0996L174.116 46.6486L172.979 52.2413L213.641 23.7471L214.118 31.6672L269.383 -0.352228Z" fill="white"/>
<path d="M237.246 -41.2954L226.037 -47.312L196.693 -5.74259L194.846 -10.3863L168.72 27.7126L167.807 21.5811L142.147 65.2235L163.741 35.5725L164.58 41.2172L193.08 0.484623L196.227 7.762L237.246 -41.2954Z" fill="white"/>
<path d="M193.093 -68.7394L180.511 -70.5444L167.104 -21.4104L163.785 -25.138L152.219 19.6284L149.273 14.1807L140.033 63.9983L150.219 28.7217L152.931 33.7402L165.829 -14.319L171.268 -8.55946L193.093 -68.7394Z" fill="white"/>
</g>
<g clip-path="url(#clip1_7_775)">
<path d="M140.89 58.9189C140.89 60.6723 139.478 62.0847 137.725 62.0847C135.971 62.0847 134.559 60.6723 134.559 58.9189C134.559 57.1656 135.923 55.7532 137.725 55.7532C139.527 55.8019 140.89 57.2143 140.89 58.9189ZM127.838 65.2991C127.838 65.5913 127.838 66.0783 127.838 66.0783C127.838 66.0783 126.328 64.1302 123.114 64.1302C117.805 64.1302 113.665 68.1726 113.665 73.7735C113.665 79.3257 117.756 83.4168 123.114 83.4168C126.377 83.4168 127.838 81.42 127.838 81.42V82.2479C127.838 82.6375 128.13 82.9298 128.52 82.9298H132.465V64.6172C132.465 64.6172 128.861 64.6172 128.52 64.6172C128.13 64.6172 127.838 64.9582 127.838 65.2991ZM127.838 77.0366C127.107 78.1081 125.646 79.0335 123.893 79.0335C120.776 79.0335 118.389 77.0853 118.389 73.7735C118.389 70.4617 120.776 68.5135 123.893 68.5135C125.597 68.5135 127.156 69.4876 127.838 70.5104V77.0366ZM135.387 64.6172H140.062V82.9298H135.387V64.6172ZM205.228 64.1302C202.013 64.1302 200.503 66.0783 200.503 66.0783V55.8019H195.828V82.9298C195.828 82.9298 199.432 82.9298 199.773 82.9298C200.163 82.9298 200.455 82.5888 200.455 82.2479V81.42C200.455 81.42 201.965 83.4168 205.179 83.4168C210.488 83.4168 214.627 79.3257 214.627 73.7735C214.627 68.2213 210.488 64.1302 205.228 64.1302ZM204.448 78.9848C202.646 78.9848 201.234 78.0594 200.503 76.9879V70.4617C201.234 69.4876 202.793 68.4648 204.448 68.4648C207.565 68.4648 209.952 70.413 209.952 73.7248C209.952 77.0366 207.565 78.9848 204.448 78.9848ZM193.393 72.0689V82.9785H188.717V72.6046C188.717 69.585 187.743 68.3674 185.113 68.3674C183.701 68.3674 182.24 69.098 181.314 70.1694V82.9298H176.639V64.6172H180.34C180.73 64.6172 181.022 64.9582 181.022 65.2991V66.0783C182.386 64.6659 184.188 64.1302 185.99 64.1302C188.035 64.1302 189.74 64.7146 191.104 65.8835C192.76 67.2472 193.393 69.0006 193.393 72.0689ZM165.291 64.1302C162.076 64.1302 160.567 66.0783 160.567 66.0783V55.8019H155.891V82.9298C155.891 82.9298 159.495 82.9298 159.836 82.9298C160.226 82.9298 160.518 82.5888 160.518 82.2479V81.42C160.518 81.42 162.028 83.4168 165.242 83.4168C170.551 83.4168 174.691 79.3257 174.691 73.7735C174.739 68.2213 170.599 64.1302 165.291 64.1302ZM164.512 78.9848C162.709 78.9848 161.297 78.0594 160.567 76.9879V70.4617C161.297 69.4876 162.856 68.4648 164.512 68.4648C167.629 68.4648 170.015 70.413 170.015 73.7248C170.015 77.0366 167.629 78.9848 164.512 78.9848ZM151.849 64.1302C153.261 64.1302 153.992 64.3737 153.992 64.3737V68.7083C153.992 68.7083 150.095 67.3933 147.66 70.1694V82.9785H142.985V64.6172C142.985 64.6172 146.589 64.6172 146.93 64.6172C147.319 64.6172 147.611 64.9582 147.611 65.2991V66.0783C148.488 65.0556 150.388 64.1302 151.849 64.1302ZM103.291 81.2738C103.048 80.6894 102.804 80.0563 102.561 79.5205C102.171 78.6439 101.781 77.8159 101.44 77.0366L101.392 76.9879C98.0312 69.6824 94.4271 62.2795 90.6283 54.9739L90.4822 54.6817C90.0925 53.9512 89.7029 53.1719 89.3133 52.3926C88.8262 51.516 88.3392 50.5906 87.5599 49.714C86.0014 47.7658 83.7611 46.6943 81.3746 46.6943C78.9394 46.6943 76.7478 47.7658 75.1405 49.6165C74.41 50.4932 73.8742 51.4186 73.3872 52.2952C72.9976 53.0745 72.608 53.8538 72.2183 54.5843L72.0722 54.8765C68.322 62.1821 64.6693 69.585 61.3087 76.8905L61.26 76.9879C60.9191 77.7672 60.5295 78.5952 60.1398 79.4718C59.8963 80.0076 59.6528 80.592 59.4093 81.2251C58.7762 83.0272 58.5813 84.7318 58.8249 86.4851C59.3606 90.1379 61.7958 93.2062 65.1563 94.5699C66.4226 95.1057 67.7376 95.3492 69.1013 95.3492C69.4909 95.3492 69.978 95.3005 70.3676 95.2518C71.9748 95.0569 73.6307 94.5212 75.2379 93.5958C77.2348 92.4757 79.1342 90.8684 81.2772 88.5307C83.4201 90.8684 85.3683 92.4757 87.3164 93.5958C88.9236 94.5212 90.5796 95.0569 92.1868 95.2518C92.5764 95.3005 93.0634 95.3492 93.4531 95.3492C94.8168 95.3492 96.1805 95.1057 97.3981 94.5699C100.807 93.2062 103.194 90.0892 103.73 86.4851C104.119 84.7805 103.924 83.0759 103.291 81.2738ZM81.3259 83.8064C78.6959 80.4946 76.9913 77.3776 76.4068 74.7476C76.1633 73.6274 76.1146 72.6533 76.2607 71.7767C76.3581 70.9974 76.6503 70.3156 77.04 69.7311C77.9653 68.4161 79.5239 67.5882 81.3259 67.5882C83.1279 67.5882 84.7351 68.3674 85.6118 69.7311C86.0014 70.3156 86.2936 70.9974 86.3911 71.7767C86.5372 72.6533 86.4885 73.6761 86.2449 74.7476C85.6605 77.3289 83.9559 80.4459 81.3259 83.8064ZM100.759 86.0955C100.418 88.6281 98.713 90.8197 96.3266 91.7938C95.1577 92.2808 93.8914 92.427 92.6251 92.2808C91.4075 92.1347 90.1899 91.7451 88.9236 91.0146C87.1703 90.0405 85.417 88.5307 83.3714 86.2903C86.5859 82.3453 88.534 78.7413 89.2646 75.5268C89.6055 74.017 89.6542 72.6533 89.5081 71.387C89.3133 70.1694 88.8749 69.0493 88.1931 68.0752C86.6833 65.8835 84.1507 64.6172 81.3259 64.6172C78.5011 64.6172 75.9685 65.9322 74.4587 68.0752C73.7768 69.0493 73.3385 70.1694 73.1437 71.387C72.9489 72.6533 72.9976 74.0657 73.3872 75.5268C74.1178 78.7413 76.1146 82.394 79.2803 86.339C77.2835 88.5794 75.4815 90.0892 73.7281 91.0633C72.4618 91.7938 71.2443 92.1834 70.0267 92.3295C68.7117 92.4757 67.4454 92.2808 66.3252 91.8425C63.9387 90.8684 62.2341 88.6768 61.8932 86.1442C61.7471 84.9266 61.8445 83.709 62.3315 82.3453C62.4776 81.8583 62.7211 81.3713 62.9647 80.7868C63.3056 80.0076 63.6952 79.1796 64.0848 78.3516L64.1335 78.2542C67.4941 70.9974 71.0981 63.5945 74.8483 56.3863L74.9944 56.0941C75.3841 55.3636 75.7737 54.5843 76.1633 53.8538C76.5529 53.0745 76.9913 52.3439 77.527 51.7108C78.5498 50.5419 79.9135 49.9088 81.4233 49.9088C82.9331 49.9088 84.2968 50.5419 85.3196 51.7108C85.8553 52.3439 86.2937 53.0745 86.6833 53.8538C87.0729 54.5843 87.4625 55.3636 87.8522 56.0941L87.9983 56.3863C91.6997 63.6432 95.3038 71.0461 98.6643 78.3029V78.3516C99.054 79.1309 99.3949 80.0076 99.7845 80.7868C100.028 81.3713 100.272 81.8583 100.418 82.3453C100.807 83.6116 100.953 84.8292 100.759 86.0955Z" fill="white"/>
</g>
</g>
<path d="M16.6276 9.12756H257.628C261.77 9.12756 265.128 12.4854 265.128 16.6276V125.628C265.128 129.77 261.77 133.128 257.628 133.128H16.6276C12.4855 133.128 9.12759 129.77 9.12759 125.628V16.6276C9.12759 12.4854 12.4855 9.12756 16.6276 9.12756Z" stroke="#152950"/>
</g>
<defs>
<filter id="filter0_d_7_775" x="-3.8147e-06" y="-3.43323e-05" width="274.255" height="142.255" filterUnits="userSpaceOnUse" color-interpolation-filters="sRGB">
<feFlood flood-opacity="0" result="BackgroundImageFix"/>
<feColorMatrix in="SourceAlpha" type="matrix" values="0 0 0 0 0 0 0 0 0 0 0 0 0 0 0 0 0 0 127 0" result="hardAlpha"/>
<feOffset/>
<feGaussianBlur stdDeviation="4.3138"/>
<feComposite in2="hardAlpha" operator="out"/>
<feColorMatrix type="matrix" values="0 0 0 0 0 0 0 0 0 0 0 0 0 0 0 0 0 0 0.6 0"/>
<feBlend mode="normal" in2="BackgroundImageFix" result="effect1_dropShadow_7_775"/>
<feBlend mode="normal" in="SourceGraphic" in2="effect1_dropShadow_7_775" result="shape"/>
</filter>
<clipPath id="clip0_7_775">
<path d="M8.62759 16.6276C8.62759 12.2093 12.2093 8.62756 16.6276 8.62756H257.628C262.046 8.62756 265.628 12.2093 265.628 16.6276V125.628C265.628 130.046 262.046 133.628 257.628 133.628H16.6276C12.2093 133.628 8.62759 130.046 8.62759 125.628V16.6276Z" fill="white"/>
</clipPath>
<clipPath id="clip1_7_775">
<rect width="155.9" height="48.6548" fill="white" transform="translate(58.7276 46.6943)"/>
</clipPath>
</defs>
</svg>
