<svg width="73" height="73" viewBox="0 0 73 73" fill="none" xmlns="http://www.w3.org/2000/svg">
<g filter="url(#filter0_d_2015_2329)">
<path d="M6.4707 12.4707C6.4707 9.157 9.15699 6.4707 12.4707 6.4707H60.4707C63.7844 6.4707 66.4707 9.15699 66.4707 12.4707V60.4707C66.4707 63.7844 63.7844 66.4707 60.4707 66.4707H12.4707C9.157 66.4707 6.4707 63.7844 6.4707 60.4707V12.4707Z" fill="url(#paint0_linear_2015_2329)"/>
<path d="M12.4707 6.8457H60.4707C63.5773 6.8457 66.0957 9.3641 66.0957 12.4707V60.4707C66.0957 63.5773 63.5773 66.0957 60.4707 66.0957H12.4707C9.3641 66.0957 6.8457 63.5773 6.8457 60.4707V12.4707C6.8457 9.3641 9.3641 6.8457 12.4707 6.8457Z" stroke="#152950" stroke-width="0.75"/>
</g>
<mask id="mask0_2015_2329" style="mask-type:luminance" maskUnits="userSpaceOnUse" x="14" y="23" width="45" height="27">
<path d="M58.3482 23.8707H14.2708V49.6707H58.3482V23.8707Z" fill="white"/>
</mask>
<g mask="url(#mask0_2015_2329)">
<path fill-rule="evenodd" clip-rule="evenodd" d="M19.6746 24.191C22.0019 24.191 23.7327 25.3723 23.7327 27.1177C23.7327 28.4783 22.86 29.1306 22.0871 29.4391C23.3536 29.8211 24.5026 30.5499 24.5026 32.1484C24.5026 34.5139 22.3869 35.3191 20.0948 35.3191H14.2708V24.191H19.6746ZM17.8381 28.443H19.1486C19.6688 28.443 20.0919 28.0199 20.0919 27.6261C20.0919 27.2 19.6835 26.7827 19.1486 26.7827H17.8381V28.443ZM17.8381 32.7567H19.466C20.2065 32.7567 20.6825 32.2924 20.6825 31.737C20.6825 31.2111 20.1742 30.7527 19.5689 30.7527H17.8381V32.7567ZM22.5602 36.5326C24.8905 36.5326 26.6183 37.7139 26.6183 39.4594C26.6183 40.82 25.7456 41.4723 24.9727 41.7808C26.2393 42.1628 27.3882 42.8916 27.3882 44.4901C27.3882 46.8556 25.2725 47.6608 22.9804 47.6608H17.1563V36.5326H22.5602ZM20.7237 40.7847H22.0372C22.5544 40.7847 22.9775 40.3615 22.9775 39.9678C22.9775 39.5417 22.5691 39.1244 22.0372 39.1244H20.7237V40.7847ZM20.7237 45.0984H22.3516C23.0921 45.0984 23.5682 44.6341 23.5682 44.0787C23.5682 43.5528 23.0598 43.0943 22.4545 43.0943H20.7237V45.0984ZM24.7847 35.3161V24.1881H33.7559V26.8768H28.3403V28.3343H32.7392V30.8555H28.3403V32.6392H33.7559V35.3161H24.7847ZM33.9293 33.7969L36.0479 31.7752C36.5622 32.2013 37.2204 32.7038 38.052 32.7038C38.7837 32.7038 39.1862 32.2807 39.1862 31.8605C39.1862 30.6645 34.3553 31.2169 34.3553 27.3998C34.3553 25.4692 36.1184 23.8707 38.813 23.8707C40.6085 23.8707 41.9396 24.5466 42.7829 25.3488L40.676 27.3557C40.676 27.3557 40.0648 26.8004 39.2245 26.8004C38.7366 26.8004 38.2577 27.0413 38.2577 27.4968C38.2577 28.6693 43.1591 28.0904 43.1591 31.8575C43.1591 34.1936 41.1403 35.6335 38.6132 35.6335C36.1537 35.6335 34.7815 34.6315 33.9293 33.7969ZM45.9036 35.3161V26.865H42.968V24.1881H52.4094V26.865H49.471V35.3161H45.9036ZM27.5116 36.5238H31.0701V43.1913C31.0701 43.8671 31.743 44.4901 32.4454 44.4901C33.1065 44.4901 33.7765 43.9259 33.7765 43.1531V36.5238H37.3232V43.109C37.3232 45.7214 35.1546 47.8076 32.3513 47.8076C29.5303 47.8076 27.5116 45.5391 27.5116 42.9679V36.5238ZM41.7074 47.649V43.6732L37.5289 36.5238H41.1256L43.4912 40.3556L45.8654 36.5238H49.471L45.2748 43.7143V47.649H41.7074Z" fill="white"/>
<path d="M58.3481 42.6153V49.6471H49.4709L47.3728 47.549V44.7134L49.4709 42.6153H58.3481Z" fill="#FFED31"/>
<path d="M48.654 46.6028C48.9153 46.6028 49.1271 46.3909 49.1271 46.1297C49.1271 45.8685 48.9153 45.6566 48.654 45.6566C48.3927 45.6566 48.1809 45.8685 48.1809 46.1297C48.1809 46.3909 48.3927 46.6028 48.654 46.6028Z" fill="white"/>
</g>
<defs>
<filter id="filter0_d_2015_2329" x="4.76837e-06" y="4.76837e-06" width="72.9414" height="72.9414" filterUnits="userSpaceOnUse" color-interpolation-filters="sRGB">
<feFlood flood-opacity="0" result="BackgroundImageFix"/>
<feColorMatrix in="SourceAlpha" type="matrix" values="0 0 0 0 0 0 0 0 0 0 0 0 0 0 0 0 0 0 127 0" result="hardAlpha"/>
<feOffset/>
<feGaussianBlur stdDeviation="3.23535"/>
<feComposite in2="hardAlpha" operator="out"/>
<feColorMatrix type="matrix" values="0 0 0 0 0 0 0 0 0 0 0 0 0 0 0 0 0 0 0.6 0"/>
<feBlend mode="normal" in2="BackgroundImageFix" result="effect1_dropShadow_2015_2329"/>
<feBlend mode="normal" in="SourceGraphic" in2="effect1_dropShadow_2015_2329" result="shape"/>
</filter>
<linearGradient id="paint0_linear_2015_2329" x1="36.4707" y1="6.4707" x2="36.4707" y2="66.4707" gradientUnits="userSpaceOnUse">
<stop stop-color="#005EFF"/>
<stop offset="1" stop-color="#1955BC"/>
</linearGradient>
</defs>
</svg>
