<svg width="88" height="96" viewBox="0 0 88 96" fill="none" xmlns="http://www.w3.org/2000/svg">
<g clip-path="url(#clip0_14_3094)">
<path d="M80.5254 90.66C73.2864 94.7277 60.8077 95.8997 43.572 95.8997C26.3362 95.8997 13.8575 94.7277 6.61853 90.66C2.27512 88.1781 0.068943 84.8688 0.068943 82.4558C0.068943 81.077 0.827316 80.3186 2.413 80.3186H84.7999C86.4545 80.3186 87.1439 81.077 87.1439 82.4558C87.075 84.8688 84.8688 88.1781 80.5254 90.66ZM84.7309 27.0257H2.34406C0.758373 27.0257 0 26.1983 0 24.6816C0 15.7879 13.4439 0 43.503 0C73.2864 0 87.0061 15.7879 87.0061 24.6816C87.075 26.1983 86.3166 27.0257 84.7309 27.0257Z" fill="white"/>
<path fill-rule="evenodd" clip-rule="evenodd" d="M59.5667 41.986C59.5667 46.0537 56.809 48.8803 52.3967 48.8803C48.2601 48.8803 43.9856 45.9847 43.9856 39.642C43.9856 33.0924 48.1912 30.1968 52.5346 30.1968C55.0165 30.1968 56.6711 30.8173 57.8432 31.7135C58.4637 32.1961 58.8773 32.9545 58.8773 33.9197C58.8773 35.2296 57.8432 36.4016 56.3954 36.4016C55.8438 36.4016 55.4302 36.1948 55.0165 35.988C54.5339 35.7122 53.9824 35.4364 52.9482 35.4364C51.4315 35.4364 49.5011 36.5395 49.5011 39.642C49.5011 42.3997 50.9489 43.9164 53.0172 43.9164C53.7066 43.9164 54.2581 43.5717 54.2581 43.0891C54.2581 42.6755 53.9134 42.5376 53.3619 42.5376C52.3277 42.5376 50.9489 41.7792 50.9489 40.1935C50.9489 38.4699 52.2588 37.6426 53.9134 37.6426H54.8097C57.9811 37.5737 59.5667 39.3662 59.5667 41.986ZM17.2357 63.0826C17.2357 63.2205 17.2357 63.4273 17.5115 63.841C18.201 64.8751 19.9935 67.0813 21.5792 68.8049C22.8201 70.1148 23.4406 71.2868 23.4406 72.7346C23.4406 75.1476 21.2344 77.4227 18.6836 77.4227C17.1668 77.4227 15.719 76.5954 14.547 75.3544C12.8234 73.424 10.9619 70.1837 10.2725 68.598C10.2725 68.598 10.2725 68.5291 10.2036 68.4601C10.1346 68.2533 9.99673 67.9086 9.58308 67.9086C9.23836 67.9086 9.10048 68.1844 9.10048 68.4601V72.3899C9.10048 75.1476 7.44584 77.3538 4.55024 77.3538C1.58569 77.3538 0 75.1476 0 72.3899V55.361C0 52.6033 1.58569 50.3971 4.55024 50.3971C7.51479 50.3971 9.10048 52.6033 9.10048 55.361V58.1187C9.10048 58.4634 9.23836 58.6702 9.58308 58.6702C9.7899 58.6702 9.92779 58.6013 10.2036 58.3945C11.2377 57.4293 12.7545 54.9473 14.0644 52.8101C15.0296 51.2244 16.4774 50.3281 18.0631 50.3281C20.4761 50.3281 22.6822 52.2585 22.6822 54.6715C22.6822 55.6367 22.3375 56.7398 21.5102 58.0497C20.4761 59.7044 18.5457 61.4969 17.7183 62.2553C17.4426 62.6 17.2357 62.8068 17.2357 63.0826ZM3.24032 48.6735H7.17007C10.893 48.6735 13.1681 46.1916 13.1681 43.0891C13.1681 40.6761 11.7893 39.5041 11.3756 39.2283C11.2377 39.0904 11.0998 39.0215 11.0998 38.8836C11.0998 38.7457 11.1688 38.7457 11.2377 38.6078L11.3067 38.5389C11.8582 37.9184 12.3408 36.9532 12.3408 35.5054C12.3408 32.1272 10.0657 30.4036 6.54958 30.4036H3.24032C1.03414 30.3347 0 31.5756 0 33.3682V45.64C0 47.3636 1.03414 48.6735 3.24032 48.6735ZM4.89495 35.0917C4.89495 34.747 5.10178 34.4712 5.58438 34.4712H5.9291C7.10113 34.4712 7.51479 35.2986 7.51479 36.0569C7.51479 36.7464 7.17007 37.6426 5.9291 37.6426H5.58438C5.10178 37.6426 4.89495 37.3668 4.89495 37.0221V35.0917ZM4.89495 41.6413C4.89495 41.2966 5.10178 41.0208 5.58438 41.0208H6.06698C7.3769 41.0208 7.79056 41.9171 7.79056 42.7444C7.79056 43.5028 7.3769 44.468 6.06698 44.468H5.58438C5.10178 44.468 4.89495 44.1922 4.89495 43.8475V41.6413ZM79.0087 45.7779C79.0087 47.4325 78.0435 48.8114 76.251 48.8114C74.4584 48.8114 73.4932 47.5015 73.4932 45.7779V33.3682C73.4932 31.6446 74.5274 30.3347 76.7336 30.3347H79.9049C83.421 30.3347 86.3856 32.334 86.3856 35.919C86.3856 38.2631 85.3514 39.7109 84.5241 40.4003C84.2483 40.6072 84.2483 40.814 84.3173 41.0208C84.662 41.986 85.2825 42.7444 86.2477 43.9854C86.7303 44.6059 87.1439 45.2953 87.1439 46.2605C87.1439 47.7083 85.903 48.8114 84.4552 48.8114C83.5589 48.8114 82.6626 48.3977 81.6974 47.1568C80.9391 46.1916 80.2496 44.2611 80.0428 42.8133C79.9739 42.4686 79.9049 42.2618 79.5602 42.2618C79.2844 42.2618 79.1466 42.3997 79.1466 42.8133V45.7779H79.0087ZM79.3534 34.9538C78.8708 34.9538 78.664 35.2296 78.664 35.5743V37.5047C78.664 37.8495 78.8708 38.1252 79.3534 38.1252H79.767C80.9391 38.1252 81.2838 37.229 81.2838 36.5395C81.2838 35.7812 80.9391 34.9538 79.767 34.9538H79.3534ZM30.266 50.3971C27.1635 50.3971 25.44 52.7411 25.44 55.6367V72.1831C25.44 75.0787 27.1635 77.4227 30.266 77.4227C33.3684 77.4227 35.092 75.0787 35.092 72.1831V55.6367C35.092 52.7411 33.4374 50.3971 30.266 50.3971ZM78.595 61.1522H79.9739C84.662 61.1522 87.075 63.772 87.075 67.4949C87.075 73.424 82.9384 77.4227 76.3199 77.4227C70.0461 77.4227 63.7033 73.1483 63.7033 64.0478C63.7033 54.5337 70.0461 50.3971 76.5267 50.3971C80.1807 50.3971 82.7316 51.2933 84.4552 52.6033C85.4204 53.3616 86.0409 54.3958 86.0409 55.7746C86.0409 57.6361 84.5241 59.4286 82.3179 59.4286C81.4217 59.4286 80.8701 59.1528 80.2496 58.8081C79.4913 58.4634 78.664 58.0497 77.1472 58.0497C74.8721 58.0497 71.9765 59.6354 71.9765 64.1167C71.9765 68.1154 74.1137 70.2527 77.2851 70.2527C78.2503 70.2527 79.1466 69.7701 79.1466 69.0806C79.1466 68.5291 78.595 68.2533 77.8366 68.2533C76.3199 68.2533 74.2516 67.1502 74.2516 64.8751C74.2516 62.3242 76.1131 61.1522 78.595 61.1522ZM69.4256 48.6735C71.0113 48.6735 72.2523 47.7772 72.2523 46.0537C72.2523 44.399 71.0113 43.5028 69.4256 43.5028H66.8747C66.3921 43.5028 66.1853 43.227 66.1853 42.8823V42.3307C66.1853 41.986 66.3921 41.7103 66.8747 41.7103H68.8051C70.115 41.7103 71.2181 40.8829 71.2181 39.5041C71.2181 38.0563 70.184 37.2979 68.8051 37.2979H66.8747C66.3921 37.2979 66.1853 37.0221 66.1853 36.6774V36.2638C66.1853 35.919 66.3921 35.6433 66.8747 35.6433H69.3567C70.9423 35.6433 72.1833 34.747 72.1833 33.0234C72.1833 31.3688 70.9423 30.4726 69.3567 30.4726H64.117C61.9108 30.4726 60.8767 31.7825 60.8767 33.506V45.7779C60.8767 47.5015 61.9108 48.8114 64.117 48.8114L69.4256 48.6735ZM28.3356 42.6755C28.3356 46.0537 25.9226 48.8114 21.3723 48.8114C16.8221 48.8114 14.478 46.1226 14.478 42.6755V33.2992C14.478 31.6446 15.4432 30.2657 17.2357 30.2657C19.0283 30.2657 20.0624 31.5756 20.0624 33.2992V42.3997C20.0624 43.0891 20.4071 43.8475 21.3723 43.8475C22.4065 43.8475 22.7512 43.0891 22.7512 42.3997V33.2992C22.7512 31.6446 23.7164 30.2657 25.5089 30.2657C27.3014 30.2657 28.2666 31.5756 28.2666 33.2992V42.6755H28.3356ZM41.0211 48.8114C42.4689 48.8114 43.7099 47.6394 43.7099 46.2605C43.7099 45.2953 43.2962 44.6059 42.8136 43.9854L42.6757 43.7785C41.9173 42.8133 41.2279 41.9171 40.8832 41.0208C40.8143 40.814 40.8832 40.6072 41.09 40.4003C41.9863 39.7109 42.9515 38.2631 42.9515 35.919C42.9515 32.403 39.9869 30.3347 36.4708 30.3347H33.2995C31.0933 30.3347 30.0591 31.6446 30.0591 33.3682V45.7779C30.0591 47.4325 31.0243 48.8114 32.8169 48.8114C34.6094 48.8114 35.5746 47.5015 35.5746 45.7779V42.8133C35.5746 42.4686 35.7125 42.2618 35.9882 42.2618C36.333 42.2618 36.4019 42.4686 36.4708 42.8133C36.7466 44.2611 37.3671 46.1916 38.1255 47.1568C39.2286 48.3977 40.1248 48.8114 41.0211 48.8114ZM36.4019 38.1252H35.9882C35.5056 38.1252 35.2988 37.8495 35.2988 37.5047V35.6433C35.2988 35.2986 35.5056 35.0228 35.9882 35.0228H36.4019C37.5739 35.0228 37.9186 35.8501 37.9186 36.6085C37.9876 37.229 37.5739 38.1252 36.4019 38.1252ZM52.6035 55.292C52.6035 52.6032 54.1892 50.466 57.0159 50.466C59.9115 50.466 61.4282 52.6032 61.4282 55.292V72.5278C61.4282 75.2855 59.7736 77.4917 56.878 77.4917C55.1544 77.4917 53.5687 76.8022 52.1209 73.9756L48.2601 66.4608C48.0533 66.0471 47.9154 65.9092 47.6396 65.9092C47.3638 65.9092 47.157 66.1161 47.157 66.6676V72.6657C47.157 75.3544 45.5713 77.4917 42.7447 77.4917C39.8491 77.4917 38.3323 75.3544 38.3323 72.6657V55.4299C38.3323 52.6722 39.9869 50.466 42.8825 50.466C44.6751 50.466 46.1918 51.1555 47.6396 53.9821L51.5004 61.4969C51.7072 61.9106 51.8451 62.0484 52.1209 62.0484C52.3967 62.0484 52.6035 61.8416 52.6035 61.2901V55.292Z" fill="white"/>
</g>
<defs>
<clipPath id="clip0_14_3094">
<rect width="87.075" height="95.8997" fill="white"/>
</clipPath>
</defs>
</svg>
