<svg width="133" height="107" viewBox="0 0 133 107" fill="none" xmlns="http://www.w3.org/2000/svg">
<circle cx="66.6182" cy="54.8559" r="41.5131" fill="#13253F"/>
<circle cx="66.6182" cy="54.8559" r="41.0131" stroke="#EEEEEE" stroke-opacity="0.05"/>
<circle cx="27.7071" cy="26.8256" r="2.60196" fill="#13253F"/>
<circle cx="81.0472" cy="8.49364" r="4.84911" fill="#13253F"/>
<circle cx="31.6099" cy="87.9717" r="4.61256" fill="#13253F"/>
<circle cx="111.088" cy="77.0907" r="4.61256" fill="#13253F"/>
<circle cx="102.099" cy="82.2946" r="2.24715" fill="#13253F"/>
<path d="M68.9896 15.3621C68.8524 15.3329 68.8524 15.1372 68.9896 15.108L71.063 14.6671C71.113 14.6565 71.1521 14.6175 71.1629 14.5676L71.6093 12.5088C71.6389 12.3723 71.8336 12.3723 71.8632 12.5088L72.3096 14.5676C72.3205 14.6175 72.3596 14.6565 72.4095 14.6671L74.483 15.108C74.6201 15.1372 74.6201 15.3329 74.483 15.3621L72.4095 15.803C72.3596 15.8136 72.3205 15.8526 72.3096 15.9025L71.8632 17.9613C71.8336 18.0978 71.6389 18.0978 71.6093 17.9613L71.1629 15.9025C71.1521 15.8526 71.113 15.8136 71.063 15.803L68.9896 15.3621Z" fill="#13253F"/>
<path d="M21.6096 57.7232C21.6625 57.4731 22.0195 57.4731 22.0724 57.7232L22.8632 61.4588C22.8824 61.5498 22.9533 61.6211 23.0442 61.6409L26.7412 62.4463C26.9895 62.5004 26.9895 62.8545 26.7412 62.9085L23.0442 63.7139C22.9533 63.7337 22.8824 63.805 22.8632 63.8961L22.0724 67.6317C22.0195 67.8818 21.6625 67.8818 21.6096 67.6317L20.8189 63.8961C20.7996 63.805 20.7288 63.7337 20.6378 63.7139L16.9408 62.9085C16.6925 62.8545 16.6925 62.5004 16.9408 62.4463L20.6378 61.6409C20.7288 61.6211 20.7996 61.5498 20.8189 61.4588L21.6096 57.7232Z" fill="#13253F"/>
<path d="M103.718 27.9188C103.771 27.6688 104.128 27.6688 104.181 27.9188L104.643 30.0981C104.662 30.1892 104.733 30.2604 104.824 30.2802L106.987 30.7514C107.235 30.8055 107.235 31.1596 106.987 31.2137L104.824 31.6849C104.733 31.7047 104.662 31.776 104.643 31.867L104.181 34.0463C104.128 34.2964 103.771 34.2964 103.718 34.0463L103.257 31.867C103.238 31.776 103.167 31.7047 103.076 31.6849L100.913 31.2137C100.665 31.1596 100.665 30.8055 100.913 30.7514L103.076 30.2802C103.167 30.2604 103.238 30.1892 103.257 30.0981L103.718 27.9188Z" fill="#13253F"/>
<path d="M113.254 62.8583L113.979 66.2804L117.352 67.0153L113.979 67.7501L113.254 71.1723L112.53 67.7501L109.157 67.0153L112.53 66.2804L113.254 62.8583Z" fill="#13253F"/>
<path d="M89.9421 36L34 57.407L45.9454 90.6411L53.1599 93.8345L62.1485 95.7268L71.2553 95.372L76.5775 94.4258L81.3083 93.0066L89.1142 88.9854L95.7374 83.7814L96.2487 83.1204C99.1352 79.3892 101.694 75.4159 103.898 71.2447L89.9421 36Z" fill="#F1F3FF"/>
<path d="M79.9762 63.8105C78.795 62.8711 77.3734 61.1632 76.3196 60.1103C76.3758 59.8491 76.4109 59.5981 76.4671 59.3369C76.6703 59.0568 76.8946 58.7666 77.3145 58.7203C77.4091 58.7007 77.4841 58.5865 77.5583 58.5247C77.5184 58.3879 77.4988 58.2933 77.4378 58.1666C77.555 58.0321 77.641 57.8866 77.716 57.7724C77.9372 57.6918 78.0616 57.7879 78.2173 57.8949C78.7766 58.3537 79.357 58.8023 79.9374 59.2509C80.0203 59.315 80.1134 59.4002 80.1862 59.4431C80.3332 59.4243 80.3034 59.3086 80.3362 59.2147C80.7333 57.1244 80.892 56.7654 81.6543 54.7851C81.7957 54.4308 81.9051 54.118 82.0253 53.7738C82.112 53.576 82.2089 53.3992 82.3262 53.2646C82.4622 53.2771 82.4505 53.3608 82.4498 53.4132C82.4577 53.5915 82.4343 53.7588 82.4218 53.8949C82.6713 54.0347 82.6978 53.6578 82.8949 53.7969C83.1949 53.3401 83.3902 52.8818 83.7419 52.4781C84.0148 52.4506 84.3104 52.3082 84.6209 52.5747C84.6695 52.8374 84.7494 53.1111 84.8285 53.4371C85.0287 53.3667 85.1263 53.1375 85.3649 53.3086C85.3852 53.3509 85.3947 53.4244 85.4041 53.4979C85.3682 53.8013 85.3222 54.0836 85.3177 54.3979C85.2882 54.9844 85.0601 55.5366 84.9368 56.0903C84.8814 56.2991 84.826 56.5079 84.7815 56.6854C84.7487 56.7793 84.7472 56.8841 84.7042 56.9568C84.455 57.5192 84.7679 56.4282 84.6548 57.003C84.3192 58.4654 84.0149 59.9387 83.6895 61.4223C83.6778 61.506 83.645 61.5998 83.6544 61.6733C84.845 62.6862 86.0254 63.678 87.1957 64.6487C87.4132 64.83 87.6517 65.0011 87.8801 65.1512C88.326 65.4825 88.326 65.4825 88.8077 65.5105C88.8171 65.584 88.8054 65.6676 88.825 65.7622C88.7086 65.8444 88.6023 65.9477 88.496 66.0509C88.3795 66.1331 88.2841 66.2051 88.1465 66.2974C88.4164 66.4795 88.6862 66.6616 88.9561 66.8436C88.9757 66.9382 89.0055 67.054 89.0462 67.1384C89.1181 67.2338 89.2222 67.2877 89.3153 67.3729C89.2308 67.4136 89.1777 67.4652 89.1464 67.4543C88.9274 67.3777 88.7084 67.3012 88.5004 67.1934C88.2196 67.0426 87.9599 66.8816 87.7111 66.6894C87.1925 66.315 86.6411 66.0346 85.9842 65.805C86.0562 65.9003 86.0867 65.9636 86.1281 65.9957C87.0519 66.6169 87.9757 67.2382 88.8893 67.8383C89.2116 68.0212 89.5447 68.1727 89.9194 68.3563C89.8553 68.4392 89.8334 68.5018 89.7905 68.5745C89.4026 68.5794 89.0585 68.4591 88.7464 68.2974C87.9345 67.9083 87.1227 67.5193 86.3218 67.099C85.2299 66.5067 84.1489 65.8832 83.0781 65.2808C83.0469 65.2698 82.9945 65.2691 82.921 65.2785C82.7189 66.2083 82.5895 67.1812 82.4601 68.154C82.3206 69.1057 82.2334 70.0582 82.1674 71.0005C82.0904 71.9741 82.0447 72.9586 81.9998 73.8907C81.8286 74.1293 81.5987 74.084 81.3782 74.1123C81.235 73.8692 81.1864 73.6064 81.1167 73.3539C80.7937 73.2234 80.5061 73.5442 80.2151 73.3723C80.1197 73.4443 79.9931 73.5053 79.8977 73.5773C79.814 73.5656 79.7616 73.5648 79.7303 73.5539C79.5223 73.4461 79.4198 73.2874 79.3704 73.0771C79.2122 72.425 79.2111 71.7752 79.2523 71.105C79.2545 70.9478 79.2881 70.8016 79.2904 70.6444C79.3192 68.6535 79.5365 66.6758 79.8272 64.6887C79.8631 64.3853 79.92 64.0717 79.9762 63.8105C80.0561 64.0842 79.8862 63.5157 79.9762 63.8105Z" fill="#BCC6FF"/>
<path d="M79.9762 63.8105C78.795 62.8711 77.3734 61.1632 76.3196 60.1103C76.3758 59.8491 76.4109 59.5981 76.4671 59.3369C76.6703 59.0568 76.8946 58.7666 77.3145 58.7203C77.4091 58.7007 77.4841 58.5865 77.5583 58.5247C77.5184 58.3879 77.4988 58.2933 77.4378 58.1666C77.555 58.0321 77.641 57.8866 77.716 57.7724C77.9372 57.6918 78.0616 57.7879 78.2173 57.8949C78.7766 58.3537 79.357 58.8023 79.9374 59.2509C80.0203 59.315 80.1134 59.4002 80.1862 59.4431C80.3332 59.4243 80.3034 59.3086 80.3362 59.2147C80.7333 57.1244 80.892 56.7654 81.6543 54.7851C81.7957 54.4308 81.9051 54.118 82.0253 53.7738C82.112 53.576 82.2089 53.3992 82.3262 53.2646C82.4622 53.2771 82.4505 53.3608 82.4498 53.4132C82.4577 53.5915 82.4343 53.7588 82.4218 53.8949C82.6713 54.0347 82.6978 53.6578 82.8949 53.7969C83.1949 53.3401 83.3902 52.8818 83.7419 52.4781C84.0148 52.4506 84.3104 52.3082 84.6209 52.5747C84.6695 52.8374 84.7494 53.1111 84.8285 53.4371C85.0287 53.3667 85.1263 53.1375 85.3649 53.3086C85.3852 53.3509 85.3947 53.4244 85.4041 53.4979C85.3682 53.8013 85.3222 54.0836 85.3177 54.3979C85.2882 54.9844 85.0601 55.5366 84.9368 56.0903C84.8814 56.2991 84.826 56.5079 84.7815 56.6854C84.7487 56.7793 84.7472 56.8841 84.7042 56.9568C84.455 57.5192 84.7679 56.4282 84.6548 57.003C84.3192 58.4654 84.0149 59.9387 83.6895 61.4223C83.6778 61.506 83.645 61.5998 83.6544 61.6733C84.845 62.6862 86.0254 63.678 87.1957 64.6487C87.4132 64.83 87.6517 65.0011 87.8801 65.1512C88.326 65.4825 88.326 65.4825 88.8077 65.5105C88.8171 65.584 88.8054 65.6676 88.825 65.7622C88.7086 65.8444 88.6023 65.9477 88.496 66.0509C88.3795 66.1331 88.2841 66.2051 88.1465 66.2974C88.4164 66.4795 88.6862 66.6616 88.9561 66.8436C88.9757 66.9382 89.0055 67.054 89.0462 67.1384C89.1181 67.2338 89.2222 67.2877 89.3153 67.3729C89.2308 67.4136 89.1777 67.4652 89.1464 67.4543C88.9274 67.3777 88.7084 67.3012 88.5004 67.1934C88.2196 67.0426 87.9599 66.8816 87.7111 66.6894C87.1925 66.315 86.6411 66.0346 85.9842 65.805C86.0562 65.9003 86.0867 65.9636 86.1281 65.9957C87.0519 66.6169 87.9757 67.2382 88.8893 67.8383C89.2116 68.0212 89.5447 68.1727 89.9194 68.3563C89.8553 68.4392 89.8334 68.5018 89.7905 68.5745C89.4026 68.5794 89.0585 68.4591 88.7464 68.2974C87.9345 67.9083 87.1227 67.5193 86.3218 67.099C85.2299 66.5067 84.1489 65.8832 83.0781 65.2808C83.0469 65.2698 82.9945 65.2691 82.921 65.2785C82.7189 66.2083 82.5895 67.1812 82.4601 68.154C82.3206 69.1057 82.2334 70.0582 82.1674 71.0005C82.0904 71.9741 82.0447 72.9586 81.9998 73.8907C81.8286 74.1293 81.5987 74.084 81.3782 74.1123C81.235 73.8692 81.1864 73.6064 81.1167 73.3539C80.7937 73.2234 80.5061 73.5442 80.2151 73.3723C80.1197 73.4443 79.9931 73.5053 79.8977 73.5773C79.814 73.5656 79.7616 73.5648 79.7303 73.5539C79.5223 73.4461 79.4198 73.2874 79.3704 73.0771C79.2122 72.425 79.2111 71.7752 79.2523 71.105C79.2545 70.9478 79.2881 70.8016 79.2904 70.6444C79.3192 68.6535 79.5365 66.6758 79.8272 64.6887C79.8631 64.3853 79.92 64.0717 79.9762 63.8105C80.0561 64.0842 79.8862 63.5157 79.9762 63.8105Z" fill="#BCC6FF"/>
<path d="M79.9762 63.8105C78.795 62.8711 77.3734 61.1632 76.3196 60.1103C76.3758 59.8491 76.4109 59.5981 76.4671 59.3369C76.6703 59.0568 76.8946 58.7666 77.3145 58.7203C77.4091 58.7007 77.4841 58.5865 77.5583 58.5247C77.5184 58.3879 77.4988 58.2933 77.4378 58.1666C77.555 58.0321 77.641 57.8866 77.716 57.7724C77.9372 57.6918 78.0616 57.7879 78.2173 57.8949C78.7766 58.3537 79.357 58.8023 79.9374 59.2509C80.0203 59.315 80.1134 59.4002 80.1862 59.4431C80.3332 59.4243 80.3034 59.3086 80.3362 59.2147C80.7333 57.1244 80.892 56.7654 81.6543 54.7851C81.7957 54.4308 81.9051 54.118 82.0253 53.7738C82.112 53.576 82.2089 53.3992 82.3262 53.2646C82.4622 53.2771 82.4505 53.3608 82.4498 53.4132C82.4577 53.5915 82.4343 53.7588 82.4218 53.8949C82.6713 54.0347 82.6978 53.6578 82.8949 53.7969C83.1949 53.3401 83.3902 52.8818 83.7419 52.4781C84.0148 52.4506 84.3104 52.3082 84.6209 52.5747C84.6695 52.8374 84.7494 53.1111 84.8285 53.4371C85.0287 53.3667 85.1263 53.1375 85.3649 53.3086C85.3852 53.3509 85.3947 53.4244 85.4041 53.4979C85.3682 53.8013 85.3222 54.0836 85.3177 54.3979C85.2882 54.9844 85.0601 55.5366 84.9368 56.0903C84.8814 56.2991 84.826 56.5079 84.7815 56.6854C84.7487 56.7793 84.7472 56.8841 84.7042 56.9568C84.455 57.5192 84.7679 56.4282 84.6548 57.003C84.3192 58.4654 84.0149 59.9387 83.6895 61.4223C83.6778 61.506 83.645 61.5998 83.6544 61.6733C84.845 62.6862 86.0254 63.678 87.1957 64.6487C87.4132 64.83 87.6517 65.0011 87.8801 65.1512C88.326 65.4825 88.326 65.4825 88.8077 65.5105C88.8171 65.584 88.8054 65.6676 88.825 65.7622C88.7086 65.8444 88.6023 65.9477 88.496 66.0509C88.3795 66.1331 88.2841 66.2051 88.1465 66.2974C88.4164 66.4795 88.6862 66.6616 88.9561 66.8436C88.9757 66.9382 89.0055 67.054 89.0462 67.1384C89.1181 67.2338 89.2222 67.2877 89.3153 67.3729C89.2308 67.4136 89.1777 67.4652 89.1464 67.4543C88.9274 67.3777 88.7084 67.3012 88.5004 67.1934C88.2196 67.0426 87.9599 66.8816 87.7111 66.6894C87.1925 66.315 86.6411 66.0346 85.9842 65.805C86.0562 65.9003 86.0867 65.9636 86.1281 65.9957C87.0519 66.6169 87.9757 67.2382 88.8893 67.8383C89.2116 68.0212 89.5447 68.1727 89.9194 68.3563C89.8553 68.4392 89.8334 68.5018 89.7905 68.5745C89.4026 68.5794 89.0585 68.4591 88.7464 68.2974C87.9345 67.9083 87.1227 67.5193 86.3218 67.099C85.2299 66.5067 84.1489 65.8832 83.0781 65.2808C83.0469 65.2698 82.9945 65.2691 82.921 65.2785C82.7189 66.2083 82.5895 67.1812 82.4601 68.154C82.3206 69.1057 82.2334 70.0582 82.1674 71.0005C82.0904 71.9741 82.0447 72.9586 81.9998 73.8907C81.8286 74.1293 81.5987 74.084 81.3782 74.1123C81.235 73.8692 81.1864 73.6064 81.1167 73.3539C80.7937 73.2234 80.5061 73.5442 80.2151 73.3723C80.1197 73.4443 79.9931 73.5053 79.8977 73.5773C79.814 73.5656 79.7616 73.5648 79.7303 73.5539C79.5223 73.4461 79.4198 73.2874 79.3704 73.0771C79.2122 72.425 79.2111 71.7752 79.2523 71.105C79.2545 70.9478 79.2881 70.8016 79.2904 70.6444C79.3192 68.6535 79.5365 66.6758 79.8272 64.6887C79.8631 64.3853 79.92 64.0717 79.9762 63.8105C80.0561 64.0842 79.8862 63.5157 79.9762 63.8105Z" fill="#BCC6FF"/>
<path d="M71.592 63.7693C71.754 63.8173 71.8126 63.8483 71.8781 63.9016C71.9608 63.8515 72.0279 63.8308 72.1106 63.7807C72.1244 63.8255 72.1606 63.8634 72.1969 63.9012C72.3641 64.0458 72.4402 64.292 72.5232 64.5607C72.7222 65.284 72.9521 65.9488 73.2561 66.6152C73.7778 67.8274 74.4269 68.9758 75.1363 70.081C75.1725 70.1189 75.2311 70.1498 75.3105 70.2479C75.2841 69.7656 75.2561 69.3573 75.2435 68.9197C75.2602 68.4976 75.2477 68.06 75.2575 67.6155C75.2518 67.2003 75.2616 66.7558 75.2491 66.3182C75.2727 65.9185 75.2043 66.4852 75.2365 66.0337C75.2309 65.6186 75.2548 66.0239 75.2715 65.6018C75.2393 66.0532 75.2814 65.1573 75.2715 65.6018C75.2324 66.0308 75.3107 65.1728 75.2715 65.6018C75.333 65.1659 75.2492 64.3071 75.4434 63.9037C75.7569 63.8069 76.0565 63.6652 76.4012 63.8285C76.4871 63.6303 76.5731 63.4321 76.6056 63.2994C76.8674 63.194 77.0705 63.0576 77.3273 63.1745C77.5414 63.5498 77.6057 63.9959 77.744 64.4437C77.7921 64.2817 77.847 64.1421 77.8951 63.9801C78.0742 63.9248 78.2309 63.8763 78.4548 63.8072C78.5358 63.8312 78.6083 63.9069 78.7186 63.9464C78.7759 64.3701 78.7677 64.7406 78.7441 65.1403C78.6442 66.6427 78.8403 64.1295 78.7111 65.6165C78.6243 66.5262 78.5668 67.4514 78.5317 68.3697C78.4738 68.9762 78.4608 69.5689 78.4253 70.1685C78.3527 71.4417 78.2956 72.6857 78.142 73.9349C78.0857 74.4673 77.9407 75.6649 77.7448 76.1423C77.6744 76.3112 77.604 76.4801 77.5645 76.5905C77.3096 76.7182 77.1598 76.789 77.0324 76.8529C76.9653 76.8737 76.9205 76.8875 76.8912 76.8721C76.7084 76.7568 76.5501 76.8793 76.3709 76.9347C76.1329 76.6404 75.7975 75.7139 75.4735 75.6178C75.0238 75.5115 74.6375 75.2139 74.3579 74.7852C74.1646 74.4771 73.9265 74.1827 73.6884 73.8884C73.15 73.0983 72.5891 72.315 72.0214 71.5094C71.9713 71.4268 71.892 71.3287 71.8057 71.2082C71.7283 71.3547 71.7405 71.4736 71.7079 71.6063C71.7074 72.6365 71.6467 73.7099 71.579 74.7609C71.5622 75.183 71.561 75.5758 71.4995 76.0118C71.4844 76.3598 71.4176 76.6993 71.3662 77.0094C71.2567 77.6074 71.0933 79.3011 70.9699 79.8543C70.9373 79.987 70.8978 80.0973 70.8428 80.2369C70.7687 80.2353 70.6947 80.2336 70.6206 80.232C70.4513 79.8428 70.5597 78.2887 70.4299 77.7892C70.3135 78.3648 70.3446 79.9739 70.2831 80.4098C70.2676 80.4391 70.2522 80.4684 70.1919 80.5116C70.1231 80.6064 70.0698 80.6719 69.9786 80.7737C69.7771 80.836 69.5777 79.7939 69.3539 79.8631C69.2952 79.8321 69.2297 79.7788 69.1642 79.7254C69.0282 79.841 68.9146 79.9497 68.8011 80.0584C68.4616 79.9916 68.2959 79.773 68.2663 79.4388C68.2244 78.9857 68.1308 78.5241 68.1113 78.0642C68.0667 76.729 68.1633 75.3748 68.2962 74.0584C68.4201 72.475 68.6474 70.9086 68.7713 69.3252C68.9335 68.0243 69.037 66.6924 69.1475 65.383C69.2037 64.8506 69.3275 64.6161 69.7578 64.2624C69.8388 64.2865 69.9491 64.3259 70.0818 64.3585C70.3073 64.2153 70.5397 64.0944 70.8291 64.0786C70.9032 64.0802 71.0083 64.0232 71.0978 63.9955C71.27 63.9178 71.4198 63.847 71.592 63.7693Z" fill="#BCC6FF"/>
<path d="M71.592 63.7693C71.754 63.8173 71.8126 63.8483 71.8781 63.9016C71.9608 63.8515 72.0279 63.8308 72.1106 63.7807C72.1244 63.8255 72.1606 63.8634 72.1969 63.9012C72.3641 64.0458 72.4402 64.292 72.5232 64.5607C72.7222 65.284 72.9521 65.9488 73.2561 66.6152C73.7778 67.8274 74.4269 68.9758 75.1363 70.081C75.1725 70.1189 75.2311 70.1498 75.3105 70.2479C75.2841 69.7656 75.2561 69.3573 75.2435 68.9197C75.2602 68.4976 75.2477 68.06 75.2575 67.6155C75.2518 67.2003 75.2616 66.7558 75.2491 66.3182C75.2727 65.9185 75.2043 66.4852 75.2365 66.0337C75.2309 65.6186 75.2548 66.0239 75.2715 65.6018C75.2393 66.0532 75.2814 65.1573 75.2715 65.6018C75.2324 66.0308 75.3107 65.1728 75.2715 65.6018C75.333 65.1659 75.2492 64.3071 75.4434 63.9037C75.7569 63.8069 76.0565 63.6652 76.4012 63.8285C76.4871 63.6303 76.5731 63.4321 76.6056 63.2994C76.8674 63.194 77.0705 63.0576 77.3273 63.1745C77.5414 63.5498 77.6057 63.9959 77.744 64.4437C77.7921 64.2817 77.847 64.1421 77.8951 63.9801C78.0742 63.9248 78.2309 63.8763 78.4548 63.8072C78.5358 63.8312 78.6083 63.9069 78.7186 63.9464C78.7759 64.3701 78.7677 64.7406 78.7441 65.1403C78.6442 66.6427 78.8403 64.1295 78.7111 65.6165C78.6243 66.5262 78.5668 67.4514 78.5317 68.3697C78.4738 68.9762 78.4608 69.5689 78.4253 70.1685C78.3527 71.4417 78.2956 72.6857 78.142 73.9349C78.0857 74.4673 77.9407 75.6649 77.7448 76.1423C77.6744 76.3112 77.604 76.4801 77.5645 76.5905C77.3096 76.7182 77.1598 76.789 77.0324 76.8529C76.9653 76.8737 76.9205 76.8875 76.8912 76.8721C76.7084 76.7568 76.5501 76.8793 76.3709 76.9347C76.1329 76.6404 75.7975 75.7139 75.4735 75.6178C75.0238 75.5115 74.6375 75.2139 74.3579 74.7852C74.1646 74.4771 73.9265 74.1827 73.6884 73.8884C73.15 73.0983 72.5891 72.315 72.0214 71.5094C71.9713 71.4268 71.892 71.3287 71.8057 71.2082C71.7283 71.3547 71.7405 71.4736 71.7079 71.6063C71.7074 72.6365 71.6467 73.7099 71.579 74.7609C71.5622 75.183 71.561 75.5758 71.4995 76.0118C71.4844 76.3598 71.4176 76.6993 71.3662 77.0094C71.2567 77.6074 71.0933 79.3011 70.9699 79.8543C70.9373 79.987 70.8978 80.0973 70.8428 80.2369C70.7687 80.2353 70.6947 80.2336 70.6206 80.232C70.4513 79.8428 70.5597 78.2887 70.4299 77.7892C70.3135 78.3648 70.3446 79.9739 70.2831 80.4098C70.2676 80.4391 70.2522 80.4684 70.1919 80.5116C70.1231 80.6064 70.0698 80.6719 69.9786 80.7737C69.7771 80.836 69.5777 79.7939 69.3539 79.8631C69.2952 79.8321 69.2297 79.7788 69.1642 79.7254C69.0282 79.841 68.9146 79.9497 68.8011 80.0584C68.4616 79.9916 68.2959 79.773 68.2663 79.4388C68.2244 78.9857 68.1308 78.5241 68.1113 78.0642C68.0667 76.729 68.1633 75.3748 68.2962 74.0584C68.4201 72.475 68.6474 70.9086 68.7713 69.3252C68.9335 68.0243 69.037 66.6924 69.1475 65.383C69.2037 64.8506 69.3275 64.6161 69.7578 64.2624C69.8388 64.2865 69.9491 64.3259 70.0818 64.3585C70.3073 64.2153 70.5397 64.0944 70.8291 64.0786C70.9032 64.0802 71.0083 64.0232 71.0978 63.9955C71.27 63.9178 71.4198 63.847 71.592 63.7693Z" fill="#BCC6FF"/>
<path d="M71.592 63.7693C71.754 63.8173 71.8126 63.8483 71.8781 63.9016C71.9608 63.8515 72.0279 63.8308 72.1106 63.7807C72.1244 63.8255 72.1606 63.8634 72.1969 63.9012C72.3641 64.0458 72.4402 64.292 72.5232 64.5607C72.7222 65.284 72.9521 65.9488 73.2561 66.6152C73.7778 67.8274 74.4269 68.9758 75.1363 70.081C75.1725 70.1189 75.2311 70.1498 75.3105 70.2479C75.2841 69.7656 75.2561 69.3573 75.2435 68.9197C75.2602 68.4976 75.2477 68.06 75.2575 67.6155C75.2518 67.2003 75.2616 66.7558 75.2491 66.3182C75.2727 65.9185 75.2043 66.4852 75.2365 66.0337C75.2309 65.6186 75.2548 66.0239 75.2715 65.6018C75.2393 66.0532 75.2814 65.1573 75.2715 65.6018C75.2324 66.0308 75.3107 65.1728 75.2715 65.6018C75.333 65.1659 75.2492 64.3071 75.4434 63.9037C75.7569 63.8069 76.0565 63.6652 76.4012 63.8285C76.4871 63.6303 76.5731 63.4321 76.6056 63.2994C76.8674 63.194 77.0705 63.0576 77.3273 63.1745C77.5414 63.5498 77.6057 63.9959 77.744 64.4437C77.7921 64.2817 77.847 64.1421 77.8951 63.9801C78.0742 63.9248 78.2309 63.8763 78.4548 63.8072C78.5358 63.8312 78.6083 63.9069 78.7186 63.9464C78.7759 64.3701 78.7677 64.7406 78.7441 65.1403C78.6442 66.6427 78.8403 64.1295 78.7111 65.6165C78.6243 66.5262 78.5668 67.4514 78.5317 68.3697C78.4738 68.9762 78.4608 69.5689 78.4253 70.1685C78.3527 71.4417 78.2956 72.6857 78.142 73.9349C78.0857 74.4673 77.9407 75.6649 77.7448 76.1423C77.6744 76.3112 77.604 76.4801 77.5645 76.5905C77.3096 76.7182 77.1598 76.789 77.0324 76.8529C76.9653 76.8737 76.9205 76.8875 76.8912 76.8721C76.7084 76.7568 76.5501 76.8793 76.3709 76.9347C76.1329 76.6404 75.7975 75.7139 75.4735 75.6178C75.0238 75.5115 74.6375 75.2139 74.3579 74.7852C74.1646 74.4771 73.9265 74.1827 73.6884 73.8884C73.15 73.0983 72.5891 72.315 72.0214 71.5094C71.9713 71.4268 71.892 71.3287 71.8057 71.2082C71.7283 71.3547 71.7405 71.4736 71.7079 71.6063C71.7074 72.6365 71.6467 73.7099 71.579 74.7609C71.5622 75.183 71.561 75.5758 71.4995 76.0118C71.4844 76.3598 71.4176 76.6993 71.3662 77.0094C71.2567 77.6074 71.0933 79.3011 70.9699 79.8543C70.9373 79.987 70.8978 80.0973 70.8428 80.2369C70.7687 80.2353 70.6947 80.2336 70.6206 80.232C70.4513 79.8428 70.5597 78.2887 70.4299 77.7892C70.3135 78.3648 70.3446 79.9739 70.2831 80.4098C70.2676 80.4391 70.2522 80.4684 70.1919 80.5116C70.1231 80.6064 70.0698 80.6719 69.9786 80.7737C69.7771 80.836 69.5777 79.7939 69.3539 79.8631C69.2952 79.8321 69.2297 79.7788 69.1642 79.7254C69.0282 79.841 68.9146 79.9497 68.8011 80.0584C68.4616 79.9916 68.2959 79.773 68.2663 79.4388C68.2244 78.9857 68.1308 78.5241 68.1113 78.0642C68.0667 76.729 68.1633 75.3748 68.2962 74.0584C68.4201 72.475 68.6474 70.9086 68.7713 69.3252C68.9335 68.0243 69.037 66.6924 69.1475 65.383C69.2037 64.8506 69.3275 64.6161 69.7578 64.2624C69.8388 64.2865 69.9491 64.3259 70.0818 64.3585C70.3073 64.2153 70.5397 64.0944 70.8291 64.0786C70.9032 64.0802 71.0083 64.0232 71.0978 63.9955C71.27 63.9178 71.4198 63.847 71.592 63.7693Z" fill="#BCC6FF"/>
<path d="M64.7025 66.6829C64.9264 66.6137 65.1503 66.5445 65.3742 66.4753C65.4841 66.1961 65.5941 65.9169 65.8937 65.7753C66.1228 65.8026 66.3296 65.8368 66.5588 65.8641C66.7587 65.8759 66.9585 65.8877 67.2101 65.9081C67.3118 65.9993 67.436 66.0836 67.6187 66.1988C67.6378 66.34 67.6863 66.4968 67.7123 66.6604C67.7472 67.0911 67.7598 67.5286 67.7724 67.9662C67.7613 68.8035 67.7571 69.6632 67.7237 70.5075C67.6935 71.2035 67.6409 71.9065 67.4987 72.6371C67.3721 73.3385 67.304 74.0707 67.2359 74.803C67.0945 76.1711 66.9755 77.5323 66.8565 78.8934C66.8414 79.2415 66.797 79.574 66.9525 79.9184C66.8698 79.9685 66.7872 80.0185 66.6907 80.0238C66.5719 80.036 66.4392 80.0034 66.3134 79.9932C65.8995 79.6061 66.0005 79.0598 65.8345 78.5225C65.6557 78.8966 65.7302 79.2169 65.6789 79.5271C65.6345 79.8596 65.6934 80.2093 65.5888 80.585C65.5163 80.5093 65.4577 80.4783 65.4663 80.4266C65.435 80.1665 65.3967 79.884 65.3809 79.5946C65.3756 79.4982 65.3772 79.4241 65.3496 79.3345C65.1472 80.1083 65.2187 80.8955 65.1783 81.7174C65.0872 81.8191 64.9475 81.7642 64.8303 81.7023C64.6871 81.4768 64.6557 81.2166 64.6244 80.9565C64.5545 80.0952 64.4846 79.2339 64.4147 78.3725C64.3903 78.1348 64.3435 77.904 64.3346 77.637C64.2805 77.0651 64.2488 76.4862 64.2171 75.9074C64.1911 75.7438 64.2322 75.5594 64.1166 75.4234C64.0939 75.1116 64.0418 74.7843 64.0638 74.4587C64.1095 73.7333 64.1259 72.9925 64.2232 72.2757C64.319 71.633 64.282 70.9577 64.3484 70.2995C64.4401 69.1675 64.5318 68.0355 64.639 66.8742C64.6476 66.8225 64.694 66.7346 64.7025 66.6829Z" fill="#BCC6FF"/>
<path d="M64.7025 66.6829C64.9264 66.6137 65.1503 66.5445 65.3742 66.4753C65.4841 66.1961 65.5941 65.9169 65.8937 65.7753C66.1228 65.8026 66.3296 65.8368 66.5588 65.8641C66.7587 65.8759 66.9585 65.8877 67.2101 65.9081C67.3118 65.9993 67.436 66.0836 67.6187 66.1988C67.6378 66.34 67.6863 66.4968 67.7123 66.6604C67.7472 67.0911 67.7598 67.5286 67.7724 67.9662C67.7613 68.8035 67.7571 69.6632 67.7237 70.5075C67.6935 71.2035 67.6409 71.9065 67.4987 72.6371C67.3721 73.3385 67.304 74.0707 67.2359 74.803C67.0945 76.1711 66.9755 77.5323 66.8565 78.8934C66.8414 79.2415 66.797 79.574 66.9525 79.9184C66.8698 79.9685 66.7872 80.0185 66.6907 80.0238C66.5719 80.036 66.4392 80.0034 66.3134 79.9932C65.8995 79.6061 66.0005 79.0598 65.8345 78.5225C65.6557 78.8966 65.7302 79.2169 65.6789 79.5271C65.6345 79.8596 65.6934 80.2093 65.5888 80.585C65.5163 80.5093 65.4577 80.4783 65.4663 80.4266C65.435 80.1665 65.3967 79.884 65.3809 79.5946C65.3756 79.4982 65.3772 79.4241 65.3496 79.3345C65.1472 80.1083 65.2187 80.8955 65.1783 81.7174C65.0872 81.8191 64.9475 81.7642 64.8303 81.7023C64.6871 81.4768 64.6557 81.2166 64.6244 80.9565C64.5545 80.0952 64.4846 79.2339 64.4147 78.3725C64.3903 78.1348 64.3435 77.904 64.3346 77.637C64.2805 77.0651 64.2488 76.4862 64.2171 75.9074C64.1911 75.7438 64.2322 75.5594 64.1166 75.4234C64.0939 75.1116 64.0418 74.7843 64.0638 74.4587C64.1095 73.7333 64.1259 72.9925 64.2232 72.2757C64.319 71.633 64.282 70.9577 64.3484 70.2995C64.4401 69.1675 64.5318 68.0355 64.639 66.8742C64.6476 66.8225 64.694 66.7346 64.7025 66.6829Z" fill="#BCC6FF"/>
<path d="M64.7025 66.6829C64.9264 66.6137 65.1503 66.5445 65.3742 66.4753C65.4841 66.1961 65.5941 65.9169 65.8937 65.7753C66.1228 65.8026 66.3296 65.8368 66.5588 65.8641C66.7587 65.8759 66.9585 65.8877 67.2101 65.9081C67.3118 65.9993 67.436 66.0836 67.6187 66.1988C67.6378 66.34 67.6863 66.4968 67.7123 66.6604C67.7472 67.0911 67.7598 67.5286 67.7724 67.9662C67.7613 68.8035 67.7571 69.6632 67.7237 70.5075C67.6935 71.2035 67.6409 71.9065 67.4987 72.6371C67.3721 73.3385 67.304 74.0707 67.2359 74.803C67.0945 76.1711 66.9755 77.5323 66.8565 78.8934C66.8414 79.2415 66.797 79.574 66.9525 79.9184C66.8698 79.9685 66.7872 80.0185 66.6907 80.0238C66.5719 80.036 66.4392 80.0034 66.3134 79.9932C65.8995 79.6061 66.0005 79.0598 65.8345 78.5225C65.6557 78.8966 65.7302 79.2169 65.6789 79.5271C65.6345 79.8596 65.6934 80.2093 65.5888 80.585C65.5163 80.5093 65.4577 80.4783 65.4663 80.4266C65.435 80.1665 65.3967 79.884 65.3809 79.5946C65.3756 79.4982 65.3772 79.4241 65.3496 79.3345C65.1472 80.1083 65.2187 80.8955 65.1783 81.7174C65.0872 81.8191 64.9475 81.7642 64.8303 81.7023C64.6871 81.4768 64.6557 81.2166 64.6244 80.9565C64.5545 80.0952 64.4846 79.2339 64.4147 78.3725C64.3903 78.1348 64.3435 77.904 64.3346 77.637C64.2805 77.0651 64.2488 76.4862 64.2171 75.9074C64.1911 75.7438 64.2322 75.5594 64.1166 75.4234C64.0939 75.1116 64.0418 74.7843 64.0638 74.4587C64.1095 73.7333 64.1259 72.9925 64.2232 72.2757C64.319 71.633 64.282 70.9577 64.3484 70.2995C64.4401 69.1675 64.5318 68.0355 64.639 66.8742C64.6476 66.8225 64.694 66.7346 64.7025 66.6829Z" fill="#BCC6FF"/>
<path d="M67.4201 61.4234C67.0345 61.7632 66.6869 62.0669 66.3238 62.3998C66.7268 62.2753 67.109 62.0836 67.5136 61.885C67.8152 61.988 68.1857 61.9962 68.355 62.3854C68.3105 62.7179 68.1334 63.0179 67.9494 63.2955C67.7947 63.5885 63.3792 66.2088 63.3348 66.5413C63.1604 67.7234 62.9568 68.89 62.8048 70.0651C62.7364 70.4787 62.7197 70.9008 62.7184 71.2936C62.6591 73.6418 62.4895 75.9506 62.1046 78.2769C61.9575 79.2298 61.7881 80.1896 61.5222 81.1547C61.378 81.6407 61.2339 82.1267 61.0604 82.5972C60.6859 83.4487 60.1509 84.1781 59.2952 84.6632C58.6427 85.012 58.0194 85.3762 57.2961 85.5752C56.8638 85.6842 56.4177 85.7485 55.9715 85.8128C55.2119 85.9739 54.4678 86.1057 53.6944 86.222C53.486 86.2619 53.2414 86.2639 53.0708 86.2675C52.7985 86.18 52.8844 85.9818 52.8584 85.8181C52.7636 85.7493 52.6756 85.7029 52.5808 85.6341C52.4807 85.4688 52.6236 85.3756 52.7148 85.2739C52.6802 85.1619 52.6456 85.05 52.5817 84.9226C52.7246 84.8294 52.8382 84.7207 52.9656 84.6568C53.7284 84.3475 54.4274 83.9109 55.1695 83.5344C55.3795 83.4205 55.5827 83.2841 55.7996 83.1926C56.0923 83.0285 56.3195 82.8112 56.5104 82.556C56.7701 82.206 57.0006 81.8405 57.1724 81.444C57.7978 79.9754 58.2095 78.4503 58.5402 76.9011C59.1246 74.2679 59.5539 71.6091 59.8575 68.9401C59.8746 68.8367 59.8762 68.7626 59.8795 68.6144C59.7899 68.6421 59.7159 68.6405 59.6556 68.6836C58.7466 69.2343 57.8014 69.747 56.8423 70.215C56.5427 70.3567 56.2276 70.5276 55.928 70.6692C55.718 70.7832 55.501 70.8747 55.2616 70.9732C54.9014 70.8392 54.5705 70.7208 54.2396 70.6023C54.067 70.3613 54.1012 70.1545 54.2767 69.9286C54.4057 69.7906 54.5348 69.6527 54.6484 69.544C54.5499 69.3046 54.3191 69.3514 54.1656 69.2517C54.0741 69.0347 54.1877 68.926 54.3305 68.8328C54.699 68.5964 55.0743 68.3823 55.4134 68.1304C56.2345 67.5333 57.0901 67.0482 57.9112 66.4512C58.6342 65.9335 59.3934 65.4536 60.1526 64.9738C60.9566 64.4801 66.1525 61.766 67.0273 61.4221C67.1099 61.3721 67.2064 61.3668 67.2959 61.3391C67.3183 61.3322 67.3545 61.3701 67.4201 61.4234Z" fill="#BCC6FF"/>
<path d="M67.4201 61.4234C67.0345 61.7632 66.6869 62.0669 66.3238 62.3998C66.7268 62.2753 67.109 62.0836 67.5136 61.885C67.8152 61.988 68.1857 61.9962 68.355 62.3854C68.3105 62.7179 68.1334 63.0179 67.9494 63.2955C67.7947 63.5885 63.3792 66.2088 63.3348 66.5413C63.1604 67.7234 62.9568 68.89 62.8048 70.0651C62.7364 70.4787 62.7197 70.9008 62.7184 71.2936C62.6591 73.6418 62.4895 75.9506 62.1046 78.2769C61.9575 79.2298 61.7881 80.1896 61.5222 81.1547C61.378 81.6407 61.2339 82.1267 61.0604 82.5972C60.6859 83.4487 60.1509 84.1781 59.2952 84.6632C58.6427 85.012 58.0194 85.3762 57.2961 85.5752C56.8638 85.6842 56.4177 85.7485 55.9715 85.8128C55.2119 85.9739 54.4678 86.1057 53.6944 86.222C53.486 86.2619 53.2414 86.2639 53.0708 86.2675C52.7985 86.18 52.8844 85.9818 52.8584 85.8181C52.7636 85.7493 52.6756 85.7029 52.5808 85.6341C52.4807 85.4688 52.6236 85.3756 52.7148 85.2739C52.6802 85.1619 52.6456 85.05 52.5817 84.9226C52.7246 84.8294 52.8382 84.7207 52.9656 84.6568C53.7284 84.3475 54.4274 83.9109 55.1695 83.5344C55.3795 83.4205 55.5827 83.2841 55.7996 83.1926C56.0923 83.0285 56.3195 82.8112 56.5104 82.556C56.7701 82.206 57.0006 81.8405 57.1724 81.444C57.7978 79.9754 58.2095 78.4503 58.5402 76.9011C59.1246 74.2679 59.5539 71.6091 59.8575 68.9401C59.8746 68.8367 59.8762 68.7626 59.8795 68.6144C59.7899 68.6421 59.7159 68.6405 59.6556 68.6836C58.7466 69.2343 57.8014 69.747 56.8423 70.215C56.5427 70.3567 56.2276 70.5276 55.928 70.6692C55.718 70.7832 55.501 70.8747 55.2616 70.9732C54.9014 70.8392 54.5705 70.7208 54.2396 70.6023C54.067 70.3613 54.1012 70.1545 54.2767 69.9286C54.4057 69.7906 54.5348 69.6527 54.6484 69.544C54.5499 69.3046 54.3191 69.3514 54.1656 69.2517C54.0741 69.0347 54.1877 68.926 54.3305 68.8328C54.699 68.5964 55.0743 68.3823 55.4134 68.1304C56.2345 67.5333 57.0901 67.0482 57.9112 66.4512C58.6342 65.9335 59.3934 65.4536 60.1526 64.9738C60.9566 64.4801 66.1525 61.766 67.0273 61.4221C67.1099 61.3721 67.2064 61.3668 67.2959 61.3391C67.3183 61.3322 67.3545 61.3701 67.4201 61.4234Z" fill="#BCC6FF"/>
<path d="M67.4201 61.4234C67.0345 61.7632 66.6869 62.0669 66.3238 62.3998C66.7268 62.2753 67.109 62.0836 67.5136 61.885C67.8152 61.988 68.1857 61.9962 68.355 62.3854C68.3105 62.7179 68.1334 63.0179 67.9494 63.2955C67.7947 63.5885 63.3792 66.2088 63.3348 66.5413C63.1604 67.7234 62.9568 68.89 62.8048 70.0651C62.7364 70.4787 62.7197 70.9008 62.7184 71.2936C62.6591 73.6418 62.4895 75.9506 62.1046 78.2769C61.9575 79.2298 61.7881 80.1896 61.5222 81.1547C61.378 81.6407 61.2339 82.1267 61.0604 82.5972C60.6859 83.4487 60.1509 84.1781 59.2952 84.6632C58.6427 85.012 58.0194 85.3762 57.2961 85.5752C56.8638 85.6842 56.4177 85.7485 55.9715 85.8128C55.2119 85.9739 54.4678 86.1057 53.6944 86.222C53.486 86.2619 53.2414 86.2639 53.0708 86.2675C52.7985 86.18 52.8844 85.9818 52.8584 85.8181C52.7636 85.7493 52.6756 85.7029 52.5808 85.6341C52.4807 85.4688 52.6236 85.3756 52.7148 85.2739C52.6802 85.1619 52.6456 85.05 52.5817 84.9226C52.7246 84.8294 52.8382 84.7207 52.9656 84.6568C53.7284 84.3475 54.4274 83.9109 55.1695 83.5344C55.3795 83.4205 55.5827 83.2841 55.7996 83.1926C56.0923 83.0285 56.3195 82.8112 56.5104 82.556C56.7701 82.206 57.0006 81.8405 57.1724 81.444C57.7978 79.9754 58.2095 78.4503 58.5402 76.9011C59.1246 74.2679 59.5539 71.6091 59.8575 68.9401C59.8746 68.8367 59.8762 68.7626 59.8795 68.6144C59.7899 68.6421 59.7159 68.6405 59.6556 68.6836C58.7466 69.2343 57.8014 69.747 56.8423 70.215C56.5427 70.3567 56.2276 70.5276 55.928 70.6692C55.718 70.7832 55.501 70.8747 55.2616 70.9732C54.9014 70.8392 54.5705 70.7208 54.2396 70.6023C54.067 70.3613 54.1012 70.1545 54.2767 69.9286C54.4057 69.7906 54.5348 69.6527 54.6484 69.544C54.5499 69.3046 54.3191 69.3514 54.1656 69.2517C54.0741 69.0347 54.1877 68.926 54.3305 68.8328C54.699 68.5964 55.0743 68.3823 55.4134 68.1304C56.2345 67.5333 57.0901 67.0482 57.9112 66.4512C58.6342 65.9335 59.3934 65.4536 60.1526 64.9738C60.9566 64.4801 66.1525 61.766 67.0273 61.4221C67.1099 61.3721 67.2064 61.3668 67.2959 61.3391C67.3183 61.3322 67.3545 61.3701 67.4201 61.4234Z" fill="#BCC6FF"/>
<path opacity="0.1" d="M38.4698 47.9957L32.5563 44.6841L83.8858 25.2877L81.1656 32.0292L83.1762 38.2975L40.717 54.5006L38.4698 47.9957Z" fill="white"/>
<path d="M45.9209 90.5733C51.0968 93.2197 56.7005 94.9288 62.4723 95.6214L62.6165 95.6387L66.7316 95.6387C69.8141 95.6387 72.8879 95.3107 75.9009 94.6601L76.9211 94.4399C80.1426 93.7443 83.253 92.6085 86.1646 91.0645C88.4365 89.8597 90.5723 88.4144 92.5353 86.7533L93.1724 86.2142C94.8761 84.7727 96.4568 83.192 97.8984 81.4883C99.9167 79.103 101.65 76.4906 103.064 73.7041L104.347 71.1769" stroke="#C4CBF5" stroke-width="0.865774"/>
<path d="M33.7582 56.964L46.1574 90.8019" stroke="#C4CBF5" stroke-width="0.865774"/>
<path d="M90.6465 36.03L104.249 71.5723" stroke="#C4CBF5" stroke-width="0.865774"/>
<path d="M31.6293 44.7822L84.6131 24.8729" stroke="#C4CBF5" stroke-width="0.865774"/>
<path d="M33.4843 57.5737L89.9013 35.8166L81.5843 31.9541C81.3455 31.8432 81.2432 31.5586 81.3568 31.3211L84.2531 25.2605" stroke="#C4CBF5" stroke-width="0.865774"/>
<path d="M32.1047 44.6189L38.0685 47.8163C38.2952 47.9379 38.3833 48.2183 38.2667 48.4476L33.7582 57.319" stroke="#C4CBF5" stroke-width="0.865774"/>
<path d="M31.866 44.1908L35.7087 53.7963" stroke="#C4CBF5" stroke-width="0.865774"/>
<path d="M38.3514 48.3506L40.7169 54.9738" stroke="#C4CBF5" stroke-width="0.865774"/>
<path d="M81.4021 31.7926L83.7675 38.6523" stroke="#C4CBF5" stroke-width="0.865774"/>
<path d="M84.2947 25.3711L87.6898 34.7292" stroke="#C4CBF5" stroke-width="0.865774"/>
<circle cx="55.9738" cy="54.3824" r="2.48369" fill="#2B3B52"/>
<circle cx="52.4257" cy="41.6091" r="1.77406" fill="#13253F"/>
<circle cx="71.5855" cy="48.4688" r="2.48369" fill="#2B3B52"/>
<circle cx="63.3067" cy="37.5879" r="1.77406" fill="#13253F"/>
<path d="M46 52.5C43.5 41.6667 41.4 20.2 53 21C64.6 21.8 72.5 34.6667 75 41" stroke="#C4CBF5" stroke-width="0.865774"/>
<path d="M50.0001 38C47.7389 27.346 45.5081 13.7133 56.0001 14.5001C66.492 15.2868 70.2388 23.2715 72.5 29.5" stroke="#C4CBF5" stroke-width="0.865774"/>
</svg>
