<svg width="70" height="70" viewBox="0 0 70 70" fill="none" xmlns="http://www.w3.org/2000/svg">
<g clip-path="url(#clip0_1_952)">
<path fill-rule="evenodd" clip-rule="evenodd" d="M34.9361 13.9776C23.3644 13.9776 13.9793 23.3628 13.9793 34.937C13.9793 46.5164 23.3644 55.9008 34.9361 55.9008C46.5181 55.9008 55.9032 46.5156 55.9032 34.937C55.9032 23.362 46.5181 13.9776 34.9361 13.9776ZM69.6595 34.937C69.6595 54.1144 54.1143 69.6587 34.9361 69.6587C15.7647 69.6587 0.219543 54.1144 0.219543 34.937C0.219543 15.7647 15.7647 0.219604 34.9361 0.219604C54.1143 0.219604 69.6595 15.7647 69.6595 34.937Z" fill="#AC2318"/>
<path fill-rule="evenodd" clip-rule="evenodd" d="M54.4997 34.9362C54.4997 45.7394 45.7436 54.4973 34.9368 54.4973C24.1412 54.4973 15.386 45.7394 15.386 34.9362C15.386 24.1388 24.1412 15.3828 34.9368 15.3828C45.7436 15.3828 54.4997 24.1388 54.4997 34.9362Z" fill="#441500"/>
<path fill-rule="evenodd" clip-rule="evenodd" d="M38.061 47.187C38.8933 47.187 41.212 45.9512 40.3521 45.3844C39.8085 45.0282 39.1707 44.5512 37.9928 43.6499C37.4648 43.2463 37.2332 43.356 37.0707 43.356C36.585 43.356 37.3732 42.5705 37.1139 41.9378C36.8261 41.2482 36.6628 40.1905 36.4216 39.9503C36.178 39.7065 36.2774 38.4293 36.7863 37.9203C37.343 37.3646 38.1405 35.7476 38.5804 35.1289C39.1033 34.3892 39.462 32.7653 39.2554 32.5562C39.0454 32.3488 38.0948 30.3766 37.6808 29.961C37.4111 29.693 36.9722 29.0328 36.5297 28.497L36.426 28.3493L35.9784 28.6033C35.5315 28.8617 34.9793 29.3898 34.9793 29.3898C34.9793 29.3898 34.5948 29.5176 33.7046 29.3388C33.225 29.2438 33.0522 28.9058 33.0522 28.5221C33.0522 28.1393 32.8015 28.236 32.8015 28.236C32.8015 28.236 28.3095 28.4539 27.9793 28.644C27.6527 28.8341 26.2163 30.8018 26.2163 30.8018C26.2163 30.8018 25.4533 38.2798 26.0427 38.8717C26.7471 39.5734 30.4181 45.3575 31.1051 46.048C31.7879 46.983 37.2289 47.187 38.061 47.187ZM29.3905 30.6333C28.9274 30.7163 28.1781 30.585 27.8263 31.2262L27.1566 34.1333C27.1566 34.1333 27.2284 37.0525 27.2932 37.6324C27.3554 38.2089 28.109 40.0911 28.529 40.5146C28.9005 40.8862 29.6239 42.1159 30.279 42.7641C30.4561 42.9377 30.8156 43.0216 30.9669 43.2256C31.2391 43.5938 31.0689 43.3405 30.5805 42.618C28.7856 39.9589 28.3985 37.6645 28.3111 37.2721C28.1193 36.4165 28.2602 34.4072 28.3111 33.6018C28.3372 33.1758 28.6327 32.2192 28.9144 32.0057C29.0457 31.9036 30.2773 31.7671 30.5252 31.6971C30.9098 31.5848 31.4551 31.5917 31.8078 31.5192C32.9355 31.2866 35.0096 31.864 35.1504 31.9305C36.8391 32.7117 36.1832 32.984 36.2091 33.0756C36.235 33.1706 33.8585 37.9582 33.8689 38.1829C33.8801 38.4266 33.9664 40.8213 34.1903 41.4756C34.2569 41.6692 35.0071 43.4805 35.1419 43.8089C35.7363 45.2477 33.8637 43.5695 33.7427 43.5039C33.6216 43.4356 31.1509 39.1915 30.794 38.2901C30.553 37.6844 30.641 36.7709 30.6886 36.5772C30.7534 36.3111 30.5615 34.2612 30.9427 33.9812C31.202 33.7911 32.3574 33.6745 32.9156 33.9191C33.423 34.1419 33.696 34.7115 33.6433 34.8454C33.6027 34.9586 32.8007 37.5469 32.6754 37.33C32.6356 37.2592 32.6322 36.4399 32.5267 36.3586C32.4196 36.2748 31.8302 36.1521 31.7577 36.2463C31.685 36.343 31.5433 37.2116 31.6177 37.5098C31.9745 38.9477 32.8067 38.5001 32.964 38.2313C33.1974 37.8329 34.3278 34.6535 34.3071 34.4478C34.2595 33.9804 33.9138 33.1741 33.1801 32.9269C32.7402 32.78 30.8278 32.8621 30.3014 33.1369C29.4934 33.5612 29.5409 37.2366 29.6948 37.7716C29.8486 38.303 32.3945 42.5774 32.5138 42.9058C32.7497 43.5462 34.2905 45.0689 34.5316 45.2123C34.632 45.2728 36.7354 46.0895 37.0077 45.6799C37.126 45.5018 37.0673 45.0058 36.5417 44.6627C36.0405 44.3344 34.8428 40.8404 34.8462 40.5664C34.8514 40.3071 34.5351 38.3627 34.7451 37.9582C35.1427 37.1857 38.0066 32.8941 37.693 32.5483C37.273 32.0844 35.9879 29.9177 35.3855 30.7335C34.842 31.4724 32.2675 30.7119 31.6262 30.2427C31.5787 30.2064 30.0603 30.5098 29.3905 30.6333ZM41.9292 20.5472C42.1842 20.5775 43.312 20.9733 43.312 20.9733C43.312 20.9733 44.4008 22.5652 44.6783 22.9074C44.9583 23.2488 44.8338 23.4968 44.8338 23.4968L44.2997 25.4481C44.1036 25.29 42.6621 25.4197 42.3198 25.4524C41.9758 25.4818 42.6309 25.0471 42.7864 24.8924C42.9421 24.7369 43.5634 24.3022 43.4831 24.0542C43.4087 23.8045 42.471 21.9913 42.471 21.9913C42.471 21.9913 40.8343 21.9758 40.0574 22.0692C39.2804 22.1616 37.648 23.7863 37.648 23.7863L37.0534 26.1352C37.0534 26.1352 37.2937 26.5672 37.6358 26.8472C37.9773 27.1272 38.971 27.033 39.3427 27.0028C39.7143 26.9725 39.5613 27.4064 39.2502 27.6856C38.9391 27.9647 37.8216 27.9647 37.8216 27.9647L38.2857 28.1203C38.8008 28.5869 39.7428 30.9739 40.2985 31.5312C40.8533 32.0844 40.2811 34.8844 39.4844 35.6811C38.685 36.4753 38.3048 38.1916 37.8191 38.6772C37.3308 39.1639 36.8271 38.9736 37.3308 39.4758C37.8373 39.977 37.6013 40.5828 37.6808 41.0262C37.7327 41.3105 37.8131 41.8291 38.0593 42.0718C38.2987 42.3139 41.981 44.8658 43.4605 44.9824C43.7302 45.005 43.7337 46.3039 42.2171 47.9C42.2171 47.9 41.9464 48.8212 39.4171 48.9024C36.6577 48.9889 33.9432 48.5282 33.3184 48.5282C32.6961 48.5282 30.8822 47.4972 30.8822 47.4972C30.5374 47.4972 24.7775 39.4835 24.7775 38.9305C24.7775 38.3748 24.3679 36.8763 24.3679 36.3206C24.3679 35.7675 25.0099 30.6921 24.9072 30.0776C24.8258 29.5954 25.0774 29.483 25.6331 28.9274C26.1871 28.3744 27.1886 27.4341 27.568 27.0529C27.7391 26.8827 29.0674 26.9199 30.6764 26.5759L30.9262 26.4697L30.6064 26.3141C30.6064 26.3141 30.088 25.6633 29.2514 25.6945C28.414 25.7247 28.1332 25.7877 28.5687 25.6019C29.0034 25.4162 29.7838 24.8268 29.7838 24.8268L31.609 25.633H32.9891L34.7175 24.2098L38.6392 21.0244L41.9292 20.5472ZM62.7944 34.4884C62.6905 34.4863 62.5871 34.5047 62.4902 34.5425C62.3933 34.5803 62.3048 34.6367 62.2299 34.7088C62.1549 34.7808 62.0947 34.8669 62.053 34.9621C62.0111 35.0573 61.9886 35.1597 61.9863 35.2636C61.9842 35.3676 62.0026 35.471 62.0404 35.5678C62.0782 35.6647 62.1346 35.7532 62.2067 35.8282C62.2786 35.9033 62.3646 35.9633 62.4599 36.0052C62.5551 36.0469 62.6576 36.0696 62.7615 36.0717C62.9715 36.076 63.1746 35.9968 63.3261 35.8515C63.4776 35.7062 63.5652 35.5065 63.5696 35.2965C63.5739 35.0865 63.4947 34.8835 63.3494 34.7319C63.204 34.5804 63.0044 34.4929 62.7944 34.4884ZM6.86354 23.0068C7.18848 22.255 7.75972 21.7865 8.45539 21.4547C8.50953 21.4278 8.55089 21.3808 8.57047 21.3237C8.59006 21.2666 8.58628 21.204 8.55996 21.1497L8.16071 20.32C8.13427 20.2661 8.0876 20.2251 8.0309 20.2056C7.9742 20.1862 7.91211 20.19 7.85824 20.2163C6.9949 20.6251 6.22059 21.2584 5.68737 22.484C4.72466 24.6971 5.74786 26.9899 7.83318 27.8991L7.79169 27.8817C9.87699 28.7882 12.2509 27.9742 13.2128 25.761C13.7486 24.5356 13.6855 23.5382 13.3995 22.6257C13.3802 22.5688 13.3399 22.5217 13.2868 22.4938C13.2337 22.4659 13.1719 22.4596 13.1143 22.4762L12.2328 22.7501C12.1755 22.7686 12.1278 22.8088 12.1 22.8623C12.0722 22.9156 12.0665 22.9778 12.0842 23.0353C12.314 23.7691 12.3607 24.5062 12.034 25.2571C11.423 26.6571 9.83638 27.1697 8.39836 26.5422C6.95687 25.9174 6.25169 24.4068 6.86354 23.0068ZM27.9499 8.37591C27.8913 8.38792 27.8302 8.37621 27.7803 8.34332C27.7301 8.31045 27.6951 8.25908 27.683 8.20048L27.2025 5.83603C27.191 5.77659 27.2035 5.71502 27.2371 5.6647C27.2707 5.61438 27.3229 5.57937 27.3822 5.56726L28.7502 5.28985C29.7769 5.08245 30.5304 5.42813 30.7189 6.35368C30.8891 7.18936 30.3577 7.88763 29.3205 8.09936L27.9499 8.37591ZM32.4904 6.03653C32.1681 4.44467 30.4267 3.65133 28.6102 4.02034L25.7566 4.59936C25.6979 4.61126 25.6461 4.64592 25.6128 4.69577C25.5795 4.74563 25.5671 4.80665 25.5786 4.86554L27.072 12.2225C27.0944 12.3434 27.2154 12.4264 27.3373 12.4005L28.2645 12.2129C28.3237 12.2005 28.3755 12.1652 28.4089 12.1147C28.4422 12.0642 28.4544 12.0026 28.4426 11.9433L28.0234 9.88133C28.0121 9.82227 28.0244 9.76114 28.0577 9.71106C28.0911 9.66099 28.1426 9.62593 28.2014 9.61344L29.5272 9.34554C31.2443 8.99641 32.8474 7.79949 32.4904 6.03653ZM64.649 26.8377C64.6211 26.8484 64.5914 26.8533 64.5616 26.8523C64.5319 26.8513 64.5027 26.8446 64.4755 26.8323C64.4484 26.8199 64.4239 26.8024 64.4036 26.7807C64.3833 26.759 64.3673 26.7334 64.3569 26.7056L62.9336 22.9152C62.9235 22.8871 62.9079 22.8612 62.8878 22.839C62.8678 22.8169 62.8434 22.7991 62.8162 22.7865C62.7891 22.7741 62.7598 22.7671 62.7299 22.766C62.7 22.7648 62.6702 22.7697 62.6424 22.7804L60.6615 23.5235C60.6052 23.5452 60.5597 23.5882 60.5348 23.6432C60.5099 23.6982 60.5076 23.7608 60.5285 23.8174L61.5957 26.6606C61.6166 26.7172 61.6142 26.7796 61.5893 26.8344C61.5645 26.8892 61.519 26.9321 61.4627 26.9535L60.7151 27.2318C60.659 27.2528 60.5968 27.2507 60.5422 27.2259C60.4876 27.2012 60.4451 27.1557 60.4239 27.0997L59.3575 24.2564C59.3361 24.2004 59.2937 24.155 59.2392 24.13C59.1848 24.1049 59.1226 24.1023 59.0662 24.1224L57.9575 24.5381C57.9293 24.5484 57.9034 24.5643 57.8812 24.5846C57.8591 24.605 57.8413 24.6296 57.8289 24.6569C57.8164 24.6844 57.8096 24.7139 57.8086 24.7439C57.8077 24.774 57.8128 24.8039 57.8236 24.8319L59.265 28.6759C59.2759 28.7039 59.2811 28.7337 59.2803 28.7637C59.2794 28.7937 59.2727 28.8232 59.2602 28.8505C59.2478 28.8778 59.2301 28.9023 59.208 28.9226C59.186 28.943 59.1601 28.9587 59.132 28.9689L58.3871 29.2489C58.3591 29.2593 58.3294 29.2641 58.2997 29.2628C58.2699 29.2617 58.2406 29.2548 58.2136 29.2424C58.1866 29.2299 58.1622 29.2123 58.1421 29.1904C58.1218 29.1684 58.1061 29.1428 58.0957 29.115L56.1599 23.9609C56.1396 23.9043 56.1424 23.8421 56.1674 23.7875C56.1924 23.7329 56.2379 23.6902 56.2939 23.6688L63.3198 21.0321C63.3765 21.0109 63.4391 21.013 63.4943 21.0377C63.5494 21.0624 63.5927 21.1079 63.6145 21.1644L65.5304 26.2665C65.5502 26.3229 65.5471 26.3848 65.5219 26.439C65.4967 26.4932 65.4515 26.5355 65.3956 26.5569L64.649 26.8377ZM57.3508 12.7341C57.3961 12.695 57.4551 12.6755 57.5147 12.6799C57.5744 12.6843 57.6298 12.7121 57.6689 12.7574L58.2858 13.4747C58.3246 13.5205 58.3437 13.5798 58.339 13.6397C58.3343 13.6996 58.3063 13.7551 58.2608 13.7944L53.5372 17.8578C53.5141 17.8769 53.495 17.9003 53.481 17.9267C53.4672 17.9532 53.4586 17.9822 53.4561 18.012C53.4536 18.0418 53.457 18.0718 53.4661 18.1002C53.4753 18.1286 53.49 18.1549 53.5095 18.1776L55.9439 21.0062C56.0234 21.1012 56.0131 21.2456 55.9205 21.3284L55.2992 21.8609C55.253 21.8999 55.1934 21.9194 55.133 21.9152C55.0727 21.911 55.0164 21.8834 54.976 21.8383L51.6315 17.946C51.5927 17.9004 51.5735 17.8413 51.578 17.7817C51.5826 17.7219 51.6105 17.6665 51.6557 17.6271L57.3508 12.7341ZM47.8766 14.8107C47.8614 14.8365 47.8413 14.8589 47.8173 14.8768C47.7934 14.8949 47.7661 14.9079 47.7371 14.9152C47.7081 14.9226 47.678 14.9243 47.6484 14.9199C47.6188 14.9156 47.5904 14.9055 47.5646 14.8903L46.7437 14.4019C46.6923 14.3706 46.6553 14.3203 46.6408 14.2619C46.6262 14.2036 46.6353 14.1418 46.6658 14.09L49.8461 8.75443C49.8762 8.70255 49.8847 8.64099 49.87 8.58287C49.8553 8.52476 49.8186 8.47468 49.7675 8.44331L47.9898 7.38295C47.9643 7.36781 47.9421 7.34779 47.9243 7.32405C47.9065 7.30031 47.8936 7.27329 47.8864 7.24456C47.8791 7.21582 47.8775 7.18593 47.8817 7.15658C47.8861 7.12724 47.896 7.09903 47.9111 7.07356L48.3398 6.35022C48.3713 6.29827 48.4219 6.26072 48.4807 6.2457C48.5395 6.23066 48.6019 6.23934 48.6544 6.26985L53.8102 9.34726C53.8359 9.36235 53.8585 9.38237 53.8765 9.40617C53.8946 9.42997 53.9078 9.45709 53.9153 9.48599C53.9229 9.51488 53.9246 9.54497 53.9205 9.57455C53.9164 9.60413 53.9065 9.63262 53.8914 9.65837L53.4593 10.3817C53.4281 10.433 53.378 10.4699 53.3198 10.4845C53.2615 10.499 53.1999 10.4901 53.1483 10.4595L51.3697 9.39825C51.3175 9.36759 51.2553 9.35884 51.1967 9.37389C51.1381 9.38895 51.0879 9.42661 51.0569 9.47862L47.8766 14.8107ZM40.3737 4.99516C38.8155 4.72121 37.5072 5.7738 37.2366 7.30775C36.9687 8.84257 37.8562 10.3013 39.4144 10.5744C40.9734 10.8492 42.2749 9.79492 42.5445 8.26183C42.8125 6.72874 41.9257 5.26738 40.3737 4.99516ZM39.1707 11.837C36.7596 11.4153 35.4002 9.29455 35.7891 7.07615C36.1772 4.85862 38.208 3.30825 40.6183 3.73171C43.0215 4.1543 44.3827 6.27245 43.993 8.49344C43.604 10.7118 41.5784 12.2596 39.1707 11.837ZM20.473 6.64232C20.5263 6.6147 20.5886 6.60938 20.6459 6.62752C20.7033 6.64565 20.751 6.68579 20.7789 6.73912L24.253 13.3926C24.2801 13.4462 24.2852 13.5084 24.2671 13.5657C24.249 13.6231 24.2091 13.671 24.1561 13.6994L23.3204 14.135C23.2672 14.1628 23.2052 14.1686 23.1477 14.1509C23.0903 14.1333 23.0421 14.0937 23.0137 14.0407L19.5396 7.38639C19.512 7.33274 19.5068 7.27033 19.525 7.21283C19.5434 7.15535 19.5837 7.10744 19.6373 7.07961L20.473 6.64232ZM14.4979 17.8942C14.4114 17.9831 14.4114 18.1266 14.5013 18.214L16.2193 19.8905C16.2618 19.9326 16.2858 19.9899 16.2864 20.0497C16.2871 20.1095 16.2643 20.1671 16.2228 20.2103L15.5616 20.8877C15.541 20.9091 15.5163 20.9262 15.489 20.938C15.4617 20.9497 15.4323 20.956 15.4026 20.9563C15.3728 20.9566 15.3432 20.951 15.3156 20.9399C15.2882 20.9287 15.263 20.9122 15.242 20.8912L9.87095 15.6456C9.82847 15.603 9.80432 15.5456 9.80368 15.4855C9.80303 15.4255 9.82594 15.3675 9.86749 15.3241L10.5277 14.65C10.5484 14.6286 10.5731 14.6114 10.6005 14.5996C10.6278 14.5877 10.6572 14.5813 10.687 14.5809C10.7168 14.5804 10.7463 14.5858 10.774 14.5968C10.8017 14.6077 10.827 14.6241 10.8484 14.6448L13.2491 16.9911C13.3372 17.0775 13.4824 17.0775 13.5706 16.9876L16.1415 14.3545C16.1834 14.3114 16.2066 14.2535 16.206 14.1936C16.2056 14.1336 16.1815 14.0762 16.139 14.0339L13.7374 11.6875C13.6947 11.6453 13.6705 11.5879 13.6698 11.5279C13.6692 11.4679 13.6922 11.41 13.7339 11.3669L14.3933 10.692C14.4357 10.6491 14.4933 10.6246 14.5536 10.6238C14.6138 10.623 14.6721 10.6459 14.7156 10.6876L20.084 15.9342C20.1739 16.0206 20.1748 16.1641 20.0884 16.2548L19.429 16.9306C19.3861 16.9732 19.3285 16.9974 19.2681 16.9981C19.2076 16.9987 19.1494 16.9757 19.1057 16.9341L17.3895 15.2575C17.3465 15.2158 17.2887 15.1928 17.2287 15.1936C17.1688 15.1943 17.1116 15.219 17.0697 15.2618L14.4979 17.8942ZM7.5696 46.563L10.2745 45.5546L8.06996 45.0472L8.06045 45.024L9.38268 43.216L6.69502 44.2176L6.36144 43.3249L10.5035 41.7798L10.87 42.7641L9.5244 44.5038L11.6832 44.9401L12.0496 45.9235L7.90749 47.4688L7.57045 46.563H7.5696ZM62.9975 45.946L58.8164 44.5183L59.1293 43.598L62.4755 44.7413L63.1885 42.6569L64.0225 42.9404L62.9975 45.946ZM60.1093 51.4786L56.3155 49.2153L56.8125 48.3822L59.8484 50.191L60.9761 48.3018L61.7367 48.7521L60.1093 51.4786ZM57.4286 54.8948L54.0893 51.9998L54.7272 51.2669L58.063 54.1619L57.4286 54.8948ZM52.6237 55.5344C52.3652 55.2094 52.0032 55.2214 51.6325 55.5135L50.8762 56.1159L51.6601 57.1089L52.4336 56.4978C52.806 56.2075 52.8639 55.8394 52.6297 55.5472L52.6237 55.5344ZM54.4151 57.8313L52.7939 57.3094L52.1933 57.7812L53.0713 58.8908L52.3099 59.4958L49.5679 56.0295L51.1502 54.7756C51.9703 54.1282 52.8008 54.1723 53.3651 54.8862L53.3721 54.8948C53.8145 55.454 53.793 56.0459 53.4801 56.5575L55.3036 57.1278L54.4151 57.8313ZM47.7928 62.1316C46.5424 62.7063 45.2762 62.2206 44.7301 61.0314L44.7257 61.0211C44.2003 59.8804 44.6627 58.534 45.8803 57.9782C46.6028 57.6464 47.1274 57.6412 47.7115 57.8054L47.4636 58.731C47.0349 58.6152 46.6901 58.5927 46.226 58.8045C45.5822 59.1 45.3315 59.9046 45.6452 60.5847L45.6504 60.5968C45.9892 61.3313 46.742 61.6407 47.4514 61.3141C47.7746 61.1663 48.0227 60.9528 48.1748 60.6901L47.9111 60.1146L47.021 60.5251L46.672 59.7603L48.4125 58.9592L49.2161 60.7057C48.9289 61.3369 48.4235 61.8433 47.7928 62.1316ZM40.0177 64.4718L37.546 61.9493L37.8934 64.738L36.9385 64.8556L36.3914 60.4723L37.2833 60.3617L39.6762 62.8022L39.3392 60.1059L40.2933 59.9858L40.8378 64.3699L40.0177 64.4718ZM31.8977 61.3599L31.1405 62.7141L32.3081 62.8549L31.8977 61.3599ZM32.8309 64.7829L32.5492 63.7528L30.693 63.5247L30.1717 64.4614L29.1875 64.3422L31.6055 60.1492L32.4956 60.2546L33.8395 64.9048L32.8309 64.7829ZM24.7378 63.0598C23.5217 62.593 22.9764 61.3149 23.4285 60.1275L23.432 60.1146C23.8813 58.9401 25.1301 58.317 26.4004 58.801C27.1783 59.0965 27.5455 59.5356 27.7849 60.0583L26.9544 60.506C26.7461 60.0947 26.4878 59.7922 26.0746 59.6349C25.3781 59.3688 24.6564 59.7559 24.3878 60.4671L24.3834 60.4783C24.113 61.1853 24.3774 61.963 25.086 62.2345C25.5571 62.4133 25.9199 62.3356 26.3563 62.1627L26.7107 62.9681C26.1127 63.2584 25.5345 63.3622 24.7378 63.0598ZM19.0063 60.1138L21.332 56.3622L22.1581 56.8729L19.8308 60.6262L19.0063 60.1138ZM15.6395 57.6145L15.9358 55.8299L14.1746 56.2706L13.3623 55.5222L16.0172 54.9086L16.3974 52.3125L17.2339 53.0792L16.9487 54.766L18.6072 54.3408L19.4186 55.0883L16.8701 55.6795L16.4751 58.3845L15.6395 57.6145ZM9.58144 50.5203L13.2301 48.0227L15.114 50.7708L14.401 51.2625L13.0616 49.3086L12.3209 49.8159L13.5006 51.5357L12.7876 52.0248L11.608 50.3059L10.8423 50.8305L12.1991 52.8086L11.4861 53.3004L9.58144 50.5203ZM6.3096 35.2965C6.3191 35.7312 6.6812 36.0786 7.11762 36.07C7.22146 36.0679 7.32387 36.0454 7.419 36.0037C7.51413 35.9619 7.60013 35.902 7.67208 35.8271C7.74401 35.7522 7.8005 35.6639 7.8383 35.5671C7.8761 35.4704 7.89447 35.3671 7.89237 35.2632C7.89027 35.1595 7.86774 35.057 7.82606 34.9619C7.78439 34.8667 7.72437 34.7808 7.64947 34.7088C7.57455 34.6368 7.4862 34.5804 7.38946 34.5426C7.29272 34.5048 7.18948 34.4863 7.08565 34.4884C6.8756 34.4928 6.67587 34.5804 6.53035 34.7319C6.38483 34.8834 6.30543 35.0865 6.3096 35.2965Z" fill="#FEFEFE"/>
</g>
<defs>
<clipPath id="clip0_1_952">
<rect width="70" height="70" fill="white"/>
</clipPath>
</defs>
</svg>
