<svg width="42" height="42" viewBox="0 0 42 42" fill="none" xmlns="http://www.w3.org/2000/svg">
<g clip-path="url(#clip0_7_1432)">
<path fill-rule="evenodd" clip-rule="evenodd" d="M20.9617 8.38641C14.0186 8.38641 8.38757 14.0175 8.38757 20.962C8.38757 27.9097 14.0186 33.5403 20.9617 33.5403C27.9108 33.5403 33.5419 27.9092 33.5419 20.962C33.5419 14.017 27.9108 8.38641 20.9617 8.38641ZM41.7957 20.962C41.7957 32.4685 32.4686 41.7951 20.9617 41.7951C9.45879 41.7951 0.131714 32.4685 0.131714 20.962C0.131714 9.45867 9.45879 0.131592 20.9617 0.131592C32.4686 0.131592 41.7957 9.45867 41.7957 20.962Z" fill="#AC2318"/>
<path fill-rule="evenodd" clip-rule="evenodd" d="M32.6997 20.9618C32.6997 27.4437 27.4461 32.6984 20.962 32.6984C14.4847 32.6984 9.23157 27.4437 9.23157 20.9618C9.23157 14.4833 14.4847 9.22974 20.962 9.22974C27.4461 9.22974 32.6997 14.4833 32.6997 20.9618Z" fill="#441500"/>
<path fill-rule="evenodd" clip-rule="evenodd" d="M22.8366 28.3121C23.336 28.3121 24.7272 27.5706 24.2113 27.2305C23.8851 27.0168 23.5024 26.7306 22.7957 26.1898C22.4789 25.9477 22.3399 26.0135 22.2424 26.0135C21.951 26.0135 22.4239 25.5422 22.2684 25.1626C22.0957 24.7488 21.9977 24.1142 21.853 23.9701C21.7068 23.8238 21.7665 23.0575 22.0718 22.7521C22.4058 22.4187 22.8844 21.4485 23.1483 21.0773C23.462 20.6334 23.6772 19.6591 23.5532 19.5336C23.4272 19.4092 22.8569 18.2259 22.6085 17.9765C22.4467 17.8157 22.1834 17.4196 21.9178 17.0981L21.8556 17.0095L21.5871 17.1619C21.3189 17.3169 20.9876 17.6338 20.9876 17.6338C20.9876 17.6338 20.7569 17.7105 20.2228 17.6032C19.935 17.5462 19.8314 17.3434 19.8314 17.1131C19.8314 16.8835 19.6809 16.9415 19.6809 16.9415C19.6809 16.9415 16.9857 17.0722 16.7876 17.1863C16.5917 17.3004 15.7298 18.481 15.7298 18.481C15.7298 18.481 15.272 22.9678 15.6257 23.3229C16.0483 23.7439 18.2509 27.2144 18.6631 27.6287C19.0728 28.1897 22.3373 28.3121 22.8366 28.3121ZM17.6344 18.3799C17.3565 18.4297 16.9069 18.3509 16.6958 18.7356L16.294 20.4799C16.294 20.4799 16.3371 22.2314 16.3759 22.5794C16.4132 22.9253 16.8654 24.0546 17.1174 24.3087C17.3404 24.5316 17.7744 25.2695 18.1674 25.6584C18.2737 25.7625 18.4894 25.8128 18.5802 25.9352C18.7435 26.1562 18.6413 26.0042 18.3484 25.5707C17.2714 23.9753 17.0391 22.5986 16.9867 22.3631C16.8716 21.8498 16.9561 20.6442 16.9867 20.161C17.0023 19.9054 17.1797 19.3314 17.3487 19.2033C17.4275 19.1421 18.1664 19.0602 18.3152 19.0182C18.5459 18.9508 18.8731 18.9549 19.0847 18.9114C19.7613 18.7719 21.0058 19.1183 21.0903 19.1582C22.1035 19.6269 21.7099 19.7903 21.7255 19.8452C21.741 19.9023 20.3151 22.7748 20.3213 22.9096C20.3281 23.0559 20.3799 24.4927 20.5142 24.8852C20.5542 25.0014 21.0043 26.0882 21.0852 26.2853C21.4418 27.1485 20.3182 26.1416 20.2457 26.1022C20.173 26.0612 18.6906 23.5148 18.4765 22.974C18.3318 22.6105 18.3846 22.0624 18.4132 21.9462C18.4521 21.7866 18.3369 20.5566 18.5657 20.3886C18.7212 20.2746 19.4145 20.2046 19.7494 20.3513C20.0538 20.4851 20.2176 20.8268 20.186 20.9072C20.1617 20.975 19.6804 22.528 19.6052 22.3979C19.5814 22.3554 19.5794 21.8638 19.516 21.815C19.4518 21.7648 19.0981 21.6911 19.0546 21.7477C19.011 21.8057 18.926 22.3268 18.9706 22.5058C19.1847 23.3685 19.684 23.1 19.7785 22.9387C19.9185 22.6996 20.5967 20.792 20.5843 20.6686C20.5557 20.3881 20.3483 19.9044 19.9081 19.756C19.6441 19.6679 18.4967 19.7171 18.1809 19.882C17.6961 20.1366 17.7246 22.3419 17.8169 22.6628C17.9092 22.9817 19.4367 25.5463 19.5083 25.7434C19.6498 26.1276 20.5744 27.0413 20.719 27.1273C20.7792 27.1636 22.0412 27.6536 22.2046 27.4078C22.2756 27.301 22.2404 27.0034 21.9251 26.7975C21.6244 26.6005 20.9057 24.5041 20.9077 24.3397C20.9109 24.1842 20.7211 23.0175 20.8471 22.7748C21.0857 22.3113 22.804 19.7364 22.6158 19.5289C22.3638 19.2505 21.5928 17.9505 21.2313 18.44C20.9052 18.8834 19.3606 18.4271 18.9757 18.1455C18.9473 18.1237 18.0362 18.3058 17.6344 18.3799ZM25.1576 12.3282C25.3105 12.3464 25.9872 12.5839 25.9872 12.5839C25.9872 12.5839 26.6405 13.539 26.807 13.7443C26.975 13.9492 26.9003 14.098 26.9003 14.098L26.5798 15.2687C26.4622 15.1739 25.5973 15.2517 25.3919 15.2714C25.1855 15.289 25.5786 15.0282 25.6719 14.9354C25.7653 14.842 26.1381 14.5812 26.0899 14.4324C26.0453 14.2826 25.4826 13.1947 25.4826 13.1947C25.4826 13.1947 24.5006 13.1854 24.0345 13.2414C23.5683 13.2968 22.5888 14.2717 22.5888 14.2717L22.2321 15.681C22.2321 15.681 22.3762 15.9402 22.5815 16.1082C22.7864 16.2762 23.3826 16.2197 23.6057 16.2016C23.8286 16.1834 23.7368 16.4437 23.5501 16.6112C23.3635 16.7787 22.693 16.7787 22.693 16.7787L22.9715 16.8721C23.2805 17.152 23.8457 18.5842 24.1791 18.9186C24.512 19.2505 24.1687 20.9305 23.6907 21.4086C23.211 21.8851 22.9829 22.9148 22.6915 23.2062C22.3985 23.4982 22.0963 23.3841 22.3985 23.6854C22.7024 23.9861 22.5608 24.3496 22.6085 24.6156C22.6397 24.7862 22.6879 25.0973 22.8356 25.243C22.9793 25.3882 25.1886 26.9194 26.0764 26.9894C26.2381 27.0029 26.2402 27.7822 25.3303 28.7399C25.3303 28.7399 25.1679 29.2926 23.6503 29.3414C21.9946 29.3933 20.3659 29.1168 19.9911 29.1168C19.6177 29.1168 18.5294 28.4982 18.5294 28.4982C18.3225 28.4982 14.8666 23.69 14.8666 23.3582C14.8666 23.0248 14.6208 22.1257 14.6208 21.7923C14.6208 21.4604 15.006 18.4151 14.9443 18.0465C14.8955 17.7572 15.0465 17.6897 15.3799 17.3563C15.7123 17.0245 16.3132 16.4604 16.5408 16.2316C16.6435 16.1295 17.4405 16.1518 18.4059 15.9455L18.5557 15.8817L18.3639 15.7884C18.3639 15.7884 18.0528 15.3979 17.5509 15.4166C17.0485 15.4347 16.8799 15.4725 17.1413 15.3611C17.4021 15.2496 17.8703 14.896 17.8703 14.896L18.9654 15.3797H19.7935L20.8306 14.5258L23.1836 12.6145L25.1576 12.3282ZM37.6767 20.693C37.6143 20.6917 37.5523 20.7027 37.4941 20.7254C37.436 20.7481 37.3829 20.7819 37.338 20.8252C37.293 20.8684 37.2568 20.92 37.2318 20.9771C37.2067 21.0343 37.1932 21.0957 37.1918 21.1581C37.1906 21.2205 37.2016 21.2825 37.2242 21.3406C37.2469 21.3987 37.2808 21.4518 37.324 21.4968C37.3672 21.5419 37.4188 21.5779 37.476 21.603C37.5331 21.6281 37.5946 21.6417 37.6569 21.6429C37.7829 21.6455 37.9048 21.598 37.9957 21.5108C38.0866 21.4236 38.1392 21.3038 38.1418 21.1778C38.1444 21.0518 38.0968 20.93 38.0096 20.839C37.9225 20.7482 37.8027 20.6957 37.6767 20.693ZM4.11815 13.804C4.31311 13.3529 4.65586 13.0718 5.07326 12.8727C5.10574 12.8566 5.13056 12.8284 5.14231 12.7941C5.15406 12.7598 5.15179 12.7223 5.136 12.6897L4.89645 12.1919C4.88059 12.1596 4.85258 12.135 4.81856 12.1233C4.78454 12.1116 4.74729 12.1139 4.71497 12.1297C4.19696 12.3749 3.73238 12.755 3.41245 13.4903C2.83482 14.8182 3.44874 16.1938 4.69993 16.7393L4.67504 16.7289C5.92622 17.2728 7.35059 16.7844 7.92771 15.4565C8.24919 14.7212 8.21133 14.1228 8.0397 13.5753C8.02817 13.5412 8.00396 13.5129 7.9721 13.4962C7.94025 13.4795 7.90318 13.4757 7.8686 13.4856L7.33971 13.65C7.30534 13.6611 7.27671 13.6852 7.26002 13.7173C7.24333 13.7493 7.23992 13.7866 7.25052 13.8211C7.38844 14.2613 7.41645 14.7036 7.22044 15.1542C6.85385 15.9942 5.90185 16.3017 5.03904 15.9252C4.17415 15.5503 3.75104 14.644 4.11815 13.804ZM16.77 5.02545C16.7348 5.03266 16.6982 5.02563 16.6682 5.00589C16.6381 4.98617 16.6171 4.95535 16.6098 4.92019L16.3215 3.50152C16.3146 3.46586 16.3221 3.42891 16.3423 3.39872C16.3624 3.36853 16.3938 3.34752 16.4294 3.34026L17.2501 3.17381C17.8662 3.04937 18.3183 3.25678 18.4313 3.81211C18.5335 4.31352 18.2146 4.73248 17.5924 4.85952L16.77 5.02545ZM19.4943 3.62182C19.3009 2.6667 18.256 2.1907 17.1661 2.41211L15.454 2.75952C15.4188 2.76666 15.3877 2.78745 15.3677 2.81737C15.3477 2.84728 15.3403 2.88389 15.3472 2.91922L16.2432 7.33337C16.2567 7.40597 16.3292 7.45575 16.4024 7.44019L16.9587 7.32767C16.9943 7.32018 17.0254 7.29899 17.0453 7.26871C17.0653 7.23843 17.0726 7.20149 17.0656 7.16589L16.8141 5.9287C16.8073 5.89326 16.8147 5.85659 16.8347 5.82654C16.8547 5.79649 16.8856 5.77546 16.9209 5.76797L17.7163 5.60723C18.7466 5.39775 19.7085 4.6796 19.4943 3.62182ZM38.7894 16.1025C38.7727 16.1089 38.7549 16.1119 38.737 16.1113C38.7192 16.1107 38.7016 16.1066 38.6853 16.0993C38.669 16.0919 38.6543 16.0814 38.6422 16.0683C38.63 16.0553 38.6204 16.04 38.6142 16.0232L37.7602 13.749C37.7541 13.7321 37.7448 13.7166 37.7327 13.7033C37.7207 13.6901 37.7061 13.6794 37.6898 13.6718C37.6735 13.6643 37.6559 13.6601 37.6379 13.6595C37.6201 13.6588 37.6022 13.6617 37.5854 13.6681L36.3969 14.114C36.3632 14.127 36.3359 14.1528 36.3209 14.1858C36.306 14.2188 36.3046 14.2564 36.3171 14.2903L36.9575 15.9963C36.97 16.0302 36.9686 16.0677 36.9536 16.1005C36.9387 16.1334 36.9114 16.1591 36.8777 16.172L36.4291 16.339C36.3954 16.3516 36.3581 16.3503 36.3254 16.3355C36.2926 16.3206 36.2671 16.2933 36.2544 16.2597L35.6146 14.5537C35.6017 14.5201 35.5762 14.4929 35.5436 14.4779C35.5109 14.4629 35.4736 14.4613 35.4398 14.4734L34.7746 14.7227C34.7576 14.729 34.742 14.7385 34.7288 14.7506C34.7155 14.7629 34.7048 14.7777 34.6974 14.7941C34.6899 14.8105 34.6858 14.8283 34.6852 14.8462C34.6847 14.8643 34.6877 14.8823 34.6942 14.8991L35.559 17.2055C35.5656 17.2223 35.5687 17.2401 35.5682 17.2581C35.5677 17.2761 35.5636 17.2938 35.5562 17.3102C35.5487 17.3266 35.5381 17.3413 35.5248 17.3535C35.5117 17.3657 35.4961 17.3751 35.4792 17.3813L35.0323 17.5493C35.0155 17.5555 34.9977 17.5583 34.9798 17.5576C34.962 17.5569 34.9444 17.5528 34.9282 17.5453C34.912 17.5378 34.8974 17.5273 34.8853 17.5142C34.8731 17.501 34.8637 17.4856 34.8575 17.4689L33.696 14.3764C33.6838 14.3425 33.6855 14.3052 33.7004 14.2724C33.7155 14.2397 33.7428 14.214 33.7764 14.2012L37.9919 12.6191C38.0259 12.6065 38.0635 12.6077 38.0966 12.6225C38.1297 12.6374 38.1556 12.6647 38.1687 12.6985L39.3183 15.7598C39.3301 15.7937 39.3283 15.8308 39.3132 15.8633C39.298 15.8958 39.2709 15.9212 39.2374 15.934L38.7894 16.1025ZM34.4105 7.64034C34.4377 7.6169 34.4731 7.60521 34.5089 7.60784C34.5446 7.61046 34.5779 7.62718 34.6013 7.65434L34.9715 8.0847C34.9948 8.11223 35.0062 8.14781 35.0035 8.18372C35.0006 8.21963 34.9838 8.25299 34.9565 8.27656L32.1223 10.7146C32.1085 10.726 32.0971 10.7401 32.0887 10.7559C32.0803 10.7718 32.0752 10.7892 32.0737 10.8071C32.0722 10.825 32.0742 10.843 32.0797 10.86C32.0852 10.8771 32.094 10.8928 32.1057 10.9065L33.5664 12.6036C33.6141 12.6606 33.6079 12.7472 33.5524 12.797L33.1796 13.1164C33.1518 13.1399 33.1161 13.1515 33.0799 13.149C33.0437 13.1465 33.0099 13.1299 32.9856 13.1029L30.9789 10.7675C30.9557 10.7401 30.9442 10.7047 30.9468 10.6689C30.9496 10.633 30.9663 10.5998 30.9935 10.5762L34.4105 7.64034ZM28.726 8.88634C28.7169 8.9018 28.7048 8.91524 28.6904 8.92599C28.6761 8.93683 28.6597 8.94464 28.6423 8.94901C28.6249 8.95346 28.6069 8.95447 28.589 8.95186C28.5713 8.94926 28.5543 8.94321 28.5388 8.93405L28.0462 8.64106C28.0154 8.62225 27.9932 8.59209 27.9845 8.55706C27.9758 8.52203 27.9812 8.48499 27.9995 8.45391L29.9077 5.25256C29.9257 5.22143 29.9309 5.1845 29.922 5.14963C29.9132 5.11476 29.8912 5.08471 29.8606 5.06589L28.7939 4.42967C28.7786 4.42059 28.7653 4.40858 28.7546 4.39433C28.7439 4.38009 28.7362 4.36387 28.7318 4.34664C28.7275 4.32939 28.7266 4.31146 28.7291 4.29385C28.7317 4.27625 28.7376 4.25932 28.7467 4.24404L29.0039 3.81004C29.0228 3.77886 29.0531 3.75634 29.0884 3.74732C29.1237 3.7383 29.1612 3.74351 29.1927 3.76181L32.2861 5.60826C32.3016 5.61731 32.3151 5.62933 32.326 5.64361C32.3368 5.65789 32.3447 5.67416 32.3492 5.69149C32.3538 5.70883 32.3548 5.72688 32.3523 5.74463C32.3499 5.76238 32.3439 5.77948 32.3349 5.79492L32.0756 6.22893C32.0569 6.2597 32.0268 6.28185 31.9919 6.29059C31.9569 6.29933 31.92 6.29393 31.889 6.2756L30.8218 5.63885C30.7905 5.62046 30.7532 5.61521 30.718 5.62424C30.6829 5.63327 30.6528 5.65587 30.6342 5.68708L28.726 8.88634ZM24.2242 2.997C23.2893 2.83263 22.5043 3.46418 22.342 4.38455C22.1813 5.30545 22.7137 6.1807 23.6487 6.34456C24.5841 6.50944 25.365 5.87686 25.5267 4.957C25.6875 4.03715 25.1555 3.16033 24.2242 2.997ZM23.5024 7.10211C22.0558 6.84907 21.2401 5.57663 21.4735 4.24559C21.7063 2.91508 22.9248 1.98485 24.371 2.23893C25.8129 2.49248 26.6297 3.76337 26.3958 5.09597C26.1625 6.427 24.9471 7.35567 23.5024 7.10211ZM12.2838 3.98529C12.3158 3.96872 12.3532 3.96553 12.3875 3.97642C12.422 3.98729 12.4506 4.01138 12.4673 4.04337L14.5518 8.03545C14.5681 8.06763 14.5711 8.10492 14.5603 8.13933C14.5495 8.17374 14.5255 8.20253 14.4937 8.21952L13.9923 8.48087C13.9604 8.49759 13.9231 8.50103 13.8886 8.49045C13.8542 8.47987 13.8253 8.45609 13.8082 8.42434L11.7238 4.43174C11.7072 4.39955 11.7041 4.3621 11.715 4.3276C11.726 4.29311 11.7502 4.26437 11.7824 4.24767L12.2838 3.98529ZM8.69877 10.7364C8.64686 10.7898 8.64686 10.8759 8.70078 10.9283L9.73163 11.9342C9.75708 11.9595 9.77153 11.9938 9.77187 12.0297C9.77229 12.0656 9.7586 12.1002 9.73373 12.1261L9.337 12.5325C9.32465 12.5454 9.30978 12.5556 9.2934 12.5627C9.27702 12.5697 9.25938 12.5735 9.24158 12.5737C9.22368 12.5739 9.20596 12.5705 9.18941 12.5639C9.17295 12.5571 9.15783 12.5472 9.14523 12.5346L5.92259 9.38723C5.89711 9.3617 5.88262 9.32726 5.88223 9.29122C5.88184 9.25519 5.89559 9.22041 5.92052 9.19437L6.31667 8.78991C6.32909 8.77706 6.34391 8.76673 6.36031 8.75967C6.3767 8.75253 6.39434 8.74867 6.41221 8.74841C6.43008 8.74816 6.44783 8.75135 6.46444 8.75799C6.48107 8.76454 6.49622 8.77437 6.50904 8.7868L7.94949 10.1946C8.00237 10.2464 8.08948 10.2464 8.14238 10.1925L9.68493 8.61259C9.71004 8.58671 9.72399 8.55202 9.72365 8.51607C9.7234 8.48003 9.70895 8.44559 9.68342 8.42023L8.24245 7.01241C8.21687 6.98706 8.20231 6.95265 8.20192 6.91665C8.20153 6.88064 8.21535 6.84593 8.24037 6.82004L8.63602 6.41508C8.66147 6.38936 8.696 6.37468 8.7322 6.3742C8.76832 6.37371 8.80326 6.38746 8.82939 6.41248L12.0505 9.56044C12.1044 9.61227 12.1049 9.69837 12.0531 9.7528L11.6574 10.1583C11.6317 10.1838 11.5971 10.1983 11.5609 10.1988C11.5246 10.1991 11.4897 10.1853 11.4635 10.1604L10.4337 9.15439C10.4079 9.12935 10.3732 9.11558 10.3373 9.11608C10.3013 9.1165 10.267 9.13129 10.2418 9.15699L8.69877 10.7364ZM4.54178 27.9377L6.16474 27.3327L4.842 27.0282L4.8363 27.0143L5.62963 25.9295L4.01704 26.5305L3.81689 25.9949L6.30215 25.0678L6.522 25.6584L5.71467 26.7022L7.00993 26.964L7.22978 27.554L4.74452 28.4812L4.5423 27.9377H4.54178ZM37.7986 27.5675L35.2899 26.7109L35.4776 26.1587L37.4853 26.8447L37.9131 25.594L38.4135 25.7641L37.7986 27.5675ZM36.0656 30.887L33.7893 29.5291L34.0875 29.0292L35.9091 30.1145L36.5857 28.981L37.0421 29.2511L36.0656 30.887ZM34.4572 32.9368L32.4536 31.1998L32.8363 30.76L34.8378 32.4971L34.4572 32.9368ZM31.5742 33.3205C31.4192 33.1256 31.202 33.1328 30.9795 33.308L30.5258 33.6695L30.9961 34.2653L31.4602 33.8986C31.6836 33.7244 31.7184 33.5036 31.5778 33.3282L31.5742 33.3205ZM32.6491 34.6987L31.6764 34.3856L31.316 34.6686L31.8428 35.3344L31.386 35.6974L29.7408 33.6176L30.6901 32.8652C31.1822 32.4768 31.6805 32.5033 32.0191 32.9316L32.0233 32.9368C32.2887 33.2723 32.2758 33.6275 32.0881 33.9344L33.1822 34.2766L32.6491 34.6987ZM28.6757 37.2788C27.9254 37.6237 27.1657 37.3323 26.8381 36.6188L26.8355 36.6126C26.5202 35.9281 26.7977 35.1203 27.5282 34.7868C27.9617 34.5877 28.2765 34.5846 28.6269 34.6832L28.4782 35.2385C28.221 35.169 28.0141 35.1555 27.7356 35.2826C27.3494 35.4599 27.1989 35.9427 27.3872 36.3507L27.3903 36.358C27.5936 36.7987 28.0452 36.9843 28.4709 36.7884C28.6648 36.6997 28.8137 36.5716 28.9049 36.414L28.7467 36.0687L28.2126 36.3149L28.0032 35.8561L29.0475 35.3754L29.5297 36.4233C29.3574 36.8021 29.0542 37.1059 28.6757 37.2788ZM24.0106 38.683L22.5276 37.1695L22.7361 38.8427L22.1631 38.9132L21.8349 36.2833L22.37 36.2169L23.8057 37.6812L23.6036 36.0635L24.176 35.9914L24.5027 38.6218L24.0106 38.683ZM19.1386 36.8158L18.6844 37.6284L19.3849 37.7129L19.1386 36.8158ZM19.6986 38.8696L19.5296 38.2516L18.4158 38.1147L18.1031 38.6768L17.5126 38.6052L18.9633 36.0894L19.4974 36.1527L20.3037 38.9428L19.6986 38.8696ZM14.8427 37.8358C14.1131 37.5557 13.7859 36.7889 14.0571 36.0764L14.0592 36.0687C14.3288 35.364 15.0781 34.9901 15.8403 35.2805C16.307 35.4578 16.5273 35.7212 16.671 36.0349L16.1727 36.3035C16.0477 36.0567 15.8927 35.8752 15.6448 35.7809C15.2269 35.6212 14.7939 35.8535 14.6327 36.2802L14.6301 36.2869C14.4678 36.7111 14.6265 37.1777 15.0516 37.3406C15.3343 37.4479 15.552 37.4012 15.8138 37.2975L16.0264 37.7807C15.6677 37.955 15.3207 38.0172 14.8427 37.8358ZM11.4038 36.0682L12.7992 33.8172L13.2949 34.1236L11.8985 36.3756L11.4038 36.0682ZM9.3837 34.5686L9.56153 33.4978L8.50481 33.7623L8.01741 33.3132L9.61034 32.945L9.83848 31.3874L10.3404 31.8474L10.1693 32.8595L11.1643 32.6044L11.6512 33.0529L10.1221 33.4076L9.8851 35.0306L9.3837 34.5686ZM5.74889 30.3121L7.93808 28.8135L9.06845 30.4624L8.64064 30.7574L7.83696 29.585L7.39259 29.8895L8.10037 30.9213L7.6726 31.2148L6.96481 30.1835L6.50541 30.4982L7.31949 31.685L6.89171 31.9801L5.74889 30.3121ZM3.78578 21.1778C3.79149 21.4386 4.00874 21.647 4.2706 21.6419C4.3329 21.6407 4.39435 21.6271 4.45142 21.6021C4.5085 21.5771 4.5601 21.5411 4.60327 21.4962C4.64643 21.4512 4.68032 21.3982 4.703 21.3402C4.72568 21.2821 4.73671 21.2201 4.73545 21.1578C4.73419 21.0956 4.72067 21.0341 4.69566 20.9771C4.67066 20.9199 4.63465 20.8684 4.58971 20.8252C4.54476 20.782 4.49174 20.7482 4.4337 20.7255C4.37566 20.7028 4.31372 20.6917 4.25141 20.693C4.12539 20.6956 4.00554 20.7482 3.91823 20.839C3.83093 20.9299 3.78328 21.0518 3.78578 21.1778Z" fill="#FEFEFE"/>
</g>
<defs>
<clipPath id="clip0_7_1432">
<rect width="42" height="42" fill="white"/>
</clipPath>
</defs>
</svg>
