<svg width="74" height="43" viewBox="0 0 74 43" fill="none" xmlns="http://www.w3.org/2000/svg">
<mask id="mask0_1_980" style="mask-type:luminance" maskUnits="userSpaceOnUse" x="0" y="0" width="74" height="43">
<path d="M73.4623 0H0V43H73.4623V0Z" fill="white"/>
</mask>
<g mask="url(#mask0_1_980)">
<path fill-rule="evenodd" clip-rule="evenodd" d="M9.00648 0.533826C12.8853 0.533826 15.7699 2.50261 15.7699 5.41172C15.7699 7.67927 14.3154 8.76651 13.0273 9.28075C15.1381 9.91741 17.0531 11.132 17.0531 13.7962C17.0531 17.7387 13.5269 19.0807 9.70683 19.0807H0V0.533826H9.00648ZM5.94556 7.6205H8.12983C8.99668 7.6205 9.70192 6.91526 9.70192 6.25899C9.70192 5.54886 9.02117 4.85341 8.12983 4.85341H5.94556V7.6205ZM5.94556 14.81H8.65876C9.89292 14.81 10.6863 14.0362 10.6863 13.1106C10.6863 12.2339 9.83906 11.4699 8.83017 11.4699H5.94556V14.81ZM13.8158 21.1032C17.6996 21.1032 20.5793 23.072 20.5793 25.9811C20.5793 28.2488 19.1247 29.336 17.8367 29.8502C19.9475 30.4869 21.8624 31.7015 21.8624 34.3657C21.8624 38.3081 18.3362 39.6501 14.5162 39.6501H4.80933V21.1032H13.8158ZM10.7549 28.19H12.9441C13.806 28.19 14.5113 27.4848 14.5113 26.8284C14.5113 26.1184 13.8305 25.4228 12.9441 25.4228H10.7549V28.19ZM10.7549 35.3795H13.4681C14.7023 35.3795 15.4957 34.6056 15.4957 33.68C15.4957 32.8034 14.6484 32.0394 13.6395 32.0394H10.7549V35.3795ZM17.5233 19.0757V0.528929H32.4752V5.01013H23.4492V7.43928H30.7807V11.6413H23.4492V14.6141H32.4752V19.0757H17.5233ZM32.7642 16.5437L36.2952 13.1742C37.1524 13.8844 38.2493 14.7219 39.6354 14.7219C40.8549 14.7219 41.5258 14.0166 41.5258 13.3163C41.5258 11.323 33.4743 12.2437 33.4743 5.88188C33.4743 2.66423 36.4128 0 40.9038 0C43.8962 0 46.1148 1.12642 47.5203 2.46344L44.0088 5.80842C44.0088 5.80842 42.9902 4.88279 41.5895 4.88279C40.7764 4.88279 39.9782 5.2844 39.9782 6.0435C39.9782 7.99759 48.1472 7.0328 48.1472 13.3114C48.1472 17.2049 44.7826 19.6046 40.5707 19.6046C36.4715 19.6046 34.1845 17.9347 32.7642 16.5437ZM52.7214 19.0757V4.99055H47.8288V0.528929H63.5645V4.99055H58.667V19.0757H52.7214ZM22.0681 21.0885H27.999V32.201C27.999 33.3274 29.1205 34.3657 30.291 34.3657C31.393 34.3657 32.5096 33.4254 32.5096 32.1373V21.0885H38.4208V32.0638C38.4208 36.4178 34.8065 39.8949 30.1342 39.8949C25.4327 39.8949 22.0681 36.1141 22.0681 31.8287V21.0885ZM45.7278 39.6304V33.0041L38.7636 21.0885H44.7581L48.7007 27.4749L52.6578 21.0885H58.667L51.6734 33.0727V39.6304H45.7278Z" fill="white"/>
<path d="M73.4622 31.2411V42.9607H58.6668L55.17 39.4639V34.7379L58.6668 31.2411H73.4622Z" fill="#FFED31"/>
<path d="M57.3054 37.8869C57.7409 37.8869 58.0938 37.5338 58.0938 37.0983C58.0938 36.663 57.7409 36.3099 57.3054 36.3099C56.8699 36.3099 56.5168 36.663 56.5168 37.0983C56.5168 37.5338 56.8699 37.8869 57.3054 37.8869Z" fill="white"/>
</g>
</svg>
