<svg width="250" height="250" viewBox="0 0 250 250" fill="none" xmlns="http://www.w3.org/2000/svg">
<circle cx="133.903" cy="135.94" r="84.5242" fill="#0D1B35"/>
<circle cx="133.903" cy="135.94" r="84.0835" stroke="#EEEEEE" stroke-opacity="0.05" stroke-width="0.881395"/>
<circle cx="39.2648" cy="112.099" r="19.2648" fill="#162A4E"/>
<circle cx="76.3501" cy="35.0405" r="12.0405" fill="#162A4E"/>
<circle cx="209.035" cy="50.6934" r="9.39158" fill="#162A4E"/>
<circle cx="206.147" cy="191.808" r="4.57538" fill="#162A4E"/>
<path d="M155.935 56.0827C155.576 56.0063 155.576 55.4939 155.935 55.4176L161.363 54.2633C161.494 54.2355 161.596 54.1336 161.624 54.0029L162.793 48.6132C162.87 48.2559 163.38 48.2559 163.457 48.6132L164.626 54.0029C164.655 54.1336 164.757 54.2355 164.888 54.2633L170.316 55.4176C170.675 55.4939 170.675 56.0063 170.316 56.0827L164.888 57.2369C164.757 57.2647 164.655 57.3667 164.626 57.4974L163.457 62.8871C163.38 63.2443 162.87 63.2443 162.793 62.8871L161.624 57.4974C161.596 57.3667 161.494 57.2647 161.363 57.2369L155.935 56.0827Z" fill="#1B3360"/>
<path d="M34.3098 146.826C34.4176 146.317 35.1444 146.317 35.2521 146.826L36.8621 154.432C36.9013 154.617 37.0456 154.763 37.2308 154.803L44.7582 156.443C45.2637 156.553 45.2637 157.274 44.7582 157.384L37.2308 159.024C37.0456 159.064 36.9013 159.209 36.8621 159.395L35.2521 167.001C35.1444 167.51 34.4176 167.51 34.3098 167.001L32.6998 159.395C32.6606 159.209 32.5163 159.064 32.3312 159.024L24.8037 157.384C24.2982 157.274 24.2982 156.553 24.8037 156.443L32.3312 154.803C32.5163 154.763 32.6606 154.617 32.6998 154.432L34.3098 146.826Z" fill="#1B3360"/>
<path d="M156.144 213.217C156.252 212.708 156.979 212.708 157.087 213.217L158.026 217.654C158.065 217.839 158.209 217.984 158.395 218.025L162.799 218.984C163.304 219.094 163.304 219.815 162.799 219.925L158.395 220.885C158.209 220.925 158.065 221.07 158.026 221.256L157.087 225.693C156.979 226.202 156.252 226.202 156.144 225.693L155.205 221.256C155.166 221.07 155.022 220.925 154.837 220.885L150.433 219.925C149.927 219.815 149.927 219.094 150.433 218.984L154.837 218.025C155.022 217.984 155.166 217.839 155.205 217.654L156.144 213.217Z" fill="#1B3360"/>
<path d="M224.447 84.3276L165.503 73.0326C162.89 72.532 160.367 74.2439 159.866 76.8563L144.764 155.669C144.479 157.155 144.909 158.689 145.926 159.81L173.317 190.024C174.908 191.778 177.538 192.116 179.52 190.821L211.445 169.958C212.539 169.243 213.295 168.115 213.541 166.832L228.271 89.9642C228.771 87.3518 227.059 84.8282 224.447 84.3276Z" fill="#162A4E"/>
<path d="M182.735 100.784C178.374 99.8527 174.09 102.597 173.168 106.916C172.423 110.402 172.037 118.97 183.855 130.24C184.067 130.44 184.33 130.578 184.615 130.639C184.9 130.7 185.197 130.682 185.472 130.585C200.863 125.128 204.013 117.15 204.757 113.664C205.68 109.346 202.891 105.09 198.53 104.159C194.169 103.227 189.62 107.21 189.62 107.21C189.62 107.21 187.096 101.716 182.735 100.784Z" fill="#20417D"/>
<circle cx="177.971" cy="170.377" r="6.26105" fill="#20417D"/>
<path d="M38.8668 76.7371L111.446 50.4487C115.159 49.1039 119.259 51.0237 120.604 54.7366L155.513 151.117C156.174 152.94 156.065 154.954 155.213 156.695L133.655 200.745C132.109 203.903 128.498 205.469 125.137 204.438L74.9779 189.059C72.8299 188.4 71.1161 186.77 70.351 184.657L34.5789 85.8952C33.2341 82.1823 35.1539 78.0819 38.8668 76.7371Z" fill="#DDE2FF" stroke="#C4CBF5" stroke-width="1.69956"/>
<path d="M73.3559 94.7627C67.0302 97.2449 63.8927 104.335 66.3507 110.599C68.3348 115.655 75.0488 126.869 99.5425 131.257C99.9803 131.334 100.431 131.288 100.845 131.126C101.258 130.964 101.619 130.691 101.889 130.337C116.861 110.462 114.157 97.6744 112.173 92.618C109.715 86.3541 102.593 83.29 96.267 85.7722C89.9412 88.2545 87.5086 97.1408 87.5086 97.1408C87.5086 97.1408 79.6816 92.2804 73.3559 94.7627Z" fill="#162A4E"/>
<circle cx="119.455" cy="179.768" r="7.94672" fill="#162A4E"/>
</svg>
