<svg width="501" height="260" viewBox="0 0 501 260" fill="none" xmlns="http://www.w3.org/2000/svg">
<g filter="url(#filter0_d_2019_5646)">
<g clip-path="url(#clip0_2019_5646)">
<path d="M15.7583 30.3703C15.7583 22.3003 22.3003 15.7583 30.3703 15.7583H470.556C478.626 15.7583 485.168 22.3003 485.168 30.3703V229.459C485.168 237.529 478.626 244.071 470.556 244.071H30.3703C22.3003 244.071 15.7583 237.529 15.7583 229.459V30.3703Z" fill="#910C1E"/>
<g opacity="0.05">
<path d="M259.826 -144.974L237.104 -140.183L244.674 -47.448L236.656 -51.7638L244.674 32.3198L236.228 24.8171L251.379 116.119L246.904 49.1835L254.679 56.0918L246.904 -34.4755L259.826 -28.0018V-144.974Z" fill="white"/>
<path d="M165.941 -131.352L146.221 -119.049L184.945 -34.5055L175.936 -35.8142L212.132 40.452L201.635 36.301L246.984 116.893L219.971 55.5323L229.633 59.3587L191.461 -23.0816L205.806 -21.4332L165.941 -131.352Z" fill="white"/>
<path d="M82.3653 -86.3253L68.0253 -67.9981L133.23 -1.8421L124.32 0.0210724L184.318 59.2637L173.039 58.964L243.126 119.131L196.826 70.7426L207.209 71.0173L143.239 6.65466L157.286 3.28291L82.3653 -86.3253Z" fill="white"/>
<path d="M19.1719 -15.3291L11.9446 6.81448L95.7596 46.601L88.0247 51.4113L164.597 86.4874L153.896 90.0789L240.259 122.557L180.261 92.9811L190.112 89.6743L108.069 51.1516L120.114 43.1593L19.1719 -15.3291Z" fill="white"/>
<path d="M-16.0136 73.0803L-15.257 96.3678L77.0644 104.984L71.4299 112.158L155.339 118.836L146.509 125.884L238.731 126.763L172.273 119.56L180.406 113.077L90.1749 105.034L98.7759 93.3907L-16.0136 73.0803Z" fill="white"/>
<path d="M-18.9453 168.228L-10.2995 189.852L79.3888 166.265L76.5417 174.942L157.669 152.414L151.771 162.064L238.731 131.239L173.826 147.284L179.256 138.397L91.7328 161.809L95.8392 147.918L-18.9453 168.228Z" fill="white"/>
<path d="M10.7252 258.651L26.2199 275.999L102.459 223.05L102.743 232.181L171.297 183.164L169.047 194.263L240.259 135.445L184.731 172.799L186.807 162.584L112.539 214.628L111.667 200.162L10.7252 258.651Z" fill="white"/>
<path d="M69.424 333.428L89.8962 344.418L143.493 268.491L146.868 276.973L194.586 207.385L196.254 218.584L243.126 138.872L203.68 193.034L202.147 182.724L150.093 257.117L144.344 243.825L69.424 333.428Z" fill="white"/>
<path d="M150.068 383.555L173.049 386.852L197.538 297.108L203.601 303.922L224.725 222.151L230.105 232.101L246.984 141.109L228.378 205.542L223.426 196.381L199.868 284.156L189.933 273.636L150.068 383.555Z" fill="white"/>
<path d="M242.932 402.976L265.649 398.191L258.079 305.45L266.097 309.771L258.079 225.683L266.525 233.185L251.379 141.889L255.849 208.819L248.074 201.911L255.849 292.478L242.932 286.004V402.976Z" fill="white"/>
<path d="M336.812 389.354L356.532 377.056L317.808 292.508L326.817 293.817L290.621 217.55L301.118 221.701L255.769 141.109L282.782 202.47L273.12 198.649L311.292 281.084L296.947 279.436L336.812 389.354Z" fill="white"/>
<path d="M420.388 344.328L434.728 326L369.528 259.845L378.438 257.981L318.435 198.739L329.714 199.038L259.632 138.872L305.927 187.26L295.544 186.985L359.514 251.348L345.467 254.719L420.388 344.328Z" fill="white"/>
<path d="M483.581 273.331L490.808 251.188L406.993 211.401L414.733 206.591L338.156 171.52L348.857 167.929L262.494 135.445L322.492 165.021L312.641 168.328L394.689 206.851L382.639 214.843L483.581 273.331Z" fill="white"/>
<path d="M518.767 184.927L518.01 161.64L425.694 153.018L431.323 145.845L347.414 139.166L356.244 132.118L264.022 131.239L330.48 138.442L322.347 144.926L412.578 152.968L403.977 164.612L518.767 184.927Z" fill="white"/>
<path d="M521.698 89.7742L513.052 68.1501L423.364 91.7373L426.211 83.0657L345.089 105.589L350.982 95.9382L264.022 126.763L328.927 110.719L323.497 119.605L411.025 96.193L406.914 110.085L521.698 89.7742Z" fill="white"/>
<path d="M492.028 -0.643265L476.533 -17.9965L400.294 34.9523L400.01 25.8261L331.456 74.8386L333.706 63.7444L262.494 122.557L318.022 85.2036L315.946 95.4187L390.214 43.3741L391.086 57.8401L492.028 -0.643265Z" fill="white"/>
<path d="M433.329 -75.4259L412.857 -86.4152L359.26 -10.4888L355.885 -18.9706L308.167 50.6171L306.499 39.4179L259.632 119.131L299.073 64.9732L300.606 75.2832L352.66 0.885239L358.409 14.1774L433.329 -75.4259Z" fill="white"/>
<path d="M352.685 -125.552L329.704 -128.849L305.215 -39.106L299.152 -45.9145L278.028 35.8514L272.648 25.901L255.769 116.893L274.375 52.4603L279.327 61.6264L302.885 -26.1536L312.82 -15.6338L352.685 -125.552Z" fill="white"/>
</g>
<g clip-path="url(#clip1_2019_5646)">
<path d="M233.173 119.918C233.173 111.796 232.536 109.407 229.988 106.381C227.759 103.674 222.663 102.082 219 102.082C215.178 102.082 210.082 103.674 208.012 106.381C205.464 109.726 204.827 111.637 204.827 119.918V139.506C204.827 147.627 205.464 150.494 208.012 153.679C210.241 156.386 215.178 157.819 219 157.819C222.822 157.819 227.918 156.227 229.988 153.679C232.536 150.335 233.173 147.468 233.173 139.506V119.918ZM225.211 140.302C225.211 149.061 222.663 150.335 219 150.335C215.337 150.335 212.789 149.22 212.789 140.461V119.918C212.789 110.84 215.337 109.726 219 109.726C222.663 109.726 225.211 110.84 225.211 119.918V140.302ZM265.183 118.166C265.183 107.815 260.883 102.878 251.805 102.878H239.702V157.023H251.805C261.042 157.023 265.183 152.086 265.183 141.576V118.166ZM257.22 140.302C257.22 147.15 255.628 149.538 250.85 149.538H247.506V110.363H250.85C255.468 110.363 257.22 112.592 257.22 119.758V140.302ZM190.016 102.878H198.297V157.023H190.175V122.784L182.213 144.124H181.735L173.773 122.784V157.182H165.651V103.037H173.932L181.735 124.854L190.016 102.878ZM294.485 102.878H283.337V157.023H291.459V136.321H294.644C299.74 136.321 302.447 135.524 304.677 133.454C307.384 130.906 308.499 126.288 308.499 119.281C308.499 113.229 307.225 108.611 304.677 105.904C302.447 103.674 299.581 102.878 294.485 102.878ZM293.848 128.836H291.3V110.363H293.848C299.103 110.363 300.377 112.751 300.377 119.918C300.218 126.288 298.784 128.836 293.848 128.836ZM313.754 102.878H321.876V157.023H313.754V102.878ZM327.609 157.023L344.171 110.363H330.316L331.59 102.719H355.159L338.916 149.379H351.815L348.789 157.023H327.609ZM382.073 102.878L365.67 149.538H378.888L377.614 157.182H354.204L370.766 110.522H357.548L360.574 102.878H382.073ZM401.342 102.878H390.831L382.073 157.023H390.035L392.265 142.213H400.068L402.457 157.023H410.578L401.342 102.878ZM393.698 134.25L396.246 115.936L398.953 134.25H393.698Z" fill="white"/>
<path d="M146.701 116.573C146.701 112.114 149.886 105.266 149.886 105.266L137.146 102.081L129.82 104.47L120.265 101.604L112.143 104.47L104.659 101.922L90.9631 105.266C90.9631 105.266 93.3519 112.114 93.3519 116.573C93.3519 121.032 88.5744 136.161 91.7594 141.576C94.9444 146.99 101.314 149.857 107.684 152.405C113.417 154.634 119.151 158.297 120.265 159.093C120.265 159.093 126.795 154.793 133.165 152.405C139.694 150.016 146.064 147.149 149.09 141.576C152.275 136.161 146.701 120.873 146.701 116.573Z" fill="white"/>
</g>
</g>
<path d="M30.3706 16.6714H470.556C478.122 16.6714 484.255 22.805 484.255 30.3706V229.458C484.255 237.024 478.122 243.158 470.556 243.158H30.3706C22.805 243.158 16.6714 237.024 16.6714 229.458V30.3706C16.6714 22.805 22.805 16.6714 30.3706 16.6714Z" stroke="#152950" stroke-width="1.8265"/>
</g>
<defs>
<filter id="filter0_d_2019_5646" x="7.62939e-06" y="7.62939e-06" width="500.927" height="259.829" filterUnits="userSpaceOnUse" color-interpolation-filters="sRGB">
<feFlood flood-opacity="0" result="BackgroundImageFix"/>
<feColorMatrix in="SourceAlpha" type="matrix" values="0 0 0 0 0 0 0 0 0 0 0 0 0 0 0 0 0 0 127 0" result="hardAlpha"/>
<feOffset/>
<feGaussianBlur stdDeviation="7.87915"/>
<feComposite in2="hardAlpha" operator="out"/>
<feColorMatrix type="matrix" values="0 0 0 0 0 0 0 0 0 0 0 0 0 0 0 0 0 0 0.6 0"/>
<feBlend mode="normal" in2="BackgroundImageFix" result="effect1_dropShadow_2019_5646"/>
<feBlend mode="normal" in="SourceGraphic" in2="effect1_dropShadow_2019_5646" result="shape"/>
</filter>
<clipPath id="clip0_2019_5646">
<path d="M15.7583 30.3703C15.7583 22.3003 22.3003 15.7583 30.3703 15.7583H470.556C478.626 15.7583 485.168 22.3003 485.168 30.3703V229.459C485.168 237.529 478.626 244.071 470.556 244.071H30.3703C22.3003 244.071 15.7583 237.529 15.7583 229.459V30.3703Z" fill="white"/>
</clipPath>
<clipPath id="clip1_2019_5646">
<rect width="320.094" height="57.3302" fill="white" transform="translate(90.6445 101.604)"/>
</clipPath>
</defs>
</svg>
