<svg width="176" height="32" viewBox="0 0 176 32" fill="none" xmlns="http://www.w3.org/2000/svg">
<g clip-path="url(#clip0_14_3099)">
<path d="M78.0338 10.0269C78.0338 5.58025 77.6851 4.27242 76.2901 2.61582C75.0694 1.13361 72.2794 0.261719 70.274 0.261719C68.1815 0.261719 65.3914 1.13361 64.258 2.61582C62.8629 4.44679 62.5142 5.49306 62.5142 10.0269V20.7511C62.5142 25.1978 62.8629 26.7672 64.258 28.511C65.4786 29.9932 68.1815 30.7779 70.274 30.7779C72.3665 30.7779 75.1566 29.906 76.2901 28.511C77.6851 26.68 78.0338 25.1106 78.0338 20.7511V10.0269ZM73.6744 21.1871C73.6744 25.9825 72.2794 26.68 70.274 26.68C68.2687 26.68 66.8736 26.0697 66.8736 21.2743V10.0269C66.8736 5.05712 68.2687 4.44679 70.274 4.44679C72.2794 4.44679 73.6744 5.05712 73.6744 10.0269V21.1871ZM95.5588 9.06781C95.5588 3.40052 93.2047 0.697664 88.235 0.697664H81.6086V30.3419H88.235C93.2919 30.3419 95.5588 27.6391 95.5588 21.8846V9.06781ZM91.1994 21.1871C91.1994 24.9362 90.3275 26.2441 87.7118 26.2441H85.8808V4.79555H87.7118C90.2403 4.79555 91.1994 6.0162 91.1994 9.9397V21.1871ZM54.4056 0.697664H58.9394V30.3419H54.4928V11.5963L50.1333 23.2796H49.8718L45.5123 11.5963V30.4291H41.0657V0.784853H45.5995L49.8718 12.7298L54.4056 0.697664ZM111.602 0.697664H105.498V30.3419H109.945V19.0074H111.689C114.479 19.0074 115.961 18.5714 117.182 17.438C118.664 16.0429 119.274 13.5145 119.274 9.67814C119.274 6.36495 118.577 3.83647 117.182 2.35426C115.961 1.13361 114.392 0.697664 111.602 0.697664ZM111.253 14.9095H109.858V4.79555H111.253C114.13 4.79555 114.828 6.10339 114.828 10.0269C114.74 13.5145 113.956 14.9095 111.253 14.9095ZM122.152 0.697664H126.598V30.3419H122.152V0.697664ZM129.737 30.3419L138.805 4.79555H131.219L131.917 0.610475H144.821L135.927 26.1569H142.99L141.333 30.3419H129.737ZM159.556 0.697664L150.575 26.2441H157.812L157.114 30.4291H144.298L153.365 4.88274H146.128L147.785 0.697664H159.556ZM170.105 0.697664H164.351L159.556 30.3419H163.915L165.136 22.2334H169.408L170.716 30.3419H175.162L170.105 0.697664ZM165.92 17.8739L167.315 7.84717L168.798 17.8739H165.92Z" fill="white"/>
<path d="M30.6904 8.19577C30.6904 5.75448 32.4342 2.00535 32.4342 2.00535L25.459 0.261567L21.4484 1.5694L16.217 0L11.7704 1.5694L7.67248 0.174378L0.174222 2.00535C0.174222 2.00535 1.48206 5.75448 1.48206 8.19577C1.48206 10.6371 -1.13361 18.92 0.610167 21.8845C2.35395 24.8489 5.84151 26.4183 9.32907 27.8133C12.4679 29.034 15.6067 31.0393 16.217 31.4752C16.217 31.4752 19.7918 29.1211 23.2793 27.8133C26.8541 26.5055 30.3416 24.9361 31.9982 21.8845C33.742 18.92 30.6904 10.5499 30.6904 8.19577Z" fill="white"/>
</g>
<defs>
<clipPath id="clip0_14_3099">
<rect width="175.25" height="31.3881" fill="white"/>
</clipPath>
</defs>
</svg>
