<svg width="280" height="210" viewBox="0 0 280 210" fill="none" xmlns="http://www.w3.org/2000/svg">
<circle cx="139.75" cy="110.247" r="87.75" fill="#0D1B35"/>
<circle cx="139.75" cy="110.247" r="87.3093" stroke="#EEEEEE" stroke-opacity="0.05" stroke-width="0.881395"/>
<circle cx="57.5" cy="50.9968" r="5.5" fill="#162A4E"/>
<circle cx="199.75" cy="29.2468" r="10.25" fill="#162A4E"/>
<circle cx="59.25" cy="166.747" r="9.75" fill="#162A4E"/>
<circle cx="233.75" cy="157.247" r="9.75" fill="#162A4E"/>
<circle cx="214.75" cy="168.247" r="4.75" fill="#162A4E"/>
<path d="M154.697 23.3323C154.338 23.2559 154.338 22.7436 154.697 22.6672L158.737 21.808C158.868 21.7802 158.97 21.6783 158.998 21.5475L159.869 17.532C159.947 17.1747 160.456 17.1747 160.534 17.532L161.404 21.5475C161.433 21.6783 161.535 21.7802 161.666 21.808L165.706 22.6672C166.065 22.7436 166.065 23.2559 165.706 23.3323L161.666 24.1915C161.535 24.2193 161.433 24.3213 161.404 24.452L160.534 28.4676C160.456 28.8248 159.947 28.8248 159.869 28.4676L158.998 24.452C158.97 24.3213 158.868 24.2193 158.737 24.1915L154.697 23.3323Z" fill="#1B3360"/>
<path d="M47.768 113.068C47.8441 112.709 48.3571 112.709 48.4332 113.068L50.2826 121.805C50.3103 121.936 50.4121 122.039 50.5428 122.067L59.1764 123.948C59.5332 124.026 59.5332 124.535 59.1764 124.612L50.5428 126.493C50.4121 126.522 50.3103 126.624 50.2826 126.755L48.4332 135.492C48.3571 135.851 47.8441 135.851 47.768 135.492L45.9186 126.755C45.8909 126.624 45.7891 126.522 45.6584 126.493L37.0248 124.612C36.668 124.535 36.668 124.026 37.0248 123.948L45.6584 122.067C45.7891 122.039 45.8909 121.936 45.9186 121.805L47.768 113.068Z" fill="#1B3360"/>
<path d="M85.1674 10.0684C85.2435 9.70896 85.7565 9.70895 85.8326 10.0684L86.6919 14.1282C86.7196 14.259 86.8215 14.3615 86.9522 14.3899L90.9752 15.2663C91.332 15.3441 91.332 15.853 90.9752 15.9307L86.9522 16.8071C86.8215 16.8356 86.7196 16.938 86.6919 17.0689L85.8326 21.1287C85.7565 21.4881 85.2435 21.4881 85.1674 21.1287L84.3081 17.0689C84.2804 16.938 84.1785 16.8356 84.0478 16.8071L80.0248 15.9307C79.668 15.853 79.668 15.3441 80.0248 15.2663L84.0478 14.3899C84.1785 14.3615 84.2804 14.259 84.3081 14.1282L85.1674 10.0684Z" fill="#1B3360"/>
<path d="M218.329 52.5681C218.405 52.2087 218.918 52.2087 218.994 52.5681L220.147 58.0155C220.175 58.1464 220.277 58.2488 220.407 58.2773L225.798 59.4517C226.155 59.5294 226.155 60.0383 225.798 60.116L220.407 61.2904C220.277 61.3189 220.175 61.4213 220.147 61.5522L218.994 66.9996C218.918 67.359 218.405 67.359 218.329 66.9996L217.176 61.5522C217.148 61.4213 217.046 61.3189 216.916 61.2904L211.525 60.116C211.168 60.0383 211.168 59.5294 211.525 59.4517L216.916 58.2773C217.046 58.2488 217.148 58.1464 217.176 58.0155L218.329 52.5681Z" fill="#1B3360"/>
<path d="M237.997 128.733C238.073 128.374 238.586 128.374 238.662 128.733L239.815 134.181C239.843 134.312 239.945 134.414 240.075 134.443L245.466 135.617C245.823 135.695 245.823 136.204 245.466 136.281L240.075 137.456C239.945 137.484 239.843 137.587 239.815 137.717L238.662 143.165C238.586 143.524 238.073 143.524 237.997 143.165L236.844 137.717C236.816 137.587 236.714 137.484 236.584 137.456L231.193 136.281C230.836 136.204 230.836 135.695 231.193 135.617L236.584 134.443C236.714 134.414 236.816 134.312 236.844 134.181L237.997 128.733Z" fill="#1B3360"/>
<ellipse cx="118.987" cy="27.5352" rx="12.7603" ry="12.1223" transform="rotate(-15.1651 118.987 27.5352)" fill="#20417D"/>
<path d="M109.799 29.7329L118.875 26.0616L132.811 22.2843C133.535 22.0882 134.294 22.0637 135.029 22.2128L144.696 24.1742C144.969 24.2296 145.237 24.3085 145.496 24.4102L155.024 28.1446L163.538 32.7364C163.876 32.9184 164.19 33.1401 164.475 33.3968L172.288 40.4334C172.616 40.7287 172.902 41.0676 173.137 41.4407L180.174 52.5837L188.095 69.6287L193.561 81.6731L202.203 95.9638L208.897 107.127L215.475 116.127C216.174 117.084 217.202 117.75 218.361 117.996L224.036 119.203C224.847 119.375 225.599 119.754 226.221 120.302L229.576 123.263C230.306 123.907 230.823 124.756 231.06 125.699L231.623 127.933C231.86 128.877 231.806 129.871 231.468 130.784L230.874 132.385C230.756 132.703 230.604 133.008 230.422 133.294L228.998 135.533C228.548 136.241 227.921 136.819 227.178 137.21L222.378 139.738L216.445 142.863L199.811 150.363L188.561 154.863L178.811 158.613L170.561 161.363L162.061 164.363L154.811 166.363L149.811 167.613L136.311 170.363L123.561 172.863L99.5609 176.312L90.6062 177.303C90.2438 177.343 89.878 177.342 89.5159 177.299L82.8094 176.513C81.7004 176.383 80.671 175.872 79.8974 175.067L77.839 172.925C76.9769 172.028 76.4954 170.832 76.4954 169.588L76.4954 166.753C76.4954 166.494 76.5164 166.235 76.558 165.979L77.1059 162.614C77.2395 161.794 77.583 161.023 78.103 160.375L84.7152 152.134C85.4563 151.21 85.8312 150.045 85.768 148.863L84.6441 127.827L82.7542 107.319L81.7499 92.7862L80.7875 81.384C80.7655 81.1234 80.7647 80.8615 80.7853 80.6008L81.7836 67.923C81.8131 67.5479 81.8865 67.1776 82.0023 66.8196L85.3637 56.4218C85.4674 56.101 85.6045 55.7921 85.7727 55.4999L91.3717 45.7768C91.544 45.4776 91.748 45.1978 91.9801 44.9422L98.7585 37.4786C98.9974 37.2156 99.2647 36.9797 99.5555 36.7755L108.837 30.2565C109.136 30.0459 109.459 29.8703 109.799 29.7329Z" fill="#162A4E"/>
<ellipse cx="152.966" cy="149.835" rx="68.2818" ry="11.94" transform="rotate(-15.4595 152.966 149.835)" fill="#20417D"/>
<path d="M141.804 153.543L141.061 152.75C140.269 151.904 139.594 150.957 139.051 149.933C138.681 149.234 138.374 148.502 138.136 147.747L136.848 143.67L139.868 142.597L142.897 141.473L150.345 139.465L158.735 137.233L163.67 136.16L163.883 136.889C164.598 139.333 164.929 141.874 164.866 144.42L164.692 146.243C164.486 148.399 163.754 150.471 162.559 152.278L162.496 152.374C162.008 153.112 161.441 153.794 160.806 154.409C159.028 156.127 156.769 157.264 154.329 157.666L153.438 157.813C152.679 157.938 151.909 157.992 151.14 157.972C148.617 157.91 146.175 157.069 144.148 155.566L143.692 155.227C143.013 154.724 142.381 154.16 141.804 153.543Z" fill="#DDE2FF" stroke="#C4CBF5" stroke-width="2"/>
</svg>
