<svg width="175" height="26" viewBox="0 0 175 26" fill="none" xmlns="http://www.w3.org/2000/svg">
<g clip-path="url(#clip0_14_3039)">
<path d="M2.91622 24.6975V11.7599H0.30249V7.36005H2.91638V6.74983C2.91638 2.08883 5.39944 0.302734 10.0168 0.302734C10.2783 0.302734 11.9774 0.433563 11.9774 0.433563L15.593 0.738355V5.09457L12.8486 4.87683C12.8486 4.87683 12.1951 4.83339 11.9774 4.83339C10.4526 4.83339 10.1042 5.74791 10.1042 6.79376L10.1477 7.35989H14.8087V11.7597H10.2347V24.6973M17.5094 7.18593H24.6538V24.6975H17.5094V7.18593ZM17.5094 0.825734H24.6538V5.48673H17.5094V0.825734ZM26.3092 1.17398L34.1066 24.6975H40.2055L47.7852 1.17398H41.9914L38.3322 13.5894L34.7602 1.17398" fill="white"/>
<path d="M56.9773 6.09684C59.0681 6.09684 59.8959 7.62127 59.8959 9.93021V10.1478H54.0587V9.8866C54.0587 7.31648 55.3219 6.09684 56.9773 6.09684ZM56.8901 0.694946C49.2231 0.694946 45.6074 7.18597 45.6074 13.154C45.6074 19.2961 49.3104 25.1335 57.2821 25.1335C63.4679 25.1335 66.9966 21.5177 68.042 16.8131L60.4185 16.2465C60.157 18.0326 59.2422 19.1219 57.3257 19.1219C54.9297 19.1219 54.1021 17.51 54.1021 15.3757V14.7222H68.042V13.3716C68.0421 7.36009 65.0362 0.694946 56.8901 0.694946Z" fill="white"/>
<path d="M83.2884 15.2012H86.8171C88.4724 15.2012 89.6925 15.9415 89.6925 17.3795C89.6925 18.1632 88.9954 19.4263 87.2526 19.4263H83.2884V15.2012ZM83.2884 6.22716H86.4689C88.2546 6.22716 89.2129 6.79361 89.2129 8.23099C89.2129 9.01501 88.6468 10.1914 87.1221 10.1914H83.6369L83.2884 6.22716ZM76.3184 1.17383V24.6974H88.3414C92.088 24.6974 94.0484 23.9569 95.3116 22.6066C96.1394 21.6915 97.0108 20.0364 97.0108 17.9017C97.0108 14.591 94.571 12.9359 92.0882 12.4565C94.5274 11.9773 96.3571 9.97363 96.3571 7.35975C96.3571 6.27077 95.965 4.39746 94.6584 3.17765C93.3516 1.91456 92.0446 1.17383 88.6904 1.17383H76.3184ZM98.2301 24.6974V1.17383H116.788V6.57556H105.679V10.0168H114.697V15.2444H105.679V19.0781H116.788V24.6974M119.053 24.6974V1.17383H126.677V18.9036H136.347V24.6974" fill="white"/>
<path d="M134.866 4.26695C136.216 4.26695 137.654 5.31264 137.654 6.92429C137.654 8.40527 136.478 9.62507 134.822 9.62507C133.298 9.62507 132.034 8.40543 132.034 6.9679C132.034 5.53037 133.21 4.26695 134.866 4.26695ZM134.822 0.607544C130.945 0.607544 128.201 3.65705 128.201 6.92429C128.201 10.4963 131.119 13.2842 134.866 13.2842C138.002 13.2842 141.487 10.9319 141.487 6.92429C141.487 3.43948 138.525 0.607544 134.822 0.607544Z" fill="white"/>
<path d="M141.662 1.17383L148.24 24.6974H154.905L158.129 11.5853L161.57 24.6974H167.974L174.552 1.17383H168.714L165.273 14.8524L161.614 1.2176L155.646 1.17383L152.248 14.8524L148.806 1.17383" fill="white"/>
</g>
<defs>
<clipPath id="clip0_14_3039">
<rect width="174.855" height="25.4367" fill="white"/>
</clipPath>
</defs>
</svg>
