<svg width="31" height="24" viewBox="0 0 31 24" fill="none" xmlns="http://www.w3.org/2000/svg">
<g filter="url(#filter0_d_2019_5694)">
<g clip-path="url(#clip0_2019_5694)">
<g clip-path="url(#clip1_2019_5694)">
<rect width="25.6016" height="19.2012" transform="translate(2.40039 0.800049)" fill="white"/>
<path fill-rule="evenodd" clip-rule="evenodd" d="M8.80078 0.800049H21.6016V20.0012H8.80078V0.800049Z" fill="#F7FCFF"/>
<path fill-rule="evenodd" clip-rule="evenodd" d="M15.182 6.40039L15.2009 16.001H14.7213L15.0156 13.6251C12.8633 14.0124 11.8762 14.1083 12.0541 13.913C12.232 13.7177 12.3722 13.4408 12.4747 13.0825L9.60059 11.1649C9.90283 11.1611 10.1769 11.0861 10.4228 10.9399C10.6687 10.7936 10.5457 10.2869 10.054 9.41956L11.5051 9.63068L12.0541 9.03401L13.149 10.1799H13.6411L13.149 7.5552L14.0311 8.04795L15.182 6.40039ZM15.182 6.40039L16.3707 8.04795L17.2529 7.5552L16.7608 10.1799H17.2529L18.3477 9.03401L18.8968 9.63068L20.3479 9.41956C19.8561 10.2869 19.7332 10.7936 19.9791 10.9399C20.225 11.0861 20.499 11.1611 20.8013 11.1649L17.9271 13.0825C18.0296 13.4408 18.1698 13.7177 18.3477 13.913C18.5257 14.1083 17.5385 14.0124 15.3863 13.6251L15.6806 16.001H15.2009L15.182 6.40039Z" fill="#E31D1C"/>
<path fill-rule="evenodd" clip-rule="evenodd" d="M21.6016 0.800049H28.002V20.0012H21.6016V0.800049Z" fill="#E31D1C"/>
<path fill-rule="evenodd" clip-rule="evenodd" d="M2.40039 0.800049H8.80078V20.0012H2.40039V0.800049Z" fill="#E31D1C"/>
</g>
<rect x="2.40039" y="0.800049" width="25.6016" height="19.2012" fill="url(#paint0_linear_2019_5694)" style="mix-blend-mode:overlay"/>
</g>
<rect x="2.80042" y="1.20007" width="24.8015" height="18.4011" rx="1.20007" stroke="black" stroke-opacity="0.1" style="mix-blend-mode:multiply" stroke-width="0.800049"/>
</g>
<defs>
<filter id="filter0_d_2019_5694" x="0.000244141" y="0" width="30.4019" height="24.0015" filterUnits="userSpaceOnUse" color-interpolation-filters="sRGB">
<feFlood flood-opacity="0" result="BackgroundImageFix"/>
<feColorMatrix in="SourceAlpha" type="matrix" values="0 0 0 0 0 0 0 0 0 0 0 0 0 0 0 0 0 0 127 0" result="hardAlpha"/>
<feOffset dy="1.6001"/>
<feGaussianBlur stdDeviation="1.20007"/>
<feColorMatrix type="matrix" values="0 0 0 0 0 0 0 0 0 0 0 0 0 0 0 0 0 0 0.1 0"/>
<feBlend mode="normal" in2="BackgroundImageFix" result="effect1_dropShadow_2019_5694"/>
<feBlend mode="normal" in="SourceGraphic" in2="effect1_dropShadow_2019_5694" result="shape"/>
</filter>
<linearGradient id="paint0_linear_2019_5694" x1="28.002" y1="0.80005" x2="2.40039" y2="20.0012" gradientUnits="userSpaceOnUse">
<stop stop-color="white" stop-opacity="0.3"/>
<stop offset="0.262741" stop-opacity="0.27"/>
<stop offset="0.369956" stop-color="white" stop-opacity="0.26"/>
<stop offset="0.487001" stop-opacity="0.55"/>
<stop offset="0.594445" stop-opacity="0.24"/>
<stop offset="0.736408" stop-color="white" stop-opacity="0.3"/>
<stop offset="0.901459" stop-color="#272727" stop-opacity="0.22"/>
<stop offset="1" stop-opacity="0.2"/>
</linearGradient>
<clipPath id="clip0_2019_5694">
<rect x="2.40039" y="0.800049" width="25.6016" height="19.2012" rx="1.6001" fill="white"/>
</clipPath>
<clipPath id="clip1_2019_5694">
<rect width="25.6016" height="19.2012" fill="white" transform="translate(2.40039 0.800049)"/>
</clipPath>
</defs>
</svg>
