<svg width="80" height="46" viewBox="0 0 80 46" fill="none" xmlns="http://www.w3.org/2000/svg">
<path d="M15.8261 40.8461C16.59 40.8461 17.1749 40.6825 17.5844 40.3552C17.789 40.1856 17.9512 39.9695 18.0576 39.7245C18.164 39.4795 18.2117 39.2125 18.1968 38.9453V38.8861C18.2075 38.6282 18.1605 38.3712 18.0592 38.1342C17.9579 37.8973 17.805 37.6866 17.6119 37.5179C17.2231 37.1802 16.6106 37.0131 15.7779 37.0131H11.15V40.8426H15.8261V40.8461ZM14.2536 32.9782C15.0175 32.9782 15.599 32.8285 15.9981 32.5326C16.3973 32.2367 16.5968 31.7807 16.5968 31.1679V31.1088C16.6116 30.8593 16.5686 30.6098 16.4713 30.3801C16.3739 30.1504 16.2248 29.9469 16.036 29.7858C15.661 29.4795 15.1035 29.3263 14.3568 29.3263H11.1465V32.9782H14.2536ZM6.33623 24.6926H15.4786C16.6003 24.6926 17.5603 24.8528 18.3551 25.1696C19.1534 25.4864 19.7831 25.7266 20.3096 26.2558C20.6674 26.67 21.1113 27.0286 21.3762 27.7423C21.5792 28.2958 21.6859 29.1488 21.6859 29.8624V30.0261C21.6859 31.2341 21.2282 32.1636 20.7121 32.9051C20.1925 33.6467 19.4493 33.7441 18.651 34.141C20.1685 34.3847 21.8029 35.6275 22.4394 36.4108C23.076 37.1941 23.3926 38.2873 23.3926 39.6903V39.7495C23.3926 41.5493 22.8041 42.9558 21.6239 43.9654C20.4437 44.975 17.6669 45.4798 15.5267 45.4798H6.33276V24.6926H6.33623Z" fill="white"/>
<path d="M25.34 24.6926H40.8514V29.0339H30.3361V32.8703H39.2961V36.94H30.3361V41.0515H41.0853V45.4798H25.34V24.6926Z" fill="white"/>
<path d="M43.2567 24.6926H48.6072V41.0758H57.9561V45.4798H43.2567V24.6926Z" fill="white"/>
<path d="M60.0172 24.6926H65.3677V41.0758H74.7166V45.4798H60.0172V24.6926Z" fill="white"/>
<path d="M6.21282 4.68846H0V0.354004H17.899V4.68846H11.5037V21.202H6.21282V4.68846Z" fill="white"/>
<path d="M27.3753 13.9509L24.8302 6.82304L22.1195 13.9509H27.3753ZM22.9066 0.266968H27.1995L35.6784 21.202H30.1012L28.8971 18.1342H20.6919L19.4184 21.202H14.261L22.9066 0.266968Z" fill="white"/>
<path d="M64.8789 0.00156477C63.4308 0.0481004 61.8444 0.43912 60.6277 0.967934C59.33 1.5318 58.2643 2.24313 57.305 3.2234C56.3456 4.20306 55.8442 5.28969 55.3083 6.60659C54.7725 7.92349 54.6269 9.32137 54.6269 10.8057V10.8704C54.6269 12.3547 54.7725 13.7465 55.3083 15.0537C55.8442 16.3603 56.5794 17.499 57.52 18.469C58.4607 19.4389 59.5825 20.2083 60.8802 20.7728C62.1779 21.3372 63.5867 21.6158 65.1103 21.6158C66.6333 21.6158 68.0427 21.3372 69.3404 20.7728C70.6095 20.2272 71.76 19.4393 72.7277 18.4532C73.6871 17.4736 74.4356 16.3277 74.9714 15.0114C75.5073 13.6951 75.6208 12.2918 75.6208 10.8069V10.7477C75.6208 9.26276 75.5073 7.87092 74.9714 6.5643C74.4356 5.25768 73.6949 4.11906 72.7543 3.14907C71.8143 2.17907 70.6972 1.40911 69.3996 0.845247C68.1019 0.28138 66.6883 0.0021734 65.1647 0.0021734C65.068 0.00156904 64.9756 -0.00145703 64.8789 0.00156477ZM65.1042 4.56085C65.9114 4.56085 66.6502 4.72946 67.3159 5.07092C67.9762 5.40971 68.562 5.87718 69.0389 6.44584C69.5315 7.03179 69.9118 7.70358 70.1608 8.42752C70.423 9.17693 70.5528 9.96864 70.5528 10.8063V10.8764C70.5528 11.714 70.423 12.5057 70.1608 13.2551C69.8986 14.0045 69.5349 14.6639 69.0709 15.226C68.6068 15.787 68.0285 16.2427 67.3745 16.5628C66.7088 16.8934 65.9754 17.0566 65.1683 17.0566C64.3618 17.0566 63.6223 16.888 62.9566 16.5465C62.2992 16.2102 61.7181 15.7422 61.2493 15.1716C60.7654 14.5824 60.391 13.9112 60.1438 13.1899C59.8793 12.423 59.7468 11.6169 59.7517 10.8057V10.741C59.7517 9.90276 59.8755 9.11166 60.1275 8.36225C60.3794 7.61285 60.7431 6.9535 61.2173 6.39145C61.6858 5.83486 62.2631 5.37993 62.9137 5.0546C63.5698 4.72402 64.2971 4.56085 65.1042 4.56085Z" fill="white"/>
<path d="M34.8628 10.8336C34.8628 8.1774 35.5575 5.20878 37.3741 3.27181C39.3605 1.15474 42.5449 0.00708008 45.4471 0.00708008C51.1271 0.00708008 53.7496 3.93783 53.7496 3.93783L49.711 6.85385C49.711 6.85385 48.6272 5.62277 47.9198 5.24383C47.2015 4.85886 46.3629 4.55971 45.5516 4.63647C44.037 4.7797 42.4301 5.44025 41.4218 6.58068C40.4763 7.65039 40.025 9.22415 40.0855 10.651C40.1664 12.5638 40.8986 14.6682 42.3322 15.9368C43.129 16.6414 44.4883 16.8179 45.3993 16.8179C46.7508 16.8179 47.4842 16.552 48.4055 16.0891C49.0283 15.776 50.0149 14.7522 50.0149 14.7522L54.2359 17.7897C54.2359 17.7897 51.0715 21.5567 45.5516 21.5567C43.1242 21.5567 40.4806 20.9759 38.7884 19.5442C36.2855 17.4271 34.8628 15.7011 34.8628 10.8336Z" fill="white"/>
<path d="M76.583 41.2849H75.8263V41.0496H77.5975V41.2849H76.8408V43.305H76.583V41.2849Z" fill="white"/>
<path d="M77.7316 41.0496H77.9891L78.8103 42.2806L79.6315 41.0496H79.8894V43.305H79.6349V41.4783L78.8137 42.6866H78.8009L77.9796 41.4817V43.3053H77.7316V41.0496Z" fill="white"/>
</svg>
