<svg width="57" height="52" viewBox="0 0 57 52" fill="none" xmlns="http://www.w3.org/2000/svg">
<path d="M28.8507 0.00015675C28.7158 -0.000832496 28.5768 0.00312581 28.4423 0.00460968C24.3376 0.0481365 20.1843 1.01315 16.3569 2.83929C16.3569 2.83929 16.9522 2.68646 17.3587 2.68992C17.4165 2.69041 17.4689 2.69091 17.5169 2.69882C17.9109 2.76213 18.2847 2.96591 18.6021 3.20877C19.0506 3.55155 19.2133 4.2089 19.6958 4.50073C20.0879 4.73765 20.5823 4.77673 21.0402 4.79948C22.0231 4.84895 22.9873 4.49776 23.9702 4.44781C24.963 4.39736 25.9692 4.35927 26.9531 4.50073C28.4072 4.70946 29.8485 5.09725 31.2013 5.66953C32.7948 6.34419 34.2791 7.28298 35.6779 8.3019C37.0484 9.30055 38.2553 10.5104 39.4781 11.6861C41.2471 13.3871 42.6681 15.4556 44.5831 16.9909C45.3692 17.6211 46.1751 18.1553 47.1665 18.5643C48.582 19.149 51.6475 19.5709 51.6475 19.5709L52.9301 19.8919C53.5966 20.0027 54.2013 20.1555 54.7357 20.3445L54.7664 20.3534C55.2549 20.5285 55.684 20.7377 56.0489 20.9776C55.0581 17.7052 53.3414 14.5851 51.4492 11.7969C46.7076 4.80839 37.3604 0.0595115 28.8507 0.00015675Z" fill="white"/>
<path d="M11.6157 5.68298C9.01528 7.59342 6.75737 9.93097 4.9379 12.5963C2.07662 16.7927 9.94655e-06 21.9234 9.94655e-06 27.0378V50.8054C-0.00196778 51.3302 0.291228 51.5963 0.663535 51.5963H7.8684C6.91761 51.1294 6.24172 50.5082 5.86941 49.7593C3.09862 44.1879 11.9603 34.3558 25.7396 26.8093C26.3295 26.377 26.8862 25.922 26.8689 25.7459C26.8467 25.5233 25.9552 25.8863 25.9552 25.8863C19.3807 28.493 13.584 32.6004 8.27729 37.0495C8.27729 37.0495 7.21525 32.2798 6.76581 29.9299C6.48893 28.4801 6.12206 27.0403 5.99252 25.5703C5.87336 24.216 5.99252 21.4916 5.99252 21.4916C5.99252 21.4916 6.0568 18.7504 6.46718 17.413C6.89684 16.0127 8.51462 13.3739 8.51462 13.3739C8.51462 13.3739 9.83327 11.5185 10.8651 10.4863C11.1272 10.2241 11.3927 9.71515 11.4011 9.32588C11.408 9.00586 11.1989 8.81098 11.1242 8.49986C11.0273 8.09477 10.9299 7.60658 10.9443 7.19011C10.9516 6.88644 11.025 6.58801 11.1593 6.31561C11.2587 6.10836 11.4624 5.86006 11.6157 5.68298Z" fill="white"/>
<path d="M56.9359 26.9978C54.794 32.314 47.5566 39.5479 37.079 45.1707C31.0193 48.4229 25.5202 50.4909 20.8726 51.5959H56.2946C56.7248 51.5959 56.9493 51.3872 56.9493 50.8178C56.9429 43.7175 56.9374 35.2981 56.9359 26.9978Z" fill="white"/>
<path d="M48.7031 26.4661C44.8614 26.4596 37.1112 29.1672 28.9516 33.788C16.9626 40.5767 11.5594 47.3451 13.637 48.6029C16.4063 50.2792 25.2997 49.5165 37.7248 42.34C42.8238 39.395 52.4306 32.271 51.1723 27.573C50.9711 26.8227 50.0925 26.4685 48.7031 26.4661ZM30.2079 34.8163C30.2079 34.8163 32.9055 39.9767 28.732 43.1487C23.0278 47.4841 18.8211 42.8673 18.8211 42.8673C21.629 39.8797 25.5889 37.0144 30.2079 34.8163Z" fill="white"/>
</svg>
