<svg width="71" height="71" viewBox="0 0 71 71" fill="none" xmlns="http://www.w3.org/2000/svg">
<g opacity="0.5">
<g filter="url(#filter0_d_7_1418)">
<path d="M5.17654 9.97651C5.17654 7.32555 7.32558 5.17651 9.97654 5.17651H60.3765C63.0275 5.17651 65.1765 7.32555 65.1765 9.97651V60.3765C65.1765 63.0275 63.0275 65.1765 60.3765 65.1765H9.97654C7.32558 65.1765 5.17654 63.0275 5.17654 60.3765V9.97651Z" fill="url(#paint0_linear_7_1418)"/>
<path d="M9.97635 5.47632H60.3767C62.8619 5.47642 64.8766 7.49119 64.8767 9.97632V60.3767C64.8766 62.8618 62.8619 64.8766 60.3767 64.8767H9.97635C7.49122 64.8766 5.47645 62.8618 5.47635 60.3767V9.97632C5.47645 7.49119 7.49122 5.47642 9.97635 5.47632Z" stroke="#152950" stroke-width="0.6"/>
</g>
<path fill-rule="evenodd" clip-rule="evenodd" d="M28.4793 27.8442L40.7654 15.6002C41.2797 15.0881 42.1193 15.0902 42.6304 15.6034L54.2229 27.2359C54.735 27.7502 54.7339 28.5887 54.2196 29.1009L41.9324 41.3448L28.4782 27.8431L28.4793 27.8442ZM39.4886 25.6708C40.7792 24.3856 42.867 24.3887 44.1522 25.6792C45.4374 26.9697 45.4343 29.0576 44.1437 30.3428C42.8532 31.628 40.7654 31.6248 39.4802 30.3343C38.195 29.0438 38.1981 26.956 39.4886 25.6708Z" fill="#E61E29"/>
<path fill-rule="evenodd" clip-rule="evenodd" d="M30.207 39.716C31.4975 38.4308 33.5853 38.434 34.8705 39.7245C36.1557 41.015 36.1526 43.1028 34.8621 44.3881C33.5726 45.6733 31.4837 45.6701 30.1985 44.3796C28.9133 43.0902 28.9165 41.0013 30.207 39.716ZM20.5535 39.7456C21.844 38.4604 23.9319 38.4636 25.2171 39.7541C26.5023 41.0446 26.4991 43.1324 25.2086 44.4176C23.9192 45.7028 21.8303 45.6997 20.5451 44.4092C19.2599 43.1197 19.263 41.0309 20.5535 39.7456ZM15.3049 40.9717L27.5922 28.7278L41.0463 42.2295L28.7591 54.4735C28.2448 54.9856 27.4063 54.9834 26.8941 54.4702L15.3018 42.8378C14.7896 42.3235 14.7906 41.485 15.3049 40.9728V40.9717Z" fill="#0074AD"/>
<path d="M33.0299 54.9156V53.2682H32.4026V52.9811H33.9836V53.2682H33.352V54.9156H33.0299ZM34.2011 54.9156V52.98H34.6764L35.1653 54.5262L35.6374 52.98H36.1031V54.9156H35.8084V53.2914L35.31 54.9156H35.0185L34.4979 53.2682V54.9156H34.2011Z" fill="#0074AD"/>
</g>
<defs>
<filter id="filter0_d_7_1418" x="-1.4782e-05" y="-4.52995e-05" width="70.3531" height="70.3531" filterUnits="userSpaceOnUse" color-interpolation-filters="sRGB">
<feFlood flood-opacity="0" result="BackgroundImageFix"/>
<feColorMatrix in="SourceAlpha" type="matrix" values="0 0 0 0 0 0 0 0 0 0 0 0 0 0 0 0 0 0 127 0" result="hardAlpha"/>
<feOffset/>
<feGaussianBlur stdDeviation="2.58828"/>
<feComposite in2="hardAlpha" operator="out"/>
<feColorMatrix type="matrix" values="0 0 0 0 0 0 0 0 0 0 0 0 0 0 0 0 0 0 0.6 0"/>
<feBlend mode="normal" in2="BackgroundImageFix" result="effect1_dropShadow_7_1418"/>
<feBlend mode="normal" in="SourceGraphic" in2="effect1_dropShadow_7_1418" result="shape"/>
</filter>
<linearGradient id="paint0_linear_7_1418" x1="35.1765" y1="5.17651" x2="35.1765" y2="65.1765" gradientUnits="userSpaceOnUse">
<stop stop-color="white"/>
<stop offset="1" stop-color="#FEFEFE"/>
</linearGradient>
</defs>
</svg>
