<svg width="118" height="118" viewBox="0 0 118 118" fill="none" xmlns="http://www.w3.org/2000/svg">
<g filter="url(#filter0_d_7_1320)">
<path d="M8.62762 16.6276C8.62762 12.2093 12.2093 8.62762 16.6276 8.62762H100.628C105.046 8.62762 108.628 12.2093 108.628 16.6276V100.628C108.628 105.046 105.046 108.628 100.628 108.628H16.6276C12.2093 108.628 8.62762 105.046 8.62762 100.628V16.6276Z" fill="url(#paint0_linear_7_1320)"/>
<path d="M16.6276 9.12762H100.628C104.77 9.12762 108.128 12.4855 108.128 16.6276V100.628C108.128 104.77 104.77 108.128 100.628 108.128H16.6276C12.4855 108.128 9.12762 104.77 9.12762 100.628V16.6276C9.12762 12.6149 12.279 9.33816 16.2419 9.13739L16.6276 9.12762Z" stroke="#152950"/>
</g>
<mask id="mask0_7_1320" style="mask-type:luminance" maskUnits="userSpaceOnUse" x="21" y="37" width="75" height="44">
<path d="M95.09 37.6276H21.6276V80.6276H95.09V37.6276Z" fill="white"/>
</mask>
<g mask="url(#mask0_7_1320)">
<path fill-rule="evenodd" clip-rule="evenodd" d="M30.6341 38.1615C34.5129 38.1615 37.3975 40.1302 37.3975 43.0393C37.3975 45.3069 35.943 46.3941 34.6549 46.9084C36.7657 47.545 38.6807 48.7596 38.6807 51.4239C38.6807 55.3663 35.1545 56.7083 31.3345 56.7083H21.6276V38.1615H30.6341ZM27.5732 45.2481H29.7575C30.6243 45.2481 31.3295 44.5429 31.3295 43.8866C31.3295 43.1765 30.6488 42.481 29.7575 42.481H27.5732V45.2481ZM27.5732 52.4376H30.2864C31.5205 52.4376 32.3139 51.6638 32.3139 50.7382C32.3139 49.8616 31.4667 49.0975 30.4578 49.0975H27.5732V52.4376ZM35.4434 58.7309C39.3272 58.7309 42.2069 60.6996 42.2069 63.6088C42.2069 65.8764 40.7524 66.9636 39.4643 67.4779C41.5751 68.1145 43.49 69.3291 43.49 71.9933C43.49 75.9357 39.9638 77.2777 36.1438 77.2777H26.437V58.7309H35.4434ZM32.3825 65.8176H34.5717C35.4337 65.8176 36.1389 65.1124 36.1389 64.4561C36.1389 63.746 35.4581 63.0504 34.5717 63.0504H32.3825V65.8176ZM32.3825 73.0071H35.0957C36.3299 73.0071 37.1233 72.2332 37.1233 71.3076C37.1233 70.4311 36.276 69.667 35.2671 69.667H32.3825V73.0071ZM39.1509 56.7033V38.1566H54.1028V42.6378H45.0768V45.0669H52.4083V49.269H45.0768V52.2417H54.1028V56.7033H39.1509ZM54.3918 54.1713L57.9229 50.8019C58.78 51.512 59.877 52.3495 61.2631 52.3495C62.4825 52.3495 63.1534 51.6442 63.1534 50.9439C63.1534 48.9506 55.1019 49.8713 55.1019 43.5095C55.1019 40.2919 58.0404 37.6276 62.5314 37.6276C65.5239 37.6276 67.7424 38.754 69.1479 40.0911L65.6364 43.436C65.6364 43.436 64.6178 42.5104 63.2171 42.5104C62.4041 42.5104 61.6058 42.912 61.6058 43.6711C61.6058 45.6252 69.7748 44.6604 69.7748 50.939C69.7748 54.8325 66.4103 57.2322 62.1984 57.2322C58.0992 57.2322 55.8121 55.5623 54.3918 54.1713ZM74.349 56.7033V42.6182H69.4564V38.1566H85.1921V42.6182H80.2946V56.7033H74.349ZM43.6957 58.7162H49.6266V69.8287C49.6266 70.955 50.7481 71.9933 51.9186 71.9933C53.0206 71.9933 54.1372 71.053 54.1372 69.7649V58.7162H60.0484V69.6914C60.0484 74.0454 56.4341 77.5225 51.7619 77.5225C47.0603 77.5225 43.6957 73.7417 43.6957 69.4564V58.7162ZM67.3554 77.2581V70.6318L60.3912 58.7162H66.3857L70.3283 65.1025L74.2854 58.7162H80.2946L73.301 70.7004V77.2581H67.3554Z" fill="white"/>
<path d="M95.0898 68.8687V80.5883H80.2945L76.7977 77.0915V72.3655L80.2945 68.8687H95.0898Z" fill="#FFED31"/>
<path d="M78.933 75.5145C79.3685 75.5145 79.7214 75.1614 79.7214 74.726C79.7214 74.2906 79.3685 73.9376 78.933 73.9376C78.4975 73.9376 78.1445 74.2906 78.1445 74.726C78.1445 75.1614 78.4975 75.5145 78.933 75.5145Z" fill="white"/>
</g>
<defs>
<filter id="filter0_d_7_1320" x="2.67029e-05" y="2.67029e-05" width="117.255" height="117.255" filterUnits="userSpaceOnUse" color-interpolation-filters="sRGB">
<feFlood flood-opacity="0" result="BackgroundImageFix"/>
<feColorMatrix in="SourceAlpha" type="matrix" values="0 0 0 0 0 0 0 0 0 0 0 0 0 0 0 0 0 0 127 0" result="hardAlpha"/>
<feOffset/>
<feGaussianBlur stdDeviation="4.3138"/>
<feComposite in2="hardAlpha" operator="out"/>
<feColorMatrix type="matrix" values="0 0 0 0 0 0 0 0 0 0 0 0 0 0 0 0 0 0 0.6 0"/>
<feBlend mode="normal" in2="BackgroundImageFix" result="effect1_dropShadow_7_1320"/>
<feBlend mode="normal" in="SourceGraphic" in2="effect1_dropShadow_7_1320" result="shape"/>
</filter>
<linearGradient id="paint0_linear_7_1320" x1="58.6276" y1="8.62762" x2="58.6276" y2="108.628" gradientUnits="userSpaceOnUse">
<stop stop-color="#005EFF"/>
<stop offset="1" stop-color="#1955BC"/>
</linearGradient>
</defs>
</svg>
