<svg width="118" height="118" viewBox="0 0 118 118" fill="none" xmlns="http://www.w3.org/2000/svg">
<g filter="url(#filter0_d_7_1318)">
<path d="M8.62759 16.6276C8.62759 12.2093 12.2093 8.62762 16.6276 8.62762H100.628C105.046 8.62762 108.628 12.2093 108.628 16.6276V100.628C108.628 105.046 105.046 108.628 100.628 108.628H16.6276C12.2093 108.628 8.62759 105.046 8.62759 100.628V16.6276Z" fill="url(#paint0_linear_7_1318)"/>
<path d="M16.6276 9.12762H100.628C104.77 9.12762 108.128 12.4855 108.128 16.6276V100.628C108.128 104.77 104.77 108.128 100.628 108.128H16.6276C12.4855 108.128 9.12759 104.77 9.12759 100.628V16.6276C9.12759 12.6149 12.279 9.33816 16.2419 9.13739L16.6276 9.12762Z" stroke="#152950"/>
</g>
<path fill-rule="evenodd" clip-rule="evenodd" d="M47.4655 46.4071L67.9424 26.0005C68.7996 25.1469 70.1989 25.1504 71.0508 26.0058L90.3716 45.3932C91.225 46.2504 91.2232 47.6479 90.366 48.5016L69.8874 68.9081L47.4637 46.4053L47.4655 46.4071ZM65.8145 42.7848C67.9653 40.6428 71.4451 40.648 73.5871 42.7988C75.7291 44.9497 75.7238 48.4294 73.573 50.5714C71.4221 52.7135 67.9424 52.7082 65.8004 50.5573C63.6584 48.4065 63.6637 44.9268 65.8145 42.7848Z" fill="#E61E29"/>
<path fill-rule="evenodd" clip-rule="evenodd" d="M50.3451 66.1934C52.4959 64.0513 55.9757 64.0566 58.1177 66.2074C60.2597 68.3583 60.2544 71.838 58.1036 73.9801C55.9545 76.1221 52.473 76.1168 50.331 73.9659C48.189 71.8169 48.1942 68.3354 50.3451 66.1934ZM34.2561 66.2427C36.4069 64.1006 39.8866 64.1059 42.0287 66.2567C44.1707 68.4076 44.1654 71.8873 42.0146 74.0293C39.8655 76.1714 36.384 76.1661 34.242 74.0152C32.1 71.8662 32.1052 68.3847 34.2561 66.2427ZM25.5084 68.2861L45.9871 47.8796L68.4107 70.3824L47.932 90.7892C47.0749 91.6426 45.6773 91.6389 44.8237 90.7836L25.5031 71.3962C24.6495 70.5391 24.6512 69.1415 25.5084 68.2879V68.2861Z" fill="#0074AD"/>
<path d="M55.05 91.5262V88.7805H54.0045V88.3021H56.6394V88.7805H55.5868V91.5262H55.05ZM57.0019 91.5262V88.3002H57.794L58.6089 90.8772L59.3957 88.3002H60.1719V91.5262H59.6808V88.8193L58.85 91.5262H58.3642L57.4965 88.7805V91.5262H57.0019Z" fill="#0074AD"/>
<defs>
<filter id="filter0_d_7_1318" x="-3.8147e-06" y="2.67029e-05" width="117.255" height="117.255" filterUnits="userSpaceOnUse" color-interpolation-filters="sRGB">
<feFlood flood-opacity="0" result="BackgroundImageFix"/>
<feColorMatrix in="SourceAlpha" type="matrix" values="0 0 0 0 0 0 0 0 0 0 0 0 0 0 0 0 0 0 127 0" result="hardAlpha"/>
<feOffset/>
<feGaussianBlur stdDeviation="4.3138"/>
<feComposite in2="hardAlpha" operator="out"/>
<feColorMatrix type="matrix" values="0 0 0 0 0 0 0 0 0 0 0 0 0 0 0 0 0 0 0.6 0"/>
<feBlend mode="normal" in2="BackgroundImageFix" result="effect1_dropShadow_7_1318"/>
<feBlend mode="normal" in="SourceGraphic" in2="effect1_dropShadow_7_1318" result="shape"/>
</filter>
<linearGradient id="paint0_linear_7_1318" x1="58.6276" y1="8.62762" x2="58.6276" y2="108.628" gradientUnits="userSpaceOnUse">
<stop stop-color="white"/>
<stop offset="1" stop-color="#FEFEFE"/>
</linearGradient>
</defs>
</svg>
