<svg width="67" height="67" viewBox="0 0 67 67" fill="none" xmlns="http://www.w3.org/2000/svg">
<path fill-rule="evenodd" clip-rule="evenodd" d="M22.6013 21.0448L43.0783 0.638257C43.9355 -0.215387 45.3347 -0.211867 46.1866 0.64354L65.5074 20.031C66.3609 20.8882 66.359 22.2857 65.5019 23.1393L45.0232 43.5459L22.5995 21.043L22.6013 21.0448ZM40.9503 17.4226C43.1012 15.2805 46.5809 15.2857 48.7229 17.4366C50.865 19.5874 50.8597 23.0672 48.7088 25.2092C46.558 27.3512 43.0783 27.3459 40.9362 25.1951C38.7942 23.0442 38.7995 19.5645 40.9503 17.4226Z" fill="#E61E29"/>
<path fill-rule="evenodd" clip-rule="evenodd" d="M25.4809 40.8311C27.6318 38.6891 31.1115 38.6944 33.2535 40.8452C35.3956 42.9961 35.3903 46.4758 33.2394 48.6178C31.0904 50.7598 27.6089 50.7545 25.4668 48.6037C23.3248 46.4546 23.3301 42.9731 25.4809 40.8311ZM9.39189 40.8804C11.5427 38.7384 15.0224 38.7437 17.1645 40.8945C19.3065 43.0453 19.3012 46.525 17.1504 48.6671C15.0013 50.8091 11.5198 50.8038 9.37779 48.653C7.23581 46.5039 7.24104 43.0225 9.39189 40.8804ZM0.644231 42.9239L21.123 22.5173L43.5465 45.0202L23.0678 65.4269C22.2107 66.2804 20.8132 66.2767 19.9595 65.4214L0.638947 46.034C-0.214699 45.1768 -0.212939 43.7793 0.644231 42.9257V42.9239Z" fill="#0074AD"/>
<path d="M30.1858 66.164V63.4183H29.1403V62.9398H31.7752V63.4183H30.7226V66.164H30.1858ZM32.1378 66.164V62.938H32.9298L33.7447 65.5149L34.5315 62.938H35.3077V66.164H34.8166V63.4571L33.9858 66.164H33.5001L32.6323 63.4183V66.164H32.1378Z" fill="#0074AD"/>
</svg>
