<svg width="53" height="53" viewBox="0 0 53 53" fill="none" xmlns="http://www.w3.org/2000/svg">
<g opacity="0.25">
<g filter="url(#filter0_d_7_1409)">
<path d="M3.88242 7.48232C3.88242 5.4941 5.49419 3.88232 7.48242 3.88232H45.2824C47.2706 3.88232 48.8824 5.4941 48.8824 7.48232V45.2823C48.8824 47.2706 47.2706 48.8823 45.2824 48.8823H7.48242C5.49419 48.8823 3.88242 47.2705 3.88242 45.2823V7.48232Z" fill="url(#paint0_linear_7_1409)"/>
<path d="M7.48203 4.10693H45.2828C47.1465 4.10714 48.6576 5.61828 48.6578 7.48193V45.2827C48.6576 47.1464 47.1465 48.6575 45.2828 48.6577H7.48203C5.61837 48.6575 4.10724 47.1464 4.10703 45.2827V7.48193C4.10724 5.61828 5.61837 4.10714 7.48203 4.10693Z" stroke="#152950" stroke-width="0.45"/>
</g>
<mask id="mask0_7_1409" style="mask-type:luminance" maskUnits="userSpaceOnUse" x="9" y="16" width="34" height="21">
<path d="M42.7905 16.9324H9.73242V36.2824H42.7905V16.9324Z" fill="white"/>
</mask>
<g mask="url(#mask0_7_1409)">
<path fill-rule="evenodd" clip-rule="evenodd" d="M13.7853 17.1726C15.5308 17.1726 16.8289 18.0585 16.8289 19.3676C16.8289 20.388 16.1743 20.8773 15.5947 21.1087C16.5446 21.3952 17.4063 21.9418 17.4063 23.1407C17.4063 24.9148 15.8195 25.5187 14.1005 25.5187H9.73242V17.1726H13.7853ZM12.4079 20.3616H13.3908C13.7809 20.3616 14.0983 20.0442 14.0983 19.7489C14.0983 19.4294 13.792 19.1164 13.3908 19.1164H12.4079V20.3616ZM12.4079 23.5969H13.6289C14.1842 23.5969 14.5413 23.2487 14.5413 22.8321C14.5413 22.4376 14.16 22.0938 13.706 22.0938H12.4079V23.5969ZM15.9495 26.4288C17.6972 26.4288 18.9931 27.3148 18.9931 28.6239C18.9931 29.6443 18.3386 30.1336 17.7589 30.365C18.7088 30.6515 19.5705 31.198 19.5705 32.3969C19.5705 34.171 17.9837 34.7749 16.2647 34.7749H11.8966V26.4288H15.9495ZM14.5721 29.6179H15.5573C15.9451 29.6179 16.2625 29.3005 16.2625 29.0052C16.2625 28.6856 15.9561 28.3726 15.5573 28.3726H14.5721V29.6179ZM14.5721 32.8531H15.7931C16.3485 32.8531 16.7055 32.5049 16.7055 32.0884C16.7055 31.6939 16.3242 31.3501 15.8702 31.3501H14.5721V32.8531ZM17.6179 25.5164V17.1704H24.3463V19.1869H20.2846V20.28H23.5837V22.171H20.2846V23.5087H24.3463V25.5164H17.6179ZM24.4763 24.377L26.0653 22.8608C26.451 23.1803 26.9446 23.5572 27.5684 23.5572C28.1171 23.5572 28.419 23.2398 28.419 22.9247C28.419 22.0277 24.7959 22.442 24.7959 19.5792C24.7959 18.1313 26.1182 16.9324 28.1391 16.9324C29.4857 16.9324 30.4841 17.4393 31.1166 18.0409L29.5364 19.5462C29.5364 19.5462 29.078 19.1296 28.4477 19.1296C28.0818 19.1296 27.7226 19.3104 27.7226 19.6519C27.7226 20.5313 31.3987 20.0971 31.3987 22.9225C31.3987 24.6746 29.8846 25.7544 27.9893 25.7544C26.1446 25.7544 25.1155 25.003 24.4763 24.377ZM33.4571 25.5164V19.1781H31.2554V17.1704H38.3364V19.1781H36.1326V25.5164H33.4571ZM19.6631 26.4222H22.332V31.4228C22.332 31.9297 22.8366 32.3969 23.3634 32.3969C23.8593 32.3969 24.3617 31.9738 24.3617 31.3941V26.4222H27.0218V31.3611C27.0218 33.3204 25.3953 34.8851 23.2928 34.8851C21.1771 34.8851 19.6631 33.1837 19.6631 31.2553V26.4222ZM30.3099 34.7661V31.7842L27.176 26.4222H29.8736L31.6477 29.2961L33.4284 26.4222H36.1326L32.9855 31.8151V34.7661H30.3099Z" fill="white"/>
<path d="M42.7904 30.9907V36.2645H36.1325L34.5589 34.691V32.5643L36.1325 30.9907H42.7904Z" fill="#FFED31"/>
<path d="M35.5199 33.9814C35.7158 33.9814 35.8746 33.8225 35.8746 33.6265C35.8746 33.4306 35.7158 33.2717 35.5199 33.2717C35.3239 33.2717 35.165 33.4306 35.165 33.6265C35.165 33.8225 35.3239 33.9814 35.5199 33.9814Z" fill="white"/>
</g>
</g>
<defs>
<filter id="filter0_d_7_1409" x="-3.33786e-06" y="-9.48906e-05" width="52.7648" height="52.7648" filterUnits="userSpaceOnUse" color-interpolation-filters="sRGB">
<feFlood flood-opacity="0" result="BackgroundImageFix"/>
<feColorMatrix in="SourceAlpha" type="matrix" values="0 0 0 0 0 0 0 0 0 0 0 0 0 0 0 0 0 0 127 0" result="hardAlpha"/>
<feOffset/>
<feGaussianBlur stdDeviation="1.94121"/>
<feComposite in2="hardAlpha" operator="out"/>
<feColorMatrix type="matrix" values="0 0 0 0 0 0 0 0 0 0 0 0 0 0 0 0 0 0 0.6 0"/>
<feBlend mode="normal" in2="BackgroundImageFix" result="effect1_dropShadow_7_1409"/>
<feBlend mode="normal" in="SourceGraphic" in2="effect1_dropShadow_7_1409" result="shape"/>
</filter>
<linearGradient id="paint0_linear_7_1409" x1="26.3824" y1="3.88232" x2="26.3824" y2="48.8823" gradientUnits="userSpaceOnUse">
<stop stop-color="#005EFF"/>
<stop offset="1" stop-color="#1955BC"/>
</linearGradient>
</defs>
</svg>
