<svg width="1476" height="700" viewBox="0 0 1476 700" fill="none" xmlns="http://www.w3.org/2000/svg">
<g clip-path="url(#clip0_2052_707)">
<path d="M0 8.00002C0 3.58174 3.58172 0 8 0H1468C1472.42 0 1476 3.58172 1476 8V692C1476 696.418 1472.42 700 1468 700H7.99996C3.58169 700 0 696.418 0 692V8.00002Z" fill="url(#paint0_radial_2052_707)"/>
<g opacity="0.05">
<path d="M762.692 -451L696.289 -437L718.414 -165.987L694.979 -178.6L718.414 67.1298L693.728 45.2036L738.007 312.027L724.93 116.413L747.651 136.602L724.93 -128.076L762.692 -109.157V-451Z" fill="white" fill-opacity="0.5"/>
<path d="M488.321 -411.191L430.689 -375.236L543.858 -128.163L517.53 -131.988L623.31 90.8956L592.632 78.7645L725.163 314.29L646.22 134.967L674.455 146.149L562.899 -94.7775L604.822 -89.9601L488.321 -411.191Z" fill="white" fill-opacity="0.5"/>
<path d="M244.075 -279.604L202.167 -226.044L392.723 -32.7065L366.685 -27.2614L542.026 145.872L509.064 144.996L713.89 320.83L578.58 179.418L608.924 180.221L421.975 -7.87512L463.025 -17.7289L244.075 -279.604Z" fill="white" fill-opacity="0.5"/>
<path d="M59.3953 -72.1213L38.2741 -7.40802L283.219 108.866L260.614 122.924L484.393 225.431L453.119 235.927L705.511 330.844L530.17 244.409L558.957 234.745L319.191 122.165L354.393 98.8077L59.3953 -72.1213Z" fill="white" fill-opacity="0.5"/>
<path d="M-43.4323 186.25L-41.2212 254.306L228.583 279.488L212.116 300.451L457.337 319.969L431.532 340.567L701.045 343.136L506.824 322.085L530.592 303.137L266.898 279.634L292.034 245.606L-43.4323 186.25Z" fill="white" fill-opacity="0.5"/>
<path d="M-52 464.314L-26.7332 527.51L235.376 458.577L227.055 483.934L464.145 418.097L446.908 446.3L701.045 356.216L511.362 403.105L527.232 377.135L271.451 445.556L283.451 404.959L-52 464.314Z" fill="white" fill-opacity="0.5"/>
<path d="M34.7103 728.569L79.9928 779.268L302.798 624.528L303.627 651.214L503.973 507.963L497.398 540.4L705.511 368.507L543.233 477.672L549.299 447.819L332.254 599.916L329.708 557.64L34.7103 728.569Z" fill="white" fill-opacity="0.5"/>
<path d="M206.254 947.102L266.083 979.218L422.717 757.327L432.58 782.115L572.035 578.749L576.908 611.478L713.89 378.522L598.61 536.809L594.13 506.678L442.005 724.088L425.205 685.242L206.254 947.102Z" fill="white" fill-opacity="0.5"/>
<path d="M441.933 1093.59L509.093 1103.23L580.66 840.96L598.378 860.871L660.112 621.901L675.837 650.98L725.163 385.061L670.789 573.362L656.316 546.589L587.468 803.107L558.434 772.363L441.933 1093.59Z" fill="white" fill-opacity="0.5"/>
<path d="M713.322 1150.35L779.711 1136.37L757.587 865.339L781.021 877.966L757.587 632.222L782.272 654.148L738.007 387.339L751.07 582.939L728.349 562.749L751.07 827.427L713.322 808.508V1150.35Z" fill="white" fill-opacity="0.5"/>
<path d="M987.679 1110.54L1045.31 1074.6L932.142 827.515L958.47 831.34L852.69 608.456L883.368 620.587L750.837 385.061L829.78 564.384L801.545 553.217L913.101 794.129L871.178 789.312L987.679 1110.54Z" fill="white" fill-opacity="0.5"/>
<path d="M1231.93 978.955L1273.83 925.395L1083.29 732.058L1109.33 726.613L933.974 553.48L966.936 554.355L762.125 378.522L897.42 519.933L867.076 519.13L1054.02 707.227L1012.98 717.08L1231.93 978.955Z" fill="white" fill-opacity="0.5"/>
<path d="M1416.6 771.473L1437.73 706.76L1192.78 590.486L1215.4 576.428L991.607 473.935L1022.88 463.439L770.489 368.507L945.83 454.943L917.043 464.607L1156.82 577.187L1121.61 600.544L1416.6 771.473Z" fill="white" fill-opacity="0.5"/>
<path d="M1519.43 513.116L1517.22 445.06L1247.43 419.863L1263.88 398.901L1018.66 379.383L1044.47 358.785L774.955 356.216L969.176 377.266L945.408 396.214L1209.1 419.717L1183.97 453.746L1519.43 513.116Z" fill="white" fill-opacity="0.5"/>
<path d="M1528 235.037L1502.73 171.842L1240.62 240.774L1248.94 215.432L1011.87 281.255L1029.09 253.051L774.955 343.136L964.638 296.247L948.768 322.217L1204.56 253.796L1192.55 294.393L1528 235.037Z" fill="white" fill-opacity="0.5"/>
<path d="M1441.29 -29.2029L1396.01 -79.9167L1173.2 74.8231L1172.37 48.1523L972.027 191.389L978.602 158.966L770.489 330.844L932.767 221.68L926.701 251.533L1143.75 99.4354L1146.29 141.711L1441.29 -29.2029Z" fill="white" fill-opacity="0.5"/>
<path d="M1269.75 -247.751L1209.92 -279.867L1053.28 -57.9758L1043.42 -82.7633L903.966 120.603L899.093 87.8737L762.125 320.83L877.39 162.557L881.87 192.688L1033.99 -24.7359L1050.8 14.1096L1269.75 -247.751Z" fill="white" fill-opacity="0.5"/>
<path d="M1034.07 -394.243L966.907 -403.877L895.34 -141.608L877.622 -161.505L815.888 77.4506L800.164 48.3713L750.837 314.29L805.211 125.989L819.685 152.777L888.532 -103.755L917.566 -73.0118L1034.07 -394.243Z" fill="white" fill-opacity="0.5"/>
</g>
<g opacity="0.2">
<g filter="url(#filter0_f_2052_707)">
<path d="M664.441 566.76L-135.559 263.94L468.366 945.162L664.441 566.76Z" fill="url(#paint1_linear_2052_707)"/>
</g>
<g filter="url(#filter1_f_2052_707)">
<path d="M595.82 449.872L-217.378 237.534L595.82 23.6869L595.82 449.872Z" fill="url(#paint2_linear_2052_707)"/>
</g>
<g filter="url(#filter2_f_2052_707)">
<path d="M664.441 -93.2016L-135.559 209.618L468.366 -471.603L664.441 -93.2016Z" fill="url(#paint3_linear_2052_707)"/>
</g>
</g>
<g filter="url(#filter3_nf_2052_707)">
<path d="M1466.45 -198.202C1476.13 22.8858 1427.13 337.131 1146.88 181.96C746 -40 741.848 678.539 1352.5 566C1958.63 454.294 1141.63 1573.4 578.5 784" stroke="url(#paint4_linear_2052_707)" stroke-opacity="0.4" stroke-width="115.959"/>
</g>
</g>
<defs>
<filter id="filter0_f_2052_707" x="-155.559" y="243.94" width="840" height="721.222" filterUnits="userSpaceOnUse" color-interpolation-filters="sRGB">
<feFlood flood-opacity="0" result="BackgroundImageFix"/>
<feBlend mode="normal" in="SourceGraphic" in2="BackgroundImageFix" result="shape"/>
<feGaussianBlur stdDeviation="10" result="effect1_foregroundBlur_2052_707"/>
</filter>
<filter id="filter1_f_2052_707" x="-237.378" y="3.68677" width="853.198" height="466.185" filterUnits="userSpaceOnUse" color-interpolation-filters="sRGB">
<feFlood flood-opacity="0" result="BackgroundImageFix"/>
<feBlend mode="normal" in="SourceGraphic" in2="BackgroundImageFix" result="shape"/>
<feGaussianBlur stdDeviation="10" result="effect1_foregroundBlur_2052_707"/>
</filter>
<filter id="filter2_f_2052_707" x="-155.559" y="-491.603" width="840" height="721.222" filterUnits="userSpaceOnUse" color-interpolation-filters="sRGB">
<feFlood flood-opacity="0" result="BackgroundImageFix"/>
<feBlend mode="normal" in="SourceGraphic" in2="BackgroundImageFix" result="shape"/>
<feGaussianBlur stdDeviation="10" result="effect1_foregroundBlur_2052_707"/>
</filter>
<filter id="filter3_nf_2052_707" x="455.997" y="-276.04" width="1243.75" height="1477.25" filterUnits="userSpaceOnUse" color-interpolation-filters="sRGB">
<feFlood flood-opacity="0" result="BackgroundImageFix"/>
<feBlend mode="normal" in="SourceGraphic" in2="BackgroundImageFix" result="shape"/>
<feTurbulence type="fractalNoise" baseFrequency="0.50746864080429077 0.50746864080429077" stitchTiles="stitch" numOctaves="3" result="noise" seed="8531" />
<feColorMatrix in="noise" type="luminanceToAlpha" result="alphaNoise" />
<feComponentTransfer in="alphaNoise" result="coloredNoise1">
<feFuncA type="discrete" tableValues="0 0 0 0 0 0 0 0 0 0 1 1 1 1 1 1 1 1 1 1 1 1 1 1 1 1 1 1 1 1 1 1 1 1 1 1 1 1 1 0 0 0 0 0 0 0 0 0 0 0 0 0 0 0 0 0 0 0 0 0 0 0 0 0 0 0 0 0 0 0 0 0 0 0 0 0 0 0 0 0 0 0 0 0 0 0 0 0 0 0 0 0 0 0 0 0 0 0 0 0 "/>
</feComponentTransfer>
<feComposite operator="in" in2="shape" in="coloredNoise1" result="noise1Clipped" />
<feFlood flood-color="rgba(255, 255, 255, 0.43)" result="color1Flood" />
<feComposite operator="in" in2="noise1Clipped" in="color1Flood" result="color1" />
<feMerge result="effect1_noise_2052_707">
<feMergeNode in="shape" />
<feMergeNode in="color1" />
</feMerge>
<feGaussianBlur stdDeviation="37.6514" result="effect2_foregroundBlur_2052_707"/>
</filter>
<radialGradient id="paint0_radial_2052_707" cx="0" cy="0" r="1" gradientUnits="userSpaceOnUse" gradientTransform="translate(738) rotate(90) scale(700 1476)">
<stop stop-color="#FF2D9A"/>
<stop offset="0.526487" stop-color="#EB2DFF"/>
<stop offset="1" stop-color="#9509ED"/>
</radialGradient>
<linearGradient id="paint1_linear_2052_707" x1="-187.962" y1="365.073" x2="566.403" y2="755.961" gradientUnits="userSpaceOnUse">
<stop stop-color="white"/>
<stop offset="1" stop-color="white" stop-opacity="0"/>
</linearGradient>
<linearGradient id="paint2_linear_2052_707" x1="-217.378" y1="236.779" x2="595.82" y2="236.779" gradientUnits="userSpaceOnUse">
<stop stop-color="white"/>
<stop offset="1" stop-color="white" stop-opacity="0"/>
</linearGradient>
<linearGradient id="paint3_linear_2052_707" x1="-187.962" y1="108.486" x2="566.403" y2="-282.402" gradientUnits="userSpaceOnUse">
<stop stop-color="white"/>
<stop offset="1" stop-color="white" stop-opacity="0"/>
</linearGradient>
<linearGradient id="paint4_linear_2052_707" x1="1521" y1="-87" x2="1056.62" y2="769.415" gradientUnits="userSpaceOnUse">
<stop stop-color="white"/>
<stop offset="1" stop-color="#EA44FC"/>
</linearGradient>
<clipPath id="clip0_2052_707">
<path d="M0 8.00002C0 3.58174 3.58172 0 8 0H1468C1472.42 0 1476 3.58172 1476 8V692C1476 696.418 1472.42 700 1468 700H7.99996C3.58169 700 0 696.418 0 692V8.00002Z" fill="white"/>
</clipPath>
</defs>
</svg>
