<svg width="56" height="36" viewBox="0 0 56 36" fill="none" xmlns="http://www.w3.org/2000/svg">
<path d="M52.4652 3.82149C52.8071 4.2014 53.301 4.01144 53.7949 4.23939C54.0228 4.42934 54.4407 4.54332 54.7067 4.96122C54.5927 5.07519 54.4787 5.22715 54.3648 5.26514C53.9849 5.37911 53.567 5.49309 53.1491 5.60706C52.6932 5.72103 52.1993 5.87299 51.6674 6.02496C52.1993 6.2529 52.8451 5.91098 53.1111 6.55683C52.3892 6.74678 51.6674 6.89875 50.9836 7.05071C49.8439 7.31664 48.7421 7.58258 47.6024 7.81052C46.4627 8.00048 48.7602 7.62077 47.6585 7.81073C46.3668 10.66 45.455 13.5853 44.5812 16.5486C44.0494 18.2962 43.4415 20.0438 42.6817 21.6774C42.1118 22.9691 41.7319 24.3367 41.504 25.7044C41.0481 28.0598 40.2503 30.3013 39.3005 32.5048C39.2245 32.6947 39.0726 32.8467 38.9586 32.9986C38.3508 33.1506 38.0088 32.6187 37.515 32.4288C37.325 31.517 37.211 30.6432 37.287 29.7314C37.363 28.9716 37.401 28.2498 37.439 27.528C37.135 27.6039 37.0211 27.7939 36.9831 27.9839C36.7551 29.3515 36.1853 30.6052 35.8054 31.9349C35.5014 33.1126 35.1595 34.2903 34.8176 35.43C34.7796 35.62 34.7036 35.772 34.6277 35.9999C34.4757 35.9999 34.3237 35.9619 34.1718 35.9239C34.0578 35.506 34.0958 35.1261 34.1338 34.7462C34.5897 31.9349 35.0456 29.1236 35.6914 26.3502C35.7674 26.0463 35.8054 25.7044 35.9193 25.3625C35.9953 25.0965 36.0713 24.7926 36.1853 24.5267C36.2233 24.4127 36.2993 24.2987 36.2993 24.1848C36.2993 23.197 36.6032 22.3232 36.8691 21.4114C37.5529 19.284 38.2368 17.1944 38.9966 15.067C39.6424 13.2434 40.4023 11.4578 41.0861 9.63428C41.1241 9.52031 41.1241 9.44432 41.1621 9.36834C40.9721 9.25437 33.963 9.59629 33.811 9.63428C33.3932 9.71026 33.0132 9.63428 32.7093 9.36834C32.4054 9.10241 32.0635 8.91246 31.6456 8.87447C31.4936 8.87447 31.3796 8.7605 31.2277 8.72251C30.9237 8.57055 30.6198 8.41858 30.3159 8.26662C30.2779 8.15265 30.2399 8.00069 30.2399 7.84872C29.86 7.81073 29.4801 7.84872 29.1382 7.5068C29.1382 7.39283 29.1382 7.20288 29.1382 7.01292C29.1762 6.86096 29.2142 6.74699 29.2522 6.63302C30.088 5.83521 31.1137 5.37932 32.1015 4.92343C32.5953 4.69549 33.1272 4.50553 33.6211 4.31558C34.9888 3.8217 43.3275 3.28982 44.7332 2.94791C46.8227 2.45403 45.4749 2.64378 47.6024 2.30186C47.7924 2.30186 47.9443 2.26387 48.1343 2.26387C49.5779 2.22588 51.0216 2.11191 52.4272 2.22588C52.7692 2.26387 53.1111 2.26387 53.301 2.5678C54.0228 2.68177 54.7827 2.52981 55.3145 3.17565C54.4028 3.51757 53.415 3.51757 52.4652 3.82149Z" fill="#FF2A2A"/>
<path d="M18.7012 28.5061C18.7392 26.7205 19.1191 25.1629 19.613 23.6433C20.0688 22.3136 20.6007 21.0219 21.2845 19.8062C21.4745 19.5023 21.5885 19.1224 21.7024 18.7804C22.5382 16.501 23.7919 14.5255 25.5015 12.8159C26.2233 12.0941 27.0591 11.5242 27.9709 11.1063C28.9207 10.6884 29.9085 10.6124 30.9342 10.9543C31.5041 11.1443 32.0739 11.2583 32.6818 11.3343C33.9735 11.5622 34.9612 12.246 35.4551 13.4997C35.949 14.7534 36.101 16.0831 35.949 17.4508C35.911 17.9826 35.835 18.5145 35.6451 19.0464C35.5691 19.2743 35.5691 19.5403 35.5691 19.7682C35.5311 19.9962 35.4931 20.2621 35.4171 20.49C34.1634 24.4031 30.7063 31.1654 27.1731 33.4069C26.1094 34.0527 24.9317 34.2807 23.678 34.0148C22.9561 33.9008 22.1583 33.179 21.4365 33.027C20.6767 32.875 20.1068 32.4951 19.6509 31.8873C19.1191 31.0895 18.8151 30.2157 18.7392 29.2279C18.7392 28.924 18.7392 28.6201 18.7012 28.5061ZM30.8202 14.1456C30.3264 14.4115 29.9844 14.7534 29.6805 15.1333C28.6927 16.2351 27.819 17.4128 27.1351 18.7045C26.9832 18.9704 26.8312 19.2363 26.6792 19.5023C25.8054 20.8699 24.9317 22.1996 24.0959 23.6053C23.9059 23.9092 23.7539 24.2891 23.64 24.669C23.2981 25.7328 23.1461 26.8345 23.0701 27.8982C22.9561 28.658 23.0321 29.4179 23.2221 30.1777C23.2601 30.4056 23.336 30.6716 23.64 30.7475C23.8679 30.5956 24.1339 30.4056 24.3618 30.2157C24.5518 30.0637 24.7417 29.9117 24.8937 29.7598C26.5653 28.0122 28.0089 26.1507 29.1486 24.0612C29.6425 23.1494 30.0984 22.1996 30.4403 21.2498C30.6683 20.604 30.8582 19.9962 31.0102 19.3503C31.1242 18.8944 31.2001 18.4765 31.2001 18.0206C31.2381 17.7547 31.2001 17.4888 31.2381 17.2228C31.2761 16.387 31.2001 15.5512 31.0482 14.7534C31.0102 14.5635 30.8962 14.3735 30.8202 14.1456Z" fill="#FF2A2A"/>
<path d="M11.7147 4.141C12.1326 3.79908 12.5125 3.60913 13.0064 3.64712C13.3103 3.87506 13.6142 4.17899 14.0701 4.141C14.2981 4.33095 14.488 4.5209 14.7159 4.71086C15.0579 4.63488 15.3998 4.48291 15.7037 4.90081C15.7417 4.97679 15.7797 5.12876 15.8177 5.31871C15.9317 5.3567 16.0456 5.39469 16.1596 5.43268C16.1976 5.50867 16.2356 5.58465 16.2736 5.66063C16.3116 6.11652 16.1596 6.49642 16.0076 6.91432C15.2858 8.73788 14.564 10.5994 13.8422 12.461C13.5002 13.2968 13.1583 14.1326 12.8164 15.0064C12.7784 15.0823 12.8164 15.1583 12.8164 15.3103C14.1081 15.1203 15.3998 14.8924 16.7295 14.7024C16.8434 14.4745 16.9574 14.1706 17.0714 13.9046C17.7552 11.9671 18.591 10.1055 19.3508 8.20601C20.3766 5.7746 21.6683 3.41917 22.846 1.06374C23.1499 0.531871 23.5298 0.227944 24.3276 0C24.7455 0.45589 25.3534 0.341917 25.8852 0.569861C26.4171 0.835798 27.025 0.759815 27.6328 0.873788C27.6708 1.02575 27.7088 1.13972 27.7848 1.29169C27.9367 1.36767 28.0887 1.44365 28.2787 1.51963C28.3926 1.89954 28.4306 2.24146 28.2787 2.62136C28.2027 2.81132 28.1267 3.00127 28.0127 3.15324C26.4551 5.28072 25.1634 7.59816 23.9857 9.9156C23.1499 11.5492 22.3521 13.2208 21.5543 14.8544C21.5163 14.9684 21.4783 15.0823 21.4403 15.1963C21.6683 15.4243 21.8582 15.6142 22.0862 15.8042C21.8202 16.336 21.2124 16.0321 20.8705 16.336C20.4905 17.2098 20.0727 18.0456 19.6927 18.9194C19.3888 19.4893 19.2369 20.1731 18.743 20.667C18.591 20.819 18.667 21.1609 18.515 21.4268C17.9452 22.3386 17.6032 23.3263 17.2613 24.3521C16.6915 26.0617 16.0836 27.7333 15.5138 29.4429C15.1338 30.6966 14.7919 31.9123 14.488 33.166C14.374 33.7358 14.1081 34.2297 14.1081 34.8376C14.1081 34.9895 13.9941 35.1795 13.9181 35.3314C13.8802 35.4074 13.7662 35.4834 13.6902 35.5594C13.4243 35.5214 13.1583 35.5214 12.8924 35.4834C12.4745 35.1415 12.2845 35.0655 11.5627 35.0275C11.5247 34.8376 11.4108 34.6096 11.4487 34.4197C11.5247 33.8118 11.6007 33.2419 11.7147 32.6341C11.7527 32.3682 11.7907 32.1402 11.8286 31.8743C11.5627 31.7983 11.2968 31.7223 10.9929 31.6463C10.9929 31.4564 10.9549 31.2664 10.9929 31.0765C11.2968 29.2909 11.8666 27.5813 12.4745 25.8717C12.8924 24.656 13.2343 23.4403 13.7662 22.2626C14.1461 21.4268 14.412 20.553 14.7539 19.6792C14.9819 19.0714 15.2858 18.4635 15.5897 17.8557C15.6277 17.7797 15.6277 17.6277 15.6657 17.5517C15.5517 17.5138 15.5138 17.4758 15.4378 17.4758C15.3238 17.4758 15.2098 17.4758 15.0959 17.4758C13.9181 17.7037 12.7784 17.9317 11.6007 18.1976C11.4108 18.6915 11.1828 19.1853 11.0308 19.6792C10.309 22.0726 9.5492 24.5041 8.78939 26.9355C8.56144 27.6193 8.3335 28.3411 8.14354 29.025C8.02957 29.4809 7.99158 29.9747 7.87761 30.4686C7.45971 31.8743 7.23176 33.3179 6.92784 34.7236C6.85186 35.0655 6.81387 35.4074 6.58592 35.6354C6.28199 35.7873 6.01606 35.7873 5.75012 35.6733C5.48419 35.2934 5.59816 34.9135 5.59816 34.5336C5.59816 34.1537 5.8641 33.8118 5.71213 33.4319C5.29423 33.4319 4.87634 33.4319 4.42045 33.4319C4.23049 33.3179 4.1925 33.052 4.15451 32.824C4.11652 32.4821 3.88857 32.3681 3.58465 32.2922C3.58465 31.7223 3.58465 31.1524 3.66063 30.5826C4.11652 27.2394 4.87634 23.9722 5.52218 20.667C5.56017 20.439 5.59816 20.2111 5.63615 19.9072C5.33222 19.8692 5.10428 19.9452 4.91433 20.0591C4.07853 20.439 3.20474 20.743 2.52091 21.3888C2.74885 21.6168 2.9768 21.8447 3.20474 22.0726C3.01479 22.1866 2.93881 22.2626 2.82483 22.2626C1.87506 22.1486 0.963284 21.9967 0.165478 21.4268C-0.100458 21.1229 -0.0244764 20.781 0.241459 20.515C0.545385 20.1731 0.925293 19.8312 1.3052 19.5273C2.63488 18.5775 4.15451 17.8937 5.75012 17.3998C5.97807 17.3238 6.16802 17.2098 6.35798 17.1718C7.23176 14.8924 8.06756 12.6889 8.97934 10.5234C9.85313 8.35797 10.8029 6.23049 11.7147 4.141Z" fill="#FF2A2A"/>
</svg>
