<svg width="31" height="21" viewBox="0 0 31 21" fill="none" xmlns="http://www.w3.org/2000/svg">
<path d="M29.4035 2.14177C29.5952 2.35469 29.872 2.24823 30.1487 2.37598C30.2765 2.48244 30.5107 2.54631 30.6597 2.78052C30.5959 2.84439 30.532 2.92956 30.4681 2.95085C30.2552 3.01472 30.021 3.0786 29.7868 3.14247C29.5313 3.20635 29.2545 3.29151 28.9564 3.37668C29.2545 3.50443 29.6165 3.3128 29.7655 3.67476C29.361 3.78122 28.9564 3.86638 28.5732 3.95155C27.9344 4.10059 27.317 4.24963 26.6782 4.37738C26.0395 4.48383 27.3271 4.27103 26.7097 4.37749C25.9858 5.97435 25.4748 7.6138 24.9851 9.27453C24.687 10.2539 24.3463 11.2333 23.9205 12.1489C23.6011 12.8728 23.3882 13.6393 23.2605 14.4058C23.005 15.7258 22.5578 16.982 22.0255 18.2169C21.983 18.3234 21.8978 18.4086 21.8339 18.4937C21.4933 18.5789 21.3016 18.2808 21.0249 18.1744C20.9184 17.6634 20.8545 17.1737 20.8971 16.6627C20.9397 16.2368 20.961 15.8323 20.9823 15.4278C20.8119 15.4703 20.7481 15.5768 20.7268 15.6833C20.599 16.4497 20.2797 17.1524 20.0667 17.8976C19.8964 18.5576 19.7048 19.2176 19.5132 19.8564C19.4919 19.9628 19.4493 20.048 19.4067 20.1758C19.3215 20.1758 19.2364 20.1545 19.1512 20.1332C19.0873 19.899 19.1086 19.686 19.1299 19.4731C19.3854 17.8976 19.6409 16.322 20.0029 14.7677C20.0454 14.5974 20.0667 14.4058 20.1306 14.2141C20.1732 14.0651 20.2158 13.8948 20.2797 13.7457C20.3009 13.6819 20.3435 13.618 20.3435 13.5541C20.3435 13.0005 20.5139 12.5108 20.6629 11.9998C21.0461 10.8075 21.4294 9.63647 21.8552 8.44415C22.2172 7.42216 22.643 6.42146 23.0262 5.39948C23.0475 5.3356 23.0475 5.29302 23.0688 5.25043C22.9624 5.18656 19.0342 5.37818 18.949 5.39948C18.7148 5.44206 18.5019 5.39948 18.3316 5.25044C18.1613 5.1014 17.9696 4.99494 17.7354 4.97365C17.6503 4.97365 17.5864 4.90978 17.5012 4.88849C17.3309 4.80332 17.1606 4.71815 16.9902 4.63299C16.9689 4.56912 16.9477 4.48395 16.9477 4.39878C16.7347 4.37749 16.5218 4.39878 16.3302 4.20716C16.3302 4.14329 16.3302 4.03683 16.3302 3.93037C16.3515 3.84521 16.3728 3.78133 16.3941 3.71746C16.8625 3.27034 17.4374 3.01484 17.9909 2.75934C18.2677 2.63159 18.5658 2.52514 18.8426 2.41868C19.6091 2.14189 24.2824 1.84381 25.0702 1.65219C26.2413 1.3754 25.4859 1.48174 26.6782 1.29012C26.7847 1.29012 26.8699 1.26882 26.9763 1.26882C27.7854 1.24753 28.5945 1.18366 29.3822 1.24753C29.5739 1.26882 29.7655 1.26882 29.872 1.43916C30.2765 1.50303 30.7023 1.41787 31.0004 1.77982C30.4894 1.97144 29.9358 1.97144 29.4035 2.14177Z" fill="#FF2A2A"/>
<path d="M10.4808 15.9759C10.5021 14.9752 10.715 14.1022 10.9918 13.2506C11.2473 12.5054 11.5454 11.7815 11.9287 11.1001C12.0351 10.9298 12.099 10.7169 12.1629 10.5253C12.6313 9.24778 13.3339 8.14063 14.292 7.18251C14.6965 6.77798 15.165 6.4586 15.6759 6.2244C16.2082 5.99019 16.7618 5.94761 17.3367 6.13923C17.656 6.24569 17.9754 6.30956 18.3161 6.35215C19.04 6.4799 19.5936 6.86314 19.8704 7.56576C20.1471 8.26838 20.2323 9.01358 20.1471 9.78007C20.1259 10.0782 20.0833 10.3762 19.9768 10.6743C19.9342 10.8021 19.9342 10.9511 19.9342 11.0788C19.9129 11.2066 19.8917 11.3556 19.8491 11.4834C19.1465 13.6764 17.2089 17.4663 15.2288 18.7225C14.6327 19.0844 13.9726 19.2122 13.27 19.0631C12.8655 18.9993 12.4184 18.5947 12.0138 18.5096C11.588 18.4244 11.2686 18.2115 11.0131 17.8708C10.715 17.4237 10.5447 16.934 10.5021 16.3804C10.5021 16.2101 10.5021 16.0398 10.4808 15.9759ZM17.2728 7.92771C16.996 8.07675 16.8044 8.26838 16.6341 8.48129C16.0805 9.09874 15.5908 9.75878 15.2075 10.4827C15.1224 10.6317 15.0372 10.7808 14.952 10.9298C14.4623 11.6963 13.9726 12.4415 13.5042 13.2293C13.3978 13.3996 13.3126 13.6125 13.2487 13.8254C13.0571 14.4216 12.9719 15.0391 12.9294 15.6352C12.8655 16.061 12.9081 16.4869 13.0145 16.9127C13.0358 17.0405 13.0784 17.1895 13.2487 17.2321C13.3765 17.1469 13.5255 17.0405 13.6533 16.934C13.7597 16.8488 13.8662 16.7637 13.9513 16.6785C14.8882 15.6991 15.6972 14.6558 16.336 13.4848C16.6128 12.9738 16.8683 12.4415 17.0599 11.9092C17.1876 11.5473 17.2941 11.2066 17.3793 10.8446C17.4431 10.5891 17.4857 10.3549 17.4857 10.0994C17.507 9.9504 17.4857 9.80136 17.507 9.65232C17.5283 9.18391 17.4857 8.7155 17.4006 8.26838C17.3793 8.16192 17.3154 8.05546 17.2728 7.92771Z" fill="#FF2A2A"/>
<path d="M6.56534 2.32077C6.79955 2.12914 7.01246 2.02269 7.28925 2.04398C7.45958 2.17173 7.62991 2.34206 7.88541 2.32077C8.01316 2.42722 8.11961 2.53368 8.24736 2.64014C8.43899 2.59756 8.63061 2.51239 8.80094 2.7466C8.82223 2.78918 8.84352 2.87434 8.86482 2.9808C8.92869 3.00209 8.99256 3.02339 9.05644 3.04468C9.07773 3.08726 9.09902 3.12984 9.12031 3.17242C9.1416 3.42792 9.05644 3.64084 8.97127 3.87504C8.56674 4.89703 8.1622 5.94031 7.75766 6.98359C7.56604 7.452 7.37441 7.92042 7.18279 8.41012C7.1615 8.4527 7.18279 8.49529 7.18279 8.58045C7.9067 8.47399 8.63061 8.34625 9.37581 8.23979C9.43968 8.11204 9.50356 7.94171 9.56743 7.79267C9.95068 6.7068 10.4191 5.66352 10.8449 4.59895C11.4198 3.2363 12.1437 1.91623 12.8037 0.59616C12.9741 0.29808 13.187 0.127748 13.6341 0C13.8683 0.255498 14.209 0.191623 14.507 0.319371C14.8051 0.468412 15.1458 0.425828 15.4865 0.489703C15.5077 0.574869 15.529 0.638744 15.5716 0.723908C15.6568 0.766492 15.742 0.809075 15.8484 0.851658C15.9123 1.06457 15.9336 1.2562 15.8484 1.46911C15.8058 1.57557 15.7632 1.68202 15.6994 1.76719C14.8264 2.95951 14.1025 4.25829 13.4425 5.55707C12.9741 6.4726 12.5269 7.40942 12.0798 8.32495C12.0585 8.38883 12.0372 8.4527 12.0159 8.51658C12.1437 8.64433 12.2502 8.75078 12.3779 8.85724C12.2289 9.15532 11.8882 8.98499 11.6966 9.15532C11.4837 9.64502 11.2495 10.1134 11.0365 10.6031C10.8662 10.9225 10.781 11.3058 10.5043 11.5825C10.4191 11.6677 10.4617 11.8593 10.3765 12.0084C10.0571 12.5194 9.86551 13.0729 9.67389 13.6478C9.35452 14.6059 9.01386 15.5428 8.69448 16.5009C8.48157 17.2035 8.28995 17.8848 8.11961 18.5874C8.05574 18.9068 7.9067 19.1836 7.9067 19.5243C7.9067 19.6094 7.84283 19.7159 7.80024 19.801C7.77895 19.8436 7.71508 19.8862 7.67249 19.9288C7.52345 19.9075 7.37441 19.9075 7.22537 19.8862C6.99117 19.6946 6.88471 19.652 6.48017 19.6307C6.45888 19.5243 6.39501 19.3965 6.4163 19.29C6.45888 18.9494 6.50147 18.63 6.56534 18.2893C6.58663 18.1403 6.60792 18.0126 6.62921 17.8635C6.48017 17.8209 6.33113 17.7784 6.1608 17.7358C6.1608 17.6293 6.13951 17.5229 6.1608 17.4164C6.33113 16.4157 6.6505 15.4576 6.99117 14.4995C7.22537 13.8181 7.417 13.1368 7.71508 12.4768C7.92799 12.0084 8.07703 11.5187 8.26865 11.029C8.3964 10.6883 8.56674 10.3476 8.73707 10.007C8.75836 9.9644 8.75836 9.87923 8.77965 9.83665C8.71578 9.81535 8.69448 9.79406 8.6519 9.79406C8.58803 9.79406 8.52415 9.79406 8.46028 9.79406C7.80024 9.92181 7.1615 10.0496 6.50146 10.1986C6.39501 10.4754 6.26726 10.7522 6.18209 11.029C5.77756 12.3703 5.35173 13.733 4.9259 15.0956C4.79815 15.4789 4.6704 15.8834 4.56394 16.2667C4.50007 16.5222 4.47878 16.7989 4.4149 17.0757C4.1807 17.8635 4.05295 18.6726 3.88262 19.4604C3.84003 19.652 3.81874 19.8436 3.69099 19.9714C3.52066 20.0565 3.37162 20.0565 3.22258 19.9927C3.07354 19.7798 3.13742 19.5668 3.13742 19.3539C3.13742 19.141 3.28646 18.9494 3.20129 18.7365C2.96708 18.7365 2.73288 18.7365 2.47738 18.7365C2.37092 18.6726 2.34963 18.5236 2.32834 18.3958C2.30705 18.2042 2.1793 18.1403 2.00897 18.0977C2.00897 17.7784 2.00897 17.459 2.05155 17.1396C2.30705 15.266 2.73288 13.4349 3.09483 11.5825C3.11612 11.4548 3.13742 11.327 3.15871 11.1567C2.98838 11.1354 2.86063 11.178 2.75417 11.2419C2.28576 11.4548 1.79606 11.6251 1.41281 11.9871C1.54056 12.1148 1.66831 12.2426 1.79606 12.3703C1.6896 12.4342 1.64702 12.4768 1.58314 12.4768C1.05085 12.4129 0.53986 12.3277 0.0927398 12.0084C-0.0563004 11.838 -0.0137175 11.6464 0.135323 11.4974C0.305654 11.3058 0.518569 11.1141 0.731483 10.9438C1.47668 10.4115 2.32834 10.0283 3.22258 9.75148C3.35033 9.7089 3.45679 9.64502 3.56325 9.62373C4.05295 8.34625 4.52136 7.11134 5.03236 5.89773C5.52206 4.68412 6.05434 3.4918 6.56534 2.32077Z" fill="#FF2A2A"/>
</svg>
