<svg width="17" height="17" viewBox="0 0 17 17" fill="none" xmlns="http://www.w3.org/2000/svg">
<path d="M8.7778 3.58724C8.76495 3.21928 8.45625 2.9314 8.08827 2.94425C7.7203 2.9571 7.43243 3.26582 7.44528 3.63379L7.44643 3.66667C4.33356 4.08584 1.93127 6.64 1.69634 9.76608C1.63528 10.5785 2.32361 11.1504 3.03741 11.1255L13.6976 10.7532C14.4114 10.7283 15.0581 10.1098 14.9406 9.30358C14.4881 6.2015 11.9135 3.82114 8.77895 3.62014L8.7778 3.58724Z" fill="#EEEEEE"/>
<path d="M2.39432 11.8151C2.02636 11.8279 1.73847 12.1366 1.75132 12.5046C1.76417 12.8726 2.07289 13.1604 2.44085 13.1476L6.43841 13.008C6.45126 13.376 6.75998 13.6638 7.12794 13.651L9.79298 13.5579C10.161 13.5451 10.4488 13.2364 10.436 12.8684L14.4335 12.7288C14.8015 12.7159 15.0894 12.4072 15.0765 12.0393C15.0637 11.6713 14.755 11.3834 14.387 11.3963L2.39432 11.8151Z" fill="#EEEEEE"/>
</svg>
