<svg width="16" height="16" viewBox="0 0 16 16" fill="none" xmlns="http://www.w3.org/2000/svg">
<path fill-rule="evenodd" clip-rule="evenodd" d="M1.33337 5.33335C1.33337 3.86059 2.52728 2.66669 4.00004 2.66669H12C13.4728 2.66669 14.6667 3.86059 14.6667 5.33335V6.16669C14.6667 6.43929 14.5007 6.68442 14.2476 6.78569C13.1397 7.22882 13.1397 8.77122 14.2476 9.21435C14.5007 9.31562 14.6667 9.56075 14.6667 9.83335V10.6667C14.6667 12.1394 13.4728 13.3334 12 13.3334H4.00004C2.52728 13.3334 1.33337 12.1394 1.33337 10.6667V9.83335C1.33337 9.56075 1.49934 9.31562 1.75245 9.21435C2.86035 8.77122 2.86035 7.22882 1.75245 6.78569C1.49934 6.68442 1.33337 6.43929 1.33337 6.16669V5.33335ZM10 4.66669C10.3682 4.66669 10.6667 4.96517 10.6667 5.33335V5.34002C10.6667 5.70821 10.3682 6.00669 10 6.00669C9.63184 6.00669 9.33337 5.70821 9.33337 5.34002V5.33335C9.33337 4.96517 9.63184 4.66669 10 4.66669ZM10 7.33335C10.3682 7.33335 10.6667 7.63182 10.6667 8.00002V8.00669C10.6667 8.37489 10.3682 8.67335 10 8.67335C9.63184 8.67335 9.33337 8.37489 9.33337 8.00669V8.00002C9.33337 7.63182 9.63184 7.33335 10 7.33335ZM10 10C10.3682 10 10.6667 10.2985 10.6667 10.6667V10.6734C10.6667 11.0416 10.3682 11.34 10 11.34C9.63184 11.34 9.33337 11.0416 9.33337 10.6734V10.6667C9.33337 10.2985 9.63184 10 10 10Z" fill="#EEEEEE"/>
</svg>
