<svg width="28" height="28" viewBox="0 0 28 28" fill="none" xmlns="http://www.w3.org/2000/svg">
<path fill-rule="evenodd" clip-rule="evenodd" d="M10.6167 6.06678C11.1322 6.45337 11.2366 7.18464 10.85 7.70011L7.35003 12.3668C7.15816 12.6226 6.86969 12.7885 6.55205 12.8256C6.23442 12.8627 5.91548 12.7678 5.66982 12.5631L3.91982 11.1047C3.42482 10.6922 3.35795 9.95655 3.77044 9.46155C4.18293 8.96657 4.91859 8.89969 5.41358 9.31219L6.22018 9.98435L8.98337 6.30011C9.36997 5.78464 10.1012 5.68018 10.6167 6.06678ZM14 9.33344C14 8.6891 14.5223 8.16678 15.1667 8.16678H23.3333C23.9777 8.16678 24.5 8.6891 24.5 9.33344C24.5 9.97777 23.9777 10.5001 23.3333 10.5001H15.1667C14.5223 10.5001 14 9.97777 14 9.33344ZM3.50004 18.6668C3.50004 16.7338 5.06705 15.1668 7.00004 15.1668C8.93302 15.1668 10.5 16.7338 10.5 18.6668C10.5 20.5999 8.93302 22.1668 7.00004 22.1668C5.06705 22.1668 3.50004 20.5999 3.50004 18.6668ZM14 18.6668C14 18.0225 14.5223 17.5002 15.1667 17.5002H23.3333C23.9777 17.5002 24.5 18.0225 24.5 18.6668C24.5 19.3111 23.9777 19.8335 23.3333 19.8335H15.1667C14.5223 19.8335 14 19.3111 14 18.6668Z" fill="#005EFF"/>
</svg>
