<svg width="16" height="16" viewBox="0 0 16 16" fill="none" xmlns="http://www.w3.org/2000/svg">
<path d="M8.00004 1.33333C8.63737 1.33333 9.20877 1.72611 9.43751 2.32096L10.403 4.83072C10.5384 5.18285 10.8172 5.46157 11.1693 5.597L13.6791 6.5625C14.2739 6.79126 14.6667 7.36266 14.6667 8C14.6667 8.63733 14.2739 9.20873 13.6791 9.43746L11.1693 10.403C10.8172 10.5384 10.5384 10.8171 10.403 11.1693L9.43751 13.6791C9.20877 14.2739 8.63737 14.6667 8.00004 14.6667C7.36271 14.6667 6.79131 14.2739 6.56254 13.6791L5.59705 11.1693C5.46161 10.8171 5.18289 10.5384 4.83077 10.403L2.32101 9.43746C1.72616 9.20873 1.33337 8.63733 1.33337 8C1.33337 7.36266 1.72616 6.79126 2.32101 6.5625L4.83077 5.597C5.18289 5.46157 5.46161 5.18285 5.59705 4.83072L6.56254 2.32096C6.79131 1.72611 7.36271 1.33333 8.00004 1.33333Z" fill="white"/>
</svg>
