<svg width="16" height="16" viewBox="0 0 16 16" fill="none" xmlns="http://www.w3.org/2000/svg">
<path fill-rule="evenodd" clip-rule="evenodd" d="M1.33334 7.99998C1.33334 4.31808 4.31811 1.33331 8.00001 1.33331C11.6819 1.33331 14.6667 4.31808 14.6667 7.99998C14.6667 11.6818 11.6819 14.6666 8.00001 14.6666C4.31811 14.6666 1.33334 11.6818 1.33334 7.99998ZM8.00001 3.66665C8.36821 3.66665 8.66668 3.96513 8.66668 4.33331V4.74909C9.20268 4.88472 9.67568 5.18303 9.98394 5.60935C10.1997 5.90771 10.1327 6.32447 9.83434 6.54021C9.53601 6.75598 9.11921 6.68898 8.90348 6.39061C8.75861 6.19031 8.43561 5.99998 8.00001 5.99998H7.81481C7.21828 5.99998 7.00001 6.36326 7.00001 6.5185V6.56938C7.00001 6.70091 7.09941 6.92171 7.43501 7.05598L9.06014 7.70605C9.77148 7.99051 10.3333 8.62571 10.3333 9.43058C10.3333 10.4126 9.54868 11.0762 8.66668 11.2727V11.6666C8.66668 12.0348 8.36821 12.3333 8.00001 12.3333C7.63181 12.3333 7.33334 12.0348 7.33334 11.6666V11.2508C6.79734 11.1152 6.32434 10.8169 6.01608 10.3906C5.80034 10.0922 5.86732 9.67551 6.16568 9.45978C6.46404 9.24398 6.88081 9.31098 7.09654 9.60931C7.24141 9.80965 7.56441 9.99998 8.00001 9.99998H8.12161C8.75321 9.99998 9.00001 9.61391 9.00001 9.43058C9.00001 9.29905 8.90061 9.07825 8.56501 8.94398L6.93988 8.29391C6.22856 8.00945 5.66668 7.37425 5.66668 6.56938V6.5185C5.66668 5.54249 6.45958 4.89267 7.33334 4.71552V4.33331C7.33334 3.96513 7.63181 3.66665 8.00001 3.66665Z" fill="#EEEEEE"/>
</svg>
