<svg width="28" height="28" viewBox="0 0 28 28" fill="none" xmlns="http://www.w3.org/2000/svg">
<path d="M15.4584 9.62492V12.8333H19.2949C21.5253 12.8333 23.3334 14.6414 23.3334 16.8717V18.9359C23.3334 22.6531 20.3199 25.6666 16.6026 25.6666H15.3609C13.5415 25.6666 11.8451 24.7477 10.851 23.2239L7.32826 17.8237C7.12229 17.5079 7.08158 17.112 7.21899 16.761L7.31983 16.5034C7.88466 15.0602 9.54811 14.3908 10.9552 15.0401L11.375 15.2339V9.62492C11.375 8.49734 12.2891 7.58325 13.4167 7.58325C14.5443 7.58325 15.4584 8.49734 15.4584 9.62492Z" fill="#F65C8A"/>
<path fill-rule="evenodd" clip-rule="evenodd" d="M13.4167 4.66659C10.195 4.66659 7.58333 7.27826 7.58333 10.4999C7.58333 10.8325 7.61104 11.1577 7.66404 11.4735C7.77064 12.109 7.34194 12.7105 6.70648 12.8172C6.07103 12.9238 5.46947 12.495 5.36286 11.8597C5.28856 11.4167 5.25 10.9624 5.25 10.4999C5.25 5.9896 8.90634 2.33325 13.4167 2.33325C17.4644 2.33325 20.8223 5.27689 21.4705 9.14021C21.577 9.77567 21.1484 10.3772 20.5129 10.4838C19.8774 10.5905 19.2759 10.1617 19.1693 9.52629C18.7066 6.76828 16.3059 4.66659 13.4167 4.66659Z" fill="#F65C8A"/>
</svg>
