<svg width="16" height="16" viewBox="0 0 16 16" fill="none" xmlns="http://www.w3.org/2000/svg">
<path d="M8.66707 1.99998C8.66707 1.63179 8.36861 1.33331 8.00041 1.33331C7.63221 1.33331 7.33374 1.63179 7.33374 1.99998V2.66665C7.33374 3.03483 7.63221 3.33331 8.00041 3.33331C8.36861 3.33331 8.66707 3.03483 8.66707 2.66665V1.99998Z" fill="#EEEEEE"/>
<path d="M2.89589 2.61927C2.63553 2.35892 2.21343 2.35892 1.95307 2.61927C1.69273 2.87962 1.69273 3.30173 1.95307 3.56208L2.42448 4.03348C2.68483 4.29383 3.10694 4.29383 3.36729 4.03348C3.62764 3.77314 3.62764 3.35102 3.36729 3.09068L2.89589 2.61927Z" fill="#EEEEEE"/>
<path d="M14.048 3.56208C14.3083 3.30173 14.3083 2.87962 14.048 2.61927C13.7876 2.35892 13.3655 2.35892 13.1051 2.61927L12.6337 3.09068C12.3734 3.35102 12.3734 3.77314 12.6337 4.03348C12.8941 4.29383 13.3162 4.29383 13.5765 4.03348L14.048 3.56208Z" fill="#EEEEEE"/>
<path d="M5.88623 4.66669C5.3558 4.66669 4.84708 4.8774 4.47201 5.25247L2.48538 7.23909C2.26338 7.46109 2.10456 7.72215 2.00879 8.00002H13.9924C13.8967 7.72215 13.7379 7.46109 13.5158 7.23909L11.5292 5.25247C11.1541 4.8774 10.6454 4.66669 10.115 4.66669H5.88623Z" fill="#EEEEEE"/>
<path d="M2.50539 10.0872C2.28032 9.86845 2.11788 9.60971 2.01819 9.33331H13.9829C13.8832 9.60971 13.7208 9.86845 13.4957 10.0872L9.39468 14.0744C8.61848 14.829 7.38262 14.829 6.6064 14.0744L2.50539 10.0872Z" fill="#EEEEEE"/>
</svg>
