<svg width="16" height="16" viewBox="0 0 16 16" fill="none" xmlns="http://www.w3.org/2000/svg">
<path fill-rule="evenodd" clip-rule="evenodd" d="M1.33331 7.99998C1.33331 4.31808 4.31808 1.33331 7.99998 1.33331C8.25685 1.33331 8.51058 1.34787 8.76038 1.37627C8.93745 1.39639 9.09911 1.48658 9.20925 1.62669C9.31931 1.76681 9.36878 1.94519 9.34651 2.12201C9.33785 2.19094 9.33331 2.26144 9.33331 2.33331C9.33331 3.17754 9.96165 3.87611 10.7758 3.98512C11.0738 4.02501 11.3082 4.25943 11.3482 4.55743C11.4572 5.37167 12.1558 5.99998 13 5.99998C13.2062 5.99998 13.4023 5.96281 13.5828 5.89541C13.7603 5.82915 13.9576 5.84151 14.1254 5.9294C14.2932 6.01729 14.4156 6.17241 14.4622 6.35602C14.5958 6.88258 14.6666 7.43351 14.6666 7.99998C14.6666 11.6818 11.6818 14.6666 7.99998 14.6666C4.31808 14.6666 1.33331 11.6818 1.33331 7.99998ZM6.66665 5.66665C6.66665 6.21893 6.21893 6.66665 5.66665 6.66665C5.11436 6.66665 4.66665 6.21893 4.66665 5.66665C4.66665 5.11436 5.11436 4.66665 5.66665 4.66665C6.21893 4.66665 6.66665 5.11436 6.66665 5.66665ZM9.33331 7.66665C9.33331 8.21891 8.88558 8.66665 8.33331 8.66665C7.78105 8.66665 7.33331 8.21891 7.33331 7.66665C7.33331 7.11438 7.78105 6.66665 8.33331 6.66665C8.88558 6.66665 9.33331 7.11438 9.33331 7.66665ZM11.3333 9.99998C11.7015 9.99998 12 9.70151 12 9.33331C12 8.96511 11.7015 8.66665 11.3333 8.66665C10.9651 8.66665 10.6666 8.96511 10.6666 9.33331C10.6666 9.70151 10.9651 9.99998 11.3333 9.99998ZM8.66665 11C8.66665 11.5522 8.21891 12 7.66665 12C7.11438 12 6.66665 11.5522 6.66665 11C6.66665 10.4477 7.11438 9.99998 7.66665 9.99998C8.21891 9.99998 8.66665 10.4477 8.66665 11ZM4.66665 9.99998C5.03483 9.99998 5.33331 9.70151 5.33331 9.33331C5.33331 8.96511 5.03483 8.66665 4.66665 8.66665C4.29846 8.66665 3.99998 8.96511 3.99998 9.33331C3.99998 9.70151 4.29846 9.99998 4.66665 9.99998Z" fill="#EEEEEE"/>
</svg>
