<svg width="16" height="16" viewBox="0 0 16 16" fill="none" xmlns="http://www.w3.org/2000/svg">
<path d="M5.83913 2H6.66667C7.03487 2 7.33333 2.29848 7.33333 2.66667V6.66667C7.33333 7.03487 7.03487 7.33333 6.66667 7.33333H2.66667C2.29848 7.33333 2 7.03487 2 6.66667V5.83913C1.99999 5.30249 1.99999 4.85958 2.02946 4.49879C2.06008 4.12405 2.12579 3.77958 2.29065 3.45603C2.54631 2.95426 2.95426 2.54631 3.45603 2.29065C3.77958 2.12579 4.12405 2.06008 4.49879 2.02946C4.85958 1.99999 5.30249 1.99999 5.83913 2Z" fill="#EEEEEE"/>
<path d="M11.5012 2.02946C11.8759 2.06008 12.2204 2.12579 12.544 2.29065C13.0457 2.54631 13.4537 2.95426 13.7093 3.45603C13.8742 3.77958 13.9399 4.12405 13.9705 4.49879C14 4.85958 14 5.30249 14 5.83913V6.66667C14 7.03487 13.7015 7.33333 13.3333 7.33333H9.33334C8.96514 7.33333 8.66667 7.03487 8.66667 6.66667V2.66667C8.66667 2.29848 8.96514 2 9.33334 2H10.1609C10.6975 1.99999 11.1404 1.99999 11.5012 2.02946Z" fill="#EEEEEE"/>
<path d="M2 9.33335C2 8.96515 2.29848 8.66669 2.66667 8.66669H6.66667C7.03487 8.66669 7.33333 8.96515 7.33333 9.33335V13.3334C7.33333 13.7016 7.03487 14 6.66667 14H5.83913C5.30249 14 4.85958 14 4.49879 13.9706C4.12405 13.94 3.77958 13.8742 3.45603 13.7094C2.95426 13.4537 2.54631 13.0458 2.29065 12.544C2.12579 12.2204 2.06008 11.876 2.02946 11.5012C1.99999 11.1404 1.99999 10.6976 2 10.1609V9.33335Z" fill="#EEEEEE"/>
<path fill-rule="evenodd" clip-rule="evenodd" d="M13.2189 9.44816C12.1775 8.40676 10.4891 8.40676 9.44774 9.44816C8.40634 10.4896 8.40634 12.178 9.44774 13.2194C10.3263 14.098 11.6655 14.2354 12.6881 13.6314L13.5286 14.4718C13.7889 14.7322 14.2111 14.7322 14.4714 14.4718C14.7317 14.2115 14.7317 13.7894 14.4714 13.529L13.6309 12.6886C14.2349 11.666 14.0976 10.3268 13.2189 9.44816ZM10.3905 10.391C10.9112 9.87023 11.7555 9.87023 12.2761 10.391C12.7969 10.9116 12.7969 11.7559 12.2761 12.2766C11.7555 12.7973 10.9112 12.7973 10.3905 12.2766C9.8698 11.7559 9.8698 10.9116 10.3905 10.391Z" fill="#EEEEEE"/>
</svg>
