<svg width="28" height="28" viewBox="0 0 28 28" fill="none" xmlns="http://www.w3.org/2000/svg">
<path fill-rule="evenodd" clip-rule="evenodd" d="M12.483 2.7874C13.4661 2.44945 14.5339 2.44945 15.517 2.7874L22.1377 5.06327C23.551 5.54909 24.5 6.8787 24.5 8.37317V13.8973C24.5 17.1719 23.1596 19.5317 21.2187 21.3691C19.3843 23.1059 16.9811 24.4018 14.7372 25.6118L14.5539 25.7106C14.2082 25.8972 13.7917 25.8972 13.4461 25.7106L13.2628 25.6118C11.019 24.4018 8.61575 23.1059 6.78125 21.3691C4.8404 19.5317 3.5 17.1719 3.5 13.8973V8.37317C3.5 6.8787 4.44892 5.54909 5.86222 5.06327L12.483 2.7874ZM15.5084 16.575C15.964 17.0306 16.7027 17.0306 17.1583 16.575C17.6139 16.1194 17.6139 15.3807 17.1583 14.9251L15.6499 13.4167L17.1583 11.9084C17.6139 11.4528 17.6139 10.7141 17.1583 10.2584C16.7027 9.80284 15.964 9.80284 15.5084 10.2584L14 11.7668L12.4916 10.2584C12.036 9.80284 11.2973 9.80284 10.8417 10.2584C10.3861 10.7141 10.3861 11.4528 10.8417 11.9084L12.3501 13.4167L10.8417 14.9251C10.3861 15.3807 10.3861 16.1194 10.8417 16.575C11.2973 17.0306 12.036 17.0306 12.4916 16.575L14 15.0666L15.5084 16.575Z" fill="#D91B90"/>
</svg>
