<svg width="16" height="16" viewBox="0 0 16 16" fill="none" xmlns="http://www.w3.org/2000/svg">
<path fill-rule="evenodd" clip-rule="evenodd" d="M2.00004 4.66667C2.00004 3.19391 3.19395 2 4.66671 2H7.33337C8.80611 2 10 3.19391 10 4.66667V6C11.4728 6 12.6667 7.19393 12.6667 8.66667V10.3333C12.6667 10.5174 12.816 10.6667 13 10.6667C13.1841 10.6667 13.3334 10.5174 13.3334 10.3333V6.16176C13.3334 5.80814 13.1929 5.469 12.9428 5.21895L12.1953 4.47141C11.935 4.21105 11.935 3.78895 12.1953 3.52859C12.4556 3.26825 12.8778 3.26825 13.1381 3.52859L13.8856 4.27614C14.3858 4.77624 14.6667 5.45451 14.6667 6.16176V10.3333C14.6667 11.2538 13.9205 12 13 12C12.0796 12 11.3334 11.2538 11.3334 10.3333V8.66667C11.3334 7.93027 10.7364 7.33333 10 7.33333V12.6667C10.3682 12.6667 10.6667 12.9651 10.6667 13.3333C10.6667 13.7015 10.3682 14 10 14H2.00004C1.63185 14 1.33337 13.7015 1.33337 13.3333C1.33337 12.9651 1.63185 12.6667 2.00004 12.6667V4.66667ZM4.00004 6.66667C4.00004 6.29848 4.29852 6 4.66671 6H7.33337C7.70157 6 8.00004 6.29848 8.00004 6.66667C8.00004 7.03487 7.70157 7.33333 7.33337 7.33333H4.66671C4.29852 7.33333 4.00004 7.03487 4.00004 6.66667Z" fill="#EEEEEE"/>
</svg>
