<svg width="21" height="21" viewBox="0 0 21 21" fill="none" xmlns="http://www.w3.org/2000/svg">
<path d="M1.75 1.75C1.26675 1.75 0.875 2.14175 0.875 2.625C0.875 3.10825 1.26675 3.5 1.75 3.5H2.38815C2.60201 3.5 2.78453 3.65462 2.8197 3.86557L4.02133 11.0754C4.3026 12.763 5.76277 14 7.47371 14H14.8987C16.5742 14 18.0146 12.8126 18.3344 11.1681L19.1488 6.98002C19.4114 5.62967 18.3771 4.375 17.0014 4.375H4.67874L4.54588 3.57788C4.37008 2.52309 3.45748 1.75 2.38815 1.75H1.75Z" fill="#EEEEEE"/>
<path d="M7 14.875C6.0335 14.875 5.25 15.6585 5.25 16.625C5.25 17.5915 6.0335 18.375 7 18.375C7.9665 18.375 8.75 17.5915 8.75 16.625C8.75 15.6585 7.9665 14.875 7 14.875Z" fill="#EEEEEE"/>
<path d="M14.875 14.875C13.9085 14.875 13.125 15.6585 13.125 16.625C13.125 17.5915 13.9085 18.375 14.875 18.375C15.8415 18.375 16.625 17.5915 16.625 16.625C16.625 15.6585 15.8415 14.875 14.875 14.875Z" fill="#EEEEEE"/>
</svg>
