<svg width="28" height="28" viewBox="0 0 28 28" fill="none" xmlns="http://www.w3.org/2000/svg">
<path d="M2.33331 13.4166C2.33331 11.9917 3.35499 10.8056 4.70571 10.5506C5.15088 5.8804 9.34312 2.33325 14.2916 2.33325C19.2402 2.33325 23.4324 5.8804 23.8776 10.5506C25.2283 10.8056 26.25 11.9917 26.25 13.4166V17.4999C26.25 18.8377 25.3493 19.9651 24.1214 20.3089C23.6166 23.3488 20.9748 25.6666 17.7916 25.6666H15.75C14.1392 25.6666 12.8333 24.3607 12.8333 22.7499V22.1666C12.8333 21.5222 13.3556 20.9999 14 20.9999C14.6443 20.9999 15.1666 21.5222 15.1666 22.1666V22.7499C15.1666 23.072 15.4279 23.3333 15.75 23.3333H17.7916C19.6414 23.3333 21.2039 22.1032 21.7059 20.4166H21.5833C20.939 20.4166 20.4166 19.8943 20.4166 19.2499V11.6666C20.4166 11.0431 20.9058 10.5338 21.5212 10.5015C21.0589 7.26618 18.0644 4.66659 14.2916 4.66659C10.5188 4.66659 7.52438 7.26618 7.06202 10.5015C7.67751 10.5338 8.16665 11.0431 8.16665 11.6666V19.2499C8.16665 19.8943 7.64431 20.4166 6.99998 20.4166H5.24998C3.63915 20.4166 2.33331 19.1107 2.33331 17.4999V13.4166Z" fill="#00D4FF"/>
</svg>
