<svg width="16" height="16" viewBox="0 0 16 16" fill="none" xmlns="http://www.w3.org/2000/svg">
<path fill-rule="evenodd" clip-rule="evenodd" d="M5.33341 3.99998C5.33341 2.52722 6.52732 1.33331 8.00007 1.33331C9.47286 1.33331 10.6667 2.52722 10.6667 3.99998V4.76412C11.6551 5.0393 12.424 5.87122 12.5865 6.92785L13.3045 11.5945C13.553 13.2098 12.3032 14.6666 10.6689 14.6666H5.3313C3.69694 14.6666 2.44712 13.2098 2.69564 11.5945L3.41359 6.92785C3.57614 5.87121 4.3451 5.03929 5.33341 4.76412V3.99998ZM6.66673 4.66665H9.3334V3.99998C9.3334 3.2636 8.73646 2.66665 8.00007 2.66665C7.26373 2.66665 6.66673 3.2636 6.66673 3.99998V4.66665Z" fill="#EEEEEE"/>
</svg>
