<svg width="16" height="16" viewBox="0 0 16 16" fill="none" xmlns="http://www.w3.org/2000/svg">
<path fill-rule="evenodd" clip-rule="evenodd" d="M11 1.33331C12.4728 1.33331 13.6667 2.52722 13.6667 3.99998V12C13.6667 13.4727 12.4728 14.6666 11 14.6666H5.00004C3.52728 14.6666 2.33337 13.4727 2.33337 12V3.99998C2.33337 2.52722 3.52728 1.33331 5.00004 1.33331H11ZM8.00004 10.6666C6.85317 10.6666 5.45216 11.417 5.08272 12.6848C4.97976 13.0384 5.28875 13.3437 5.65694 13.3437H10.3438C10.7118 13.3436 11.0203 13.0382 10.9174 12.6848C10.5479 11.417 9.14691 10.6666 8.00004 10.6666ZM8.00004 6.33331C7.07957 6.33331 6.33337 7.07951 6.33337 7.99998C6.33337 8.92045 7.07957 9.66665 8.00004 9.66665C8.92051 9.66665 9.66671 8.92045 9.66671 7.99998C9.66671 7.07951 8.92051 6.33331 8.00004 6.33331ZM6.66671 2.66665C6.29852 2.66665 6.00004 2.96513 6.00004 3.33331C6.00004 3.7015 6.29852 3.99998 6.66671 3.99998H9.33337C9.70157 3.99998 10 3.7015 10 3.33331C10 2.96513 9.70157 2.66665 9.33337 2.66665H6.66671Z" fill="#EEEEEE"/>
</svg>
