<svg width="28" height="28" viewBox="0 0 28 28" fill="none" xmlns="http://www.w3.org/2000/svg">
<path d="M14.0165 1.99275C13.7091 1.7558 13.3042 1.68716 12.936 1.80964C12.5677 1.93213 12.2845 2.22969 12.1803 2.60351C11.5531 4.8543 10.2669 6.09337 8.61384 7.68587C8.39111 7.90043 8.16173 8.12141 7.92639 8.35214L7.92555 8.35297C7.19078 9.07486 6.43238 9.89261 5.80941 10.8193C3.96051 13.5714 3.50609 16.6887 4.89056 19.8227L4.8911 19.824C7.1988 25.032 12.3645 26.5322 16.6798 25.2121C21.0118 23.8868 24.564 19.7144 23.8175 13.7013C23.5868 11.8284 22.9537 9.89185 21.3889 8.36642C21.1431 8.12681 20.8042 8.0076 20.4626 8.04055C20.1209 8.0735 19.811 8.25525 19.6155 8.53741C19.452 8.77346 19.0798 9.22844 18.6334 9.75448C18.5562 8.8183 18.3613 7.91764 18.0303 7.04811C17.3043 5.14057 15.9664 3.49619 14.0165 1.99275Z" fill="#FF2A2A"/>
</svg>
