<svg width="16" height="16" viewBox="0 0 16 16" fill="none" xmlns="http://www.w3.org/2000/svg">
<path fill-rule="evenodd" clip-rule="evenodd" d="M1 5.66667C1 4.19391 2.19391 3 3.66667 3H12.3333C13.8061 3 15 4.19391 15 5.66667V10.3333C15 11.8061 13.8061 13 12.3333 13H3.66667C2.19391 13 1 11.8061 1 10.3333V5.66667ZM3.66667 11.6667H4C4 10.7462 3.25381 10 2.33333 10V10.3333C2.33333 11.0697 2.93029 11.6667 3.66667 11.6667ZM13.6667 10.3333V10C12.7462 10 12 10.7462 12 11.6667H12.3333C13.0697 11.6667 13.6667 11.0697 13.6667 10.3333ZM13.6667 6C12.7462 6 12 5.25381 12 4.33333H12.3333C13.0697 4.33333 13.6667 4.93029 13.6667 5.66667V6ZM3.66667 4.33333H4C4 5.25381 3.25381 6 2.33333 6V5.66667C2.33333 4.93029 2.93029 4.33333 3.66667 4.33333ZM8 6.33333C7.07953 6.33333 6.33333 7.07953 6.33333 8C6.33333 8.92047 7.07953 9.66667 8 9.66667C8.92047 9.66667 9.66667 8.92047 9.66667 8C9.66667 7.07953 8.92047 6.33333 8 6.33333Z" fill="white"/>
</svg>
