<svg width="16" height="16" viewBox="0 0 16 16" fill="none" xmlns="http://www.w3.org/2000/svg">
<path d="M1.33329 1.33333C0.965106 1.33333 0.666626 1.63181 0.666626 2C0.666626 2.36819 0.965106 2.66667 1.33329 2.66667H1.8195C1.98245 2.66667 2.12151 2.78447 2.1483 2.9452L3.06383 8.4384C3.27813 9.7242 4.39064 10.6667 5.69421 10.6667H11.3514C12.6279 10.6667 13.7254 9.762 13.969 8.509L14.5895 5.31811C14.7896 4.28927 14.0016 3.33333 12.9534 3.33333H3.56471L3.46349 2.726C3.32955 1.92235 2.63423 1.33333 1.8195 1.33333H1.33329Z" fill="#EEEEEE"/>
<path d="M5.33333 11.3333C4.59695 11.3333 4 11.9303 4 12.6667C4 13.4031 4.59695 14 5.33333 14C6.06971 14 6.66667 13.4031 6.66667 12.6667C6.66667 11.9303 6.06971 11.3333 5.33333 11.3333Z" fill="#EEEEEE"/>
<path d="M11.3333 11.3333C10.5969 11.3333 10 11.9303 10 12.6667C10 13.4031 10.5969 14 11.3333 14C12.0697 14 12.6667 13.4031 12.6667 12.6667C12.6667 11.9303 12.0697 11.3333 11.3333 11.3333Z" fill="#EEEEEE"/>
</svg>
