<svg width="21" height="21" viewBox="0 0 21 21" fill="none" xmlns="http://www.w3.org/2000/svg">
<path d="M5.25 4.08334C5.25 2.79467 6.29467 1.75 7.58334 1.75C8.75612 1.75 9.80446 2.28243 10.5 3.11875C11.1955 2.28243 12.2439 1.75 13.4166 1.75C14.7053 1.75 15.75 2.79467 15.75 4.08334C15.75 4.83504 15.5312 5.53566 15.1539 6.125H16.625C17.5915 6.125 18.375 6.9085 18.375 7.875C18.375 8.84152 17.5915 9.625 16.625 9.625H11.375V6.125H11.9584C13.0859 6.125 14 5.21091 14 4.08334C14 3.76117 13.7388 3.5 13.4166 3.5C12.2891 3.5 11.375 4.41409 11.375 5.54166V6.125H9.625V5.54166C9.625 4.41409 8.71091 3.5 7.58334 3.5C7.26117 3.5 7 3.76117 7 4.08334C7 5.21091 7.91409 6.125 9.04164 6.125H9.625V9.625H4.375C3.4085 9.625 2.625 8.84152 2.625 7.875C2.625 6.9085 3.4085 6.125 4.375 6.125H5.84606C5.46875 5.53566 5.25 4.83504 5.25 4.08334Z" fill="#EEEEEE"/>
<path d="M11.375 11.375H17.5V14.875C17.5 16.808 15.933 18.375 14 18.375H11.375V11.375Z" fill="#EEEEEE"/>
<path d="M9.625 11.375H3.5V14.875C3.5 16.808 5.067 18.375 7 18.375H9.625V11.375Z" fill="#EEEEEE"/>
</svg>
