<svg width="28" height="28" viewBox="0 0 28 28" fill="none" xmlns="http://www.w3.org/2000/svg">
<path fill-rule="evenodd" clip-rule="evenodd" d="M8.16899 3.50002L19.8356 3.5C22.413 3.5 24.5024 5.58934 24.5024 8.16667V17.5418C24.5024 20.119 22.413 22.2083 19.8357 22.2084H17.9384L14.7417 24.8568C14.3079 25.2161 13.6794 25.2143 13.2479 24.8524L10.0935 22.2084H8.16899C5.59166 22.2084 3.50232 20.119 3.50232 17.5418V8.16669C3.50232 5.58936 5.59166 3.50002 8.16899 3.50002ZM11.2274 10.7073C11.2274 9.0973 12.5223 7.77388 14.144 7.77388C15.7657 7.77388 17.0607 9.0973 17.0607 10.7073C17.0607 12.0232 16.1931 12.7097 15.6841 13.0557C15.5231 13.1651 15.4161 13.2617 15.3416 13.3619C15.2742 13.4527 15.2098 13.5773 15.1792 13.7805C15.0835 14.4177 14.4893 14.8567 13.8522 14.7609C13.215 14.6652 12.7761 14.0712 12.8718 13.4339C13.0564 12.2039 13.7797 11.5289 14.3723 11.126C14.5556 11.0014 14.6403 10.9216 14.6837 10.8626C14.7139 10.8215 14.7191 10.7781 14.7245 10.7301L14.7273 10.7073C14.7273 10.365 14.4561 10.1072 14.144 10.1072C13.8319 10.1072 13.5607 10.365 13.5607 10.7073C13.5607 11.3516 13.0384 11.874 12.394 11.874C11.7497 11.874 11.2274 11.3516 11.2274 10.7073ZM13.9998 18.375C13.1943 18.375 12.5415 17.7221 12.5415 16.9167C12.5415 16.1112 13.1943 15.4583 13.9998 15.4583C14.8052 15.4583 15.4581 16.1112 15.4581 16.9167C15.4581 17.7221 14.8052 18.375 13.9998 18.375Z" fill="#00D4FF"/>
</svg>
