<svg width="21" height="21" viewBox="0 0 21 21" fill="none" xmlns="http://www.w3.org/2000/svg">
<path fill-rule="evenodd" clip-rule="evenodd" d="M10.5 1.75C5.66751 1.75 1.75 5.66751 1.75 10.5C1.75 15.3324 5.66751 19.25 10.5 19.25C15.3324 19.25 19.25 15.3324 19.25 10.5C19.25 5.66751 15.3324 1.75 10.5 1.75ZM10.5 7.875C10.1699 7.875 9.88103 8.05752 9.73131 8.33133C9.49944 8.75534 8.9677 8.911 8.54374 8.67912C8.11976 8.44722 7.96406 7.91553 8.19595 7.49156C8.6403 6.67915 9.50477 6.125 10.5 6.125C11.8254 6.125 12.746 7.00563 13.0081 8.04038C13.2716 9.08066 12.8713 10.2926 11.6739 10.8913C11.4908 10.9829 11.375 11.1702 11.375 11.375C11.375 11.8583 10.9833 12.25 10.5 12.25C10.0167 12.25 9.625 11.8583 9.625 11.375C9.625 10.5074 10.1153 9.71407 10.8913 9.3261C11.2892 9.12712 11.3915 8.78474 11.3117 8.47009C11.2306 8.1499 10.9623 7.875 10.5 7.875ZM10.5 14.875C10.9833 14.875 11.375 14.4833 11.375 14C11.375 13.5167 10.9833 13.125 10.5 13.125C10.0167 13.125 9.625 13.5167 9.625 14C9.625 14.4833 10.0167 14.875 10.5 14.875Z" fill="#EEEEEE"/>
</svg>
