<svg width="28" height="28" viewBox="0 0 28 28" fill="none" xmlns="http://www.w3.org/2000/svg">
<path d="M10.9976 5.10027C11.2369 4.50201 10.9459 3.82305 10.3477 3.58375C9.74944 3.34446 9.07048 3.63544 8.83118 4.23369L6.79133 9.33333H4.89522C4.88231 9.33333 4.86943 9.33344 4.85656 9.33365H4.66441C4.47624 9.33365 4.29849 9.37819 4.14109 9.45731C3.08371 9.81746 2.38655 10.9127 2.59953 12.0841L4.16027 20.6681C4.56372 22.8871 6.49632 24.5 8.75165 24.5H19.2429C21.4983 24.5 23.4309 22.8871 23.8343 20.6681L25.3951 12.0841C25.6079 10.9137 24.9121 9.81932 23.8563 9.45822C23.6984 9.37853 23.52 9.33365 23.331 9.33365H23.1381C23.1252 9.33344 23.1123 9.33333 23.0994 9.33333H21.2042L19.1643 4.23369C18.925 3.63544 18.246 3.34446 17.6478 3.58375C17.0496 3.82305 16.7586 4.50201 16.9979 5.10027L18.6911 9.33333H9.30441L10.9976 5.10027Z" fill="#FFED31"/>
</svg>
