<svg width="16" height="16" viewBox="0 0 16 16" fill="none" xmlns="http://www.w3.org/2000/svg">
<path d="M8.03451 2.39981C8.18084 2.18749 8.19157 1.90981 8.06211 1.68681C7.93264 1.46379 7.68617 1.33543 7.42924 1.35721C4.01431 1.64657 1.33337 4.50915 1.33337 7.9986C1.33337 11.6798 4.31759 14.664 7.99877 14.664C11.4883 14.664 14.351 11.983 14.6402 8.56793C14.662 8.31093 14.5336 8.06453 14.3106 7.93507C14.0876 7.8056 13.8099 7.8164 13.5976 7.96273C12.9535 8.40667 12.1735 8.66653 11.3308 8.66653C9.12164 8.66653 7.33077 6.87567 7.33077 4.66651C7.33077 3.82385 7.59057 3.04388 8.03451 2.39981Z" fill="white"/>
</svg>
