<svg width="28" height="28" viewBox="0 0 28 28" fill="none" xmlns="http://www.w3.org/2000/svg">
<path fill-rule="evenodd" clip-rule="evenodd" d="M3.5 8.16667C3.5 5.58934 5.58934 3.5 8.16667 3.5H9.33333C9.97766 3.5 10.5 4.02234 10.5 4.66667C10.5 5.31099 9.97766 5.83333 9.33333 5.83333H8.16667C6.878 5.83333 5.83333 6.878 5.83333 8.16667V9.33333C5.83333 9.97766 5.31099 10.5 4.66667 10.5C4.02234 10.5 3.5 9.97766 3.5 9.33333V8.16667ZM17.5 4.66667C17.5 4.02234 18.0223 3.5 18.6667 3.5H19.8333C22.4106 3.5 24.5 5.58934 24.5 8.16667V9.33333C24.5 9.97766 23.9777 10.5 23.3333 10.5C22.689 10.5 22.1667 9.97766 22.1667 9.33333V8.16667C22.1667 6.878 21.122 5.83333 19.8333 5.83333H18.6667C18.0223 5.83333 17.5 5.31099 17.5 4.66667ZM4.66667 17.5C5.31099 17.5 5.83333 18.0223 5.83333 18.6667V19.8333C5.83333 21.122 6.878 22.1667 8.16667 22.1667H9.33333C9.97766 22.1667 10.5 22.689 10.5 23.3333C10.5 23.9777 9.97766 24.5 9.33333 24.5H8.16667C5.58934 24.5 3.5 22.4106 3.5 19.8333V18.6667C3.5 18.0223 4.02234 17.5 4.66667 17.5ZM23.3333 17.5C23.9777 17.5 24.5 18.0223 24.5 18.6667V19.8333C24.5 22.4106 22.4106 24.5 19.8333 24.5H18.6667C18.0223 24.5 17.5 23.9777 17.5 23.3333C17.5 22.689 18.0223 22.1667 18.6667 22.1667H19.8333C21.122 22.1667 22.1667 21.122 22.1667 19.8333V18.6667C22.1667 18.0223 22.689 17.5 23.3333 17.5Z" fill="#8B5CF6"/>
</svg>
