<svg width="28" height="28" viewBox="0 0 28 28" fill="none" xmlns="http://www.w3.org/2000/svg">
<path d="M19.8334 18.0833C21.4442 18.0833 22.75 19.3891 22.75 20.9999C22.75 22.6107 21.4442 23.9166 19.8334 23.9166C18.2225 23.9166 16.9167 22.6107 16.9167 20.9999C16.9167 19.3891 18.2225 18.0833 19.8334 18.0833Z" fill="#D91B90"/>
<path d="M12.8333 18.6667C14.122 18.6667 15.1667 19.7114 15.1667 21.0001C15.1667 22.2888 14.122 23.3334 12.8333 23.3334C11.5447 23.3334 10.5 22.2888 10.5 21.0001C10.5 19.7114 11.5447 18.6667 12.8333 18.6667Z" fill="#D91B90"/>
<path d="M7 19.25C7.9665 19.25 8.75 20.0335 8.75 21C8.75 21.9665 7.9665 22.75 7 22.75C6.0335 22.75 5.25 21.9665 5.25 21C5.25 20.0335 6.0335 19.25 7 19.25Z" fill="#D91B90"/>
<path d="M19.8334 11.0833C21.4442 11.0833 22.75 12.3891 22.75 13.9999C22.75 15.6107 21.4442 16.9166 19.8334 16.9166C18.2225 16.9166 16.9167 15.6107 16.9167 13.9999C16.9167 12.3891 18.2225 11.0833 19.8334 11.0833Z" fill="#D91B90"/>
<path d="M12.8333 11.6667C14.122 11.6667 15.1667 12.7114 15.1667 14.0001C15.1667 15.2888 14.122 16.3334 12.8333 16.3334C11.5447 16.3334 10.5 15.2888 10.5 14.0001C10.5 12.7114 11.5447 11.6667 12.8333 11.6667Z" fill="#D91B90"/>
<path d="M7 12.25C7.9665 12.25 8.75 13.0335 8.75 14C8.75 14.9665 7.9665 15.75 7 15.75C6.0335 15.75 5.25 14.9665 5.25 14C5.25 13.0335 6.0335 12.25 7 12.25Z" fill="#D91B90"/>
<path d="M19.8334 4.08325C21.4442 4.08325 22.75 5.38909 22.75 6.99992C22.75 8.61075 21.4442 9.91659 19.8334 9.91659C18.2225 9.91659 16.9167 8.61075 16.9167 6.99992C16.9167 5.38909 18.2225 4.08325 19.8334 4.08325Z" fill="#D91B90"/>
<path d="M12.8333 4.66675C14.122 4.66675 15.1667 5.71142 15.1667 7.00008C15.1667 8.28875 14.122 9.33341 12.8333 9.33341C11.5447 9.33341 10.5 8.28875 10.5 7.00008C10.5 5.71142 11.5447 4.66675 12.8333 4.66675Z" fill="#D91B90"/>
<path d="M7 5.25C7.9665 5.25 8.75 6.0335 8.75 7C8.75 7.9665 7.9665 8.75 7 8.75C6.0335 8.75 5.25 7.9665 5.25 7C5.25 6.0335 6.0335 5.25 7 5.25Z" fill="#D91B90"/>
</svg>
