<svg width="16" height="16" viewBox="0 0 16 16" fill="none" xmlns="http://www.w3.org/2000/svg">
<g clip-path="url(#clip0_1_748)">
<path d="M8.66671 1.33333C8.66671 0.965146 8.36824 0.666666 8.00004 0.666666C7.63184 0.666666 7.33337 0.965146 7.33337 1.33333V2C7.33337 2.36819 7.63184 2.66667 8.00004 2.66667C8.36824 2.66667 8.66671 2.36819 8.66671 2V1.33333Z" fill="white"/>
<path d="M8.66671 14C8.66671 13.6318 8.36824 13.3333 8.00004 13.3333C7.63184 13.3333 7.33337 13.6318 7.33337 14V14.6667C7.33337 15.0349 7.63184 15.3333 8.00004 15.3333C8.36824 15.3333 8.66671 15.0349 8.66671 14.6667V14Z" fill="white"/>
<path d="M13.1847 2.8153C13.445 3.07565 13.445 3.49776 13.1847 3.75811L12.7113 4.23144C12.451 4.49179 12.0289 4.49179 11.7685 4.23144C11.5082 3.97109 11.5082 3.54898 11.7685 3.28863L12.2418 2.8153C12.5022 2.55495 12.9243 2.55495 13.1847 2.8153Z" fill="white"/>
<path d="M4.23152 12.7114C4.49187 12.4511 4.49187 12.0289 4.23152 11.7686C3.97117 11.5083 3.54906 11.5083 3.28871 11.7686L2.81538 12.2419C2.55503 12.5023 2.55503 12.9244 2.81538 13.1847C3.07572 13.4451 3.49784 13.4451 3.75818 13.1847L4.23152 12.7114Z" fill="white"/>
<path d="M13.3334 8C13.3334 7.6318 13.6318 7.33333 14 7.33333H14.6667C15.0349 7.33333 15.3334 7.6318 15.3334 8C15.3334 8.3682 15.0349 8.66667 14.6667 8.66667H14C13.6318 8.66667 13.3334 8.3682 13.3334 8Z" fill="white"/>
<path d="M1.33329 7.33333C0.965106 7.33333 0.666626 7.6318 0.666626 8C0.666626 8.3682 0.965106 8.66667 1.33329 8.66667H1.99996C2.36815 8.66667 2.66663 8.3682 2.66663 8C2.66663 7.6318 2.36815 7.33333 1.99996 7.33333H1.33329Z" fill="white"/>
<path d="M11.7685 11.7686C12.0289 11.5083 12.451 11.5083 12.7113 11.7686L13.1847 12.2419C13.445 12.5023 13.445 12.9244 13.1847 13.1847C12.9243 13.4451 12.5022 13.4451 12.2418 13.1847L11.7685 12.7114C11.5082 12.4511 11.5082 12.0289 11.7685 11.7686Z" fill="white"/>
<path d="M3.75818 2.8153C3.49784 2.55495 3.07572 2.55495 2.81538 2.8153C2.55503 3.07565 2.55503 3.49776 2.81538 3.75811L3.28871 4.23144C3.54906 4.49179 3.97117 4.49179 4.23152 4.23144C4.49187 3.97109 4.49187 3.54898 4.23152 3.28863L3.75818 2.8153Z" fill="white"/>
<path d="M5.17158 5.17158C6.73367 3.60947 9.26634 3.60947 10.8284 5.17158C12.3905 6.73367 12.3905 9.26634 10.8284 10.8284C9.26634 12.3905 6.73367 12.3905 5.17158 10.8284C3.60947 9.26634 3.60947 6.73367 5.17158 5.17158Z" fill="white"/>
</g>
<defs>
<clipPath id="clip0_1_748">
<rect width="16" height="16" fill="white"/>
</clipPath>
</defs>
</svg>
