<svg width="16" height="16" viewBox="0 0 16 16" fill="none" xmlns="http://www.w3.org/2000/svg">
<path fill-rule="evenodd" clip-rule="evenodd" d="M6.33838 2.35705C6.1039 2.02473 5.67189 1.82736 5.30663 2.00626L1.73603 3.75508C1.02325 4.10419 0.660454 4.91168 0.872799 5.67643C1.1237 6.58005 2.07692 7.09258 2.96909 6.80358L3.33295 6.68565V11.3336C3.33295 12.8063 4.52686 14.0002 5.99962 14.0002H9.9996C11.4724 14.0002 12.6663 12.8063 12.6663 11.3336V6.68565L13.0301 6.80351C13.9223 7.09258 14.8755 6.58007 15.1264 5.67644C15.3388 4.91169 14.976 4.10418 14.2632 3.75507L10.6926 2.00625C10.3273 1.82736 9.89533 2.02473 9.6608 2.35705C8.83167 3.5322 7.16753 3.53221 6.33838 2.35705Z" fill="#EEEEEE"/>
</svg>
