<svg width="16" height="16" viewBox="0 0 16 16" fill="none" xmlns="http://www.w3.org/2000/svg">
<path d="M2.83806 3.78076C1.89761 4.93 1.33337 6.39906 1.33337 7.9999C1.33337 9.60077 1.89763 11.0698 2.83811 12.2191L5.46009 9.5971C5.16865 9.13457 5.00004 8.58697 5.00004 7.9999C5.00004 7.4129 5.16864 6.86523 5.46005 6.40275L2.83806 3.78076Z" fill="white"/>
<path d="M3.78125 2.83822L6.40324 5.46021C6.86573 5.16878 7.4134 5.00016 8.0004 5.00016C8.58746 5.00016 9.13513 5.16878 9.5976 5.46022L12.2196 2.83823C11.0703 1.89775 9.60126 1.3335 8.0004 1.3335C6.39956 1.3335 4.9305 1.89775 3.78125 2.83822Z" fill="white"/>
<path d="M13.1611 3.78076L10.5391 6.40276C10.8305 6.86524 10.9991 7.41284 10.9991 7.9999C10.9991 8.5869 10.8305 9.13457 10.5391 9.59703L13.1611 12.219C14.1015 11.0698 14.6658 9.60077 14.6658 7.9999C14.6658 6.39905 14.1015 4.93 13.1611 3.78076Z" fill="white"/>
<path d="M12.2195 13.162L9.59753 10.54C9.135 10.8314 8.5874 11 8.0004 11C7.41333 11 6.86573 10.8314 6.40324 10.54L3.78125 13.162C4.93049 14.1024 6.39954 14.6667 8.0004 14.6667C9.6012 14.6667 11.0703 14.1024 12.2195 13.162Z" fill="white"/>
</svg>
