<svg width="28" height="28" viewBox="0 0 28 28" fill="none" xmlns="http://www.w3.org/2000/svg">
<path d="M12.5209 17.0188C13.5654 17.2947 15.8481 17.8977 16.2111 16.4393C16.5829 14.9482 14.369 14.4515 13.2888 14.209C13.1681 14.182 13.0615 14.158 12.9743 14.1362L12.2714 16.9541C12.343 16.9718 12.427 16.9941 12.5209 17.0188Z" fill="#FF551C"/>
<path d="M13.5058 12.9012C14.3766 13.1336 16.2761 13.6405 16.607 12.315C16.9449 10.9593 15.0987 10.5506 14.197 10.351C14.0956 10.3285 14.0062 10.3087 13.9331 10.2905L13.2959 12.8462C13.3561 12.8613 13.4267 12.8801 13.5058 12.9012Z" fill="#FF551C"/>
<path fill-rule="evenodd" clip-rule="evenodd" d="M11.1756 25.3173C17.4264 26.8758 23.7566 23.0723 25.3148 16.8222C26.873 10.5719 23.0696 4.24059 16.8193 2.68237C10.5704 1.12416 4.24023 4.92818 2.68275 11.1789C1.1238 17.4285 4.92746 23.7591 11.1756 25.3173ZM16.5698 9.39436C18.186 9.95107 19.3679 10.7856 19.1356 12.338C18.9676 13.4743 18.3376 14.0245 17.5013 14.2174C18.6497 14.8153 19.2341 15.7322 18.6774 17.3218C17.9865 19.296 16.3452 19.4626 14.1625 19.0495L13.6327 21.1725L12.3526 20.8535L12.8754 18.759C12.5437 18.6765 12.2047 18.589 11.8554 18.4943L11.3308 20.5986L10.0522 20.2796L10.5819 18.1527C10.4624 18.1221 10.3421 18.0907 10.221 18.0591C10.0392 18.0117 9.85538 17.9638 9.66937 17.9171L8.00361 17.5019L8.63907 16.0367C8.63907 16.0367 9.58224 16.2875 9.56948 16.2688C9.93187 16.3586 10.0926 16.1223 10.1561 15.9648L10.9932 12.6089C11.0246 12.6164 11.0554 12.6242 11.0851 12.6315C11.0998 12.6353 11.1143 12.6389 11.1284 12.6424C11.0774 12.622 11.0311 12.6089 10.9953 12.5998L11.5925 10.2041C11.6082 9.93211 11.5145 9.58904 10.9961 9.45962C11.0161 9.44612 10.0664 9.22847 10.0664 9.22847L10.4069 7.8613L12.1722 8.30208L12.1708 8.30863C12.4362 8.37463 12.7096 8.43734 12.9881 8.50077L13.5128 6.3986L14.792 6.71762L14.278 8.77858C14.6215 8.85697 14.967 8.93608 15.3036 9.01994L15.814 6.97245L17.094 7.29146L16.5698 9.39436Z" fill="#FF551C"/>
</svg>
