<svg width="28" height="28" viewBox="0 0 28 28" fill="none" xmlns="http://www.w3.org/2000/svg">
<path fill-rule="evenodd" clip-rule="evenodd" d="M4.46171 7.87557C4.61542 5.41608 6.65498 3.5 9.11929 3.5H18.8765C21.3407 3.5 23.3803 5.41608 23.5341 7.87557L24.2632 19.5422C24.4311 22.2288 22.2974 24.5 19.6057 24.5H8.39012C5.69828 24.5 3.56462 22.2288 3.73254 19.5422L4.46171 7.87557ZM11.6645 9.33333C11.6645 8.68901 11.1422 8.16667 10.4979 8.16667C9.85354 8.16667 9.3312 8.68901 9.3312 9.33333C9.3312 11.9106 11.4205 14 13.9979 14C16.5753 14 18.6645 11.9106 18.6645 9.33333C18.6645 8.68901 18.1422 8.16667 17.4979 8.16667C16.8535 8.16667 16.3312 8.68901 16.3312 9.33333C16.3312 10.622 15.2866 11.6667 13.9979 11.6667C12.7092 11.6667 11.6645 10.622 11.6645 9.33333Z" fill="#0CC967"/>
</svg>
