<svg width="21" height="21" viewBox="0 0 21 21" fill="none" xmlns="http://www.w3.org/2000/svg">
<path d="M3.7249 4.96247C2.49056 6.47084 1.75 8.39898 1.75 10.5001C1.75 12.6012 2.49058 14.5294 3.72496 16.0378L7.16632 12.5964C6.7838 11.9893 6.5625 11.2706 6.5625 10.5001C6.5625 9.72965 6.78379 9.01084 7.16627 8.40383L3.7249 4.96247Z" fill="#EEEEEE"/>
<path d="M4.96289 3.72495L8.40425 7.16631C9.01127 6.78381 9.73008 6.5625 10.5005 6.5625C11.271 6.5625 11.9899 6.7838 12.5968 7.16632L16.0382 3.72496C14.5298 2.49058 12.6017 1.75 10.5005 1.75C8.39943 1.75 6.47128 2.49058 4.96289 3.72495Z" fill="#EEEEEE"/>
<path d="M17.274 4.96247L13.8326 8.40384C14.2151 9.01084 14.4364 9.72956 14.4364 10.5001C14.4364 11.2705 14.215 11.9893 13.8325 12.5963L17.2739 16.0377C18.5083 14.5294 19.2489 12.6012 19.2489 10.5001C19.2489 8.39897 18.5083 6.47084 17.274 4.96247Z" fill="#EEEEEE"/>
<path d="M16.0381 17.2752L12.5968 13.8338C11.9897 14.2163 11.271 14.4376 10.5005 14.4376C9.73 14.4376 9.01127 14.2163 8.40426 13.8338L4.96289 17.2752C6.47127 18.5095 8.39939 19.2501 10.5005 19.2501C12.6016 19.2501 14.5297 18.5095 16.0381 17.2752Z" fill="#EEEEEE"/>
</svg>
