<svg width="20" height="20" viewBox="0 0 20 20" fill="none" xmlns="http://www.w3.org/2000/svg">
<path d="M9.91305 2.96071C10.0936 2.69875 10.1068 2.35615 9.9471 2.081C9.78737 1.80584 9.48327 1.64747 9.16626 1.67434C4.95286 2.03135 1.64508 5.56325 1.64508 9.8686C1.64508 14.4105 5.32705 18.0925 9.86896 18.0925C14.1744 18.0925 17.7064 14.7846 18.0632 10.5711C18.0901 10.254 17.9317 9.94995 17.6566 9.79021C17.3814 9.63047 17.0388 9.6438 16.7769 9.82435C15.9822 10.3721 15.0198 10.6927 13.98 10.6927C11.2544 10.6927 9.04477 8.48311 9.04477 5.75741C9.04477 4.71772 9.36532 3.75538 9.91305 2.96071Z" fill="#A4ACC7"/>
</svg>
