<svg width="16" height="16" viewBox="0 0 16 16" fill="none" xmlns="http://www.w3.org/2000/svg">
<g clip-path="url(#clip0_6_206)">
<path fill-rule="evenodd" clip-rule="evenodd" d="M3.51819 3.85415C4.01277 3.11229 4.84539 2.66669 5.73699 2.66669H10.2629C11.1546 2.66669 11.9872 3.11229 12.4817 3.85415L13.9123 6.00002H14.6666C15.0348 6.00002 15.3333 6.2985 15.3333 6.66669C15.3333 7.03489 15.0348 7.33335 14.6666 7.33335H14.597C14.643 7.53089 14.6666 7.73402 14.6666 7.93889V12C14.6666 12.7364 14.0697 13.3334 13.3333 13.3334H12.6666C11.9302 13.3334 11.3333 12.7364 11.3333 12H4.66663C4.66663 12.7364 4.06967 13.3334 3.33329 13.3334H2.66663C1.93025 13.3334 1.33329 12.7364 1.33329 12V7.93889C1.33329 7.73402 1.3569 7.53089 1.40296 7.33335H1.33329C0.965106 7.33335 0.666626 7.03489 0.666626 6.66669C0.666626 6.2985 0.965106 6.00002 1.33329 6.00002H2.08761L3.51819 3.85415ZM3.33329 8.66669C3.33329 8.29849 3.63177 8.00002 3.99996 8.00002H4.66663C5.03481 8.00002 5.33329 8.29849 5.33329 8.66669C5.33329 9.03489 5.03481 9.33335 4.66663 9.33335H3.99996C3.63177 9.33335 3.33329 9.03489 3.33329 8.66669ZM10.6666 8.66669C10.6666 8.29849 10.9651 8.00002 11.3333 8.00002H12C12.3682 8.00002 12.6666 8.29849 12.6666 8.66669C12.6666 9.03489 12.3682 9.33335 12 9.33335H11.3333C10.9651 9.33335 10.6666 9.03489 10.6666 8.66669Z" fill="#EEEEEE"/>
</g>
<defs>
<clipPath id="clip0_6_206">
<rect width="16" height="16" fill="white"/>
</clipPath>
</defs>
</svg>
