<svg width="28" height="28" viewBox="0 0 28 28" fill="none" xmlns="http://www.w3.org/2000/svg">
<path d="M1.50838 5.29996C1.05277 5.75558 1.05277 6.49426 1.50838 6.94988C1.964 7.40549 2.70268 7.40549 3.1583 6.94988L6.6583 3.44988C7.11391 2.99426 7.11391 2.25558 6.6583 1.79996C6.20268 1.34435 5.464 1.34435 5.00838 1.79996L1.50838 5.29996Z" fill="#8B5CF6"/>
<path d="M22.9916 1.79996C22.536 1.34435 21.7973 1.34435 21.3417 1.79996C20.8861 2.25558 20.8861 2.99426 21.3417 3.44988L24.8417 6.94988C25.2973 7.40549 26.036 7.40549 26.4916 6.94988C26.9472 6.49426 26.9472 5.75558 26.4916 5.29996L22.9916 1.79996Z" fill="#8B5CF6"/>
<path fill-rule="evenodd" clip-rule="evenodd" d="M25.6664 13.9999C25.6664 20.4432 20.4432 25.6666 13.9998 25.6666C7.5565 25.6666 2.33316 20.4432 2.33316 13.9999C2.33316 7.55659 7.5565 2.33325 13.9998 2.33325C20.4432 2.33325 25.6664 7.55659 25.6664 13.9999ZM13.9998 8.16659C14.6441 8.16659 15.1664 8.68893 15.1664 9.33325V13.5167L17.7415 16.0916C18.1971 16.5472 18.1971 17.286 17.7415 17.7415C17.2858 18.1971 16.5472 18.1971 16.0915 17.7415L13.1748 14.8249C12.9561 14.6061 12.8331 14.3093 12.8331 13.9999V9.33325C12.8331 8.68893 13.3555 8.16659 13.9998 8.16659Z" fill="#8B5CF6"/>
</svg>
