<svg width="18" height="18" viewBox="0 0 18 18" fill="none" xmlns="http://www.w3.org/2000/svg">
<g clip-path="url(#clip0_1_1258)">
<path d="M1.18573 8.00955C5.8171 5.99869 8.90467 4.6729 10.4484 4.03239C14.8614 2.2034 15.7772 1.88574 16.3753 1.8751C16.5069 1.87288 16.7998 1.90528 16.9909 2.05941C17.1497 2.18929 17.1944 2.36494 17.2168 2.48815C17.2366 2.61135 17.2639 2.89214 17.2417 3.11134C17.0034 5.61498 15.9684 11.6905 15.4422 14.4947C15.2213 15.6813 14.782 16.0791 14.3575 16.118C13.4342 16.2026 12.7343 15.5103 11.8408 14.9267C10.4434 14.0131 9.65422 13.4445 8.29657 12.5532C6.72797 11.523 7.74555 10.9568 8.6391 10.0315C8.87235 9.7893 12.9378 6.10432 13.0147 5.77009C13.0247 5.72828 13.0347 5.57242 12.9403 5.49029C12.8485 5.4079 12.7119 5.43611 12.6127 5.45837C12.4711 5.49004 10.2399 6.96154 5.91131 9.87262C5.27841 10.3066 4.70509 10.5181 4.18883 10.507C3.62294 10.4948 2.53094 10.1873 1.71934 9.9246C0.726544 9.60225 -0.0652454 9.43178 0.00424998 8.88428C0.0389977 8.59928 0.433695 8.3076 1.18573 8.00955Z" fill="#FAF8FF"/>
</g>
<defs>
<clipPath id="clip0_1_1258">
<rect width="18" height="18" fill="white"/>
</clipPath>
</defs>
</svg>
