<svg width="28" height="28" viewBox="0 0 28 28" fill="none" xmlns="http://www.w3.org/2000/svg">
<path d="M16.0841 2.22613C16.991 0.71922 19.1757 0.71922 20.0825 2.22613L21.5162 4.6084L24.2249 5.23574C25.9384 5.63256 26.6134 7.71033 25.4605 9.03848L23.6379 11.1381L23.8783 13.9081C24.0304 15.6603 22.2629 16.9445 20.6434 16.2584L18.0833 15.1737L15.5232 16.2584C13.9038 16.9445 12.1363 15.6603 12.2884 13.9081L12.5288 11.1381L10.7062 9.03848C9.55325 7.71033 10.2284 5.63256 11.9417 5.23574L14.6505 4.6084L16.0841 2.22613Z" fill="#1BD924"/>
<path d="M8.99161 13.6584C9.44721 13.2028 9.44721 12.464 8.99161 12.0085C8.53599 11.5528 7.7973 11.5528 7.34168 12.0085L2.67502 16.6751C2.21941 17.1307 2.21941 17.8694 2.67502 18.325C3.13064 18.7806 3.86932 18.7806 4.32494 18.325L8.99161 13.6584Z" fill="#1BD924"/>
<path d="M11.325 19.4916C11.7806 19.036 11.7806 18.2973 11.325 17.8417C10.8694 17.3861 10.1307 17.3861 9.67506 17.8417L5.00839 22.5084C4.55279 22.9639 4.55279 23.7027 5.00839 24.1583C5.46401 24.6138 6.2027 24.6138 6.65832 24.1583L11.325 19.4916Z" fill="#1BD924"/>
<path d="M19.4916 17.8417C19.9472 18.2973 19.9472 19.036 19.4916 19.4916L14.825 24.1583C14.3694 24.6138 13.6306 24.6138 13.1751 24.1583C12.7195 23.7027 12.7195 22.9639 13.1751 22.5084L17.8417 17.8417C18.2973 17.3861 19.036 17.3861 19.4916 17.8417Z" fill="#1BD924"/>
</svg>
