<svg width="18" height="18" viewBox="0 0 18 18" fill="none" xmlns="http://www.w3.org/2000/svg">
<g opacity="0.5">
<path d="M8.24998 11.2499C9.90679 11.2499 11.25 9.90676 11.25 8.24995C11.25 6.59311 9.90679 5.24997 8.24998 5.24997C6.59314 5.24997 5.25 6.59311 5.25 8.24995C5.25 9.90676 6.59314 11.2499 8.24998 11.2499Z" fill="#C3C3E3"/>
<path fill-rule="evenodd" clip-rule="evenodd" d="M8.24996 3.74997C5.76469 3.74997 3.74999 5.76468 3.74999 8.24994C3.74999 10.7352 5.76469 12.7499 8.24996 12.7499C10.7352 12.7499 12.7499 10.7352 12.7499 8.24994C12.7499 5.76468 10.7352 3.74997 8.24996 3.74997ZM2.25 8.24994C2.25 4.93626 4.93627 2.24998 8.24996 2.24998C11.5637 2.24998 14.2499 4.93626 14.2499 8.24994C14.2499 9.63646 13.7796 10.9132 12.9899 11.9291L15.5302 14.4696C15.8231 14.7625 15.8231 15.2373 15.5302 15.5302C15.2374 15.8231 14.7625 15.8231 14.4696 15.5302L11.9291 12.9898C10.9132 13.7796 9.63648 14.2499 8.24996 14.2499C4.93627 14.2499 2.25 11.5636 2.25 8.24994Z" fill="#C3C3E3"/>
</g>
</svg>
