<svg width="28" height="28" viewBox="0 0 28 28" fill="none" xmlns="http://www.w3.org/2000/svg">
<path fill-rule="evenodd" clip-rule="evenodd" d="M12.483 2.7874C13.4661 2.44945 14.5339 2.44945 15.517 2.7874L22.1377 5.06327C23.551 5.54909 24.5 6.8787 24.5 8.37317V13.8973C24.5 17.1719 23.1596 19.5317 21.2187 21.3691C19.3843 23.1059 16.9811 24.4018 14.7372 25.6118L14.5539 25.7106C14.2082 25.8972 13.7917 25.8972 13.4461 25.7106L13.2628 25.6118C11.019 24.4018 8.61575 23.1059 6.78125 21.3691C4.8404 19.5317 3.5 17.1719 3.5 13.8973V8.37317C3.5 6.8787 4.44892 5.54909 5.86222 5.06327L12.483 2.7874ZM17.7416 12.2C18.1972 11.7444 18.1972 11.0057 17.7416 10.5501C17.286 10.0945 16.5473 10.0945 16.0917 10.5501L12.8333 13.8085L11.9083 12.8835C11.4527 12.4279 10.714 12.4279 10.2584 12.8835C9.80276 13.339 9.80276 14.0778 10.2584 14.5334L12.0084 16.2834C12.2271 16.5021 12.5239 16.6251 12.8333 16.6251C13.1427 16.6251 13.4395 16.5021 13.6583 16.2834L17.7416 12.2Z" fill="#FF2A2A"/>
</svg>
