<svg width="28" height="28" viewBox="0 0 28 28" fill="none" xmlns="http://www.w3.org/2000/svg">
<path d="M2.33335 2.33325C1.68903 2.33325 1.16669 2.85559 1.16669 3.49992C1.16669 4.14425 1.68903 4.66659 2.33335 4.66659H3.18422C3.46937 4.66659 3.71273 4.87275 3.75962 5.15402L5.3618 14.7671C5.73682 17.0173 7.68371 18.6666 9.96496 18.6666H19.865C22.0989 18.6666 24.0195 17.0834 24.4459 14.8907L25.5317 9.30662C25.8818 7.50615 24.5028 5.83325 22.6686 5.83325H6.23834L6.06119 4.77042C5.8268 3.36404 4.61 2.33325 3.18422 2.33325H2.33335Z" fill="#0CC967"/>
<path d="M9.33333 19.8333C8.04467 19.8333 7 20.8779 7 22.1666C7 23.4553 8.04467 24.4999 9.33333 24.4999C10.622 24.4999 11.6667 23.4553 11.6667 22.1666C11.6667 20.8779 10.622 19.8333 9.33333 19.8333Z" fill="#0CC967"/>
<path d="M19.8333 19.8333C18.5446 19.8333 17.5 20.8779 17.5 22.1666C17.5 23.4553 18.5446 24.4999 19.8333 24.4999C21.122 24.4999 22.1667 23.4553 22.1667 22.1666C22.1667 20.8779 21.122 19.8333 19.8333 19.8333Z" fill="#0CC967"/>
</svg>
