<svg width="28" height="28" viewBox="0 0 28 28" fill="none" xmlns="http://www.w3.org/2000/svg">
<path fill-rule="evenodd" clip-rule="evenodd" d="M3.5 8.16667C3.5 5.58934 5.58934 3.5 8.16667 3.5H19.8333C22.4106 3.5 24.5 5.58934 24.5 8.16667V19.8333C24.5 22.4106 22.4106 24.5 19.8333 24.5H8.16667C5.58934 24.5 3.5 22.4106 3.5 19.8333V8.16667ZM14.8079 9.23411C14.509 8.51548 13.491 8.51548 13.1921 9.23411L12.4308 11.0643C12.3048 11.3673 12.0199 11.5743 11.6929 11.6005L9.71701 11.7589C8.94119 11.8211 8.62661 12.7892 9.2177 13.2956L10.7231 14.5852C10.9723 14.7986 11.0811 15.1335 11.005 15.4527L10.5451 17.3808C10.3645 18.1379 11.1881 18.7363 11.8523 18.3305L13.544 17.2973C13.824 17.1263 14.176 17.1263 14.456 17.2973L16.1477 18.3305C16.8119 18.7363 17.6356 18.1379 17.455 17.3808L16.9949 15.4527C16.9189 15.1335 17.0277 14.7986 17.2769 14.5852L18.7823 13.2956C19.3734 12.7892 19.0588 11.8211 18.2829 11.7589L16.3071 11.6005C15.9801 11.5743 15.6952 11.3673 15.5692 11.0643L14.8079 9.23411Z" fill="#F68A5C"/>
</svg>
