<svg width="16" height="16" viewBox="0 0 16 16" fill="none" xmlns="http://www.w3.org/2000/svg">
<path d="M6.3323 1.07688C6.00659 0.905179 5.60337 1.03003 5.43167 1.35573C5.25997 1.68144 5.38482 2.08466 5.71053 2.25636C6.24367 2.53741 6.60389 2.86556 6.85173 3.24921C6.9334 3.37567 7.0056 3.51239 7.0684 3.66105C6.46772 3.51997 5.90763 3.48319 5.38987 3.54684C4.53365 3.65211 3.83356 4.02777 3.30017 4.58397C2.2579 5.67081 1.9097 7.37278 2.01929 8.97038C2.12968 10.5798 2.71423 12.2622 3.75665 13.3832C4.28441 13.9508 4.94267 14.3869 5.72345 14.5714C6.43181 14.7387 7.198 14.6887 7.9992 14.3967C8.80053 14.6887 9.56693 14.7387 10.2754 14.5714C11.0563 14.3869 11.7147 13.9508 12.2426 13.3833C13.2853 12.2623 13.87 10.5798 13.9805 8.97038C14.0901 7.37278 13.7418 5.67077 12.6993 4.58392C12.1658 4.02773 11.4656 3.6521 10.6093 3.54685C9.97253 3.46858 9.27173 3.54215 8.51013 3.77478C8.3922 3.32389 8.21773 2.90656 7.97167 2.5257C7.58073 1.92053 7.0346 1.44711 6.3323 1.07688Z" fill="#EEEEEE"/>
</svg>
