<svg width="16" height="16" viewBox="0 0 16 16" fill="none" xmlns="http://www.w3.org/2000/svg">
<path d="M12.7712 1.33331C11.8872 1.33331 11.0393 1.6845 10.4142 2.30962L8.82565 3.89815L4.74379 2.45749C3.77541 2.11571 2.6968 2.36036 1.97065 3.08651L1.52859 3.52857C1.39293 3.66423 1.32229 3.85175 1.33473 4.04319C1.34716 4.23462 1.44146 4.41143 1.59352 4.52839L5.32503 7.39878L4.72385 7.99998H4.49509C3.78784 7.99998 3.10957 8.28091 2.60947 8.78105L1.52859 9.86191C1.36831 10.0222 1.30045 10.2529 1.34843 10.4744C1.39642 10.696 1.55367 10.8779 1.76591 10.9575L3.58137 11.6383C3.94193 11.7735 4.22643 12.058 4.36164 12.4186L5.04244 14.234C5.12203 14.4463 5.304 14.6036 5.52553 14.6515C5.74705 14.6995 5.97779 14.6316 6.13806 14.4714L7.21891 13.3905C7.71905 12.8904 7.99998 12.2121 7.99998 11.5049V11.2761L8.60118 10.6749L11.4716 14.4064C11.5885 14.5585 11.7654 14.6528 11.9568 14.6652C12.1482 14.6776 12.3357 14.607 12.4714 14.4714L12.9134 14.0293C13.6396 13.3032 13.8842 12.2246 13.5425 11.2562L12.1018 7.17431L13.6904 5.58577C14.3154 4.96065 14.6666 4.1128 14.6666 3.22875V1.99998C14.6666 1.63179 14.3682 1.33331 14 1.33331H12.7712Z" fill="#EEEEEE"/>
</svg>
