<svg width="169" height="27" viewBox="0 0 169 27" fill="none" xmlns="http://www.w3.org/2000/svg">
<g clip-path="url(#clip0_14_3078)">
<path d="M65.3886 14.5446L63.151 14.3374C61.6592 14.2131 61.0791 13.6744 61.0791 12.8042C61.0791 11.7269 61.9908 11.0639 63.7311 11.0639C65.3886 11.0639 66.2174 11.7683 66.3417 12.97H71.6043C71.2728 9.48923 68.828 7.04441 63.8555 7.04441C58.6757 7.04441 55.8165 9.69642 55.8165 13.1772C55.8165 16.4508 57.5984 18.2326 62.0322 18.6055L64.2698 18.7713C66.0102 18.8956 66.6318 19.4757 66.6318 20.5117C66.6318 21.589 65.7201 22.4178 63.8555 22.4178C62.1151 22.4178 61.0791 21.6305 60.9134 20.263H55.3607C55.858 24.0339 58.51 26.4787 63.8555 26.4787C69.0352 26.4787 71.9358 23.8267 71.9358 20.2216C71.8944 16.7408 69.9882 14.959 65.3886 14.5446ZM47.1561 7.04441C43.841 7.04441 41.8935 8.78479 40.9404 12.307H40.6089V7.33447H35.3878V26.1886H40.9404V15.2076C40.9404 12.6799 42.225 11.3125 44.5455 11.3125C46.866 11.3125 47.9848 12.7214 47.9848 15.1662V26.1472H53.5375V14.2131C53.5789 9.65498 51.1755 7.04441 47.1561 7.04441ZM29.9594 0C28.0533 0 26.6444 1.24313 26.6444 3.14926C26.6444 5.0554 28.0533 6.29853 29.918 6.29853C31.7827 6.29853 33.1916 5.0554 33.1916 3.14926C33.233 1.28457 31.8241 0 29.9594 0ZM32.7357 7.33447H27.1831V26.1886H32.7357V7.33447ZM80.6791 3.35645H77.1155C76.9912 6.3814 75.7066 7.70741 72.806 7.95604V11.7683H75.0851V20.0558C75.0851 24.241 77.447 26.4787 82.2123 26.4787C83.0825 26.4787 83.9942 26.3544 84.8644 26.1472V21.6719C84.4085 21.7548 83.9527 21.7962 83.5384 21.7548C81.5493 21.7548 80.6791 21.0089 80.6791 18.8956V11.7683H85.5688V7.33447H80.6791V3.35645ZM168.9 11.7683V7.33447H164.01V3.35645H160.53C160.447 5.46977 159.825 6.67147 158.458 7.33447V20.0558C158.458 24.241 160.82 26.4787 165.585 26.4787C166.455 26.4787 167.367 26.3544 168.237 26.1472V21.6719C167.781 21.7548 167.325 21.7962 166.911 21.7548C164.922 21.7548 164.052 21.0089 164.052 18.8956V11.7683H168.9ZM150.667 12.5971H150.336V7.33447H145.198V26.1886H150.75V15.9949C150.75 13.1772 152.035 11.9755 154.935 11.9755C155.433 11.9755 155.971 12.0169 156.717 12.1412V7.29303C156.22 7.12728 155.681 7.04441 155.143 7.04441C152.864 7.04441 151.33 8.32897 150.667 12.5971ZM115.155 21.7133C112.545 21.7133 110.639 19.973 110.639 16.6165C110.639 13.633 112.379 11.7683 115.072 11.7683C117.393 11.7683 118.678 13.0529 119.092 15.1248H124.727C124.189 10.2765 120.708 7.04441 115.155 7.04441C109.064 7.04441 105.045 11.1882 105.045 16.8651C105.045 22.7493 108.898 26.5201 115.072 26.5201C120.708 26.5201 124.354 23.3709 124.852 18.3155H119.216C118.926 20.3459 117.517 21.7133 115.155 21.7133ZM95.1823 7.04441C90.3341 7.04441 87.4335 9.40635 86.8948 13.6744H92.2403C92.406 12.1827 93.3591 11.4368 95.058 11.4368C96.757 11.4368 97.5443 12.2241 97.5443 13.3429C97.5443 14.2546 96.9642 14.7518 95.431 15.0419L92.9033 15.4977C88.428 16.3264 86.7291 18.1497 86.7291 21.0918C86.7291 24.4482 89.091 26.5201 92.3646 26.5201C95.0166 26.5201 96.757 25.277 97.5443 22.1692H97.8758V26.1886H103.138V13.8816C103.097 9.61354 100.569 7.04441 95.1823 7.04441ZM94.5608 22.7079C93.069 22.7079 92.1988 21.9205 92.1988 20.7188C92.1988 19.7243 92.779 19.0613 94.2707 18.7298L95.3067 18.4812C96.2183 18.274 96.8813 17.984 97.5443 17.4453V19.4757C97.5443 21.7548 96.3426 22.7079 94.5608 22.7079ZM134.714 7.04441C129.866 7.04441 126.965 9.40635 126.426 13.6744H131.772C131.938 12.1827 132.891 11.4368 134.59 11.4368C136.289 11.4368 137.076 12.2241 137.076 13.3429C137.076 14.2546 136.496 14.7518 134.963 15.0419L132.435 15.4977C127.96 16.3264 126.261 18.1497 126.261 21.0918C126.261 24.4482 128.623 26.5201 131.896 26.5201C134.548 26.5201 136.289 25.277 137.076 22.1692H137.407V26.1886H142.67V13.8816C142.67 9.61354 140.101 7.04441 134.714 7.04441ZM134.092 22.7079C132.601 22.7079 131.73 21.9205 131.73 20.7188C131.73 19.7243 132.31 19.0613 133.802 18.7298L134.838 18.4812C135.75 18.274 136.413 17.984 137.076 17.4453V19.4757C137.076 21.7548 135.874 22.7079 134.092 22.7079Z" fill="white"/>
<path d="M17.8182 4.51668C16.6579 4.51668 15.8706 5.01393 15.1248 6.09131L12.97 9.19914V0.290039H7.74885V9.19914L5.59409 6.09131C4.84821 5.01393 4.01946 4.51668 2.90064 4.51668C1.16026 4.51668 0.0414377 5.80125 0 7.37588C0 8.70189 0.621565 9.61352 1.94757 10.4423L10.318 15.8292L18.6884 10.4423C20.0144 9.57208 20.6774 8.70189 20.636 7.37588C20.6774 5.80125 19.5586 4.51668 17.8182 4.51668Z" fill="#0AAD0A"/>
<path d="M10.3595 17.1138C15.332 17.1138 19.4344 20.8432 19.4344 26.1886H1.28467C1.28467 20.8432 5.387 17.1138 10.3595 17.1138Z" fill="#FF7009"/>
</g>
<defs>
<clipPath id="clip0_14_3078">
<rect width="168.9" height="26.5201" fill="white"/>
</clipPath>
</defs>
</svg>
