<svg width="136" height="46" viewBox="0 0 136 46" fill="none" xmlns="http://www.w3.org/2000/svg">
<g clip-path="url(#clip0_14_3006)">
<path d="M41.973 35.716V25.5681C41.973 24.3132 41.6175 23.3035 40.9066 22.5392C40.176 21.7667 39.1466 21.3486 38.0843 21.3927C37.0033 21.3461 35.9539 21.7632 35.2 22.5392C34.477 23.3035 34.1155 24.3132 34.1155 25.5681V35.716L27.0352 35.7728V7.07202H34.1155V17.0676C35.7526 15.594 37.826 14.8573 40.3359 14.8573C42.9542 14.8573 45.0613 15.6896 46.6571 17.3542C48.2528 19.0189 49.0507 21.0915 49.0507 23.5721V35.7264L41.973 35.716Z" fill="white"/>
<path d="M58.0545 12.2623C56.8951 13.4192 55.1536 13.7648 53.6403 13.1384C52.127 12.5119 51.1393 11.0365 51.1369 9.39863C51.1196 8.32089 51.5497 7.28418 52.3246 6.53501C53.0841 5.77451 54.1148 5.34717 55.1896 5.34717C56.2643 5.34717 57.295 5.77451 58.0545 6.53501C58.828 7.28497 59.2569 8.32139 59.2397 9.39863C59.2569 10.4759 58.828 11.5123 58.0545 12.2623ZM58.7078 35.7161H51.6275V15.4616H58.7078V35.7161Z" fill="white"/>
<path d="M13.1041 6.45738C15.137 6.42328 17.1599 6.74937 19.0792 7.42054C20.8247 8.06092 22.1752 8.81749 23.1306 9.69026C23.7529 10.2506 24.6799 11.1647 24.6799 11.1647L19.8203 16.1302C19.8203 16.1302 18.8468 15.4356 18.3846 15.0973C16.5013 13.7047 14.7274 13.0092 13.0627 13.0109C12.2141 12.9799 11.3718 13.1684 10.6174 13.5583C9.96156 13.925 9.63363 14.4225 9.63363 15.0508C9.63363 16.0321 10.3704 16.7009 11.844 17.0572L17.0729 18.2424C22.5298 19.4715 25.2583 22.3506 25.2583 26.8798C25.2583 29.3896 24.2255 31.5922 22.1597 33.4875C20.094 35.3828 17.1606 36.3296 13.3597 36.3279C10.7965 36.3279 8.54567 35.9595 6.60732 35.2228C4.66898 34.486 3.11107 33.5452 1.9336 32.4004L0.288757 30.753L5.88431 25.8469C5.88431 25.8469 6.95075 26.7558 7.37681 27.1948C8.99647 28.834 11.2102 29.7486 13.5146 29.7305C14.6577 29.7305 15.5511 29.5127 16.1949 29.0772C16.8387 28.6416 17.1589 28.1252 17.1555 27.5279C17.1792 26.8632 16.8426 26.2374 16.275 25.8908C15.6897 25.5172 14.7558 25.191 13.4733 24.9122L8.97259 23.9309C6.78807 23.4696 5.02101 22.5228 3.6714 21.0905C2.32179 19.6583 1.64698 17.8508 1.64698 15.668C1.64698 12.986 2.7246 10.7842 4.87985 9.0628C7.0351 7.34135 9.77651 6.47287 13.1041 6.45738Z" fill="white"/>
<path d="M100.397 32.8652L97.4948 28.2638C97.1144 28.5602 96.7179 28.8351 96.307 29.0875C95.8274 29.4295 95.2606 29.6282 94.6725 29.6608C93.6069 29.6608 93.0742 29.0333 93.0742 27.7784V27.3627H93.0922V21.3126H99.5477V15.4614H93.0922V9.52246H85.9965V29.5317C85.9965 31.7695 86.7057 33.4471 88.1242 34.5643C89.5426 35.6815 91.2753 36.241 93.3221 36.2429C94.5841 36.2506 95.8377 36.0358 97.0249 35.6075C98.086 35.2543 99.0372 34.6314 99.7852 33.8C100.042 33.5262 100.249 33.21 100.397 32.8652Z" fill="white"/>
<path d="M80.9276 17.7725C79.115 15.8747 76.5955 14.8151 73.9713 14.8469C71.6474 14.8469 69.8338 15.5432 68.5307 16.9358V15.4614H61.4865V44.8H68.5255V25.6093C68.5064 24.5075 68.934 23.4448 69.7107 22.6631C70.4728 21.8771 71.5209 21.4335 72.6157 21.4335C73.7104 21.4335 74.7585 21.8771 75.5206 22.6631C77.1045 24.308 77.1045 26.9107 75.5206 28.5556C74.7701 29.3579 73.7141 29.8038 72.6157 29.7821C72.1237 29.7843 71.632 29.7553 71.1438 29.6943V36.0258C72.0277 36.2406 72.9352 36.343 73.8448 36.3305C76.5148 36.3669 79.0773 35.2801 80.907 33.3352C82.8591 31.3435 83.8343 28.7381 83.8326 25.519C83.8304 22.2999 82.8626 19.7177 80.9276 17.7725Z" fill="white"/>
<path d="M121.026 37.3998C117.146 37.4042 113.301 36.6784 109.69 35.2592C107.837 34.5172 106.676 32.662 106.819 30.6707L107.834 14.1164L112.871 14.4237L111.875 30.6913C117.774 32.918 124.286 32.9061 130.177 30.6578C130.053 28.8322 129.402 19.242 129.005 13.6438C123.967 16.1847 119.709 16.3835 116.577 14.181C114.603 12.785 113.444 10.5065 113.478 8.08961C113.457 5.56154 114.664 3.18044 116.716 1.70389C118.522 0.389001 120.826 -0.0381455 122.983 0.54195C125.372 1.1849 127.463 3.02081 128.581 5.44804L123.995 7.55509C123.505 6.48865 122.614 5.66754 121.671 5.4119C120.961 5.21924 120.202 5.37441 119.624 5.8302C118.915 6.36063 118.504 7.1992 118.519 8.08445C118.493 8.8577 118.851 9.59371 119.474 10.052C121.393 11.4025 125.266 10.3748 129.834 7.30464C130.63 6.76952 131.66 6.73149 132.493 7.20645C133.666 7.87782 133.733 8.82808 133.823 10.145L135.233 30.6061C135.398 32.6183 134.222 34.5001 132.341 35.2333C128.74 36.6649 124.901 37.3998 121.026 37.3998Z" fill="white"/>
</g>
<defs>
<clipPath id="clip0_14_3006">
<rect width="135.536" height="45.0884" fill="white"/>
</clipPath>
</defs>
</svg>
