<svg width="145" height="29" viewBox="0 0 145 29" fill="none" xmlns="http://www.w3.org/2000/svg">
<g clip-path="url(#clip0_14_3055)">
<path d="M113.753 20.3738C112.219 20.2643 110.96 19.4975 111.343 17.4711C111.453 17.0329 111.672 16.54 111.946 16.2114C111.946 16.2114 109.81 16.4305 107.728 20.2643C106.14 23.167 106.414 26.2888 108.331 26.3436C109.864 26.3984 111.891 24.7553 113.096 22.0717C113.424 21.4692 113.643 20.9215 113.753 20.3738ZM80.5084 20.3191C78.5367 20.3738 77.7152 18.676 78.0438 17.3068C78.1533 16.8139 78.3724 16.2662 78.8653 15.8828C78.8105 15.8828 78.8105 15.8828 78.7558 15.8828C76.7293 16.1019 75.3053 18.1831 74.3743 20.1C72.8955 23.0575 73.1146 26.1245 74.9767 26.2341C76.5102 26.2888 78.4819 24.7006 79.7416 22.0717C79.9607 21.6335 80.3441 20.7572 80.5084 20.3191ZM65.2827 16.4305C64.2968 16.4853 60.6273 16.54 58.4914 16.5948C59.9701 17.1425 62.3799 18.7855 62.9824 22.2907C63.0919 22.0169 64.5159 18.2926 65.2827 16.4305ZM142.397 19.4428C142.616 19.9357 143.273 21.1406 143.602 22.0717C143.985 23.2218 143.931 23.9338 143.876 24.3172C143.547 26.8365 141.849 28.3153 138.947 28.3701C137.303 28.3701 135.989 27.9867 135.332 26.8365C135.003 26.2888 134.948 25.6316 135.441 24.9744C135.66 24.7006 135.989 24.4267 136.099 24.3172C136.318 24.1529 136.482 24.0981 136.591 24.0981C136.975 24.0981 137.084 24.3172 137.194 25.0839C137.358 26.015 137.906 26.5627 138.727 26.5627C139.001 26.5627 139.987 26.5079 140.261 25.5221C140.48 24.8101 140.261 23.9886 139.713 22.948C139.001 21.6335 138.618 20.5381 138.673 19.4428C138.015 20.2095 137.303 21.0858 136.646 21.9621C134.072 25.303 132.867 27.1104 130.896 27.8771C129.91 28.2605 128.869 28.3153 128.157 28.0962C126.405 27.6033 126.295 26.015 126.405 24.9744C126.569 23.7695 127.171 21.9621 128.267 19.6071C124.926 22.7289 121.749 26.7818 121.147 27.439C120.599 28.0962 119.942 27.8771 119.558 27.6033C119.12 27.3295 118.956 27.2199 118.518 26.8913C118.025 26.5627 117.915 26.3984 118.134 25.5221C118.627 23.5504 119.778 20.3738 120.873 18.0735C119.668 18.8951 118.573 19.388 117.258 19.6618C117.094 20.5929 116.765 21.524 116.163 22.5098C113.972 26.2888 110.083 28.6987 106.304 27.8771C104.442 27.4938 103.347 26.0698 103.183 24.2624C101.813 26.015 100.663 26.727 99.5679 27.2747C98.1986 27.9319 96.9937 27.7128 96.6651 27.6581C94.7482 27.2199 94.6387 25.6316 94.8578 24.3719C94.9125 24.0981 94.9673 23.7147 95.1316 23.2766C93.2147 25.5769 91.4073 26.8913 89.9286 27.4938C89.1618 27.8224 88.0664 28.0414 87.0258 27.8224C85.7114 27.5485 84.9446 26.5627 85.0542 24.8101C85.2185 22.7837 86.6425 20.2095 89.819 16.7591C89.3809 16.54 89.107 16.1566 88.9975 15.7733C88.0664 16.9234 85.9852 18.3474 84.0136 19.2237C83.8493 20.3738 83.4659 21.4692 82.8634 22.5646C80.7822 26.2888 76.6746 28.7534 72.8955 27.7676C69.6642 26.8913 68.8426 23.1123 71.0882 19.388C71.9097 18.0188 72.9503 16.8686 74.1552 15.9923C71.9097 16.1019 69.4999 16.1566 69.4999 16.1566C69.4999 16.1566 67.0353 21.743 64.735 27.4938C64.5707 27.9319 64.1325 28.4796 63.311 27.9319C62.9276 27.6581 62.6538 27.4938 62.1061 27.0556C61.6679 26.727 61.6132 26.5079 61.6132 26.015C61.6132 22.1264 60.0797 18.6212 56.7935 17.5806C55.5339 20.5929 54.1099 24.1529 52.7407 27.6581C52.4668 28.3701 51.8096 28.2605 51.1524 27.8224C50.7142 27.5485 50.4404 27.3295 50.057 27.0008C49.4545 26.5079 49.345 26.3436 49.6736 25.4126C50.0022 24.4815 51.4262 20.7024 52.905 16.7591C52.5216 16.7591 51.3714 16.8139 51.3714 16.8139C50.9881 16.8139 50.769 16.7591 50.6594 16.4305C50.4951 15.9923 50.3856 15.7733 50.2761 15.4447C50.1118 15.0613 50.1665 14.6779 50.8785 14.6231C51.1524 14.6231 52.4668 14.5684 53.7813 14.5136C56.1911 8.48903 59.3129 1.58818 59.8606 0.492802C60.244 -0.273959 60.8464 -0.219191 61.4489 0.109421C61.887 0.328496 62.4347 0.657108 63.1467 1.15003C63.8039 1.58818 64.0778 1.86202 63.5848 2.90262C63.4753 3.06693 60.6821 8.81764 58.1627 14.4588C59.5867 14.404 64.6802 14.2397 66.0494 14.2397C68.4593 8.37949 70.9786 2.84786 71.362 2.02633C71.5811 1.47864 71.8549 1.09526 72.7312 1.53341C73.7171 2.08109 73.9361 2.13586 74.5933 2.51924C75.1958 2.84786 75.4149 3.17647 75.0315 3.88846C74.8672 4.27184 72.6217 8.87241 70.3214 14.1302C71.5811 14.0754 76.4555 13.9659 77.8795 13.9659C78.3176 13.9659 80.1798 13.8564 81.0561 14.1302C82.4253 14.5136 83.2468 15.3899 83.7397 16.5948C83.8493 16.8139 83.9588 17.3068 84.0136 17.5806C86.3686 16.3757 88.6141 14.404 89.8738 12.2681C90.1477 11.8299 90.4215 11.7751 90.9144 11.9942C91.3526 12.1585 91.243 12.5419 91.1335 12.8158C90.9144 13.473 90.9144 14.1302 91.1883 14.5684C91.4621 15.0065 91.7359 15.3899 93.5433 15.609C93.9267 15.6637 94.1458 15.828 94.2005 16.1019C94.3101 16.3757 94.3101 16.5948 93.8719 17.0877C91.5716 19.6618 90.1477 21.3597 89.3261 23.3861C88.3403 25.8507 89.4357 25.7412 89.9833 25.6316C91.4073 25.303 94.6387 22.236 96.939 18.2926C97.7605 16.321 98.6916 14.185 99.5679 12.2133C98.3082 12.2681 97.5962 12.3228 97.4319 12.3228C96.8842 12.3776 96.7747 12.1038 96.7199 11.8847C96.6104 11.6656 96.5556 11.4465 96.4461 11.1179C96.3365 10.7893 96.3365 10.4607 96.9937 10.4059C97.2128 10.4059 98.582 10.2964 100.554 10.1321C101.54 7.99611 102.361 6.29828 102.635 5.69583C103.018 4.8743 103.511 4.70999 104.278 5.14814C104.99 5.53152 105.1 5.64106 105.702 6.02444C106.25 6.35305 106.523 6.62689 106.085 7.50319C105.702 8.32472 105.373 9.09148 104.99 9.80348C108.933 9.52963 113.424 9.25579 115.998 9.25579C116.765 9.25579 116.93 9.36533 117.094 9.69394C117.258 10.0773 117.368 10.2964 117.532 10.6798C117.696 11.1179 117.587 11.4465 117.094 11.4465C111.946 11.5561 107.4 11.7751 104.004 11.9395C102.087 15.9923 100.663 19.0594 99.0749 23.3861C98.1986 25.6864 99.5131 25.3578 99.6774 25.303C101.43 24.7553 103.183 21.7978 105.264 18.7308C107.674 15.2256 111.124 13.6373 114.136 14.404C115.232 14.6779 116.053 15.116 116.601 16.0471C116.765 16.2662 116.93 16.6496 117.039 16.9234C117.149 17.3068 117.258 17.7449 117.313 18.2379C119.066 17.7449 120.599 16.9234 122.297 15.2256C122.68 14.8422 123.064 14.6779 123.776 15.1708C124.214 15.4994 124.542 15.6637 124.926 15.9923C125.528 16.4305 125.802 16.6496 125.2 17.6902C124.871 18.2379 123.94 19.9905 122.571 23.4409C125.638 19.7166 129.417 16.1566 130.238 15.609C130.457 15.4447 130.841 15.2256 131.553 15.6637C131.991 15.9376 132.21 16.1019 132.703 16.4305C133.305 16.8686 133.47 17.1972 133.086 18.0188C132.703 18.8403 131.334 21.3597 130.567 23.7695C129.964 25.7412 130.676 25.8507 131.169 25.6864C131.881 25.4673 132.758 24.5363 134.784 21.9074C136.537 19.6618 138.125 17.7997 139.987 16.0471C140.48 15.5542 141.247 14.897 141.74 14.5136C142.123 14.2397 142.561 13.9659 142.89 13.9111C143.109 13.9111 143.273 13.9659 143.547 14.185C143.766 14.404 143.821 14.4588 143.985 14.5684C144.314 14.8422 144.423 15.0065 144.478 15.2256C144.533 15.609 144.314 15.7185 143.876 16.0471L143.657 16.2114C142.726 17.0329 141.74 18.0188 142.397 19.4428ZM20.9748 12.1585C22.2893 11.9395 23.2751 10.7345 23.1656 9.4201C23.056 8.21519 22.125 7.39366 20.9748 7.39366C20.8653 7.39366 20.701 7.39366 20.5914 7.44842C19.277 7.6675 18.2912 8.87241 18.4007 10.1869C18.5102 11.3918 19.3865 12.2133 20.5914 12.2133C20.701 12.1585 20.8653 12.1585 20.9748 12.1585ZM44.3063 18.4569C44.854 17.4163 44.6349 17.1425 43.9777 16.7043C43.43 16.3209 43.3204 16.2662 42.9371 15.9923C42.2251 15.4994 41.6774 15.7185 41.1297 16.2114C39.158 17.964 36.31 20.9215 34.1741 23.4409C35.4337 20.0452 36.1457 18.5665 36.5839 17.5259C36.9673 16.6496 36.8577 16.3757 36.3648 16.0471C36.0362 15.828 35.6528 15.5542 35.0504 15.1708C34.5027 14.8422 34.0645 14.9517 33.6812 15.2803C32.3667 16.4305 28.5329 20.2095 25.9588 23.1123C27.2184 20.1548 28.3686 17.6354 28.752 16.7591C29.1354 15.9923 29.1901 15.609 28.5329 15.116C28.04 14.7874 27.6018 14.5136 27.1637 14.2397C26.3421 13.7468 26.0135 14.0754 25.6849 14.5684C25.5754 14.7874 25.3563 15.0613 25.1372 15.4447C21.5225 21.524 18.565 24.8649 17.3601 25.2482C16.8672 25.4125 16.5933 25.303 16.4838 25.1935C16.0456 24.8101 16.429 23.6052 16.5933 23.167C17.1958 21.4692 18.4007 18.8403 19.6604 16.2662C20.1533 15.2803 19.989 15.0065 19.3318 14.5136C18.8936 14.2397 18.5102 13.9659 18.0173 13.6921C17.2505 13.2539 16.8124 13.473 16.3742 14.3493C15.3884 16.4305 12.8143 21.6883 12.3214 24.5363C11.9928 26.727 12.9238 27.6581 14.1835 27.9319C15.1146 28.151 16.2099 27.8771 16.8124 27.6033C18.1268 27.0008 19.989 25.4125 22.5083 21.9074C22.0154 23.167 21.5225 24.591 21.2487 25.4673C20.92 26.5079 21.1391 26.727 21.7416 27.1104C22.0154 27.2747 22.1797 27.3842 22.5631 27.6033C23.0013 27.8771 23.6037 28.0962 24.1514 27.439C24.8634 26.5627 28.8615 21.7978 31.9833 18.8403C31.2713 20.7024 30.176 23.5504 29.683 25.4126C29.464 26.2341 29.6283 26.5079 30.3403 26.9461L31.3809 27.6033C31.5999 27.7676 32.3119 28.0414 32.8596 27.3842C33.4073 26.727 36.7482 22.5646 39.4319 19.9357C38.446 22.236 37.8436 23.9886 37.6793 25.303C37.6245 25.7412 37.2959 28.0414 39.7605 28.4248C40.5272 28.5344 41.9512 28.4248 42.9371 27.439C43.2109 27.1651 43.3204 26.8913 43.2657 26.727C43.2109 26.5079 43.0466 26.4532 42.7728 26.4532C42.5537 26.4532 42.3346 26.3984 42.0608 26.2888C41.1845 25.8507 41.6226 24.7553 41.7869 24.0981C42.6084 21.6883 43.5943 19.7714 44.3063 18.4569ZM16.2647 5.0386C14.4573 9.03672 6.95404 26.2341 6.29681 27.8224C5.9682 28.4796 5.53005 28.8082 4.65375 28.3153C3.83222 27.8771 3.3393 27.6033 2.68208 27.1651C1.86055 26.6722 2.13439 26.015 2.35347 25.4673C4.70852 20.4834 6.18728 16.8686 7.44696 14.185C9.6377 9.52963 10.7331 7.33889 11.6641 5.36721C8.04941 5.75059 3.22977 6.18874 2.18916 6.35305C0.874714 6.51736 0.765177 6.07921 0.491334 5.31245C0.272259 4.70999 0.327028 4.98383 0.162722 4.60045C-0.0563532 3.88846 -0.330197 3.23124 0.984252 3.06693C3.88699 2.79309 17.5244 1.58818 28.04 1.3691C28.9163 1.3691 29.2449 1.3691 29.5735 1.97156C29.8473 2.57401 29.9021 2.51924 30.176 3.17647C30.4498 3.83369 30.0116 4.1623 29.3544 4.21707C24.8634 4.43615 20.5367 4.76476 16.2647 5.0386Z" fill="white"/>
</g>
<defs>
<clipPath id="clip0_14_3055">
<rect width="144.425" height="28.5345" fill="white"/>
</clipPath>
</defs>
</svg>
