<svg width="176" height="31" viewBox="0 0 176 31" fill="none" xmlns="http://www.w3.org/2000/svg">
<g clip-path="url(#clip0_14_3064)">
<path d="M41.6114 25.3607H44.9969C45.12 25.3607 45.2431 25.2376 45.2431 25.1145V17.2354H51.3371C51.4602 17.2354 51.5218 17.1738 51.5833 17.0507L52.6913 14.0961C52.7529 13.9729 52.6913 13.7883 52.5067 13.7883C52.4451 13.7883 52.4451 13.7883 52.4451 13.7883H45.2431V8.86385H54.4149C54.538 8.86385 54.5995 8.80229 54.6611 8.67918L55.7691 5.72452C55.8306 5.60141 55.7691 5.41675 55.5844 5.41675C55.5229 5.41675 55.5229 5.41675 55.5229 5.41675H41.6114C41.4882 5.41675 41.3651 5.53986 41.3651 5.66297V25.0529C41.3036 25.2376 41.4267 25.3607 41.6114 25.3607Z" fill="white"/>
<path d="M63.4019 5.60141L56.2615 24.9914C56.1999 25.1145 56.2615 25.2991 56.4462 25.2991C56.5077 25.2991 56.5077 25.2991 56.5077 25.2991H60.0779C60.201 25.2991 60.2626 25.2376 60.3241 25.1145L61.4937 21.7905H68.6957L69.8037 25.1145C69.8652 25.2376 69.9268 25.2991 70.0499 25.2991H73.5585C73.6817 25.2991 73.8048 25.176 73.8048 25.0529C73.8048 24.9914 73.8048 24.9914 73.8048 24.9914L66.6643 5.60141C66.6028 5.4783 66.5412 5.41675 66.4181 5.41675H63.7097C63.5866 5.41675 63.4635 5.4783 63.4019 5.60141ZM62.6017 18.528L65.187 11.2645L67.6492 18.528H62.6017Z" fill="white"/>
<path d="M89.994 17.6047L82.0534 5.53986C81.9918 5.4783 81.9303 5.41675 81.8071 5.41675H78.7294C78.6063 5.41675 78.4832 5.53986 78.4832 5.66297V25.0529C78.4832 25.176 78.6063 25.2991 78.7294 25.2991H82.1149C82.238 25.2991 82.3611 25.176 82.3611 25.0529V13.1112L90.3633 25.2376C90.4249 25.2991 90.4864 25.3607 90.6096 25.3607H93.6873C93.8104 25.3607 93.9336 25.2376 93.9336 25.1145V5.72452C93.9336 5.60141 93.8104 5.4783 93.6873 5.4783H90.3018C90.1787 5.4783 90.0556 5.60141 90.0556 5.72452V17.6047H89.994Z" fill="white"/>
<path d="M131.975 18.4049C131.975 20.6824 130.621 22.0982 128.466 22.0982C126.312 22.0982 124.958 20.744 124.958 18.4049V5.72449C124.958 5.60138 124.834 5.47827 124.711 5.47827H121.326C121.203 5.47827 121.08 5.60138 121.08 5.72449V18.528C121.08 22.7753 124.404 25.5453 128.528 25.5453C132.652 25.5453 135.976 22.7753 135.976 18.528V5.72449C135.976 5.60138 135.853 5.47827 135.73 5.47827H132.344C132.221 5.47827 132.098 5.60138 132.098 5.72449L131.975 18.4049Z" fill="white"/>
<path d="M155.673 8.74071L156.781 5.78605C156.843 5.66294 156.781 5.47827 156.597 5.47827C156.535 5.47827 156.535 5.47827 156.535 5.47827H142.624C142.501 5.47827 142.377 5.60138 142.377 5.72449V25.1144C142.377 25.2375 142.501 25.3607 142.624 25.3607H156.535C156.658 25.3607 156.781 25.2375 156.781 25.1144C156.781 25.0529 156.781 25.0529 156.781 25.0529L155.673 22.0982C155.612 21.9751 155.55 21.9136 155.427 21.9136H146.255V17.0507H153.642C153.765 17.0507 153.888 16.9276 153.888 16.8045V13.8498C153.888 13.7267 153.765 13.6036 153.642 13.6036H146.255V8.92537H155.427C155.55 8.92537 155.673 8.80226 155.673 8.74071Z" fill="white"/>
<path d="M173.771 21.852H165.399V5.72449C165.399 5.60138 165.276 5.47827 165.153 5.47827H161.768C161.645 5.47827 161.521 5.60138 161.521 5.72449V25.1144C161.521 25.2375 161.645 25.3607 161.768 25.3607H174.817C174.941 25.3607 175.064 25.2375 175.064 25.1144C175.064 25.0529 175.064 25.0529 175.064 25.0529L173.956 22.0982C174.017 21.9751 173.894 21.852 173.771 21.852Z" fill="white"/>
<path d="M113.262 7.32496C111.908 6.0323 110 5.41675 107.907 5.41675H99.9047C99.7816 5.41675 99.6584 5.53986 99.6584 5.66297V5.72452L100.274 8.67918C100.336 8.80229 100.397 8.86385 100.52 8.86385H107.599C108.953 8.86385 109.877 9.29474 110.554 10.095C111.292 10.9567 111.416 12.2494 111.416 15.2656C111.416 18.2818 111.292 19.6976 110.554 20.6209C109.877 21.4211 108.953 21.852 107.599 21.852H104.644V11.5107C104.644 11.3876 104.521 11.2645 104.398 11.2645H101.013C100.89 11.2645 100.766 11.3876 100.766 11.5107V25.0529C100.766 25.176 100.89 25.2991 101.013 25.2991H108.03C110.123 25.2991 112.031 24.6836 113.385 23.3909C115.663 21.1749 115.417 18.2203 115.417 15.2656C115.294 12.3109 115.54 9.54096 113.262 7.32496Z" fill="white"/>
<path d="M12.9266 5.1091C13.5422 3.81643 14.2193 2.64688 15.0195 1.47733C15.3273 1.04644 15.6966 0.615554 16.0044 0.184666C16.0659 0.123111 16.0044 0 15.8813 0C15.8197 0 15.6966 0 15.6351 0C12.0648 0 8.61775 0.615554 5.41687 1.66199C3.75488 2.21599 2.15444 2.8931 0.615554 3.75488C0.246221 4.0011 0 4.43199 0 4.92443C0.0615554 6.64798 0.246221 8.37153 0.553998 10.0335C0.861775 11.5724 1.29266 13.1113 1.78511 14.5886C2.40066 16.3737 3.20088 18.0357 4.18576 19.6362C5.90931 22.5908 8.12531 25.2377 10.7722 27.4537C11.2031 27.823 11.6955 28.1924 12.1264 28.5617C12.2495 28.6232 12.3726 28.5001 12.3111 28.4386C12.1264 27.9461 11.9417 27.4537 11.7571 26.9612C10.9569 24.6221 10.4644 22.0368 10.2797 19.4515C10.2797 19.3284 10.2182 19.2053 10.1566 19.1437C9.47952 18.2819 8.92553 17.3586 8.37153 16.3737C8.86397 16.1275 9.35641 15.8813 9.91041 15.6966C10.1566 15.6351 10.2797 15.3888 10.2797 15.1426C10.4029 13.4191 10.6491 11.634 11.08 10.0335C11.08 9.97197 11.0184 9.84886 10.9569 9.84886C9.35641 10.2182 7.75597 10.7722 6.3402 11.4493C5.90931 10.0951 5.60154 8.67931 5.47843 7.26353C7.63286 6.3402 9.97197 5.72465 12.3726 5.41687C12.6188 5.41687 12.8035 5.29376 12.9266 5.1091Z" fill="white"/>
<path d="M30.6543 3.75478C29.1154 2.95456 27.5765 2.27745 25.853 1.6619C23.637 0.923235 21.2979 0.430792 18.8972 0.18457C18.7126 0.18457 18.5279 0.246126 18.4048 0.369236C17.1121 1.6619 15.9426 3.26234 15.0192 5.109C14.9577 5.17055 15.0192 5.29367 15.1424 5.29367C15.327 5.29367 15.4501 5.29367 15.6348 5.29367C19.205 5.29367 22.6521 6.03233 25.7914 7.32499C25.6068 8.74077 25.299 10.1565 24.9297 11.5108C24.4372 13.2343 23.6986 14.8347 22.8983 16.3736C21.1132 19.5745 18.651 22.4061 15.6964 24.622C14.6499 23.8218 13.7266 23.0216 12.8033 22.0983C12.7417 22.0367 12.557 22.0983 12.6186 22.2214C12.8648 23.5756 13.1726 24.8683 13.5419 26.0994C14.0959 27.8229 14.773 29.3618 15.6348 30.8391C15.6964 30.9007 15.7579 30.9007 15.8195 30.9007C17.4815 29.9158 19.0819 28.8078 20.5592 27.5152C23.1446 25.2992 25.3605 22.6523 27.1457 19.6976C28.069 18.0972 28.8692 16.4352 29.5463 14.6501C30.1003 13.1728 30.5312 11.6339 30.7774 10.095C31.0852 8.43299 31.2699 6.70944 31.3314 4.98589C31.3314 4.43189 31.0852 3.93945 30.6543 3.75478Z" fill="white"/>
</g>
<defs>
<clipPath id="clip0_14_3064">
<rect width="175.125" height="30.7777" fill="white"/>
</clipPath>
</defs>
</svg>
