<svg width="124" height="50" viewBox="0 0 124 50" fill="none" xmlns="http://www.w3.org/2000/svg">
<g clip-path="url(#clip0_14_3086)">
<path fill-rule="evenodd" clip-rule="evenodd" d="M8.07413 44.9018C6.55125 44.9018 5.77545 44.1519 5.77545 42.9192C5.77545 40.6205 8.33848 39.8476 13.0134 39.3505C13.0134 42.4135 10.9417 44.9018 8.05976 44.9018H8.07413ZM10.0855 27.676C6.74377 27.676 2.9021 29.2478 0.816042 30.9114L2.72107 34.9341C4.39336 33.4026 7.09719 32.0924 9.53666 32.0924C11.8555 32.0924 13.137 32.8682 13.137 34.4313C13.137 35.4801 12.2893 36.0116 10.686 36.2214C4.69219 36.9972 -0.0057373 38.6523 -0.0057373 43.2697C-0.0057373 46.9304 2.60039 49.1457 6.67193 49.1457C9.57976 49.1457 12.1658 47.5309 13.3956 45.4104V48.5711H18.8147V35.3278C18.8147 29.8684 15.0248 27.6646 10.0883 27.6646L10.0855 27.676Z" fill="white"/>
<path fill-rule="evenodd" clip-rule="evenodd" d="M64.4751 28.2709V48.5452H70.2735V38.7758C70.2735 34.1354 73.0837 32.7705 75.0404 32.7705C75.9213 32.7637 76.7844 33.0187 77.5201 33.5032L78.5804 28.1444C77.7588 27.8156 76.8791 27.6562 75.9944 27.6761C73.0147 27.6761 71.1413 28.995 69.9057 31.6787V28.2709H64.4751Z" fill="white"/>
<path fill-rule="evenodd" clip-rule="evenodd" d="M105.452 27.676C102.386 27.676 100.093 29.4862 98.9008 31.2332C97.7946 28.9777 95.4528 27.676 92.6369 27.676C89.5739 27.676 87.4505 29.377 86.4707 31.3367V28.2708H80.8792V48.5452H86.6833V38.1063C86.6833 34.3709 88.6458 32.5636 90.4761 32.5636C92.1341 32.5636 93.6569 33.6354 93.6569 36.4024V48.5452H99.4496V38.1063C99.4496 34.3163 101.363 32.5636 103.28 32.5636C104.814 32.5636 106.44 33.6785 106.44 36.3622V48.5452H112.233V34.529C112.233 29.9747 109.167 27.676 105.464 27.676" fill="white"/>
<path fill-rule="evenodd" clip-rule="evenodd" d="M50.3641 28.2709H45.1116V26.2107C45.1116 23.527 46.6431 22.7627 47.9619 22.7627C48.8625 22.7744 49.7479 22.9958 50.548 23.4092L52.3352 19.3204C52.3352 19.3204 50.5221 18.1366 47.2264 18.1366C43.5226 18.1366 39.3074 20.2255 39.3074 26.7796V28.2709H30.5293V26.2107C30.5293 23.527 32.0579 22.7627 33.3797 22.7627C34.2817 22.7626 35.1698 22.9847 35.9657 23.4092L37.7529 19.3204C36.6869 18.6969 34.9715 18.1366 32.647 18.1366C28.9432 18.1366 24.728 20.2255 24.728 26.7796V28.2709H21.3719V32.7418H24.7366V48.5453H30.5293V32.7418H39.3189V48.5453H45.1116V32.7418H50.3641V28.2709Z" fill="white"/>
<path d="M59.6105 28.2709H53.8236V48.5366H59.6105V28.2709Z" fill="white"/>
<path fill-rule="evenodd" clip-rule="evenodd" d="M54.0363 24.8258H59.7054C63.0126 14.4271 74.2331 5.28696 87.5769 5.28696C103.806 5.28696 117.83 17.6424 117.83 36.8766C117.88 40.8247 117.337 44.7579 116.221 48.5453H121.724L121.778 48.3556C122.706 44.6062 123.163 40.7561 123.14 36.8938C123.14 15.4443 107.509 0.0057373 87.5884 0.0057373C71.9401 0.0057373 57.9929 10.867 54.0391 24.8315L54.0363 24.8258Z" fill="white"/>
</g>
<defs>
<clipPath id="clip0_14_3086">
<rect width="123.137" height="49.1343" fill="white"/>
</clipPath>
</defs>
</svg>
