<svg width="102" height="73" viewBox="0 0 102 73" fill="none" xmlns="http://www.w3.org/2000/svg">
<g clip-path="url(#clip0_14_2987)">
<path d="M54.6287 33.1873L56.5117 27.6832C59.7389 27.671 62.962 27.6466 66.1851 27.6141L68.0842 33.1548C70.8905 33.1426 73.7292 33.1955 76.5313 33.1792L65.3551 2.43093C64.027 2.48378 58.6294 2.62605 57.3579 2.65857L48.9193 26.5571C45.4612 26.5531 42.2258 26.5328 38.6989 26.5002V20.3173L44.9996 20.3904V14.8172L38.6989 14.7237V8.78873C45.5503 8.94722 48.7128 8.91475 48.7087 8.91475L47.421 2.29271C47.421 2.29271 39.2253 2.15857 30.2765 1.78052V33.1467C32.05 33.1548 40.9098 33.1832 46.5748 33.1955V33.1995C47.6073 33.1995 48.5873 33.1995 49.555 33.2036C49.8303 33.2036 50.0854 33.2036 50.3082 33.2036C51.7213 33.1873 53.1224 33.1873 54.6287 33.1873ZM64.2739 22.0246C62.3266 22.0531 60.3744 22.0774 58.4229 22.0937L61.3586 13.5164L64.2739 22.0246Z" fill="white"/>
<path d="M79.9653 33.1709C82.7674 33.1506 85.5652 33.1791 88.3636 33.1547L88.404 7.81701C91.4608 7.57314 94.514 7.30484 97.563 6.99996L96.2637 -0.00012207C88.2335 0.963303 80.196 1.66656 72.1261 2.11373L70.822 8.89836C73.871 8.76823 76.92 8.60974 79.9653 8.42272V33.1709Z" fill="white"/>
<path d="M13.9709 9.21534C13.9709 5.39825 22.0977 6.42673 25.8473 8.64222L26.1956 1.10147C25.3088 0.825048 21.7211 0.00390625 17.4411 0.00390625C11.3874 0.00390625 6.10315 3.59743 6.10315 9.30888C6.10315 19.4919 19.9476 20.1951 19.9476 24.2805C19.9476 29.6546 10.7679 26.6668 6.10315 22.2318V30.8213C6.10315 30.8213 9.5369 34.0245 16.3599 34.0245C23.8794 34.0245 27.6979 29.1058 27.6979 23.8049C27.7019 13.4797 13.9709 13.4349 13.9709 9.21534Z" fill="white"/>
<path d="M101.75 72.5615L90.6592 53.5979L100.47 38.4067H91.0037L82.4067 51.9434C82.4392 47.4393 82.3748 42.9311 82.4067 38.4229C79.5727 38.4148 76.8394 38.4108 74.0006 38.4067C74.0006 46.6751 74.0006 61.7522 74.0006 70.0206C74.0006 70.0206 79.5523 70.3623 82.4067 70.586C82.4067 65.7081 82.4067 60.8501 82.4067 55.976L90.7038 71.2808C94.8466 71.7077 98.6081 72.1467 101.75 72.5615Z" fill="white"/>
<path d="M38.715 56.5655C40.8085 56.533 44.9954 56.4883 44.9954 56.4883V50.8582C44.9954 50.8582 40.8085 50.8906 38.715 50.911C38.715 48.9272 38.715 46.9394 38.715 44.9556C44.5864 44.9597 48.7126 44.9922 48.7126 44.9922L47.4128 38.4556H30.2925V69.8381C34.2365 69.5817 45.0844 69.3338 48.7693 69.3217C49.2026 67.1062 49.6358 64.887 50.0691 62.6751C46.2831 62.6751 42.497 62.7198 38.715 62.8015C38.715 60.7038 38.715 58.6631 38.715 56.5655Z" fill="white"/>
<path d="M60.5979 56.5005C62.5459 56.5289 64.4974 56.5615 66.4453 56.6062C66.4453 54.7322 66.4453 52.8581 66.4453 50.9842C64.4974 50.9517 62.5495 50.9313 60.5979 50.911C60.5979 48.9191 60.5979 46.9923 60.5979 45.0004L70.6484 45.0654L69.3528 38.4637C69.3528 38.4637 57.9012 38.4556 52.1755 38.4556V69.326C58.0064 69.3296 64.3637 69.517 70.6159 69.8381L71.9723 63.1431C68.6764 63.0252 63.5987 62.8583 60.6022 62.793C60.5979 60.6917 60.5979 58.594 60.5979 56.5005Z" fill="white"/>
<path d="M14.0388 57.289L19.149 57.037L19.1531 63.5735C11.4756 64.2725 8.31718 61.7159 8.31718 54.0898C8.31718 47.0125 14.0226 45.2483 19.2786 45.2483C23.9109 45.2483 26.3688 45.7645 26.3688 45.7645L24.9799 38.4311C23.757 38.3701 21.5907 38.301 17.9139 38.301C9.4186 38.301 0 42.3824 0 55.2971C0 66.167 7.40206 71.6956 16.7923 70.8097C23.4048 70.1875 26.3769 70.0533 26.3769 70.0533V51.1345L15.3345 51.3824L14.0388 57.289Z" fill="white"/>
<path fill-rule="evenodd" clip-rule="evenodd" d="M39.5849 33.0971L30.3198 33.0377V17.4637V1.88965L33.9453 2.00575C35.9393 2.0696 39.7649 2.17622 42.4465 2.24266C46.6821 2.3476 47.3333 2.40099 47.4066 2.64933C47.4835 2.91004 48.5815 8.58138 48.5815 8.71787C48.5815 8.75016 46.3237 8.77659 43.5642 8.77659H38.5468L38.5959 11.7872L38.645 14.7977L41.8229 14.8468L45.0008 14.8959V17.5878V20.2797H41.7781H38.5555V23.4277V26.5758L43.7915 26.5281L49.0275 26.4805L53.2111 14.618C55.512 8.0936 57.4057 2.74647 57.4192 2.73548C57.4326 2.72451 59.2162 2.66728 61.3826 2.60834L65.3214 2.5012L70.77 17.5464C73.7667 25.8212 76.2527 32.6926 76.2945 32.8162C76.3538 32.9917 75.4686 33.0409 72.2555 33.0409H68.1406L67.1999 30.341C66.6825 28.856 66.2093 27.6106 66.1483 27.5734C66.0874 27.5361 63.8707 27.5574 61.2224 27.6223L56.4073 27.7388L55.5128 30.3899L54.6184 33.041H53.0593C52.2017 33.041 50.9039 33.0671 50.1751 33.0986C49.4463 33.1304 44.6808 33.13 39.5849 33.0971ZM64.2929 21.8525C64.2477 21.7289 63.5812 19.7813 62.8118 17.5244C61.9725 15.0626 61.3598 13.5167 61.2801 13.6601C61.1238 13.9417 58.4285 21.7854 58.4285 21.9588C58.4285 22.0239 59.7664 22.0772 61.4017 22.0772C63.7048 22.0772 64.3565 22.0265 64.2929 21.8525Z" stroke="#006BB6" stroke-width="0.00406794"/>
<path fill-rule="evenodd" clip-rule="evenodd" d="M13.8483 33.8245C11.6088 33.5399 8.76578 32.5316 7.00547 31.3976L6.14978 30.8464V26.6486V22.4507L7.30848 23.3312C9.86133 25.2709 12.4201 26.4883 15.0752 27.0262C18.1662 27.6524 19.9356 26.6973 19.9356 24.4023C19.9356 23.4816 19.8996 23.4106 18.9903 22.5363C18.3396 21.9106 17.2449 21.2104 15.4764 20.2886C9.14628 16.9891 6.86022 14.5878 6.29344 10.6428C5.63172 6.03696 8.26934 2.32586 13.4007 0.642893C15.5971 -0.0774395 21.4762 0.0559554 25.1605 0.909715L26.0228 1.10953L26.0222 2.29187C26.0218 2.94216 25.9698 4.60932 25.9066 5.99668L25.7916 8.51914L24.9552 8.11729C24.4953 7.89627 23.3992 7.4972 22.5196 7.23044C21.1443 6.81334 20.5819 6.74291 18.5034 6.72744C16.324 6.71121 16.0128 6.74893 15.3373 7.11146C14.475 7.57422 14.0736 8.07701 13.923 8.88319C13.6714 10.2296 14.8217 11.2868 18.5705 13.1545C20.0745 13.9038 21.9033 14.911 22.6345 15.3927C25.2731 17.1311 26.8561 19.2286 27.3712 21.6689C28.5016 27.0241 25.378 32.0561 20.0252 33.503C18.9673 33.789 15.1376 33.9883 13.8483 33.8245Z" stroke="#006BB6" stroke-width="0.00406794"/>
<path fill-rule="evenodd" clip-rule="evenodd" d="M13.8483 33.8245C11.6088 33.5399 8.76578 32.5316 7.00547 31.3976L6.14978 30.8464V26.6486V22.4507L7.30848 23.3312C9.86133 25.2709 12.4201 26.4883 15.0752 27.0262C18.1662 27.6524 19.9356 26.6973 19.9356 24.4023C19.9356 23.4816 19.8996 23.4106 18.9903 22.5363C18.3396 21.9106 17.2449 21.2104 15.4764 20.2886C9.14628 16.9891 6.86022 14.5878 6.29344 10.6428C5.63172 6.03696 8.26934 2.32586 13.4007 0.642893C15.5971 -0.0774395 21.4762 0.0559554 25.1605 0.909715L26.0228 1.10953L26.0222 2.29187C26.0218 2.94216 25.9698 4.60932 25.9066 5.99668L25.7916 8.51914L24.9552 8.11729C24.4953 7.89627 23.3992 7.4972 22.5196 7.23044C21.1443 6.81334 20.5819 6.74291 18.5034 6.72744C16.324 6.71121 16.0128 6.74893 15.3373 7.11146C14.475 7.57422 14.0736 8.07701 13.923 8.88319C13.6714 10.2296 14.8217 11.2868 18.5705 13.1545C20.0745 13.9038 21.9033 14.911 22.6345 15.3927C25.2731 17.1311 26.8561 19.2286 27.3712 21.6689C28.5016 27.0241 25.378 32.0561 20.0252 33.503C18.9673 33.789 15.1376 33.9883 13.8483 33.8245Z" stroke="#006BB6" stroke-width="0.00406794"/>
<path fill-rule="evenodd" clip-rule="evenodd" d="M13.8483 33.8245C11.6088 33.5399 8.76578 32.5316 7.00547 31.3976L6.14978 30.8464V26.6486V22.4507L7.30848 23.3312C9.86133 25.2709 12.4201 26.4883 15.0752 27.0262C18.1662 27.6524 19.9356 26.6973 19.9356 24.4023C19.9356 23.4816 19.8996 23.4106 18.9903 22.5363C18.3396 21.9106 17.2449 21.2104 15.4764 20.2886C9.14628 16.9891 6.86022 14.5878 6.29344 10.6428C5.63172 6.03696 8.26934 2.32586 13.4007 0.642893C15.5971 -0.0774395 21.4762 0.0559554 25.1605 0.909715L26.0228 1.10953L26.0222 2.29187C26.0218 2.94216 25.9698 4.60932 25.9066 5.99668L25.7916 8.51914L24.9552 8.11729C24.4953 7.89627 23.3992 7.4972 22.5196 7.23044C21.1443 6.81334 20.5819 6.74291 18.5034 6.72744C16.324 6.71121 16.0128 6.74893 15.3373 7.11146C14.475 7.57422 14.0736 8.07701 13.923 8.88319C13.6714 10.2296 14.8217 11.2868 18.5705 13.1545C20.0745 13.9038 21.9033 14.911 22.6345 15.3927C25.2731 17.1311 26.8561 19.2286 27.3712 21.6689C28.5016 27.0241 25.378 32.0561 20.0252 33.503C18.9673 33.789 15.1376 33.9883 13.8483 33.8245Z" stroke="#006BB6" stroke-width="0.00406794"/>
</g>
<defs>
<clipPath id="clip0_14_2987">
<rect width="101.75" height="72.5617" fill="white"/>
</clipPath>
</defs>
</svg>
