<svg width="176" height="34" viewBox="0 0 176 34" fill="none" xmlns="http://www.w3.org/2000/svg">
<g clip-path="url(#clip0_14_2956)">
<path d="M12.3098 0.712158H5.22234C2.20423 0.712158 0 2.91639 0 5.93449V28.0107C0 31.0288 2.20423 33.2331 5.22234 33.2331H12.3098C22.4154 33.1992 29.5028 26.5186 29.5028 16.9557C29.5028 7.39268 22.4154 0.712158 12.3098 0.712158ZM12.6489 24.5857H9.0204V9.32562H12.6489C17.2608 9.32562 20.4824 12.4455 20.4824 16.9557C20.4824 21.4659 17.2608 24.5857 12.6489 24.5857Z" fill="white"/>
<path d="M59.8873 4.61193C59.8873 1.93294 57.9882 0 55.3771 0C52.7659 0 50.8669 1.96685 50.8669 4.61193V19.7703C50.8669 22.6866 48.6626 24.9926 45.848 24.9926C43.0333 24.9926 40.8291 22.6866 40.8291 19.7703V4.61193C40.8291 1.93294 38.9301 0 36.3189 0C33.7077 0 31.8087 1.93294 31.8087 4.61193V20.1772C31.8087 28.282 37.5736 33.9113 45.848 33.9113C54.1223 33.9113 59.8873 28.2481 59.8873 20.1772V4.61193Z" fill="white"/>
<path d="M119.605 25.5013L111.941 16.82L119.096 8.44391C120.148 7.2231 120.69 6.0023 120.69 4.88322C120.69 2.17032 118.588 0 115.943 0C114.586 0 113.331 0.746048 112.077 2.27206L104.006 13.0898V4.61193C104.006 1.86512 102.175 0 99.4955 0C96.7826 0 94.9854 1.86512 94.9854 4.61193V29.2993C94.9854 32.0462 96.8166 33.9113 99.4955 33.9113C102.208 33.9113 104.006 32.0462 104.006 29.2993V20.7537L112.687 31.7749C113.942 33.3009 115.027 33.9113 116.383 33.9113C119.062 33.9113 120.995 31.8766 120.995 29.028C120.995 27.7733 120.487 26.4847 119.605 25.5013Z" fill="white"/>
<path d="M132.322 4.61193C132.322 1.86512 130.49 0 127.811 0C125.099 0 123.301 1.86512 123.301 4.61193V29.2993C123.301 32.0462 125.132 33.9113 127.811 33.9113C130.524 33.9113 132.322 32.0462 132.322 29.2993V4.61193Z" fill="white"/>
<path d="M175.016 4.8831C175.321 2.37367 173.456 0.813751 171.557 0.576372C169.963 0.372904 168.776 0.881574 167.962 2.00065C167.352 2.84843 166.979 4.10315 166.742 6.10391C166.504 8.1725 166.538 9.56286 166.809 10.4785C167.216 11.6993 168.166 12.4453 169.454 12.6149C171.896 12.8862 173.083 10.9193 174.473 6.91778C174.745 6.07 174.982 5.29004 175.016 4.8831Z" fill="#C63663"/>
<path d="M72.1632 16.6843V29.2993C72.1632 32.0462 70.332 33.9113 67.653 33.9113C64.9401 33.9113 63.1428 32.0462 63.1428 29.2993V4.61193C63.1428 1.86512 64.974 0 67.653 0C68.9417 0 70.1285 0.474758 70.8407 1.18689C71.5189 1.89903 82.8792 17.2269 82.8792 17.2269V4.61193C82.8792 1.86512 84.7104 0 87.3894 0C90.1023 0 91.8996 1.86512 91.8996 4.61193V29.2993C91.8996 32.0462 90.0684 33.9113 87.3894 33.9113C86.1008 33.9113 84.9139 33.4365 84.2017 32.7244C83.4557 32.0122 72.1632 16.6843 72.1632 16.6843Z" fill="white"/>
<path d="M144.496 16.6843V29.2993C144.496 32.0462 142.665 33.9113 139.986 33.9113C137.273 33.9113 135.476 32.0462 135.476 29.2993V4.61193C135.476 1.86512 137.307 0 139.986 0C141.274 0 142.461 0.474758 143.173 1.18689C143.852 1.89903 155.212 17.2269 155.212 17.2269V4.61193C155.212 1.86512 157.009 0 159.722 0C162.435 0 164.232 1.86512 164.232 4.61193V29.2993C164.232 32.0462 162.401 33.9113 159.722 33.9113C158.433 33.9113 157.247 33.4365 156.534 32.7244C155.822 32.0122 144.496 16.6843 144.496 16.6843Z" fill="white"/>
<path d="M169.014 30.5541H168.268C168.132 30.5541 168.03 30.6558 168.03 30.7915V32.5888C168.03 32.7244 168.132 32.8261 168.268 32.8261C168.403 32.8261 168.505 32.7244 168.505 32.5888V32.0123H168.81L169.353 32.7583C169.387 32.8261 169.489 32.86 169.556 32.86C169.692 32.86 169.794 32.7583 169.794 32.6227C169.794 32.5548 169.76 32.5209 169.692 32.4192L169.353 31.9444L169.455 31.8766C169.624 31.741 169.726 31.5375 169.726 31.3001C169.726 30.8593 169.421 30.5541 169.014 30.5541ZM168.81 31.6732H168.471V30.8932H168.81C169.048 30.8932 169.217 31.0627 169.217 31.2662C169.217 31.4697 169.082 31.6732 168.81 31.6732Z" fill="white"/>
<path d="M168.81 29.4689C167.555 29.4689 166.538 30.4523 166.538 31.6731C166.538 32.8939 167.555 33.8773 168.81 33.8773C170.065 33.8773 171.082 32.8939 171.082 31.6731C171.116 30.4862 170.099 29.4689 168.81 29.4689ZM168.81 33.5043C167.793 33.5043 166.979 32.6904 166.979 31.6731C166.979 30.6558 167.793 29.8419 168.81 29.8419C169.827 29.8419 170.641 30.6558 170.641 31.6731C170.641 32.6904 169.827 33.5043 168.81 33.5043Z" fill="white"/>
</g>
<defs>
<clipPath id="clip0_14_2956">
<rect width="175.05" height="33.9113" fill="white"/>
</clipPath>
</defs>
</svg>
