<svg width="150" height="29" viewBox="0 0 150 29" fill="none" xmlns="http://www.w3.org/2000/svg">
<path d="M24.458 0.581177C25.4626 2.24012 25.9155 3.94884 25.9155 6.10731C25.9155 12.9917 20.0375 21.935 15.2668 28.2149H4.37016L0 2.08849L9.54118 1.18282L11.8517 19.7734C14.0107 16.2569 16.6748 10.7309 16.6748 6.96321C16.6748 4.90094 16.3215 3.49626 15.7692 2.33967L24.458 0.581177Z" fill="white"/>
<path d="M36.8241 12.0877C38.5799 12.0877 43.0001 11.2846 43.0001 8.77285C43.0001 7.56676 42.1471 6.96513 41.1419 6.96513C39.3833 6.96513 37.0755 9.07355 36.8241 12.0877ZM36.6229 17.0622C36.6229 20.1292 38.3286 21.3325 40.5899 21.3325C43.0524 21.3325 45.4101 20.7308 48.4746 19.1737L47.3204 27.0102C45.1612 28.0649 41.7962 28.7687 38.5301 28.7687C30.245 28.7687 27.2798 23.7452 27.2798 17.465C27.2798 9.32529 32.1031 0.682373 42.0472 0.682373C47.5221 0.682373 50.5835 3.74909 50.5835 8.01932C50.584 14.9035 41.7467 17.0124 36.6229 17.0622Z" fill="white"/>
<path d="M78.1186 6.61261C78.1186 7.61729 77.9665 9.07456 77.8144 10.0269L74.9518 28.1153H65.6612L68.2728 11.534C68.3223 11.0843 68.4745 10.1789 68.4745 9.67651C68.4745 8.47035 67.7208 8.16944 66.8147 8.16944C65.6112 8.16944 64.4048 8.72152 63.6014 9.12464L60.6392 28.1155H51.2964L55.5647 1.03412H63.6509L63.7532 3.19569C65.661 1.9398 68.173 0.581543 71.7369 0.581543C76.4592 0.581027 78.1186 2.99351 78.1186 6.61261Z" fill="white"/>
<path d="M105.7 3.64698C108.361 1.73969 110.874 0.682373 114.338 0.682373C119.108 0.682373 120.768 3.09485 120.768 6.71396C120.768 7.7187 120.615 9.17597 120.464 10.1283L117.604 28.2166H108.311L110.973 11.2849C111.022 10.8323 111.125 10.2802 111.125 9.93C111.125 8.57197 110.371 8.27078 109.465 8.27078C108.311 8.27078 107.158 8.77314 106.301 9.22598L103.339 28.2169H94.049L96.71 11.2851C96.7588 10.8326 96.8593 10.2805 96.8593 9.93029C96.8593 8.57225 96.1045 8.27106 95.202 8.27106C93.9959 8.27106 92.792 8.82315 91.9885 9.22626L89.024 28.2172H79.6842L83.9523 1.13573H91.9397L92.1908 3.39657C94.049 2.04167 96.5586 0.683404 99.9235 0.683404C102.837 0.682372 104.744 1.93851 105.7 3.64698Z" fill="white"/>
<path d="M139.255 11.5351C139.255 9.32426 138.702 7.81698 137.046 7.81698C133.38 7.81698 132.626 14.2977 132.626 17.6131C132.626 20.1282 133.33 21.6848 134.986 21.6848C138.451 21.6848 139.255 14.8501 139.255 11.5351ZM123.185 17.2129C123.185 8.67258 127.704 0.681396 138.101 0.681396C145.936 0.681396 148.8 5.30494 148.8 11.6867C148.8 20.1279 144.329 28.8696 133.681 28.8696C125.796 28.8696 123.185 23.6939 123.185 17.2129Z" fill="white"/>
</svg>
