<svg width="82" height="48" viewBox="0 0 82 48" fill="none" xmlns="http://www.w3.org/2000/svg">
<g filter="url(#filter0_d_14_1623)">
<path d="M61.6039 20.7768C59.9966 18.4236 58.3839 14.5499 57.0696 12.0631C57.3166 11.6232 57.5198 11.1898 57.7668 10.7499C58.2894 10.358 58.8558 9.95943 59.6392 10.1099C59.8208 10.1273 60.0198 9.96309 60.1882 9.89298C60.1924 9.62386 60.2098 9.44226 60.1703 9.17974C60.4568 9.00234 60.6929 8.78779 60.8919 8.62357C61.3361 8.60142 61.5069 8.84417 61.728 9.12408C62.4813 10.2635 63.2784 11.3963 64.0755 12.5292C64.1894 12.691 64.3098 12.8966 64.4171 13.0147C64.6928 13.0626 64.7036 12.8373 64.8151 12.6862C66.6967 9.13634 67.1832 8.57718 69.6623 5.42948C70.1148 4.86911 70.4865 4.36567 70.8953 3.81188C71.162 3.50323 71.4353 3.23832 71.7218 3.06093C71.9604 3.15924 71.8926 3.30368 71.862 3.39778C71.7769 3.72382 71.6414 4.01271 71.5431 4.25124C71.9153 4.64264 72.1731 3.97737 72.4512 4.3382C73.2471 3.68135 73.8549 2.96335 74.7144 2.43116C75.2221 2.53368 75.8346 2.44141 76.2464 3.09534C76.1876 3.59639 76.1792 4.13462 76.1402 4.76694C76.5406 4.75138 76.8444 4.39238 77.1795 4.83412C77.1926 4.92163 77.1687 5.05948 77.1447 5.19733C76.9109 5.72475 76.6705 6.20842 76.4871 6.77301C76.1071 7.81467 75.3878 8.6837 74.8567 9.61387C74.6403 9.95969 74.4239 10.3055 74.2447 10.601C74.1332 10.752 74.0721 10.9402 73.954 11.0475C73.191 11.9231 74.3636 10.1293 73.8391 11.1032C72.4185 13.5545 71.0483 16.043 69.6342 18.538C69.5665 18.6825 69.455 18.8335 69.431 18.9713C71.0144 21.4624 72.5912 23.9096 74.1614 26.3131C74.4526 26.7615 74.7877 27.2032 75.1161 27.6012C75.7358 28.4475 75.7358 28.4475 76.5892 28.7664C76.5653 28.9043 76.4975 29.0487 76.4801 29.2303C76.2242 29.3136 75.9749 29.4407 75.7255 29.5677C75.4696 29.651 75.2574 29.7277 74.9577 29.8176C75.3431 30.2965 75.7285 30.7754 76.1138 31.2543C76.0964 31.4359 76.0856 31.6613 76.112 31.8363C76.1887 32.0485 76.3463 32.2037 76.4668 32.4093C76.2918 32.4357 76.1671 32.4992 76.1167 32.462C75.7643 32.2019 75.4119 31.9418 75.0967 31.6313C74.6742 31.2027 74.2954 30.7676 73.9538 30.2821C73.2268 29.3177 72.3884 28.5043 71.3311 27.7239C71.4078 27.936 71.4276 28.0673 71.4845 28.1482C72.8048 29.7839 74.1251 31.4197 75.4388 33.0116C75.9183 33.5211 76.4349 33.9802 77.0085 34.5203C76.8466 34.6342 76.7723 34.7348 76.6542 34.8421C75.9518 34.6347 75.398 34.2259 74.9251 33.7602C73.6773 32.6058 72.4296 31.4513 71.2189 30.2466C69.5792 28.5695 67.9766 26.842 66.3806 25.1583C66.3302 25.1212 66.2361 25.0906 66.0983 25.0666C65.2153 26.6315 64.4397 28.3145 63.664 29.9974C62.8818 31.6366 62.1936 33.3064 61.5492 34.9696C60.8677 36.6831 60.2364 38.4338 59.6358 40.0904C59.1941 40.4254 58.8045 40.2156 58.3909 40.1437C58.2681 39.6252 58.3269 39.1242 58.3419 38.6297C57.8318 38.2143 57.1342 38.6326 56.705 38.1603C56.4929 38.237 56.2303 38.2765 56.0182 38.3533C55.8737 38.2855 55.7796 38.2549 55.7293 38.2178C55.414 37.9073 55.3176 37.5639 55.3458 37.1569C55.4237 35.8923 55.784 34.7193 56.2318 33.5332C56.3235 33.2509 56.4656 33.0058 56.5573 32.7235C57.719 29.1478 59.2134 25.701 60.8457 22.2781C61.0794 21.7507 61.357 21.2167 61.6039 20.7768C61.5955 21.315 61.6058 20.1948 61.6039 20.7768Z" fill="#EB2DFF"/>
</g>
<g filter="url(#filter1_d_14_1623)">
<path d="M46.5011 16.0292C46.7666 16.2062 46.8551 16.2947 46.9436 16.4275C47.1206 16.3832 47.2533 16.3832 47.4303 16.339C47.4303 16.4275 47.4746 16.5159 47.5188 16.6044C47.7401 16.9584 47.7401 17.4451 47.7401 17.9761C47.6958 19.392 47.7401 20.7194 47.917 22.0911C48.1825 24.5689 48.7135 27.0025 49.3772 29.3918C49.4214 29.4803 49.5099 29.5688 49.5984 29.7901C49.8197 28.9051 49.9967 28.1529 50.2179 27.3565C50.4834 26.6043 50.7046 25.8078 50.9701 25.0114C51.1913 24.2592 51.4568 23.4627 51.678 22.6663C51.9435 21.9583 51.5043 22.9425 51.814 22.146C52.0353 21.3938 51.8524 22.1385 52.1179 21.3863C51.8082 22.1828 52.3834 20.5899 52.1179 21.3863C51.8082 22.1385 52.4276 20.6341 52.1179 21.3863C52.4719 20.6341 52.7994 19.038 53.3746 18.4186C53.994 18.4186 54.6135 18.3301 55.1445 18.8168C55.4099 18.5071 55.6754 18.1973 55.8082 17.9761C56.3391 17.9319 56.7816 17.7991 57.1798 18.1531C57.3568 18.9495 57.2241 19.7902 57.2241 20.6752C57.4011 20.4097 57.578 20.1885 57.755 19.923C58.109 19.923 58.4187 19.923 58.8612 19.923C58.994 20.0115 59.0824 20.1885 59.2594 20.3212C59.1267 21.1176 58.9055 21.7813 58.64 22.4893C57.6223 25.1441 59.377 20.7194 58.3151 23.33C57.6514 24.9229 57.0319 26.56 56.4567 28.1972C56.0143 29.2591 55.6603 30.321 55.2621 31.383C54.4214 33.6396 53.6249 35.8519 52.6515 38.02C52.2533 38.9492 51.3241 41.0288 50.7046 41.781C50.4834 42.0465 50.2621 42.312 50.1294 42.489C49.5984 42.5775 49.2887 42.6217 49.0232 42.666C48.8905 42.666 48.802 42.666 48.7577 42.6217C48.4923 42.312 48.1383 42.4447 47.7843 42.4447C47.5188 41.781 47.4303 39.9226 46.8994 39.5687C46.1472 39.1262 45.6162 38.374 45.3507 37.4448C45.1737 36.7811 44.9082 36.1174 44.6428 35.4537C44.1118 33.728 43.5366 32.0024 42.9614 30.2325C42.9171 30.0555 42.8286 29.8343 42.7401 29.5688C42.5189 29.7901 42.4747 30.0113 42.3419 30.2325C41.7667 32.0909 41.0588 33.9935 40.3508 35.8519C40.0853 36.6041 39.8641 37.3121 39.5101 38.0643C39.2889 38.6837 38.9791 39.2589 38.7137 39.7899C38.1827 40.8076 36.9438 43.7721 36.4128 44.7013C36.2801 44.9226 36.1473 45.0995 35.9703 45.3208C35.8376 45.2765 35.7049 45.2323 35.5721 45.188C35.4836 44.3916 36.5456 41.6483 36.5898 40.6748C36.0588 41.6483 35.2181 44.5686 34.8642 45.3208C34.8199 45.365 34.7757 45.4093 34.6429 45.4535C34.4659 45.5863 34.3332 45.6748 34.112 45.8075C33.7137 45.8075 33.935 43.8164 33.4925 43.8164C33.404 43.7279 33.3155 43.5951 33.227 43.4624C32.9173 43.5951 32.6518 43.7279 32.3863 43.8606C31.8111 43.5509 31.6341 43.0642 31.7669 42.4447C31.9439 41.604 32.0324 40.7191 32.2536 39.8784C32.9173 37.4448 33.8465 35.0555 34.8199 32.7546C35.9261 29.967 37.2093 27.268 38.3154 24.4804C39.3331 22.2238 40.2623 19.8787 41.1915 17.5779C41.5897 16.6487 41.9437 16.2947 42.9171 15.8965C43.0499 15.985 43.2269 16.1177 43.4481 16.2505C43.9348 16.1177 44.4215 16.0292 44.9525 16.162C45.0852 16.2062 45.3065 16.162 45.4835 16.162C45.8374 16.1177 46.1472 16.0735 46.5011 16.0292Z" fill="#EB2DFF"/>
</g>
<g filter="url(#filter2_d_14_1623)">
<path d="M32.4479 17.4451C32.8904 17.4451 33.3328 17.4451 33.7753 17.4451C34.1293 17.0026 34.4833 16.5602 35.1027 16.4717C35.5009 16.6487 35.8549 16.8257 36.2531 17.0026C36.6071 17.1354 36.9611 17.2681 37.4036 17.4451C37.5363 17.6664 37.7133 17.8876 37.9788 18.1973C37.9345 18.4628 37.9345 18.7725 37.8903 19.0823C37.7133 19.8787 37.4921 20.6752 37.2708 21.4716C36.7841 22.976 36.2974 24.5246 35.7664 26.029C35.3239 27.268 34.8372 28.5069 34.1735 29.7458C33.5541 30.9405 33.0231 32.2236 32.4921 33.5068C31.4745 35.8961 30.501 38.2855 29.5276 40.6748C29.3063 41.2943 29.0409 41.8695 29.1294 42.5774C28.9524 42.6217 28.7754 42.6659 28.5984 42.6217C28.3772 42.5774 28.1559 42.4447 27.9347 42.3562C27.4037 41.427 27.8904 40.4978 27.8904 39.4359C27.3595 40.0111 27.3152 40.6306 27.0497 41.1615C26.7843 41.7367 26.6958 42.4005 26.2975 43.0199C26.2091 42.8429 26.1206 42.7544 26.1648 42.6659C26.2533 42.1792 26.3418 41.6483 26.4745 41.1173C26.5188 40.9403 26.563 40.8076 26.563 40.6306C25.7666 41.9137 25.4569 43.3739 24.9259 44.834C24.7047 44.9668 24.4834 44.7898 24.3064 44.6128C24.1737 44.1261 24.2622 43.6394 24.3507 43.1527C24.7047 41.5598 25.0586 39.9669 25.4126 38.374C25.5011 37.9315 25.5453 37.489 25.6781 37.0023C25.8993 35.9404 26.1648 34.8785 26.4303 33.8165C26.4745 33.5068 26.6515 33.1971 26.5188 32.8873C26.6515 32.3121 26.74 31.6927 26.9613 31.1175C27.448 29.8343 27.8904 28.5069 28.4657 27.268C28.9966 26.1618 29.3063 24.9229 29.7931 23.7724C30.5895 21.7813 31.386 19.7902 32.2267 17.7548C32.2709 17.6663 32.4036 17.5336 32.4479 17.4451Z" fill="#EB2DFF"/>
</g>
<g filter="url(#filter3_d_14_1623)">
<path d="M40.2823 9.47137C39.3973 9.86959 38.6009 10.2236 37.7602 10.6218C38.5566 10.6218 39.3531 10.4891 40.1938 10.3563C40.6805 10.7103 41.3442 10.9315 41.4327 11.728C41.1672 12.3032 40.6805 12.7457 40.1938 13.1439C39.7513 13.5863 30.3247 15.8522 30.0592 16.4274C29.0858 18.4628 28.0681 20.4539 27.1389 22.4892C26.785 23.1972 26.5195 23.9494 26.2982 24.6573C24.8823 28.8608 23.2894 32.9315 21.2983 36.9138C20.5019 38.5509 19.6612 40.1881 18.6435 41.781C18.1125 42.5774 17.5816 43.3738 17.0064 44.126C15.8559 45.4535 14.4843 46.4711 12.6702 46.8694C11.2985 47.1349 9.97108 47.4446 8.55518 47.4003C7.71448 47.3561 6.87379 47.2233 6.03309 47.0906C4.57294 46.9579 3.15704 46.7809 1.69688 46.5596C1.29866 46.5154 0.85619 46.3826 0.54646 46.2942C0.10399 45.9844 0.369472 45.6747 0.413719 45.365C0.280978 45.188 0.148236 45.0552 0.0154957 44.8782C-0.0729986 44.5243 0.236731 44.4358 0.457966 44.303C0.457966 44.0818 0.457966 43.8606 0.413719 43.5951C0.723448 43.5066 0.98893 43.3739 1.25441 43.3296C2.80306 43.1969 4.30746 42.7986 5.85611 42.5332C6.29858 42.4447 6.74105 42.3119 7.18352 42.2677C7.80298 42.1349 8.33394 41.8695 8.82066 41.5155C9.48437 41.0288 10.1038 40.4978 10.6348 39.8783C12.5817 37.5775 14.1746 35.0554 15.6347 32.4448C18.1568 28.0201 20.4134 23.4627 22.4488 18.8167C22.5372 18.6397 22.5815 18.507 22.67 18.2415C22.493 18.2415 22.3603 18.1973 22.2275 18.2415C20.2806 18.7282 18.2895 19.1265 16.2984 19.4362C15.679 19.5247 15.0152 19.6574 14.3958 19.7459C13.9533 19.8344 13.5108 19.8787 13.0241 19.9229C12.4489 19.4804 11.918 19.0822 11.387 18.684C11.21 18.153 11.387 17.7991 11.8295 17.4893C12.1392 17.3123 12.4489 17.1353 12.7144 17.0026C12.6702 16.5159 12.2277 16.4716 12.0064 16.2062C11.9622 15.7637 12.2277 15.6309 12.5374 15.5425C13.3339 15.3212 14.1303 15.1442 14.8825 14.8787C16.6966 14.2593 18.5108 13.8611 20.3249 13.2416C21.9178 12.7106 23.5549 12.2682 25.1921 11.8257C26.9177 11.3832 37.8044 9.38287 39.5743 9.25013C39.7513 9.20589 39.9283 9.25013 40.1053 9.25013C40.1495 9.25013 40.1938 9.33863 40.2823 9.47137Z" fill="#EB2DFF"/>
</g>
<defs>
<filter id="filter0_d_14_1623" x="55.3411" y="-4.29153e-06" width="21.8421" height="40.2749" filterUnits="userSpaceOnUse" color-interpolation-filters="sRGB">
<feFlood flood-opacity="0" result="BackgroundImageFix"/>
<feColorMatrix in="SourceAlpha" type="matrix" values="0 0 0 0 0 0 0 0 0 0 0 0 0 0 0 0 0 0 127 0" result="hardAlpha"/>
<feOffset dy="-2.43116"/>
<feComposite in2="hardAlpha" operator="out"/>
<feColorMatrix type="matrix" values="0 0 0 0 0.921569 0 0 0 0 0.176471 0 0 0 0 1 0 0 0 0.25 0"/>
<feBlend mode="normal" in2="BackgroundImageFix" result="effect1_dropShadow_14_1623"/>
<feBlend mode="normal" in="SourceGraphic" in2="effect1_dropShadow_14_1623" result="shape"/>
</filter>
<filter id="filter1_d_14_1623" x="31.725" y="13.4653" width="27.5344" height="32.3423" filterUnits="userSpaceOnUse" color-interpolation-filters="sRGB">
<feFlood flood-opacity="0" result="BackgroundImageFix"/>
<feColorMatrix in="SourceAlpha" type="matrix" values="0 0 0 0 0 0 0 0 0 0 0 0 0 0 0 0 0 0 127 0" result="hardAlpha"/>
<feOffset dy="-2.43116"/>
<feComposite in2="hardAlpha" operator="out"/>
<feColorMatrix type="matrix" values="0 0 0 0 0.921569 0 0 0 0 0.176471 0 0 0 0 1 0 0 0 0.25 0"/>
<feBlend mode="normal" in2="BackgroundImageFix" result="effect1_dropShadow_14_1623"/>
<feBlend mode="normal" in="SourceGraphic" in2="effect1_dropShadow_14_1623" result="shape"/>
</filter>
<filter id="filter2_d_14_1623" x="24.2387" y="14.0405" width="13.74" height="30.8398" filterUnits="userSpaceOnUse" color-interpolation-filters="sRGB">
<feFlood flood-opacity="0" result="BackgroundImageFix"/>
<feColorMatrix in="SourceAlpha" type="matrix" values="0 0 0 0 0 0 0 0 0 0 0 0 0 0 0 0 0 0 127 0" result="hardAlpha"/>
<feOffset dy="-2.43116"/>
<feComposite in2="hardAlpha" operator="out"/>
<feColorMatrix type="matrix" values="0 0 0 0 0.921569 0 0 0 0 0.176471 0 0 0 0 1 0 0 0 0.25 0"/>
<feBlend mode="normal" in2="BackgroundImageFix" result="effect1_dropShadow_14_1623"/>
<feBlend mode="normal" in="SourceGraphic" in2="effect1_dropShadow_14_1623" result="shape"/>
</filter>
<filter id="filter3_d_14_1623" x="0" y="6.79931" width="41.4327" height="40.6055" filterUnits="userSpaceOnUse" color-interpolation-filters="sRGB">
<feFlood flood-opacity="0" result="BackgroundImageFix"/>
<feColorMatrix in="SourceAlpha" type="matrix" values="0 0 0 0 0 0 0 0 0 0 0 0 0 0 0 0 0 0 127 0" result="hardAlpha"/>
<feOffset dy="-2.43116"/>
<feComposite in2="hardAlpha" operator="out"/>
<feColorMatrix type="matrix" values="0 0 0 0 0.921569 0 0 0 0 0.176471 0 0 0 0 1 0 0 0 0.25 0"/>
<feBlend mode="normal" in2="BackgroundImageFix" result="effect1_dropShadow_14_1623"/>
<feBlend mode="normal" in="SourceGraphic" in2="effect1_dropShadow_14_1623" result="shape"/>
</filter>
</defs>
</svg>
