<svg width="106" height="62" viewBox="0 0 106 62" fill="none" xmlns="http://www.w3.org/2000/svg">
<g filter="url(#filter0_d_26_190)">
<path d="M78.9048 27.3403C76.846 24.3263 74.7804 19.3646 73.0971 16.1795C73.4134 15.616 73.6737 15.061 73.99 14.4975C74.6594 13.9955 75.3849 13.485 76.3883 13.6778C76.6209 13.7 76.8757 13.4897 77.0915 13.3999C77.0969 13.0552 77.1191 12.8226 77.0685 12.4864C77.4355 12.2592 77.7379 11.9844 77.9928 11.774C78.5617 11.7456 78.7804 12.0566 79.0637 12.4151C80.0286 13.8745 81.0495 15.3255 82.0704 16.7764C82.2163 16.9837 82.3706 17.247 82.508 17.3983C82.8611 17.4597 82.875 17.1711 83.0178 16.9776C85.4277 12.4308 86.0509 11.7146 89.2262 7.68292C89.8058 6.96517 90.2818 6.32035 90.8054 5.61104C91.147 5.21571 91.4971 4.87641 91.8641 4.6492C92.1696 4.77512 92.0829 4.96012 92.0437 5.08065C91.9347 5.49826 91.7611 5.86827 91.6352 6.1738C92.1119 6.67511 92.4421 5.82301 92.7983 6.28517C93.8178 5.44385 94.5963 4.52421 95.6971 3.84257C96.3474 3.97388 97.1319 3.8557 97.6593 4.69327C97.584 5.33504 97.5732 6.02442 97.5233 6.83431C98.0361 6.81438 98.4253 6.35456 98.8544 6.92036C98.8713 7.03244 98.8406 7.20901 98.8099 7.38557C98.5104 8.06111 98.2026 8.68061 97.9676 9.40375C97.4809 10.738 96.5596 11.851 95.8794 13.0424C95.6022 13.4854 95.325 13.9283 95.0955 14.3068C94.9527 14.5002 94.8744 14.7412 94.7231 14.8787C93.7458 16.0002 95.2478 13.7026 94.576 14.95C92.7564 18.0897 91.0014 21.277 89.1902 24.4728C89.1035 24.6578 88.9607 24.8512 88.93 25.0278C90.958 28.2184 92.9776 31.3529 94.9887 34.4314C95.3618 35.0056 95.7909 35.5714 96.2116 36.0812C97.0053 37.1652 97.0053 37.1652 98.0984 37.5737C98.0677 37.7502 97.981 37.9352 97.9587 38.1678C97.6309 38.2745 97.3115 38.4372 96.9922 38.6C96.6644 38.7067 96.3926 38.8049 96.0088 38.9201C96.5023 39.5335 96.9959 40.1469 97.4895 40.7603C97.4672 40.9929 97.4534 41.2815 97.4872 41.5057C97.5854 41.7774 97.7873 41.9763 97.9416 42.2396C97.7174 42.2734 97.5577 42.3547 97.4933 42.3071C97.0419 41.9739 96.5905 41.6407 96.1867 41.2431C95.6455 40.6941 95.1604 40.1368 94.7229 39.5149C93.7917 38.2797 92.7178 37.2379 91.3637 36.2383C91.4619 36.5101 91.4873 36.6782 91.5602 36.7818C93.2513 38.8769 94.9423 40.972 96.625 43.011C97.2391 43.6636 97.9008 44.2517 98.6354 44.9434C98.4281 45.0892 98.3329 45.2182 98.1817 45.3556C97.282 45.0899 96.5727 44.5663 95.967 43.9698C94.3688 42.4912 92.7706 41.0126 91.22 39.4695C89.1197 37.3214 87.0671 35.1088 85.0228 32.9523C84.9584 32.9047 84.8378 32.8656 84.6613 32.8348C83.5304 34.8392 82.5369 36.9948 81.5434 39.1503C80.5415 41.2499 79.6601 43.3886 78.8347 45.5189C77.9617 47.7136 77.1532 49.9559 76.3839 52.0778C75.8181 52.5069 75.3191 52.2381 74.7894 52.146C74.6321 51.4819 74.7074 50.8402 74.7266 50.2068C74.0733 49.6748 73.1797 50.2106 72.6301 49.6056C72.3583 49.7039 72.0221 49.7545 71.7503 49.8528C71.5653 49.766 71.4448 49.7269 71.3803 49.6793C70.9765 49.2816 70.853 48.8417 70.8891 48.3205C70.989 46.7007 71.4504 45.1983 72.024 43.6791C72.1414 43.3176 72.3234 43.0036 72.4409 42.642C73.9289 38.0621 75.8429 33.6473 77.9335 29.2632C78.233 28.5877 78.5884 27.9037 78.9048 27.3403C78.894 28.0296 78.9071 26.5949 78.9048 27.3403Z" fill="white"/>
</g>
<g filter="url(#filter1_d_26_190)">
<path d="M59.5605 21.2591C59.9005 21.4858 60.0139 21.5992 60.1272 21.7692C60.3539 21.7125 60.5239 21.7125 60.7506 21.6558C60.7506 21.7692 60.8073 21.8825 60.864 21.9959C61.1473 22.4493 61.1473 23.0727 61.1473 23.7527C61.0907 25.5663 61.1473 27.2665 61.374 29.0233C61.7141 32.197 62.3941 35.3141 63.2442 38.3744C63.3009 38.4878 63.4143 38.6011 63.5276 38.8845C63.811 37.751 64.0377 36.7876 64.321 35.7674C64.6611 34.804 64.9444 33.7839 65.2845 32.7638C65.5678 31.8003 65.9079 30.7802 66.1912 29.7601C66.5313 28.8533 65.9687 30.1139 66.3654 29.0937C66.6488 28.1303 66.4146 29.0841 66.7546 28.1207C66.3579 29.1408 67.0947 27.1005 66.7546 28.1207C66.3579 29.0841 67.1513 27.1572 66.7546 28.1207C67.208 27.1572 67.6275 25.1129 68.3642 24.3195C69.1576 24.3195 69.9511 24.2061 70.6311 24.8295C70.9712 24.4328 71.3112 24.0361 71.4812 23.7527C72.1613 23.6961 72.728 23.5261 73.2381 23.9794C73.4648 24.9996 73.2948 26.0763 73.2948 27.2098C73.5215 26.8698 73.7482 26.5864 73.9749 26.2464C74.4282 26.2464 74.825 26.2464 75.3917 26.2464C75.5617 26.3597 75.675 26.5864 75.9017 26.7564C75.7317 27.7765 75.4484 28.6266 75.1083 29.5334C73.8048 32.9338 76.0524 27.2665 74.6922 30.6102C73.8421 32.6504 73.0487 34.7473 72.3119 36.8442C71.7452 38.2044 71.2918 39.5645 70.7818 40.9247C69.705 43.815 68.6849 46.6487 67.438 49.4257C66.928 50.6158 65.7378 53.2794 64.9444 54.2429C64.6611 54.5829 64.3777 54.923 64.2077 55.1496C63.5276 55.263 63.1309 55.3197 62.7909 55.3763C62.6208 55.3763 62.5075 55.3763 62.4508 55.3197C62.1108 54.923 61.6574 55.093 61.204 55.093C60.864 54.2429 60.7506 51.8626 60.0705 51.4092C59.1071 50.8425 58.427 49.879 58.087 48.6889C57.8603 47.8388 57.5203 46.9887 57.1802 46.1386C56.5001 43.9284 55.7634 41.7181 55.0266 39.4512C54.97 39.2245 54.8566 38.9411 54.7433 38.6011C54.4599 38.8845 54.4032 39.1678 54.2332 39.4512C53.4965 41.8315 52.5897 44.2684 51.6829 46.6487C51.3429 47.6121 51.0595 48.5189 50.6061 49.4823C50.3228 50.2758 49.9261 51.0125 49.586 51.6926C48.9059 52.9961 47.3191 56.7932 46.639 57.9833C46.469 58.2667 46.299 58.4934 46.0723 58.7767C45.9023 58.7201 45.7323 58.6634 45.5622 58.6067C45.4489 57.5866 46.809 54.0729 46.8657 52.826C46.1856 54.0729 45.1088 57.8133 44.6555 58.7767C44.5988 58.8334 44.5421 58.8901 44.3721 58.9467C44.1454 59.1168 43.9754 59.2301 43.692 59.4001C43.182 59.4001 43.4653 56.8498 42.8986 56.8498C42.7853 56.7365 42.6719 56.5665 42.5586 56.3965C42.1618 56.5665 41.8218 56.7365 41.4818 56.9065C40.745 56.5098 40.5183 55.8864 40.6883 55.093C40.915 54.0162 41.0284 52.8827 41.3118 51.8059C42.1618 48.6889 43.352 45.6286 44.5988 42.6816C46.0156 39.1112 47.6591 35.6541 49.076 32.0837C50.3794 29.1934 51.5696 26.1897 52.7597 23.2427C53.2698 22.0526 53.7232 21.5992 54.97 21.0891C55.14 21.2025 55.3667 21.3725 55.65 21.5425C56.2734 21.3725 56.8969 21.2591 57.5769 21.4292C57.7469 21.4858 58.0303 21.4292 58.257 21.4292C58.7104 21.3725 59.1071 21.3158 59.5605 21.2591Z" fill="white"/>
</g>
<g filter="url(#filter2_d_26_190)">
<path d="M41.5604 23.0726C42.1272 23.0726 42.6939 23.0726 43.2606 23.0726C43.714 22.5059 44.1674 21.9392 44.9608 21.8258C45.4709 22.0525 45.9243 22.2792 46.4343 22.5059C46.8877 22.6759 47.3411 22.8459 47.9078 23.0726C48.0779 23.356 48.3045 23.6393 48.6446 24.0361C48.5879 24.3761 48.5879 24.7728 48.5312 25.1695C48.3045 26.1896 48.0212 27.2098 47.7378 28.2299C47.1144 30.1568 46.491 32.1403 45.8109 34.0672C45.2442 35.654 44.6208 37.2409 43.7707 38.8277C42.9773 40.3579 42.2972 42.0014 41.6171 43.6449C40.3136 46.7053 39.0668 49.7656 37.82 52.826C37.5367 53.6194 37.1966 54.3562 37.31 55.2629C37.0833 55.3196 36.8566 55.3763 36.6299 55.3196C36.3465 55.2629 36.0632 55.0929 35.7798 54.9796C35.0997 53.7894 35.7231 52.5993 35.7231 51.2391C35.043 51.9759 34.9864 52.7693 34.6463 53.4494C34.3063 54.1861 34.1929 55.0362 33.6829 55.8297C33.5695 55.603 33.4562 55.4896 33.5129 55.3763C33.6262 54.7529 33.7396 54.0728 33.9096 53.3927C33.9663 53.166 34.0229 52.996 34.0229 52.7693C33.0028 54.4128 32.6061 56.283 31.926 58.1533C31.6427 58.3233 31.3593 58.0966 31.1326 57.8699C30.9626 57.2465 31.0759 56.6231 31.1893 55.9997C31.6427 53.9594 32.096 51.9192 32.5494 49.879C32.6628 49.3123 32.7194 48.7455 32.8895 48.1221C33.1728 46.762 33.5129 45.4018 33.8529 44.0417C33.9096 43.6449 34.1363 43.2482 33.9663 42.8515C34.1363 42.1148 34.2496 41.3214 34.533 40.5846C35.1564 38.9411 35.7231 37.2409 36.4599 35.654C37.1399 34.2372 37.5367 32.6504 38.1601 31.1769C39.1802 28.6266 40.2003 26.0763 41.2771 23.4693C41.3338 23.356 41.5038 23.186 41.5604 23.0726Z" fill="white"/>
</g>
<g filter="url(#filter3_d_26_190)">
<path d="M51.5948 12.8596C50.4614 13.3696 49.4413 13.823 48.3645 14.3331C49.3846 14.3331 50.4047 14.1631 51.4815 13.993C52.1049 14.4464 52.955 14.7298 53.0683 15.7499C52.7283 16.4867 52.1049 17.0534 51.4815 17.5634C50.9148 18.1302 38.8409 21.0323 38.5009 21.7691C37.2541 24.376 35.9506 26.9263 34.7605 29.5333C34.3071 30.4401 33.967 31.4035 33.6837 32.3103C31.8701 37.6942 29.8299 42.9081 27.2796 48.0087C26.2595 50.1056 25.1827 52.2025 23.8792 54.2428C23.1991 55.2629 22.5191 56.283 21.7823 57.2464C20.3088 58.9466 18.5519 60.2501 16.2284 60.7602C14.4715 61.1002 12.7713 61.4969 10.9578 61.4403C9.88097 61.3836 8.80418 61.2136 7.72739 61.0435C5.85718 60.8735 4.04364 60.6468 2.17342 60.3635C1.66337 60.3068 1.09664 60.1368 0.699924 60.0234C0.133193 59.6267 0.473232 59.23 0.529904 58.8333C0.359886 58.6066 0.189866 58.4366 0.0198474 58.2099C-0.093499 57.7565 0.303213 57.6432 0.586578 57.4731C0.586578 57.1898 0.586578 56.9064 0.529904 56.5664C0.926617 56.453 1.26665 56.283 1.60669 56.2263C3.59025 56.0563 5.51714 55.5462 7.5007 55.2062C8.06743 55.0929 8.63416 54.9228 9.20089 54.8662C9.99431 54.6962 10.6744 54.3561 11.2978 53.9027C12.1479 53.2793 12.9413 52.5992 13.6214 51.8058C16.115 48.8588 18.1552 45.6285 20.0254 42.2847C23.2558 36.6174 26.1461 30.7801 28.7531 24.8294C28.8665 24.6027 28.9231 24.4327 29.0365 24.0927C28.8098 24.0927 28.6398 24.036 28.4697 24.0927C25.9761 24.7161 23.4258 25.2261 20.8755 25.6229C20.0821 25.7362 19.232 25.9062 18.4386 26.0196C17.8719 26.1329 17.3051 26.1896 16.6817 26.2463C15.945 25.6795 15.2649 25.1695 14.5848 24.6594C14.3581 23.9793 14.5848 23.526 15.1516 23.1292C15.5483 22.9025 15.945 22.6759 16.285 22.5058C16.2284 21.8824 15.6616 21.8258 15.3783 21.4857C15.3216 20.919 15.6616 20.749 16.0583 20.6356C17.0784 20.3523 18.0986 20.1256 19.062 19.7855C21.3856 18.9921 23.7092 18.482 26.0328 17.6886C28.073 17.0085 30.1699 16.4418 32.2668 15.8751C34.4771 15.3084 48.4212 12.7462 50.6881 12.5762C50.9148 12.5195 51.1415 12.5762 51.3682 12.5762C51.4248 12.5762 51.4815 12.6896 51.5948 12.8596Z" fill="white"/>
</g>
<defs>
<filter id="filter0_d_26_190" x="70.8828" y="2.95639e-05" width="27.9766" height="52.3139" filterUnits="userSpaceOnUse" color-interpolation-filters="sRGB">
<feFlood flood-opacity="0" result="BackgroundImageFix"/>
<feColorMatrix in="SourceAlpha" type="matrix" values="0 0 0 0 0 0 0 0 0 0 0 0 0 0 0 0 0 0 127 0" result="hardAlpha"/>
<feOffset dy="-3.8425"/>
<feComposite in2="hardAlpha" operator="out"/>
<feColorMatrix type="matrix" values="0 0 0 0 1 0 0 0 0 1 0 0 0 0 1 0 0 0 0.25 0"/>
<feBlend mode="normal" in2="BackgroundImageFix" result="effect1_dropShadow_26_190"/>
<feBlend mode="normal" in="SourceGraphic" in2="effect1_dropShadow_26_190" result="shape"/>
</filter>
<filter id="filter1_d_26_190" x="40.6348" y="17.2466" width="35.2666" height="42.1535" filterUnits="userSpaceOnUse" color-interpolation-filters="sRGB">
<feFlood flood-opacity="0" result="BackgroundImageFix"/>
<feColorMatrix in="SourceAlpha" type="matrix" values="0 0 0 0 0 0 0 0 0 0 0 0 0 0 0 0 0 0 127 0" result="hardAlpha"/>
<feOffset dy="-3.8425"/>
<feComposite in2="hardAlpha" operator="out"/>
<feColorMatrix type="matrix" values="0 0 0 0 1 0 0 0 0 1 0 0 0 0 1 0 0 0 0.25 0"/>
<feBlend mode="normal" in2="BackgroundImageFix" result="effect1_dropShadow_26_190"/>
<feBlend mode="normal" in="SourceGraphic" in2="effect1_dropShadow_26_190" result="shape"/>
</filter>
<filter id="filter2_d_26_190" x="31.0459" y="17.9833" width="17.5986" height="40.2293" filterUnits="userSpaceOnUse" color-interpolation-filters="sRGB">
<feFlood flood-opacity="0" result="BackgroundImageFix"/>
<feColorMatrix in="SourceAlpha" type="matrix" values="0 0 0 0 0 0 0 0 0 0 0 0 0 0 0 0 0 0 127 0" result="hardAlpha"/>
<feOffset dy="-3.8425"/>
<feComposite in2="hardAlpha" operator="out"/>
<feColorMatrix type="matrix" values="0 0 0 0 1 0 0 0 0 1 0 0 0 0 1 0 0 0 0.25 0"/>
<feBlend mode="normal" in2="BackgroundImageFix" result="effect1_dropShadow_26_190"/>
<feBlend mode="normal" in="SourceGraphic" in2="effect1_dropShadow_26_190" result="shape"/>
</filter>
<filter id="filter3_d_26_190" x="0" y="8.70853" width="53.0684" height="52.7372" filterUnits="userSpaceOnUse" color-interpolation-filters="sRGB">
<feFlood flood-opacity="0" result="BackgroundImageFix"/>
<feColorMatrix in="SourceAlpha" type="matrix" values="0 0 0 0 0 0 0 0 0 0 0 0 0 0 0 0 0 0 127 0" result="hardAlpha"/>
<feOffset dy="-3.8425"/>
<feComposite in2="hardAlpha" operator="out"/>
<feColorMatrix type="matrix" values="0 0 0 0 1 0 0 0 0 1 0 0 0 0 1 0 0 0 0.25 0"/>
<feBlend mode="normal" in2="BackgroundImageFix" result="effect1_dropShadow_26_190"/>
<feBlend mode="normal" in="SourceGraphic" in2="effect1_dropShadow_26_190" result="shape"/>
</filter>
</defs>
</svg>
