<svg width="82" height="48" viewBox="0 0 82 48" fill="none" xmlns="http://www.w3.org/2000/svg">
<g filter="url(#filter0_d_2059_3990)">
<path d="M61.2182 20.6467C59.6209 18.3082 58.0183 14.4587 56.7122 11.9875C56.9576 11.5503 57.1596 11.1197 57.405 10.6825C57.9244 10.293 58.4873 9.89697 59.2657 10.0465C59.4462 10.0638 59.6439 9.9006 59.8113 9.83092C59.8155 9.56349 59.8328 9.38303 59.7935 9.12215C60.0782 8.94586 60.3129 8.73265 60.5106 8.56946C60.952 8.54745 61.1217 8.78868 61.3415 9.06684C62.0901 10.1991 62.8822 11.3249 63.6743 12.4506C63.7874 12.6114 63.9072 12.8157 64.0138 12.9331C64.2877 12.9807 64.2985 12.7568 64.4093 12.6067C66.2791 9.07902 66.7625 8.52335 69.2261 5.39534C69.6758 4.83847 70.0451 4.33818 70.4514 3.78786C70.7164 3.48113 70.9881 3.21789 71.2728 3.0416C71.5098 3.1393 71.4425 3.28283 71.4121 3.37634C71.3275 3.70035 71.1929 3.98743 71.0952 4.22447C71.4651 4.61343 71.7212 3.95231 71.9976 4.31089C72.7886 3.65814 73.3925 2.94463 74.2467 2.41577C74.7512 2.51765 75.3599 2.42596 75.769 3.07579C75.7106 3.57372 75.7023 4.10858 75.6635 4.73694C76.0614 4.72148 76.3634 4.36472 76.6963 4.80371C76.7094 4.89066 76.6856 5.02765 76.6617 5.16464C76.4294 5.68877 76.1905 6.16941 76.0083 6.73047C75.6306 7.76562 74.9158 8.62921 74.3881 9.55357C74.173 9.89722 73.958 10.2409 73.7799 10.5345C73.6691 10.6846 73.6083 10.8716 73.491 10.9782C72.7327 11.8484 73.898 10.0658 73.3768 11.0336C71.9651 13.4696 70.6034 15.9425 69.1982 18.4219C69.1309 18.5654 69.0201 18.7155 68.9963 18.8525C70.5698 21.328 72.1367 23.7599 73.6971 26.1484C73.9865 26.5939 74.3194 27.0329 74.6458 27.4284C75.2616 28.2694 75.2616 28.2694 76.1097 28.5863C76.0859 28.7233 76.0186 28.8669 76.0013 29.0473C75.747 29.1301 75.4992 29.2564 75.2514 29.3826C74.9971 29.4654 74.7863 29.5416 74.4885 29.631C74.8714 30.1069 75.2543 30.5828 75.6373 31.0587C75.62 31.2392 75.6093 31.4631 75.6355 31.637C75.7117 31.8479 75.8683 32.0022 75.9881 32.2065C75.8141 32.2327 75.6902 32.2958 75.6402 32.2588C75.29 32.0003 74.9398 31.7418 74.6265 31.4333C74.2066 31.0074 73.8302 30.575 73.4908 30.0925C72.7684 29.1341 71.9351 28.3258 70.8845 27.5503C70.9608 27.7612 70.9804 27.8916 71.037 27.972C72.349 29.5975 73.6611 31.223 74.9666 32.805C75.443 33.3113 75.9564 33.7675 76.5264 34.3042C76.3655 34.4174 76.2917 34.5174 76.1744 34.624C75.4763 34.4179 74.926 34.0117 74.4561 33.5489C73.2161 32.4017 71.9761 31.2545 70.773 30.0572C69.1435 28.3906 67.5509 26.674 65.9649 25.0008C65.9149 24.9639 65.8214 24.9335 65.6844 24.9097C64.807 26.4648 64.0362 28.1372 63.2654 29.8096C62.488 31.4386 61.8042 33.0979 61.1638 34.7507C60.4865 36.4535 59.8592 38.1933 59.2623 39.8395C58.8234 40.1724 58.4362 39.9639 58.0253 39.8924C57.9032 39.3772 57.9616 38.8793 57.9765 38.3879C57.4697 37.9751 56.7763 38.3908 56.3499 37.9215C56.1391 37.9977 55.8782 38.037 55.6673 38.1132C55.5238 38.0459 55.4303 38.0155 55.3803 37.9786C55.067 37.6701 54.9711 37.3288 54.9991 36.9243C55.0766 35.6676 55.4346 34.502 55.8796 33.3233C55.9708 33.0428 56.1119 32.7992 56.2031 32.5187C57.3576 28.9653 58.8426 25.5401 60.4646 22.1386C60.6969 21.6145 60.9727 21.0838 61.2182 20.6467C61.2098 21.1815 61.22 20.0683 61.2182 20.6467Z" fill="white"/>
</g>
<g filter="url(#filter1_d_2059_3990)">
<path d="M46.2101 15.9273C46.4739 16.1032 46.5618 16.1911 46.6498 16.3231C46.8256 16.2791 46.9576 16.2791 47.1334 16.2351C47.1334 16.3231 47.1774 16.411 47.2214 16.4989C47.4412 16.8507 47.4412 17.3344 47.4412 17.862C47.3973 19.2691 47.4412 20.5882 47.6171 21.9513C47.8809 24.4136 48.4086 26.832 49.0681 29.2064C49.1121 29.2943 49.2 29.3822 49.288 29.6021C49.5078 28.7227 49.6837 27.9752 49.9036 27.1837C50.1674 26.4362 50.3872 25.6448 50.6511 24.8533C50.8709 24.1058 51.1347 23.3143 51.3546 22.5229C51.6184 21.8193 51.1819 22.7973 51.4897 22.0059C51.7096 21.2584 51.5279 21.9984 51.7917 21.2509C51.4839 22.0424 52.0555 20.4594 51.7917 21.2509C51.4839 21.9984 52.0995 20.5034 51.7917 21.2509C52.1435 20.5034 52.4689 18.9173 53.0405 18.3017C53.6561 18.3017 54.2717 18.2138 54.7993 18.6975C55.0632 18.3897 55.327 18.0819 55.4589 17.862C55.9865 17.818 56.4262 17.6861 56.822 18.0379C56.9979 18.8294 56.8659 19.6648 56.8659 20.5442C57.0418 20.2804 57.2177 20.0605 57.3936 19.7967C57.7453 19.7967 58.0531 19.7967 58.4928 19.7967C58.6248 19.8847 58.7127 20.0605 58.8886 20.1924C58.7567 20.9839 58.5368 21.6435 58.273 22.347C57.2617 24.9852 59.0054 20.5882 57.9501 23.1824C57.2906 24.7654 56.675 26.3923 56.1034 28.0192C55.6637 29.0745 55.3119 30.1297 54.9162 31.185C54.0808 33.4275 53.2893 35.626 52.3219 37.7806C51.9262 38.704 51.0028 40.7706 50.3872 41.5181C50.1674 41.7819 49.9475 42.0457 49.8156 42.2216C49.288 42.3095 48.9802 42.3535 48.7164 42.3975C48.5845 42.3975 48.4965 42.3975 48.4526 42.3535C48.1887 42.0457 47.837 42.1776 47.4852 42.1776C47.2214 41.5181 47.1334 39.6713 46.6058 39.3195C45.8583 38.8798 45.3307 38.1323 45.0668 37.209C44.891 36.5494 44.6271 35.8899 44.3633 35.2303C43.8357 33.5155 43.264 31.8006 42.6924 30.0418C42.6485 29.8659 42.5605 29.6461 42.4726 29.3822C42.2527 29.6021 42.2088 29.822 42.0769 30.0418C41.5052 31.8886 40.8017 33.7793 40.0982 35.626C39.8344 36.3735 39.6145 37.0771 39.2628 37.8246C39.0429 38.4401 38.7351 39.0118 38.4713 39.5394C37.9436 40.5507 36.7125 43.4967 36.1848 44.4201C36.0529 44.64 35.921 44.8158 35.7451 45.0357C35.6132 44.9917 35.4813 44.9477 35.3494 44.9038C35.2614 44.1123 36.3167 41.3862 36.3607 40.4188C35.8331 41.3862 34.9976 44.2882 34.6459 45.0357C34.6019 45.0797 34.5579 45.1236 34.426 45.1676C34.2501 45.2995 34.1182 45.3875 33.8984 45.5194C33.5026 45.5194 33.7225 43.5407 33.2828 43.5407C33.1948 43.4528 33.1069 43.3208 33.019 43.1889C32.7112 43.3208 32.4473 43.4528 32.1835 43.5847C31.6119 43.2769 31.436 42.7932 31.5679 42.1776C31.7438 41.3422 31.8318 40.4628 32.0516 39.6273C32.7112 37.209 33.6345 34.8346 34.6019 32.5481C35.7012 29.778 36.9763 27.0958 38.0755 24.3257C39.0869 22.0832 40.0102 19.7527 40.9336 17.4663C41.3294 16.5429 41.6811 16.1911 42.6485 15.7954C42.7804 15.8834 42.9563 16.0153 43.1761 16.1472C43.6598 16.0153 44.1435 15.9273 44.6711 16.0592C44.803 16.1032 45.0229 16.0592 45.1987 16.0592C45.5505 16.0153 45.8583 15.9713 46.2101 15.9273Z" fill="white"/>
</g>
<g filter="url(#filter2_d_2059_3990)">
<path d="M32.2437 17.334C32.6835 17.334 33.1232 17.334 33.5629 17.334C33.9146 16.8943 34.2664 16.4546 34.882 16.3667C35.2777 16.5426 35.6295 16.7185 36.0252 16.8943C36.377 17.0263 36.7287 17.1582 37.1684 17.334C37.3003 17.5539 37.4762 17.7738 37.74 18.0815C37.6961 18.3454 37.6961 18.6532 37.6521 18.9609C37.4762 19.7524 37.2564 20.5439 37.0365 21.3353C36.5528 22.8303 36.0692 24.3693 35.5415 25.8643C35.1018 27.0955 34.6181 28.3266 33.9586 29.5578C33.343 30.745 32.8154 32.0201 32.2877 33.2953C31.2764 35.6697 30.3091 38.0441 29.3417 40.4185C29.1219 41.0341 28.858 41.6057 28.946 42.3092C28.7701 42.3532 28.5942 42.3971 28.4183 42.3532C28.1985 42.3092 27.9786 42.1773 27.7588 42.0894C27.2311 41.166 27.7148 40.2426 27.7148 39.1873C27.1872 39.7589 27.1432 40.3745 26.8794 40.9022C26.6155 41.4738 26.5276 42.1333 26.1319 42.7489C26.0439 42.573 25.956 42.4851 26 42.3971C26.0879 41.9135 26.1758 41.3858 26.3078 40.8582C26.3517 40.6823 26.3957 40.5504 26.3957 40.3745C25.6042 41.6496 25.2964 43.1007 24.7688 44.5517C24.5489 44.6836 24.3291 44.5077 24.1532 44.3318C24.0213 43.8482 24.1092 43.3645 24.1972 42.8808C24.5489 41.2979 24.9007 39.715 25.2525 38.132C25.3404 37.6923 25.3844 37.2526 25.5163 36.7689C25.7361 35.7137 26 34.6584 26.2638 33.6031C26.3078 33.2953 26.4836 32.9875 26.3517 32.6797C26.4836 32.1081 26.5716 31.4925 26.7914 30.9209C27.2751 29.6457 27.7148 28.3266 28.2864 27.0955C28.8141 25.9962 29.1219 24.765 29.6055 23.6218C30.397 21.6431 31.1885 19.6645 32.0239 17.6418C32.0679 17.5539 32.1998 17.422 32.2437 17.334Z" fill="white"/>
</g>
<g filter="url(#filter3_d_2059_3990)">
<path d="M40.0303 9.41176C39.1509 9.80749 38.3595 10.1593 37.524 10.555C38.3155 10.555 39.107 10.4231 39.9424 10.2912C40.4261 10.6429 41.0856 10.8628 41.1736 11.6542C40.9097 12.2259 40.4261 12.6656 39.9424 13.0613C39.5027 13.501 30.1351 15.7527 29.8713 16.3243C28.9039 18.3469 27.8926 20.3256 26.9692 22.3482C26.6175 23.0517 26.3536 23.7992 26.1338 24.5028C24.7267 28.6799 23.1438 32.7252 21.1651 36.6825C20.3737 38.3095 19.5382 39.9364 18.5269 41.5193C17.9993 42.3108 17.4716 43.1022 16.9 43.8497C15.7568 45.1688 14.3937 46.1801 12.5909 46.5759C11.2278 46.8397 9.90873 47.1475 8.50167 47.1035C7.66624 47.0596 6.8308 46.9276 5.99536 46.7957C4.54434 46.6638 3.13729 46.4879 1.68627 46.2681C1.29054 46.2241 0.850835 46.0922 0.543043 46.0043C0.103339 45.6965 0.367162 45.3887 0.411131 45.0809C0.279221 44.905 0.147309 44.7731 0.0153988 44.5972C-0.072542 44.2454 0.235251 44.1575 0.455102 44.0256C0.455102 43.8057 0.455102 43.5859 0.411131 43.3221C0.718924 43.2341 0.982746 43.1022 1.24657 43.0583C2.78553 42.9263 4.28052 42.5306 5.81948 42.2668C6.25919 42.1788 6.69889 42.0469 7.13859 42.003C7.75418 41.8711 8.28182 41.6072 8.7655 41.2555C9.42505 40.7718 10.0406 40.2441 10.5683 39.6286C12.503 37.3421 14.0859 34.8358 15.5369 32.2415C18.0432 27.8445 20.2857 23.3156 22.3084 18.6987C22.3963 18.5228 22.4403 18.3909 22.5282 18.1271C22.3523 18.1271 22.2204 18.0831 22.0885 18.1271C20.1538 18.6107 18.1751 19.0065 16.1965 19.3143C15.5809 19.4022 14.9213 19.5341 14.3058 19.6221C13.8661 19.71 13.4264 19.754 12.9427 19.7979C12.3711 19.3582 11.8434 18.9625 11.3158 18.5668C11.1399 18.0391 11.3158 17.6874 11.7555 17.3796C12.0633 17.2037 12.3711 17.0278 12.6349 16.8959C12.5909 16.4122 12.1512 16.3683 11.9314 16.1044C11.8874 15.6647 12.1512 15.5328 12.459 15.4449C13.2505 15.225 14.0419 15.0491 14.7894 14.7853C16.5922 14.1697 18.395 13.774 20.1978 13.1584C21.7807 12.6308 23.4076 12.1911 25.0345 11.7514C26.7494 11.3117 37.568 9.32381 39.3268 9.19191C39.5027 9.14794 39.6786 9.19191 39.8545 9.19191C39.8984 9.19191 39.9424 9.27984 40.0303 9.41176Z" fill="white"/>
</g>
<defs>
<filter id="filter0_d_2059_3990" x="54.9941" y="6.29425e-05" width="21.7061" height="40.0229" filterUnits="userSpaceOnUse" color-interpolation-filters="sRGB">
<feFlood flood-opacity="0" result="BackgroundImageFix"/>
<feColorMatrix in="SourceAlpha" type="matrix" values="0 0 0 0 0 0 0 0 0 0 0 0 0 0 0 0 0 0 127 0" result="hardAlpha"/>
<feOffset dy="-2.41595"/>
<feComposite in2="hardAlpha" operator="out"/>
<feColorMatrix type="matrix" values="0 0 0 0 0.921569 0 0 0 0 0.176471 0 0 0 0 1 0 0 0 0.25 0"/>
<feBlend mode="normal" in2="BackgroundImageFix" result="effect1_dropShadow_2059_3990"/>
<feBlend mode="normal" in="SourceGraphic" in2="effect1_dropShadow_2059_3990" result="shape"/>
</filter>
<filter id="filter1_d_2059_3990" x="31.5264" y="13.3795" width="27.3623" height="32.1401" filterUnits="userSpaceOnUse" color-interpolation-filters="sRGB">
<feFlood flood-opacity="0" result="BackgroundImageFix"/>
<feColorMatrix in="SourceAlpha" type="matrix" values="0 0 0 0 0 0 0 0 0 0 0 0 0 0 0 0 0 0 127 0" result="hardAlpha"/>
<feOffset dy="-2.41595"/>
<feComposite in2="hardAlpha" operator="out"/>
<feColorMatrix type="matrix" values="0 0 0 0 0.921569 0 0 0 0 0.176471 0 0 0 0 1 0 0 0 0.25 0"/>
<feBlend mode="normal" in2="BackgroundImageFix" result="effect1_dropShadow_2059_3990"/>
<feBlend mode="normal" in="SourceGraphic" in2="effect1_dropShadow_2059_3990" result="shape"/>
</filter>
<filter id="filter2_d_2059_3990" x="24.0859" y="13.9507" width="13.6543" height="30.6469" filterUnits="userSpaceOnUse" color-interpolation-filters="sRGB">
<feFlood flood-opacity="0" result="BackgroundImageFix"/>
<feColorMatrix in="SourceAlpha" type="matrix" values="0 0 0 0 0 0 0 0 0 0 0 0 0 0 0 0 0 0 127 0" result="hardAlpha"/>
<feOffset dy="-2.41595"/>
<feComposite in2="hardAlpha" operator="out"/>
<feColorMatrix type="matrix" values="0 0 0 0 0.921569 0 0 0 0 0.176471 0 0 0 0 1 0 0 0 0.25 0"/>
<feBlend mode="normal" in2="BackgroundImageFix" result="effect1_dropShadow_2059_3990"/>
<feBlend mode="normal" in="SourceGraphic" in2="effect1_dropShadow_2059_3990" result="shape"/>
</filter>
<filter id="filter3_d_2059_3990" x="0" y="6.75641" width="41.1738" height="40.3515" filterUnits="userSpaceOnUse" color-interpolation-filters="sRGB">
<feFlood flood-opacity="0" result="BackgroundImageFix"/>
<feColorMatrix in="SourceAlpha" type="matrix" values="0 0 0 0 0 0 0 0 0 0 0 0 0 0 0 0 0 0 127 0" result="hardAlpha"/>
<feOffset dy="-2.41595"/>
<feComposite in2="hardAlpha" operator="out"/>
<feColorMatrix type="matrix" values="0 0 0 0 0.921569 0 0 0 0 0.176471 0 0 0 0 1 0 0 0 0.25 0"/>
<feBlend mode="normal" in2="BackgroundImageFix" result="effect1_dropShadow_2059_3990"/>
<feBlend mode="normal" in="SourceGraphic" in2="effect1_dropShadow_2059_3990" result="shape"/>
</filter>
</defs>
</svg>
