<svg width="76" height="76" viewBox="0 0 76 76" fill="none" xmlns="http://www.w3.org/2000/svg">
<g clip-path="url(#clip0_14_3048)">
<path d="M37.8715 75.7446C58.7878 75.7446 75.7438 58.7886 75.7438 37.8723C75.7438 16.956 58.7878 0 37.8715 0C16.9553 0 -0.000732422 16.956 -0.000732422 37.8723C-0.000732422 58.7886 16.9553 75.7446 37.8715 75.7446Z" fill="white"/>
<path d="M41.6666 16.3735C41.334 16.3148 39.7299 16.0409 37.852 16.0409C35.974 16.0409 34.3699 16.3148 34.0373 16.3735C33.8417 16.4126 33.783 16.217 33.92 16.1192C34.0569 16.0214 37.852 13.1262 37.852 13.1262L41.7839 16.1192C41.9404 16.217 41.8622 16.4126 41.6666 16.3735ZM35.1133 35.114C35.1133 35.114 34.9176 35.1923 34.8589 35.3683C35.661 35.9748 36.2087 37.3637 37.852 37.3637C39.5147 37.3637 40.0625 35.9748 40.845 35.3683C40.7863 35.1923 40.5907 35.114 40.5907 35.114C40.5907 35.114 39.5539 35.3683 37.852 35.3683C36.15 35.3683 35.1133 35.114 35.1133 35.114ZM37.8715 32.7861C37.402 32.7861 37.3042 32.6101 36.9912 32.6101C36.6978 32.6101 36.1109 32.8448 35.9936 33.06C35.9936 33.1774 36.0522 33.2752 36.1305 33.3534C36.7956 33.4512 37.1086 33.8229 37.8911 33.8229C38.6736 33.8229 38.967 33.4512 39.6517 33.3534C39.7299 33.2556 39.769 33.1578 39.7886 33.06C39.6712 32.8448 39.0844 32.6101 38.7909 32.6101C38.4193 32.6101 38.3214 32.7861 37.8715 32.7861ZM75.6655 39.9459C75.6264 40.8457 75.5286 41.7456 75.4308 42.6259C71.1467 43.3301 69.6208 39.5155 65.2194 39.7111C65.4737 40.6501 65.6889 41.5891 65.8649 42.5672C69.4839 42.5672 70.9511 45.9514 74.9809 45.4428C74.7657 46.4796 74.5114 47.4968 74.2179 48.5141C71.0293 48.8271 69.9143 45.658 66.217 45.7558C66.2562 46.284 66.2562 46.8122 66.2562 47.3404L66.2366 48.2206L73.3963 50.9593C73.0247 51.9766 72.5943 52.9742 72.1444 53.9523C69.9925 53.835 69.2492 51.0767 65.9823 51.2919C65.8845 51.9961 65.7671 52.7004 65.6106 53.385C68.4471 53.1894 69.0731 55.8107 71.1076 56.0064C70.5794 56.9454 70.0317 57.8648 69.4448 58.7646C68.2319 58.1191 67.1951 56.1629 64.9064 56.0455C65.1411 55.3217 65.3563 54.5783 65.5128 53.835C63.4783 53.835 61.17 53.0525 59.2138 51.2723C59.8398 47.6729 54.2646 44.0148 54.2646 41.3935C54.2646 38.5374 55.7122 36.9529 55.7122 33.0991C55.7122 30.243 54.3233 27.1327 52.2301 25.02C51.8193 24.6092 51.4085 24.2766 50.939 23.9832C52.8561 26.3697 54.3428 29.1867 54.3428 32.4536C54.3428 36.0726 52.6605 37.9897 52.6605 41.3348C52.6605 44.6799 57.551 47.5751 57.551 51.0376C57.551 52.3874 57.1207 53.7176 55.6926 56.3194C57.8836 58.5103 60.7592 59.7036 62.598 59.7036C63.2045 59.7036 63.5175 59.5276 63.7326 59.0581C63.9087 58.6473 64.0848 58.2365 64.2608 57.8257C66.2562 57.9039 67.156 59.7036 68.2711 60.4274C67.6646 61.2295 67.0386 62.0315 66.3735 62.7749C65.6302 61.9533 64.6521 60.5839 63.1849 60.1927C62.9306 60.7013 62.6567 61.1903 62.3633 61.6794C63.6153 62.0119 64.476 63.2835 65.1411 64.1051C64.4173 64.8485 63.674 65.5527 62.911 66.2374C62.422 65.494 61.6786 64.5355 60.8375 64.0073C60.5245 64.4377 60.1919 64.8485 59.8593 65.2397C60.5831 65.7288 61.2091 66.609 61.6199 67.3133C60.7201 68.0371 59.8007 68.7022 58.8421 69.3477C58.3726 65.494 53.13 62.8727 54.5384 58.4125C54.069 59.195 53.5212 60.1731 53.5212 61.3664C53.5212 64.5941 56.9642 67.1568 57.238 70.365C56.5338 70.7953 55.7904 71.1866 55.0471 71.5778C54.9297 68.0566 51.2716 64.1833 51.2716 61.2881C51.2716 58.0604 55.497 54.8131 55.497 50.9985C55.497 47.1839 50.6065 44.543 50.6065 41.1783C50.6065 37.8332 52.68 35.8965 52.68 31.6124C52.68 28.4629 51.1933 25.2938 48.885 23.2594C48.4742 22.9073 48.0829 22.6138 47.5939 22.3595C49.7653 24.9613 51.0368 27.3479 51.0368 30.9277C51.0368 34.9575 48.6502 37.2072 48.6502 41.1587C48.6502 45.1103 53.443 47.3208 53.443 50.9985C53.443 54.6762 48.9828 57.7865 48.9828 61.5816C48.9828 65.0245 52.9148 68.4674 52.9735 72.5559C52.1127 72.9276 51.2324 73.2797 50.3522 73.5927C50.8608 69.4651 46.4202 65.2006 46.4202 61.8359C46.4202 58.1582 51.0564 54.9891 51.0564 51.018C51.0564 47.0469 46.3419 45.2081 46.3419 41.1196C46.3419 37.0507 49.2371 34.7815 49.2371 30.2822C49.2371 26.7806 47.4961 23.6115 44.9726 21.6553L44.8161 21.5379C44.5813 21.3618 44.3857 21.577 44.5422 21.7922C46.3419 24.0223 47.3005 26.2915 47.3005 29.6366C47.3005 33.7642 43.9945 37.1094 43.9945 41.1C43.9945 45.8145 48.4546 47.1643 48.4546 51.018C48.4546 54.8718 43.6815 57.9626 43.6815 62.0706C43.6815 65.8657 48.2003 70.0911 47.4178 74.4926C46.518 74.7273 45.5986 74.9229 44.6596 75.099C45.5007 69.6412 41.0797 65.7092 41.0797 62.1293C41.0797 58.256 46.0289 54.8131 46.0289 51.018C46.0289 47.4577 42.4882 46.284 42.0187 42.6259C41.96 42.1368 41.5492 41.7651 41.0015 41.8434C40.2777 41.9803 39.3582 42.4498 37.9106 42.4498C36.463 42.4498 35.5436 41.9803 34.8198 41.8434C34.2721 41.7456 33.8613 42.1173 33.8026 42.6259C33.3331 46.284 29.7924 47.4382 29.7924 51.018C29.7924 54.7935 34.7416 58.256 34.7416 62.1293C34.7416 65.7092 30.301 69.6412 31.1617 75.099C30.2227 74.9229 29.3033 74.7273 28.4034 74.4926C27.621 70.1107 32.1398 65.8852 32.1398 62.0706C32.1398 57.9626 27.3667 54.8718 27.3667 51.018C27.3667 47.1447 31.8268 45.8145 31.8268 41.1C31.8268 37.1094 28.5013 33.7642 28.5013 29.6366C28.5013 26.2915 29.4598 24.0223 31.2595 21.7922C31.4356 21.577 31.24 21.3618 30.9856 21.5379L30.8292 21.6553C28.3056 23.6115 26.5646 26.761 26.5646 30.2822C26.5646 34.7815 29.4598 37.0507 29.4598 41.1196C29.4598 45.1885 24.7453 47.0469 24.7453 51.018C24.7453 54.9891 29.3816 58.1582 29.3816 61.8359C29.3816 65.2006 24.9605 69.4651 25.4496 73.5927C24.5497 73.2797 23.689 72.9472 22.8282 72.5559C22.8869 68.4674 26.8189 65.0245 26.8189 61.5816C26.8189 57.7865 22.3587 54.6957 22.3587 50.9985C22.3587 47.3012 27.1515 45.1103 27.1515 41.1587C27.1515 37.2072 24.7649 34.9575 24.7649 30.9277C24.7649 27.3283 26.0169 24.9613 28.2078 22.3595C27.7188 22.6138 27.3275 22.8877 26.9167 23.2594C24.6084 25.2938 23.1217 28.4825 23.1217 31.6124C23.1217 35.8965 25.1953 37.8332 25.1953 41.1783C25.1953 44.5234 20.3047 47.1643 20.3047 50.9985C20.3047 54.8131 24.5301 58.0604 24.5301 61.2881C24.5301 64.1833 20.8916 68.0371 20.7547 71.5778C20.0113 71.2061 19.2875 70.7953 18.5637 70.365C18.8376 67.1568 22.2805 64.5941 22.2805 61.3664C22.2805 60.1731 21.7328 59.195 21.2633 58.4125C22.6717 62.8727 17.4291 65.5136 16.9596 69.3477C16.0011 68.7022 15.0816 68.0371 14.1818 67.3133C14.5926 66.609 15.2186 65.7288 15.9424 65.2397C15.6098 64.8485 15.2773 64.4377 14.9643 64.0073C14.1231 64.5159 13.3602 65.4744 12.8907 66.2374C12.1278 65.5527 11.3844 64.8485 10.6606 64.1051C11.3257 63.2835 12.1864 62.0119 13.4384 61.6794C13.145 61.1903 12.8711 60.7013 12.6168 60.1927C11.1692 60.5839 10.1715 61.9533 9.42818 62.7749C8.76307 62.0119 8.11752 61.2295 7.53065 60.4274C8.62613 59.7036 9.54555 57.9039 11.5409 57.8257C11.717 58.2365 11.8734 58.6473 12.0691 59.0581C12.2843 59.5276 12.5972 59.7036 13.2037 59.7036C15.0425 59.7036 17.9181 58.5103 20.1091 56.3194C18.6811 53.7176 18.2507 52.3874 18.2507 51.0376C18.2507 47.5947 23.1412 44.6995 23.1412 41.3348C23.1412 37.9701 21.4589 36.0726 21.4589 32.4536C21.4589 29.1867 22.926 26.3697 24.8627 23.9832C24.3932 24.2766 23.9628 24.6092 23.5716 25.02C21.4785 27.1327 20.0895 30.243 20.0895 33.0991C20.0895 36.9529 21.5371 38.5374 21.5371 41.3935C21.5371 44.0148 15.9619 47.6729 16.5879 51.2723C14.6513 53.0525 12.3234 53.835 10.2889 53.835C10.465 54.5783 10.6802 55.3217 10.8953 56.0455C8.60657 56.1629 7.56978 58.1191 6.35693 58.7646C5.77006 57.8648 5.20276 56.9454 4.69415 56.0064C6.72861 55.7912 7.33503 53.1699 10.1911 53.385C10.0346 52.7004 9.91723 51.9961 9.81942 51.2919C6.55255 51.0767 5.80919 53.835 3.65735 53.9523C3.20742 52.9742 2.77706 51.9766 2.40538 50.9593L9.56512 48.2206L9.54555 47.3404C9.54555 46.8122 9.56512 46.284 9.58468 45.7558C5.907 45.6776 4.77239 48.8271 1.58377 48.5141C1.29034 47.5164 1.03603 46.4796 0.820845 45.4428C4.85064 45.9319 6.29824 42.5476 9.9368 42.5672C10.0933 41.5891 10.3085 40.6501 10.5823 39.7111C6.20043 39.5155 4.65502 43.3301 0.370916 42.6259C0.253543 41.7456 0.175294 40.8457 0.13617 39.9459C5.12451 40.4936 6.98292 36.4051 11.5213 36.9137C11.9517 35.8378 12.4407 34.7815 13.0081 33.7642C7.31547 32.7666 5.39838 37.5202 0.0970459 36.7964C0.586099 16.3735 17.3117 0 37.8715 0C58.4313 0 75.1374 16.3735 75.7047 36.7768C70.4033 37.5006 68.4862 32.747 62.7937 33.7447C63.361 34.7619 63.85 35.7987 64.2804 36.8942C68.8188 36.4051 70.6968 40.4936 75.6655 39.9459ZM21.5958 24.0614C18.7984 22.9268 15.4338 23.1811 12.5581 25.0395C12.1082 22.3595 10.6606 19.9729 8.58701 18.5449C8.29358 18.3493 8.00015 18.5253 8.01971 18.8579C8.45007 24.5309 5.14407 29.441 1.07515 33.7642C5.28101 35.0358 8.84132 29.6171 14.2992 31.5146C16.2358 28.5998 18.7202 26.0763 21.5958 24.0614ZM37.8715 20.638C34.3503 20.638 31.416 22.6334 30.6335 25.196C30.5748 25.3916 30.6531 25.5286 30.8878 25.4112C31.5138 25.1178 32.2376 25.0004 33.0201 25.0004C34.4481 25.0004 35.7197 25.5286 36.463 26.448C36.7956 27.5435 36.8152 29.1084 36.4435 30.0279C35.8566 29.8909 35.6414 29.441 35.0546 29.441C34.4677 29.441 34.0373 29.8518 33.0592 29.8518C32.0811 29.8518 31.9638 29.3823 31.3182 29.3823C30.5553 29.3823 30.4183 30.1648 30.4183 31.0451C30.4183 34.9575 34.0178 40.3567 37.852 40.3567C41.6861 40.3567 45.2856 34.9771 45.2856 31.0451C45.2856 30.1648 45.1095 29.4214 44.3075 29.3041C43.9162 29.5975 43.5445 29.8322 42.6447 29.8322C41.6666 29.8322 41.3927 29.4214 40.8254 29.4214C40.1212 29.4214 40.1994 30.8886 39.3778 30.9668C38.8301 29.6366 38.8105 27.9543 39.2604 26.4284C40.0038 25.509 41.2753 24.9808 42.7034 24.9808C43.4858 24.9808 44.2096 25.1178 44.8356 25.3916C45.0704 25.4895 45.1486 25.3721 45.0899 25.1765C44.327 22.6138 41.3731 20.638 37.8715 20.638ZM43.4663 26.2524C42.6251 26.2524 41.6274 26.5067 41.021 27.2109C40.9623 27.4065 40.9623 27.6804 41.0406 27.8565C42.5664 27.3283 43.9162 27.3087 44.5618 28.0325C44.9139 27.7195 45.0117 27.4261 45.0117 27.1131C45.0117 26.6045 44.5031 26.2524 43.4663 26.2524ZM31.1617 28.0325C31.9051 27.2892 33.4505 27.3283 35.0741 27.9152C35.1524 27.1131 33.7048 26.2328 32.2767 26.2328C31.24 26.2328 30.7118 26.5849 30.7118 27.0935C30.7118 27.4457 30.8096 27.7195 31.1617 28.0325ZM55.3992 14.789C52.6214 14.9846 50.2152 15.9431 48.259 17.5277C49.0806 15.1802 50.137 13.1262 51.4672 11.1309C47.9265 11.5025 44.9726 12.7936 42.8207 15.0042L41.1384 10.5831L44.8748 7.27711L39.8669 6.92499L37.8715 2.26921L35.8762 6.92499L30.8683 7.27711L34.6046 10.5831L32.9223 15.0042C30.7705 12.7936 27.8166 11.5025 24.2758 11.1309C25.6061 13.1262 26.6624 15.1802 27.484 17.5277C25.5278 15.9431 23.1217 14.9846 20.3438 14.789C22.0066 16.9212 23.4934 19.21 24.5693 21.6553C24.6866 21.9291 24.9605 22.027 25.2539 21.8705C29.049 19.9729 33.3331 18.9166 37.8715 18.9166C42.4099 18.9166 46.694 19.9729 50.4891 21.8705C50.7825 22.0074 51.0368 21.9291 51.1542 21.6553C52.2497 19.21 53.7168 16.9212 55.3992 14.789ZM61.4439 31.5146C66.8822 29.6366 70.462 35.0358 74.6679 33.7642C70.599 29.441 67.2734 24.5113 67.7233 18.8579C67.7429 18.5253 67.4495 18.3297 67.156 18.5449C65.0824 19.9729 63.6348 22.3595 63.1849 25.0395C60.3093 23.1811 56.925 22.9268 54.1472 24.0614C57.0033 26.0763 59.4877 28.5998 61.4439 31.5146Z" fill="#006341"/>
<path d="M66.3736 70.6973H64.4565V75.8813H63.7718V70.6973H61.8547V70.0518H66.3931V70.6973H66.3736ZM67.1952 70.0518H68.2124L70.1882 74.6097H70.2078L72.2031 70.0518H73.2008V75.8813H72.4965V70.9907H72.477L70.3838 75.8813H69.973L67.8799 70.9907V75.8813H67.1952V70.0518Z" fill="#006341"/>
</g>
<defs>
<clipPath id="clip0_14_3048">
<rect width="75.725" height="75.8815" fill="white"/>
</clipPath>
</defs>
</svg>
