<svg width="155" height="35" viewBox="0 0 155 35" fill="none" xmlns="http://www.w3.org/2000/svg">
<g clip-path="url(#clip0_14_3059)">
<path fill-rule="evenodd" clip-rule="evenodd" d="M152.813 14.1902C151.604 14.1902 150.634 13.2138 150.634 12.0071C150.634 10.8084 151.604 9.82397 152.813 9.82397C154.022 9.82397 155 10.8084 155 12.0071C155 13.2138 154.022 14.1902 152.813 14.1902ZM152.813 10.2209C151.834 10.2209 151.047 11.0147 151.047 12.0071C151.047 12.9994 151.834 13.7933 152.813 13.7933C153.783 13.7933 154.586 12.9994 154.586 12.0071C154.586 11.0147 153.783 10.2209 152.813 10.2209ZM152.487 12.3564V13.2534H151.97V10.7607H152.957C153.441 10.7607 153.847 11.0147 153.847 11.5467C153.847 11.9197 153.648 12.15 153.369 12.2611L153.887 13.2534H153.322L152.868 12.3564H152.487ZM153.322 11.5625C153.322 11.3164 153.115 11.2529 152.916 11.2529H152.487V11.8722H152.924C153.115 11.8722 153.322 11.7927 153.322 11.5625Z" fill="white"/>
<path fill-rule="evenodd" clip-rule="evenodd" d="M64.5966 26.1976L57.1304 14.9983V26.1976H53.8121V9.9586H57.6489L64.7003 20.5564V9.9586H68.0186V26.1976H64.5966ZM69.9954 20.6809C69.9954 17.3833 72.7123 14.8738 76.0721 14.8738C79.4111 14.8738 82.0865 17.3211 82.0865 20.6187C82.0865 23.9577 79.3697 26.4464 76.0306 26.4464C72.6708 26.4464 69.9954 24.0199 69.9954 20.6809ZM73.3138 20.6394C73.3138 22.3193 74.5374 23.4807 76.0514 23.4807C77.5653 23.4807 78.7682 22.3193 78.7682 20.6394C78.7682 18.9803 77.5446 17.8188 76.0306 17.8188C74.5166 17.8188 73.3138 18.9803 73.3138 20.6394ZM90.0188 15.1227V18.2958C89.5833 18.2129 89.127 18.2129 88.9818 18.2129C87.4264 18.2129 86.3479 19.2913 86.3479 21.3445V26.1976H83.1748V15.1227H86.2442V16.7404H86.2857C86.8872 15.4753 88.0071 14.9983 89.1478 14.9983C89.3966 14.9983 89.7907 15.0605 90.0188 15.1227ZM99.3636 26.1976V24.7873H99.3221C98.2851 26.3013 96.626 26.405 95.8793 26.405C92.6647 26.405 90.6115 23.6259 90.6115 20.6394C90.6115 17.8396 92.7477 14.9153 95.9208 14.9153C96.5638 14.9153 98.0985 15.0398 99.2391 16.3878H99.2806V9.31567H102.495V26.1976H99.3636ZM99.3636 20.6394C99.3636 18.9803 98.1399 17.8396 96.626 17.8396C95.112 17.8396 93.8884 18.9803 93.8884 20.6394C93.8884 22.3193 95.112 23.4807 96.626 23.4807C98.1399 23.4807 99.3636 22.3193 99.3636 20.6394ZM109.371 26.1976L103.502 9.9586H107.131L111.341 22.2986L115.572 9.9586H119.139L113.249 26.1976H109.371ZM132.361 15.1642C132.361 18.7521 129.831 20.4735 126.43 20.4735H123.879V26.1976H120.519V9.9586H126.554C129.81 9.9586 132.361 11.7214 132.361 15.1642ZM128.981 15.2472C128.981 13.671 127.653 13.1317 126.264 13.1317H123.879V17.3418H126.285C127.612 17.3418 128.981 16.7611 128.981 15.2472ZM144.837 26.1976L137.37 14.9983V26.1976H134.052V9.9586H137.889L144.94 20.5564V9.9586H148.259V26.1976H144.837Z" fill="white"/>
<path fill-rule="evenodd" clip-rule="evenodd" d="M4.15557 34.9296C1.4454 31.1677 -0.00880129 26.6465 4.0078e-05 22.01C4.0078e-05 9.85451 9.77378 0 21.831 0C33.8882 0 43.662 9.85451 43.662 22.01C43.671 26.6466 42.2169 31.1678 39.5064 34.9296L29.021 17.7628L28.0092 19.4874L29.0352 24.2793L21.831 11.852L17.3742 19.4394L18.4112 24.2815L14.6344 17.7737L4.15557 34.9296Z" fill="white"/>
</g>
<defs>
<clipPath id="clip0_14_3059">
<rect width="155" height="34.9296" fill="white"/>
</clipPath>
</defs>
</svg>
