<svg width="156" height="49" viewBox="0 0 156 49" fill="none" xmlns="http://www.w3.org/2000/svg">
<g clip-path="url(#clip0_14_2432)">
<path d="M82.1627 12.2246C82.1627 13.9779 80.7503 15.3903 78.997 15.3903C77.2437 15.3903 75.8313 13.9779 75.8313 12.2246C75.8313 10.4713 77.195 9.05886 78.997 9.05886C80.799 9.10756 82.1627 10.52 82.1627 12.2246ZM69.1102 18.6048C69.1102 18.897 69.1102 19.384 69.1102 19.384C69.1102 19.384 67.6004 17.4359 64.386 17.4359C59.0773 17.4359 54.9375 21.4783 54.9375 27.0792C54.9375 32.6314 59.0286 36.7225 64.386 36.7225C67.6491 36.7225 69.1102 34.7256 69.1102 34.7256V35.5536C69.1102 35.9432 69.4024 36.2354 69.792 36.2354H73.737V17.9229C73.737 17.9229 70.133 17.9229 69.792 17.9229C69.4024 17.9229 69.1102 18.2638 69.1102 18.6048ZM69.1102 30.3423C68.3796 31.4138 66.9185 32.3391 65.1652 32.3391C62.0482 32.3391 59.6617 30.391 59.6617 27.0792C59.6617 23.7673 62.0482 21.8192 65.1652 21.8192C66.8698 21.8192 68.4283 22.7933 69.1102 23.816V30.3423ZM76.6592 17.9229H81.3348V36.2354H76.6592V17.9229ZM146.5 17.4359C143.286 17.4359 141.776 19.384 141.776 19.384V9.10756H137.1V36.2354C137.1 36.2354 140.704 36.2354 141.045 36.2354C141.435 36.2354 141.727 35.8945 141.727 35.5536V34.7256C141.727 34.7256 143.237 36.7225 146.451 36.7225C151.76 36.7225 155.9 32.6314 155.9 27.0792C155.9 21.527 151.76 17.4359 146.5 17.4359ZM145.721 32.2904C143.919 32.2904 142.506 31.3651 141.776 30.2936V23.7673C142.506 22.7933 144.065 21.7705 145.721 21.7705C148.838 21.7705 151.224 23.7186 151.224 27.0305C151.224 30.3423 148.838 32.2904 145.721 32.2904ZM134.665 25.3745V36.2841H129.99V25.9103C129.99 22.8907 129.016 21.6731 126.386 21.6731C124.973 21.6731 123.512 22.4036 122.587 23.4751V36.2354H117.911V17.9229H121.613C122.002 17.9229 122.294 18.2638 122.294 18.6048V19.384C123.658 17.9716 125.46 17.4359 127.262 17.4359C129.308 17.4359 131.012 18.0203 132.376 19.1892C134.032 20.5529 134.665 22.3062 134.665 25.3745ZM106.563 17.4359C103.349 17.4359 101.839 19.384 101.839 19.384V9.10756H97.1634V36.2354C97.1634 36.2354 100.767 36.2354 101.108 36.2354C101.498 36.2354 101.79 35.8945 101.79 35.5536V34.7256C101.79 34.7256 103.3 36.7225 106.515 36.7225C111.823 36.7225 115.963 32.6314 115.963 27.0792C116.012 21.527 111.872 17.4359 106.563 17.4359ZM105.784 32.2904C103.982 32.2904 102.57 31.3651 101.839 30.2936V23.7673C102.57 22.7933 104.128 21.7705 105.784 21.7705C108.901 21.7705 111.287 23.7186 111.287 27.0305C111.287 30.3423 108.901 32.2904 105.784 32.2904ZM93.121 17.4359C94.5334 17.4359 95.264 17.6794 95.264 17.6794V22.014C95.264 22.014 91.3677 20.699 88.9325 23.4751V36.2841H84.257V17.9229C84.257 17.9229 87.8611 17.9229 88.202 17.9229C88.5916 17.9229 88.8838 18.2638 88.8838 18.6048V19.384C89.7605 18.3612 91.6599 17.4359 93.121 17.4359ZM44.5636 34.5795C44.3201 33.9951 44.0766 33.3619 43.8331 32.8262C43.4434 31.9495 43.0538 31.1216 42.7129 30.3423L42.6642 30.2936C39.3036 22.9881 35.6996 15.5851 31.9007 8.2796L31.7546 7.98738C31.365 7.25683 30.9753 6.47757 30.5857 5.69831C30.0987 4.82165 29.6116 3.89628 28.8324 3.01962C27.2739 1.07148 25.0335 0 22.647 0C20.2118 0 18.0202 1.07148 16.413 2.92221C15.6824 3.79888 15.1467 4.72424 14.6596 5.60091C14.27 6.38016 13.8804 7.15942 13.4908 7.88997L13.3446 8.18219C9.59447 15.4877 5.94171 22.8907 2.58117 30.1962L2.53246 30.2936C2.19154 31.0729 1.80191 31.9008 1.41228 32.7775C1.16876 33.3132 0.925245 33.8977 0.681727 34.5308C0.0485813 36.3328 -0.146233 38.0375 0.0972848 39.7908C0.633024 43.4436 3.0682 46.5119 6.42874 47.8756C7.69504 48.4113 9.01003 48.6548 10.3737 48.6548C10.7634 48.6548 11.2504 48.6061 11.64 48.5574C13.2472 48.3626 14.9032 47.8269 16.5104 46.9015C18.5072 45.7813 20.4067 44.1741 22.5496 41.8363C24.6926 44.1741 26.6407 45.7813 28.5889 46.9015C30.1961 47.8269 31.852 48.3626 33.4592 48.5574C33.8488 48.6061 34.3359 48.6548 34.7255 48.6548C36.0892 48.6548 37.4529 48.4113 38.6705 47.8756C42.0797 46.5119 44.4662 43.3948 45.0019 39.7908C45.3916 38.0862 45.1968 36.3815 44.5636 34.5795ZM22.5983 37.1121C19.9683 33.8003 18.2637 30.6832 17.6793 28.0532C17.4357 26.9331 17.387 25.959 17.5332 25.0823C17.6306 24.3031 17.9228 23.6212 18.3124 23.0368C19.2378 21.7218 20.7963 20.8938 22.5983 20.8938C24.4004 20.8938 26.0076 21.6731 26.8842 23.0368C27.2739 23.6212 27.5661 24.3031 27.6635 25.0823C27.8096 25.959 27.7609 26.9818 27.5174 28.0532C26.9329 30.6345 25.2283 33.7515 22.5983 37.1121ZM42.031 39.4012C41.6901 41.9337 39.9855 44.1254 37.599 45.0995C36.4301 45.5865 35.1638 45.7326 33.8975 45.5865C32.6799 45.4404 31.4624 45.0508 30.1961 44.3202C28.4427 43.3461 26.6894 41.8363 24.6439 39.596C27.8583 35.651 29.8064 32.0469 30.537 28.8325C30.8779 27.3227 30.9266 25.959 30.7805 24.6927C30.5857 23.4751 30.1474 22.3549 29.4655 21.3809C27.9557 19.1892 25.4231 17.9229 22.5983 17.9229C19.7735 17.9229 17.2409 19.2379 15.7311 21.3809C15.0493 22.3549 14.6109 23.4751 14.4161 24.6927C14.2213 25.959 14.27 27.3714 14.6596 28.8325C15.3902 32.0469 17.387 35.6997 20.5528 39.6447C18.5559 41.885 16.7539 43.3949 15.0006 44.3689C13.7343 45.0995 12.5167 45.4891 11.2991 45.6352C9.9841 45.7813 8.71781 45.5865 7.59763 45.1482C5.21116 44.1741 3.50653 41.9824 3.16561 39.4499C3.0195 38.2323 3.1169 37.0147 3.60394 35.651C3.75005 35.164 3.99357 34.6769 4.23709 34.0925C4.57801 33.3132 4.96764 32.4853 5.35727 31.6573L5.40597 31.5599C8.76651 24.3031 12.3706 16.9001 16.1207 9.692L16.2669 9.39978C16.6565 8.66923 17.0461 7.88997 17.4357 7.15942C17.8254 6.38016 18.2637 5.64961 18.7994 5.01646C19.8222 3.84758 21.1859 3.21443 22.6957 3.21443C24.2055 3.21443 25.5692 3.84758 26.592 5.01646C27.1277 5.64961 27.5661 6.38016 27.9557 7.15942C28.3453 7.88997 28.735 8.66923 29.1246 9.39978L29.2707 9.692C32.9722 16.9488 36.5762 24.3518 39.9368 31.6086V31.6573C40.3264 32.4366 40.6673 33.3132 41.057 34.0925C41.3005 34.6769 41.544 35.164 41.6901 35.651C42.0797 36.9173 42.2258 38.1349 42.031 39.4012Z" fill="white"/>
</g>
<defs>
<clipPath id="clip0_14_2432">
<rect width="155.9" height="48.6548" fill="white"/>
</clipPath>
</defs>
</svg>
