<svg width="47" height="47" viewBox="0 0 47 47" fill="none" xmlns="http://www.w3.org/2000/svg">
<path d="M27.2476 3.05762L27.2288 12.1021L27.21 21.1464L26.3468 19.0469V19.0416L25.2269 39.1762C26.328 41.8464 26.9161 43.2731 26.9223 43.2784C26.9286 43.2838 27.5541 43.3161 28.3111 43.3484C30.6008 43.4453 33.4412 43.6553 35.5995 43.8868C36.1 43.9407 36.5254 43.9675 36.5567 43.946C36.588 43.9245 36.5943 34.7185 36.588 23.483L36.5692 3.05762H27.2476Z" fill="url(#paint0_linear_7_1426)"/>
<path d="M10.385 3.03076V23.4778C10.385 34.724 10.3975 43.9354 10.4163 43.9515C10.4351 43.9677 11.2421 43.8978 12.2181 43.8062C13.194 43.7147 14.5391 43.5962 15.2085 43.5478C16.2344 43.4725 19.3125 43.3055 19.6628 43.3001C19.7693 43.3001 19.7754 42.8425 19.788 34.6379L19.8067 25.9756L20.5512 27.7847C20.6638 28.0645 20.7014 28.1507 20.814 28.4252L21.9339 8.29593C21.696 7.7199 21.8213 8.02138 21.5521 7.36458C20.6388 5.14115 19.8631 3.26226 19.8318 3.17612L19.7693 3.02539H10.385V3.03076Z" fill="url(#paint1_linear_7_1426)"/>
<path d="M10.385 3.03076L19.8005 25.9918V25.9809L20.545 27.7898C24.6803 37.8625 26.9013 43.2677 26.9137 43.2784C26.92 43.2838 27.5456 43.3161 28.3026 43.3484C30.5924 43.4453 33.4326 43.6552 35.5911 43.8868C36.0853 43.9405 36.5169 43.9675 36.542 43.9459L27.2078 21.1411V21.1465L26.3444 19.047C25.4999 16.9957 24.9369 15.623 21.5398 7.36455C20.6263 5.14113 19.8506 3.26226 19.8193 3.17612L19.7568 3.02539H15.071L10.385 3.03076Z" fill="#E30A17"/>
<defs>
<linearGradient id="paint0_linear_7_1426" x1="40.7922" y1="33.6353" x2="25.8727" y2="40.1876" gradientUnits="userSpaceOnUse">
<stop stop-color="#B20610"/>
<stop offset="0.255959" stop-color="#B20610"/>
<stop offset="1" stop-color="#590004"/>
</linearGradient>
<linearGradient id="paint1_linear_7_1426" x1="5.86075" y1="11.9965" x2="21.9958" y2="4.99244" gradientUnits="userSpaceOnUse">
<stop stop-color="#B20610"/>
<stop offset="0.255959" stop-color="#B20610"/>
<stop offset="1" stop-color="#590004"/>
</linearGradient>
</defs>
</svg>
