<svg width="58" height="58" viewBox="0 0 58 58" fill="none" xmlns="http://www.w3.org/2000/svg">
<path d="M33.6391 3.77478L33.6159 14.9408L33.5927 26.1066L32.527 23.5146V23.5081L31.1444 48.3656C32.5038 51.6622 33.2299 53.4236 33.2375 53.4301C33.2453 53.4368 34.0176 53.4767 34.9521 53.5165C37.7789 53.6362 41.2855 53.8954 43.9501 54.1812C44.568 54.2477 45.0932 54.2809 45.1318 54.2542C45.1704 54.2278 45.1782 42.8623 45.1704 28.9912L45.1472 3.77478H33.6391Z" fill="url(#paint0_linear_1_1002)"/>
<path d="M12.8212 3.74137V28.9846C12.8212 42.8689 12.8366 54.2409 12.8598 54.2608C12.883 54.2807 13.8793 54.1945 15.0842 54.0814C16.2891 53.9684 17.9496 53.8222 18.7761 53.7624C20.0427 53.6694 23.8427 53.4633 24.2752 53.4566C24.4066 53.4566 24.4142 52.8916 24.4298 42.7625L24.4528 32.0684L25.3719 34.3017C25.511 34.6472 25.5574 34.7536 25.6964 35.0925L27.079 10.2416C26.7853 9.53043 26.9399 9.90262 26.6077 9.09177C25.4802 6.34679 24.5224 4.02717 24.4838 3.92083L24.4066 3.73474H12.8212V3.74137Z" fill="url(#paint1_linear_1_1002)"/>
<path d="M12.8212 3.74137L24.4452 32.0883V32.0749L25.3643 34.3081C30.4696 46.7435 33.2116 53.4165 33.227 53.4298C33.2348 53.4365 34.0071 53.4764 34.9416 53.5162C37.7685 53.6359 41.275 53.895 43.9397 54.1809C44.5498 54.2472 45.0827 54.2806 45.1137 54.2539L33.59 26.0998V26.1065L32.5241 23.5145C31.4815 20.982 30.7864 19.2874 26.5925 9.09173C25.4647 6.34677 24.507 4.02717 24.4684 3.92083L24.3912 3.73474H18.6063L12.8212 3.74137Z" fill="#E30A17"/>
<defs>
<linearGradient id="paint0_linear_1_1002" x1="50.3609" y1="41.525" x2="31.9417" y2="49.6142" gradientUnits="userSpaceOnUse">
<stop stop-color="#B20610"/>
<stop offset="0.255959" stop-color="#B20610"/>
<stop offset="1" stop-color="#590004"/>
</linearGradient>
<linearGradient id="paint1_linear_1_1002" x1="7.23562" y1="14.8102" x2="27.1554" y2="6.1632" gradientUnits="userSpaceOnUse">
<stop stop-color="#B20610"/>
<stop offset="0.255959" stop-color="#B20610"/>
<stop offset="1" stop-color="#590004"/>
</linearGradient>
</defs>
</svg>
