<svg width="261" height="261" viewBox="0 0 261 261" fill="none" xmlns="http://www.w3.org/2000/svg">
<circle cx="128.855" cy="138.142" r="81.4922" fill="#0D1B35"/>
<circle cx="128.855" cy="138.142" r="80.9922" stroke="#EEEEEE" stroke-opacity="0.05"/>
<circle cx="52.4711" cy="83.1174" r="5.10777" fill="#162A4E"/>
<circle cx="186.898" cy="49.9169" r="9.51903" fill="#162A4E"/>
<circle cx="54.0962" cy="190.613" r="9.05469" fill="#162A4E"/>
<circle cx="216.152" cy="181.79" r="9.05469" fill="#162A4E"/>
<circle cx="198.507" cy="192.006" r="4.41126" fill="#162A4E"/>
<path d="M220.405 153.851L221.827 160.569L228.448 162.011L221.827 163.454L220.405 170.171L218.983 163.454L212.361 162.011L218.983 160.569L220.405 153.851Z" fill="#1B3360"/>
<path d="M211.901 85.2635C212.005 84.7726 212.706 84.7726 212.81 85.2635L213.715 89.5415C213.753 89.7203 213.892 89.8602 214.071 89.8991L218.317 90.8241C218.804 90.9302 218.804 91.6253 218.317 91.7315L214.071 92.6564C213.892 92.6953 213.753 92.8353 213.715 93.014L212.81 97.292C212.706 97.7829 212.005 97.7829 211.901 97.292L210.996 93.014C210.958 92.8353 210.819 92.6953 210.64 92.6564L206.394 91.7315C205.907 91.6253 205.907 90.9302 206.394 90.8241L210.64 89.8991C210.819 89.8602 210.958 89.7203 210.996 89.5415L211.901 85.2635Z" fill="#1B3360"/>
<path d="M43.2878 141.449C43.3917 140.958 44.0924 140.958 44.1963 141.449L45.7485 148.782C45.7864 148.961 45.9255 149.101 46.104 149.14L53.3614 150.721C53.8488 150.827 53.8488 151.522 53.3614 151.628L46.104 153.209C45.9255 153.248 45.7864 153.388 45.7485 153.567L44.1963 160.9C44.0924 161.391 43.3917 161.391 43.2878 160.9L41.7356 153.567C41.6977 153.388 41.5586 153.248 41.3801 153.209L34.1227 151.628C33.6353 151.522 33.6353 150.827 34.1227 150.721L41.3801 149.14C41.5586 149.101 41.6977 148.961 41.7356 148.782L43.2878 141.449Z" fill="#1B3360"/>
<path d="M72.2175 63.4C71.9483 63.3427 71.9483 62.9585 72.2175 62.9013L76.2878 62.0357C76.3859 62.0149 76.4627 61.9384 76.4839 61.8404L77.3603 57.7988C77.4184 57.5309 77.8005 57.5309 77.8586 57.7988L78.735 61.8404C78.7562 61.9384 78.833 62.0149 78.9311 62.0357L83.0014 62.9013C83.2706 62.9585 83.2706 63.3427 83.0014 63.4L78.9311 64.2655C78.833 64.2864 78.7562 64.3629 78.735 64.4609L77.8586 68.5025C77.8005 68.7703 77.4184 68.7703 77.3603 68.5025L76.4839 64.4609C76.4627 64.3629 76.3859 64.2864 76.2878 64.2655L72.2175 63.4Z" fill="#1B3360"/>
<circle cx="145.471" cy="108.471" r="51.621" fill="#DDE2FF" stroke="#C4CBF5" stroke-width="1.69956"/>
<circle cx="145.804" cy="108.192" r="44.1126" fill="#0D1B35"/>
<circle cx="145.804" cy="108.192" r="43.6126" stroke="#EEEEEE" stroke-opacity="0.05"/>
<path d="M78.5869 203.673L106.444 164.983L107.682 164.054L110.468 163.435H114.492L116.658 164.983L118.825 165.911L120.682 168.078L122.23 171.483L98.0869 216.982L95.3012 218.53H91.8964L87.2536 216.982L83.5393 215.435L80.1345 210.792L78.5869 208.935V203.673Z" fill="#DDE2FF"/>
<path d="M127.492 156.625L120.43 168.078" stroke="#C4CBF5" stroke-width="1.69956"/>
<path d="M119.191 152.911L112.382 163.125" stroke="#C4CBF5" stroke-width="1.69956"/>
<path d="M108.301 163.435L78.2773 204.601" stroke="#C4CBF5" stroke-width="1.69956"/>
<path d="M121.92 170.864L97.7774 217.601" stroke="#C4CBF5" stroke-width="1.69956"/>
<path d="M107.682 164.054L108.192 163.77C109.306 163.15 110.587 162.893 111.855 163.037C112.372 163.096 112.881 163.221 113.367 163.408L114.239 163.745L114.533 163.843C116.172 164.389 117.66 165.309 118.882 166.53L119.842 167.49C120.232 167.881 120.573 168.317 120.857 168.791C121.189 169.344 121.44 169.943 121.603 170.568L121.92 171.792" stroke="#C4CBF5" stroke-width="1.69956"/>
<path d="M98.3966 216.982L97.0783 217.575C95.8012 218.15 94.4239 218.468 93.0243 218.512C91.9373 218.546 90.8515 218.414 89.8042 218.121L88.9163 217.873L88.6185 217.772C85.9871 216.879 83.5907 215.405 81.6073 213.458L80.4607 212.333C79.5642 211.454 78.8924 210.371 78.5017 209.178C78.0158 207.693 77.9849 206.096 78.413 204.594L78.5872 203.982" stroke="#C4CBF5" stroke-width="1.69956"/>
<path d="M128 126L163 91" stroke="#C4CBF5" stroke-width="5.12195" stroke-linecap="round"/>
<path d="M163 126L128 91" stroke="#C4CBF5" stroke-width="5.12195" stroke-linecap="round"/>
</svg>
