<svg width="50" height="50" viewBox="0 0 50 50" fill="none" xmlns="http://www.w3.org/2000/svg">
<g clip-path="url(#clip0_1_1022)">
<path d="M1.07994 34.3044C-0.791371 35.6148 -0.444883 37.8725 3.82451 39.2842C8.09392 40.6961 13.0563 40.988 17.4227 40.2016C17.6722 40.2016 17.298 40.2016 17.4227 40.2016V35.7459L13.1811 37.1875C11.5592 37.7117 9.93745 37.8428 8.31565 37.4495C7.06812 37.0564 7.31762 36.2702 8.81467 35.6148L17.4227 32.4697V27.6209L5.44633 31.9456C3.94928 32.4697 2.45223 33.2561 1.07994 34.3044ZM30.0228 14.6472V27.3589C35.1377 29.9798 39.1298 27.3589 39.1298 20.5444C39.1298 13.5988 36.7595 10.4536 29.8981 7.9637C26.2802 6.65322 22.5377 5.4738 18.795 4.6875V42.5605L27.5278 45.3125V13.4677C27.5278 12.0262 27.5278 10.9778 28.5258 11.371C29.8981 11.7641 30.0228 13.2056 30.0228 14.6472ZM46.2408 31.2903C42.623 29.9798 38.7556 29.4556 35.013 29.8488C32.9342 29.9853 30.9834 30.6045 29.0248 31.2903V36.4013L37.1337 33.2561C38.7556 32.7319 40.3773 32.6008 41.9992 32.9939C43.2467 33.387 42.9972 34.1734 41.5002 34.8286L29.0248 39.6773V44.6572L46.2408 37.9737C47.4883 37.4495 48.6111 36.7944 49.6092 35.7459C50.4825 34.4355 50.1081 32.6008 46.2408 31.2903Z" fill="white"/>
</g>
<defs>
<clipPath id="clip0_1_1022">
<rect width="50" height="50" fill="white"/>
</clipPath>
</defs>
</svg>
