<svg width="23" height="23" viewBox="0 0 23 23" fill="none" xmlns="http://www.w3.org/2000/svg">
<g clip-path="url(#clip0_7_1438)">
<path d="M0.485971 15.437C-0.356117 16.0267 -0.200197 17.0426 1.72103 17.6779C3.64226 18.3132 5.87533 18.4446 7.84019 18.0907C7.95248 18.0907 7.78409 18.0907 7.84019 18.0907V16.0857L5.93148 16.7344C5.20166 16.9703 4.47185 17.0293 3.74204 16.8523C3.18066 16.6754 3.29293 16.3216 3.9666 16.0267L7.84019 14.6114V12.4294L2.45085 14.3755C1.77718 14.6114 1.1035 14.9652 0.485971 15.437ZM13.5103 6.59123V12.3115C15.8119 13.4909 17.6084 12.3115 17.6084 9.24497C17.6084 6.11946 16.5418 4.70413 13.4542 3.58367C11.8261 2.99395 10.1419 2.46321 8.45775 2.10938V19.1522L12.3875 20.3906V6.06048C12.3875 5.41179 12.3875 4.94002 12.8366 5.11694C13.4542 5.29385 13.5103 5.94254 13.5103 6.59123ZM20.8084 14.0806C19.1803 13.4909 17.44 13.255 15.7558 13.4319C14.8204 13.4934 13.9425 13.772 13.0612 14.0806V16.3806L16.7102 14.9652C17.44 14.7293 18.1698 14.6704 18.8996 14.8473C19.461 15.0242 19.3487 15.378 18.6751 15.6729L13.0612 17.8548V20.0957L20.8084 17.0882C21.3697 16.8523 21.875 16.5575 22.3241 16.0857C22.7171 15.496 22.5487 14.6704 20.8084 14.0806Z" fill="white"/>
</g>
<defs>
<clipPath id="clip0_7_1438">
<rect width="22.5" height="22.5" fill="white"/>
</clipPath>
</defs>
</svg>
