<svg width="52" height="52" viewBox="0 0 52 52" fill="none" xmlns="http://www.w3.org/2000/svg">
<g clip-path="url(#clip0_7_1565)">
<mask id="mask0_7_1565" style="mask-type:luminance" maskUnits="userSpaceOnUse" x="0" y="0" width="52" height="52">
<path d="M52 0H0V52H52V0Z" fill="white"/>
</mask>
<g mask="url(#mask0_7_1565)">
<path d="M18.3625 33.1499C17.875 32.4999 17.3875 31.3624 16.4125 29.8999C15.925 29.0874 14.4625 27.4624 13.975 26.8124C13.65 26.1624 13.65 25.8374 13.8125 25.1874C13.975 24.2124 14.95 23.3999 16.0875 23.3999C16.9 23.3999 17.7125 24.0499 18.3625 24.5374C18.6875 24.8624 19.175 25.5124 19.5 25.8374C19.825 26.1624 19.825 26.3249 20.15 26.6499C20.475 27.1374 20.6375 27.4624 20.475 26.8124C20.3125 25.9999 20.15 24.6999 19.825 23.3999C19.6625 22.4249 19.5 22.2624 19.3375 21.6124C19.175 20.7999 19.0125 20.3124 18.85 19.4999C18.6875 19.0124 18.525 17.7124 18.3625 17.0624C18.2 16.2499 18.2 14.7874 18.85 14.1374C19.3375 13.6499 20.3125 13.4874 20.9625 13.8124C21.775 14.2999 22.2625 15.4374 22.425 15.9249C22.75 16.7374 23.075 17.8749 23.2375 19.1749C23.5625 20.7999 24.05 23.2374 24.05 23.7249C24.05 23.0749 23.8875 21.9374 24.05 21.2874C24.2125 20.7999 24.5375 20.1499 25.1875 19.9874C25.675 19.8249 26.1625 19.8249 26.65 19.8249C27.1375 19.9874 27.6251 20.3124 27.9501 20.6374C28.6 21.6124 28.6 23.7249 28.6 23.5624C28.7625 22.9124 28.7625 21.6124 29.0875 20.9624C29.25 20.6374 29.9 20.3124 30.225 20.1499C30.7125 19.9874 31.3625 19.9874 31.85 20.1499C32.175 20.1499 32.825 20.6374 32.9875 20.9624C33.3125 21.4499 33.475 23.0749 33.6376 23.7249C33.6376 23.8874 33.8 23.0749 34.125 22.5874C34.775 21.6124 37.05 21.2874 37.2125 23.5624C37.2125 24.6999 37.2125 24.5374 37.2125 25.3499C37.2125 26.1624 37.2125 26.6499 37.2125 27.2999C37.2125 27.9499 37.0501 29.4124 36.8876 30.0624C36.725 30.5499 36.2375 31.6874 35.75 32.3374C35.75 32.3374 33.9625 34.2874 33.8 35.2624C33.6375 36.2374 33.6376 36.2374 33.6376 36.8874C33.6376 37.5374 33.8 38.3499 33.8 38.3499C33.8 38.3499 32.5 38.5124 31.85 38.3499C31.2001 38.1874 30.3876 37.0499 30.225 36.5624C29.9 36.0749 29.4125 36.0749 29.0875 36.5624C28.7625 37.2124 27.95 38.3499 27.3 38.3499C26.1625 38.5124 23.8875 38.3499 22.2625 38.3499C22.2625 38.3499 22.5875 36.7249 21.9375 36.0749C21.45 35.5874 20.6375 34.7749 20.15 34.2874L18.3625 33.1499Z" fill="white"/>
</g>
<mask id="mask1_7_1565" style="mask-type:luminance" maskUnits="userSpaceOnUse" x="0" y="0" width="52" height="52">
<path d="M52 0H0V52H52V0Z" fill="white"/>
</mask>
<g mask="url(#mask1_7_1565)">
<path d="M18.3625 33.1499C17.875 32.4999 17.3875 31.3624 16.4125 29.8999C15.925 29.0874 14.4625 27.4624 13.975 26.8124C13.65 26.1624 13.65 25.8374 13.8125 25.1874C13.975 24.2124 14.95 23.3999 16.0875 23.3999C16.9 23.3999 17.7125 24.0499 18.3625 24.5374C18.6875 24.8624 19.175 25.5124 19.5 25.8374C19.825 26.1624 19.825 26.3249 20.15 26.6499C20.475 27.1374 20.6375 27.4624 20.475 26.8124C20.3125 25.9999 20.15 24.6999 19.825 23.3999C19.6625 22.4249 19.5 22.2624 19.3375 21.6124C19.175 20.7999 19.0125 20.3124 18.85 19.4999C18.6875 19.0124 18.525 17.7124 18.3625 17.0624C18.2 16.2499 18.2 14.7874 18.85 14.1374C19.3375 13.6499 20.3125 13.4874 20.9625 13.8124C21.775 14.2999 22.2625 15.4374 22.425 15.9249C22.75 16.7374 23.075 17.8749 23.2375 19.1749C23.5625 20.7999 24.05 23.2374 24.05 23.7249C24.05 23.0749 23.8875 21.9374 24.05 21.2874C24.2125 20.7999 24.5375 20.1499 25.1875 19.9874C25.675 19.8249 26.1625 19.8249 26.65 19.8249C27.1375 19.9874 27.6251 20.3124 27.9501 20.6374C28.6001 21.6124 28.6 23.7249 28.6 23.5624C28.7625 22.9124 28.7625 21.6124 29.0875 20.9624C29.25 20.6374 29.9 20.3124 30.225 20.1499C30.7125 19.9874 31.3625 19.9874 31.85 20.1499C32.175 20.1499 32.825 20.6374 32.9875 20.9624C33.3125 21.4499 33.4751 23.0749 33.6376 23.7249C33.6376 23.8874 33.8 23.0749 34.125 22.5874C34.775 21.6124 37.05 21.2874 37.2125 23.5624C37.2125 24.6999 37.2125 24.5374 37.2125 25.3499C37.2125 26.1624 37.2125 26.6499 37.2125 27.2999C37.2125 27.9499 37.0501 29.4124 36.8876 30.0624C36.7251 30.5499 36.2375 31.6874 35.75 32.3374C35.75 32.3374 33.9625 34.2874 33.8 35.2624C33.6375 36.2374 33.6376 36.2374 33.6376 36.8874C33.6376 37.5374 33.8 38.3499 33.8 38.3499C33.8 38.3499 32.5 38.5124 31.85 38.3499C31.2 38.1874 30.3875 37.0499 30.225 36.5624C29.9 36.0749 29.4125 36.0749 29.0875 36.5624C28.7625 37.2124 27.95 38.3499 27.3 38.3499C26.1625 38.5124 23.8875 38.3499 22.2625 38.3499C22.2625 38.3499 22.5875 36.7249 21.9375 36.0749C21.45 35.5874 20.6375 34.7749 20.15 34.2874L18.3625 33.1499Z" stroke="black" stroke-width="1.21875" stroke-linecap="round" stroke-linejoin="round"/>
</g>
<mask id="mask2_7_1565" style="mask-type:luminance" maskUnits="userSpaceOnUse" x="0" y="0" width="52" height="52">
<path d="M52 0H0V52H52V0Z" fill="white"/>
</mask>
<g mask="url(#mask2_7_1565)">
<path d="M31.85 33.6376V28.1125" stroke="black" stroke-width="1.21875" stroke-linecap="round"/>
</g>
<mask id="mask3_7_1565" style="mask-type:luminance" maskUnits="userSpaceOnUse" x="0" y="0" width="52" height="52">
<path d="M52 0H0V52H52V0Z" fill="white"/>
</mask>
<g mask="url(#mask3_7_1565)">
<path d="M28.6 33.6376L28.4375 28.1125" stroke="black" stroke-width="1.21875" stroke-linecap="round"/>
</g>
<mask id="mask4_7_1565" style="mask-type:luminance" maskUnits="userSpaceOnUse" x="0" y="0" width="52" height="52">
<path d="M52 0H0V52H52V0Z" fill="white"/>
</mask>
<g mask="url(#mask4_7_1565)">
<path d="M25.35 28.1125V33.6376" stroke="black" stroke-width="1.21875" stroke-linecap="round"/>
</g>
</g>
<defs>
<clipPath id="clip0_7_1565">
<rect width="52" height="52" fill="white"/>
</clipPath>
</defs>
</svg>
