<svg width="52" height="52" viewBox="0 0 52 52" fill="none" xmlns="http://www.w3.org/2000/svg">
<g clip-path="url(#clip0_6_253)">
<mask id="mask0_6_253" style="mask-type:luminance" maskUnits="userSpaceOnUse" x="0" y="0" width="52" height="52">
<path d="M52 0H0V52H52V0Z" fill="white"/>
</mask>
<g mask="url(#mask0_6_253)">
<path d="M18.3625 33.15C17.875 32.5 17.3875 31.3625 16.4125 29.9C15.925 29.0875 14.4625 27.4625 13.975 26.8125C13.65 26.1625 13.65 25.8375 13.8125 25.1875C13.975 24.2125 14.95 23.4 16.0875 23.4C16.9 23.4 17.7125 24.05 18.3625 24.5375C18.6875 24.8625 19.175 25.5125 19.5 25.8375C19.825 26.1625 19.825 26.325 20.15 26.65C20.475 27.1375 20.6375 27.4625 20.475 26.8125C20.3125 26 20.15 24.7 19.825 23.4C19.6625 22.425 19.5 22.2625 19.3375 21.6125C19.175 20.8 19.0125 20.3125 18.85 19.5C18.6875 19.0125 18.525 17.7125 18.3625 17.0625C18.2 16.25 18.2 14.7875 18.85 14.1375C19.3375 13.65 20.3125 13.4875 20.9625 13.8125C21.775 14.3 22.2625 15.4375 22.425 15.925C22.75 16.7375 23.075 17.875 23.2375 19.175C23.5625 20.8 24.05 23.2375 24.05 23.725C24.05 23.075 23.8875 21.9375 24.05 21.2875C24.2125 20.8 24.5375 20.15 25.1875 19.9875C25.675 19.825 26.1625 19.825 26.65 19.825C27.1375 19.9875 27.6251 20.3125 27.9501 20.6375C28.6 21.6125 28.6 23.725 28.6 23.5625C28.7625 22.9125 28.7625 21.6125 29.0875 20.9625C29.25 20.6375 29.9 20.3125 30.225 20.15C30.7125 19.9875 31.3625 19.9875 31.85 20.15C32.175 20.15 32.825 20.6375 32.9875 20.9625C33.3125 21.45 33.475 23.075 33.6376 23.725C33.6376 23.8875 33.8 23.075 34.125 22.5875C34.775 21.6125 37.05 21.2875 37.2125 23.5625C37.2125 24.7 37.2125 24.5375 37.2125 25.35C37.2125 26.1625 37.2125 26.65 37.2125 27.3C37.2125 27.95 37.0501 29.4125 36.8876 30.0625C36.725 30.55 36.2375 31.6875 35.75 32.3375C35.75 32.3375 33.9625 34.2875 33.8 35.2625C33.6375 36.2375 33.6376 36.2375 33.6376 36.8875C33.6376 37.5375 33.8 38.35 33.8 38.35C33.8 38.35 32.5 38.5125 31.85 38.35C31.2001 38.1875 30.3876 37.05 30.225 36.5625C29.9 36.075 29.4125 36.075 29.0875 36.5625C28.7625 37.2125 27.95 38.35 27.3 38.35C26.1625 38.5125 23.8875 38.35 22.2625 38.35C22.2625 38.35 22.5875 36.725 21.9375 36.075C21.45 35.5875 20.6375 34.775 20.15 34.2875L18.3625 33.15Z" fill="white"/>
</g>
<mask id="mask1_6_253" style="mask-type:luminance" maskUnits="userSpaceOnUse" x="0" y="0" width="52" height="52">
<path d="M52 0H0V52H52V0Z" fill="white"/>
</mask>
<g mask="url(#mask1_6_253)">
<path d="M18.3625 33.15C17.875 32.5 17.3875 31.3625 16.4125 29.9C15.925 29.0875 14.4625 27.4625 13.975 26.8125C13.65 26.1625 13.65 25.8375 13.8125 25.1875C13.975 24.2125 14.95 23.4 16.0875 23.4C16.9 23.4 17.7125 24.05 18.3625 24.5375C18.6875 24.8625 19.175 25.5125 19.5 25.8375C19.825 26.1625 19.825 26.325 20.15 26.65C20.475 27.1375 20.6375 27.4625 20.475 26.8125C20.3125 26 20.15 24.7 19.825 23.4C19.6625 22.425 19.5 22.2625 19.3375 21.6125C19.175 20.8 19.0125 20.3125 18.85 19.5C18.6875 19.0125 18.525 17.7125 18.3625 17.0625C18.2 16.25 18.2 14.7875 18.85 14.1375C19.3375 13.65 20.3125 13.4875 20.9625 13.8125C21.775 14.3 22.2625 15.4375 22.425 15.925C22.75 16.7375 23.075 17.875 23.2375 19.175C23.5625 20.8 24.05 23.2375 24.05 23.725C24.05 23.075 23.8875 21.9375 24.05 21.2875C24.2125 20.8 24.5375 20.15 25.1875 19.9875C25.675 19.825 26.1625 19.825 26.65 19.825C27.1375 19.9875 27.6251 20.3125 27.9501 20.6375C28.6001 21.6125 28.6 23.725 28.6 23.5625C28.7625 22.9125 28.7625 21.6125 29.0875 20.9625C29.25 20.6375 29.9 20.3125 30.225 20.15C30.7125 19.9875 31.3625 19.9875 31.85 20.15C32.175 20.15 32.825 20.6375 32.9875 20.9625C33.3125 21.45 33.4751 23.075 33.6376 23.725C33.6376 23.8875 33.8 23.075 34.125 22.5875C34.775 21.6125 37.05 21.2875 37.2125 23.5625C37.2125 24.7 37.2125 24.5375 37.2125 25.35C37.2125 26.1625 37.2125 26.65 37.2125 27.3C37.2125 27.95 37.0501 29.4125 36.8876 30.0625C36.7251 30.55 36.2375 31.6875 35.75 32.3375C35.75 32.3375 33.9625 34.2875 33.8 35.2625C33.6375 36.2375 33.6376 36.2375 33.6376 36.8875C33.6376 37.5375 33.8 38.35 33.8 38.35C33.8 38.35 32.5 38.5125 31.85 38.35C31.2 38.1875 30.3875 37.05 30.225 36.5625C29.9 36.075 29.4125 36.075 29.0875 36.5625C28.7625 37.2125 27.95 38.35 27.3 38.35C26.1625 38.5125 23.8875 38.35 22.2625 38.35C22.2625 38.35 22.5875 36.725 21.9375 36.075C21.45 35.5875 20.6375 34.775 20.15 34.2875L18.3625 33.15Z" stroke="black" stroke-width="1.21875" stroke-linecap="round" stroke-linejoin="round"/>
</g>
<mask id="mask2_6_253" style="mask-type:luminance" maskUnits="userSpaceOnUse" x="0" y="0" width="52" height="52">
<path d="M52 0H0V52H52V0Z" fill="white"/>
</mask>
<g mask="url(#mask2_6_253)">
<path d="M31.85 33.6375V28.1125" stroke="black" stroke-width="1.21875" stroke-linecap="round"/>
</g>
<mask id="mask3_6_253" style="mask-type:luminance" maskUnits="userSpaceOnUse" x="0" y="0" width="52" height="52">
<path d="M52 0H0V52H52V0Z" fill="white"/>
</mask>
<g mask="url(#mask3_6_253)">
<path d="M28.6 33.6375L28.4375 28.1125" stroke="black" stroke-width="1.21875" stroke-linecap="round"/>
</g>
<mask id="mask4_6_253" style="mask-type:luminance" maskUnits="userSpaceOnUse" x="0" y="0" width="52" height="52">
<path d="M52 0H0V52H52V0Z" fill="white"/>
</mask>
<g mask="url(#mask4_6_253)">
<path d="M25.35 28.1125V33.6375" stroke="black" stroke-width="1.21875" stroke-linecap="round"/>
</g>
</g>
<defs>
<clipPath id="clip0_6_253">
<rect width="52" height="52" fill="white"/>
</clipPath>
</defs>
</svg>
