<svg width="372" height="112" viewBox="0 0 372 112" fill="none" xmlns="http://www.w3.org/2000/svg">
<g filter="url(#filter0_d_7_1621)">
<path d="M86.0237 20.7077C85.549 20.7077 85.0663 20.665 84.5757 20.5797C84.0903 20.4997 83.637 20.3957 83.2157 20.2677C82.7997 20.1397 82.4637 20.0117 82.2077 19.8837L82.3597 18.1317C82.7277 18.3397 83.1063 18.5183 83.4957 18.6677C83.8903 18.8117 84.2877 18.9263 84.6877 19.0117C85.093 19.0917 85.4957 19.1317 85.8957 19.1317C86.333 19.1317 86.7223 19.0757 87.0637 18.9637C87.405 18.8463 87.6717 18.6677 87.8637 18.4277C88.061 18.1823 88.1597 17.8677 88.1597 17.4837C88.1597 17.1157 88.0503 16.8117 87.8317 16.5717C87.6183 16.3317 87.3063 16.1237 86.8957 15.9477C86.485 15.7663 85.9943 15.5903 85.4237 15.4197C84.709 15.201 84.0983 14.9583 83.5917 14.6917C83.085 14.4197 82.6983 14.081 82.4317 13.6757C82.1703 13.2703 82.0397 12.7477 82.0397 12.1077C82.0397 11.489 82.181 10.937 82.4637 10.4517C82.7517 9.96635 83.1783 9.58768 83.7437 9.31568C84.3143 9.03835 85.0263 8.89968 85.8797 8.89968C86.221 8.89968 86.5623 8.92368 86.9037 8.97168C87.2503 9.01968 87.581 9.08368 87.8957 9.16368C88.2157 9.23835 88.5063 9.32635 88.7677 9.42768C89.029 9.52901 89.2557 9.63301 89.4477 9.73968L89.2797 11.4837C88.9543 11.265 88.6077 11.0837 88.2397 10.9397C87.877 10.7903 87.517 10.6783 87.1597 10.6037C86.8077 10.5237 86.4797 10.4837 86.1757 10.4837C85.7863 10.4837 85.429 10.5397 85.1037 10.6517C84.7783 10.7637 84.517 10.9343 84.3197 11.1637C84.1223 11.3877 84.0237 11.6757 84.0237 12.0277C84.0237 12.3477 84.109 12.617 84.2797 12.8357C84.4503 13.0543 84.7197 13.249 85.0877 13.4197C85.4557 13.5903 85.9303 13.7663 86.5117 13.9477C87.4237 14.2357 88.1437 14.529 88.6717 14.8277C89.1997 15.121 89.573 15.4677 89.7917 15.8677C90.0157 16.2677 90.1277 16.769 90.1277 17.3717C90.1277 18.017 89.9837 18.5903 89.6957 19.0917C89.413 19.593 88.9677 19.9877 88.3597 20.2757C87.757 20.5637 86.9783 20.7077 86.0237 20.7077ZM95.6844 20.7077C94.7084 20.7077 93.9058 20.5263 93.2764 20.1637C92.6471 19.801 92.1804 19.305 91.8764 18.6757C91.5778 18.0463 91.4284 17.3237 91.4284 16.5077C91.4284 15.7023 91.5724 14.9877 91.8604 14.3637C92.1538 13.7397 92.5804 13.2543 93.1404 12.9077C93.7004 12.5557 94.3778 12.3797 95.1724 12.3797C95.8604 12.3797 96.4524 12.5103 96.9484 12.7717C97.4444 13.0277 97.8258 13.4117 98.0924 13.9237C98.3591 14.4357 98.4924 15.0703 98.4924 15.8277C98.4924 16.0303 98.4871 16.2143 98.4764 16.3797C98.4711 16.5397 98.4551 16.6997 98.4284 16.8597L96.9324 16.2037C96.9431 16.1237 96.9511 16.0463 96.9564 15.9717C96.9618 15.8917 96.9644 15.817 96.9644 15.7477C96.9644 15.0917 96.7991 14.585 96.4684 14.2277C96.1431 13.865 95.7164 13.6837 95.1884 13.6837C94.7778 13.6837 94.4204 13.7957 94.1164 14.0197C93.8124 14.2437 93.5751 14.5503 93.4044 14.9397C93.2391 15.329 93.1564 15.777 93.1564 16.2837V16.5397C93.1564 17.105 93.2524 17.5903 93.4444 17.9957C93.6418 18.401 93.9404 18.713 94.3404 18.9317C94.7458 19.1503 95.2551 19.2597 95.8684 19.2597C96.1031 19.2597 96.3591 19.241 96.6364 19.2037C96.9191 19.161 97.2018 19.097 97.4844 19.0117C97.7671 18.9263 98.0338 18.817 98.2844 18.6837L98.3484 20.1717C98.1458 20.2783 97.9084 20.3717 97.6364 20.4517C97.3644 20.5317 97.0631 20.593 96.7324 20.6357C96.4071 20.6837 96.0578 20.7077 95.6844 20.7077ZM92.1164 16.8597V15.6917L97.4044 15.6277L98.4284 16.0517V16.8597H92.1164ZM100.386 20.5237C100.386 19.9423 100.386 19.3797 100.386 18.8357C100.386 18.2917 100.386 17.6917 100.386 17.0357V12.6277C100.386 11.961 100.386 11.3103 100.386 10.6757C100.386 10.041 100.386 9.41968 100.386 8.81168L102.098 8.62768C102.098 9.26768 102.098 9.91568 102.098 10.5717C102.098 11.2223 102.098 11.9077 102.098 12.6277V17.0357C102.098 17.6917 102.098 18.2917 102.098 18.8357C102.098 19.3797 102.098 19.9423 102.098 20.5237H100.386ZM108.294 20.7077C107.318 20.7077 106.515 20.5263 105.886 20.1637C105.256 19.801 104.79 19.305 104.486 18.6757C104.187 18.0463 104.038 17.3237 104.038 16.5077C104.038 15.7023 104.182 14.9877 104.47 14.3637C104.763 13.7397 105.19 13.2543 105.75 12.9077C106.31 12.5557 106.987 12.3797 107.782 12.3797C108.47 12.3797 109.062 12.5103 109.558 12.7717C110.054 13.0277 110.435 13.4117 110.702 13.9237C110.968 14.4357 111.102 15.0703 111.102 15.8277C111.102 16.0303 111.096 16.2143 111.086 16.3797C111.08 16.5397 111.064 16.6997 111.038 16.8597L109.542 16.2037C109.552 16.1237 109.56 16.0463 109.566 15.9717C109.571 15.8917 109.574 15.817 109.574 15.7477C109.574 15.0917 109.408 14.585 109.078 14.2277C108.752 13.865 108.326 13.6837 107.798 13.6837C107.387 13.6837 107.03 13.7957 106.726 14.0197C106.422 14.2437 106.184 14.5503 106.014 14.9397C105.848 15.329 105.766 15.777 105.766 16.2837V16.5397C105.766 17.105 105.862 17.5903 106.054 17.9957C106.251 18.401 106.55 18.713 106.95 18.9317C107.355 19.1503 107.864 19.2597 108.478 19.2597C108.712 19.2597 108.968 19.241 109.246 19.2037C109.528 19.161 109.811 19.097 110.094 19.0117C110.376 18.9263 110.643 18.817 110.894 18.6837L110.958 20.1717C110.755 20.2783 110.518 20.3717 110.246 20.4517C109.974 20.5317 109.672 20.593 109.342 20.6357C109.016 20.6837 108.667 20.7077 108.294 20.7077ZM104.726 16.8597V15.6917L110.014 15.6277L111.038 16.0517V16.8597H104.726ZM116.579 20.6837C115.705 20.6837 114.961 20.505 114.347 20.1477C113.739 19.785 113.275 19.2917 112.955 18.6677C112.635 18.0437 112.475 17.337 112.475 16.5477C112.475 15.753 112.625 15.041 112.923 14.4117C113.227 13.7823 113.673 13.2863 114.259 12.9237C114.851 12.561 115.577 12.3797 116.435 12.3797C116.745 12.3797 117.051 12.4063 117.355 12.4597C117.665 12.5077 117.955 12.577 118.227 12.6677C118.499 12.753 118.739 12.8543 118.947 12.9717L118.803 14.4917C118.505 14.321 118.225 14.1903 117.963 14.0997C117.707 14.009 117.47 13.9477 117.251 13.9157C117.033 13.8783 116.833 13.8597 116.651 13.8597C115.915 13.8597 115.326 14.0997 114.883 14.5797C114.441 15.0543 114.219 15.697 114.219 16.5077C114.219 17.0303 114.321 17.497 114.523 17.9077C114.726 18.3183 115.027 18.6437 115.427 18.8837C115.833 19.1237 116.334 19.2437 116.931 19.2437C117.15 19.2437 117.369 19.225 117.587 19.1877C117.806 19.145 118.019 19.0837 118.227 19.0037C118.441 18.9183 118.646 18.8117 118.843 18.6837L118.963 20.2117C118.782 20.297 118.574 20.377 118.339 20.4517C118.105 20.521 117.841 20.577 117.547 20.6197C117.254 20.6623 116.931 20.6837 116.579 20.6837ZM124.007 20.7157C123.457 20.7157 122.988 20.625 122.599 20.4437C122.215 20.2623 121.921 19.9797 121.719 19.5957C121.521 19.2117 121.423 18.7157 121.423 18.1077C121.423 17.6863 121.423 17.265 121.423 16.8437C121.423 16.417 121.423 15.993 121.423 15.5717C121.423 15.145 121.423 14.721 121.423 14.2997C121.423 13.8783 121.423 13.457 121.423 13.0357C121.423 12.4703 121.423 11.9477 121.423 11.4677C121.423 10.9877 121.423 10.4943 121.423 9.98768L123.111 9.65168C123.111 10.057 123.111 10.433 123.111 10.7797C123.111 11.1263 123.111 11.481 123.111 11.8437C123.111 12.201 123.111 12.5983 123.111 13.0357V17.6357C123.111 18.1797 123.22 18.5903 123.439 18.8677C123.657 19.1397 123.999 19.2757 124.463 19.2757C124.655 19.2757 124.86 19.2437 125.079 19.1797C125.303 19.1103 125.508 19.0063 125.695 18.8677L125.815 20.3077C125.692 20.3877 125.535 20.4597 125.343 20.5237C125.156 20.5823 124.945 20.6277 124.711 20.6597C124.481 20.697 124.247 20.7157 124.007 20.7157ZM119.975 13.8917V12.5717H125.751V13.8917C125.228 13.8917 124.703 13.8917 124.175 13.8917C123.647 13.8917 123.132 13.8917 122.631 13.8917H121.903H119.975ZM131.334 23.6517C131.548 23.1183 131.764 22.5797 131.982 22.0357C132.201 21.4917 132.417 20.9557 132.63 20.4277V20.8037C132.433 20.2543 132.233 19.7023 132.03 19.1477C131.828 18.5877 131.63 18.0437 131.438 17.5157L130.918 16.0677C130.71 15.497 130.497 14.913 130.278 14.3157C130.065 13.7183 129.854 13.137 129.646 12.5717L131.486 12.5077C131.689 13.1583 131.886 13.793 132.078 14.4117C132.27 15.0303 132.465 15.6623 132.662 16.3077L133.398 18.7157H133.558L134.366 16.2997C134.58 15.6703 134.788 15.049 134.99 14.4357C135.198 13.817 135.409 13.1957 135.622 12.5717H137.438C137.273 12.9983 137.11 13.4117 136.95 13.8117C136.796 14.2063 136.625 14.6437 136.438 15.1237C136.252 15.6037 136.028 16.177 135.766 16.8437L134.886 19.0837C134.492 20.097 134.156 20.9583 133.878 21.6677C133.601 22.377 133.348 23.0197 133.118 23.5957L131.334 23.6517ZM142.298 20.7157C141.615 20.7157 141.018 20.601 140.506 20.3717C139.994 20.1423 139.565 19.833 139.218 19.4437C138.877 19.049 138.621 18.601 138.45 18.0997C138.279 17.593 138.194 17.0623 138.194 16.5077C138.194 15.713 138.354 15.0063 138.674 14.3877C138.994 13.7637 139.458 13.273 140.066 12.9157C140.674 12.553 141.407 12.3717 142.266 12.3717C142.922 12.3717 143.503 12.4757 144.01 12.6837C144.517 12.8917 144.941 13.185 145.282 13.5637C145.629 13.937 145.89 14.3743 146.066 14.8757C146.242 15.377 146.33 15.921 146.33 16.5077C146.33 17.3023 146.17 18.017 145.85 18.6517C145.53 19.2863 145.066 19.7903 144.458 20.1637C143.855 20.5317 143.135 20.7157 142.298 20.7157ZM142.29 19.2757C142.802 19.2757 143.229 19.145 143.57 18.8837C143.911 18.617 144.165 18.273 144.33 17.8517C144.501 17.4303 144.586 16.9823 144.586 16.5077C144.586 15.9583 144.49 15.4837 144.298 15.0837C144.111 14.6783 143.845 14.3663 143.498 14.1477C143.157 13.9237 142.751 13.8117 142.282 13.8117C141.775 13.8117 141.346 13.9317 140.994 14.1717C140.647 14.4063 140.383 14.729 140.202 15.1397C140.026 15.545 139.938 16.001 139.938 16.5077C139.938 16.9823 140.023 17.4303 140.194 17.8517C140.37 18.273 140.631 18.617 140.978 18.8837C141.33 19.145 141.767 19.2757 142.29 19.2757ZM150.533 20.7157C149.706 20.7157 149.093 20.4757 148.693 19.9957C148.298 19.5103 148.101 18.8037 148.101 17.8757C148.101 17.5237 148.101 17.217 148.101 16.9557C148.101 16.6943 148.101 16.433 148.101 16.1717C148.101 15.681 148.101 15.2357 148.101 14.8357C148.101 14.4357 148.101 14.0543 148.101 13.6917C148.101 13.329 148.101 12.9557 148.101 12.5717L149.813 12.5077C149.813 13.089 149.813 13.6597 149.813 14.2197C149.813 14.7797 149.813 15.3663 149.813 15.9797V17.4197C149.813 17.9903 149.911 18.4223 150.109 18.7157C150.311 19.009 150.674 19.1557 151.197 19.1557C151.49 19.1557 151.762 19.0943 152.013 18.9717C152.263 18.8437 152.49 18.6757 152.693 18.4677C152.901 18.2543 153.087 18.0197 153.253 17.7637V15.9797C153.253 15.3663 153.253 14.7903 153.253 14.2517C153.253 13.7077 153.253 13.1477 153.253 12.5717H154.965C154.965 13.1477 154.965 13.7157 154.965 14.2757C154.965 14.8303 154.965 15.4623 154.965 16.1717V17.0357C154.965 17.6917 154.965 18.2917 154.965 18.8357C154.965 19.3797 154.965 19.9423 154.965 20.5237H153.501L153.437 19.1637H153.269C153.098 19.4143 152.882 19.6597 152.621 19.8997C152.359 20.1343 152.055 20.329 151.709 20.4837C151.362 20.6383 150.97 20.7157 150.533 20.7157ZM157.292 20.5237C157.292 19.9423 157.292 19.3797 157.292 18.8357C157.292 18.2917 157.292 17.6917 157.292 17.0357V16.2357C157.292 15.6437 157.292 15.041 157.292 14.4277C157.292 13.809 157.292 13.1903 157.292 12.5717L158.756 12.4757L158.82 14.0437H158.98C159.194 13.5743 159.436 13.2197 159.708 12.9797C159.98 12.7397 160.258 12.5797 160.54 12.4997C160.823 12.4143 161.087 12.3717 161.332 12.3717C161.471 12.3717 161.615 12.3823 161.764 12.4037C161.914 12.425 162.055 12.4597 162.188 12.5077L162.036 14.2037C161.85 14.1717 161.682 14.1477 161.532 14.1317C161.383 14.1157 161.212 14.1077 161.02 14.1077C160.871 14.1077 160.706 14.129 160.524 14.1717C160.343 14.209 160.159 14.289 159.972 14.4117C159.791 14.5343 159.615 14.7183 159.444 14.9637C159.279 15.2037 159.132 15.521 159.004 15.9157V17.1237C159.004 17.737 159.004 18.313 159.004 18.8517C159.004 19.385 159.004 19.9423 159.004 20.5237H157.292ZM166.823 23.6517C166.823 23.0703 166.823 22.497 166.823 21.9317C166.823 21.3717 166.823 20.7637 166.823 20.1077V16.2357C166.823 15.6437 166.823 15.041 166.823 14.4277C166.823 13.809 166.823 13.1903 166.823 12.5717L168.359 12.4757L168.407 13.5317H168.567C168.722 13.3077 168.919 13.1077 169.159 12.9317C169.399 12.7557 169.671 12.6197 169.975 12.5237C170.285 12.4223 170.621 12.3717 170.983 12.3717C171.703 12.3717 172.311 12.553 172.807 12.9157C173.309 13.2783 173.687 13.7743 173.943 14.4037C174.205 15.033 174.335 15.7397 174.335 16.5237C174.335 17.265 174.213 17.9557 173.967 18.5957C173.727 19.2303 173.362 19.7423 172.871 20.1317C172.381 20.521 171.762 20.7157 171.015 20.7157C170.669 20.7157 170.351 20.6703 170.063 20.5797C169.781 20.489 169.522 20.3583 169.287 20.1877C169.058 20.017 168.85 19.8117 168.663 19.5717H168.535V20.1957C168.535 20.809 168.535 21.3823 168.535 21.9157C168.535 22.4543 168.535 23.0143 168.535 23.5957L166.823 23.6517ZM170.431 19.2197C170.927 19.2197 171.335 19.0943 171.655 18.8437C171.975 18.5877 172.21 18.257 172.359 17.8517C172.509 17.441 172.583 17.0037 172.583 16.5397C172.583 16.0543 172.503 15.6117 172.343 15.2117C172.189 14.8063 171.951 14.4837 171.631 14.2437C171.311 14.0037 170.903 13.8837 170.407 13.8837C170.162 13.8837 169.922 13.921 169.687 13.9957C169.458 14.065 169.245 14.1717 169.047 14.3157C168.85 14.4543 168.679 14.6303 168.535 14.8437V18.0757C168.674 18.3103 168.834 18.513 169.015 18.6837C169.197 18.8543 169.405 18.9877 169.639 19.0837C169.874 19.1743 170.138 19.2197 170.431 19.2197ZM178.18 20.6917C177.727 20.6917 177.322 20.601 176.964 20.4197C176.607 20.233 176.324 19.9663 176.116 19.6197C175.914 19.2677 175.812 18.841 175.812 18.3397C175.812 17.897 175.887 17.5263 176.036 17.2277C176.191 16.9237 176.394 16.6757 176.644 16.4837C176.895 16.2917 177.175 16.1423 177.484 16.0357C177.794 15.929 178.106 15.8517 178.42 15.8037L180.78 15.4357C180.802 14.993 180.735 14.6543 180.58 14.4197C180.431 14.185 180.218 14.025 179.94 13.9397C179.668 13.8543 179.359 13.8117 179.012 13.8117C178.831 13.8117 178.634 13.825 178.42 13.8517C178.212 13.8783 177.991 13.9237 177.756 13.9877C177.527 14.0463 177.284 14.121 177.028 14.2117C176.778 14.297 176.519 14.401 176.252 14.5237L176.156 13.0037C176.354 12.9237 176.575 12.8463 176.82 12.7717C177.066 12.697 177.33 12.6303 177.612 12.5717C177.9 12.5077 178.196 12.4597 178.5 12.4277C178.804 12.3957 179.114 12.3797 179.428 12.3797C180.058 12.3797 180.596 12.473 181.044 12.6597C181.492 12.8463 181.836 13.145 182.076 13.5557C182.316 13.961 182.436 14.489 182.436 15.1397C182.436 15.3957 182.436 15.713 182.436 16.0917C182.436 16.4703 182.436 16.8223 182.436 17.1477V18.1077C182.436 18.4863 182.436 18.8703 182.436 19.2597C182.436 19.649 182.436 20.0703 182.436 20.5237H180.892L180.796 19.4677H180.644C180.49 19.665 180.295 19.857 180.06 20.0437C179.831 20.2303 179.556 20.385 179.236 20.5077C178.922 20.6303 178.57 20.6917 178.18 20.6917ZM178.74 19.3317C178.996 19.3317 179.247 19.2757 179.492 19.1637C179.743 19.0463 179.975 18.881 180.188 18.6677C180.402 18.4543 180.586 18.1957 180.74 17.8917V16.4837C180.66 16.5317 180.556 16.577 180.428 16.6197C180.306 16.6623 180.119 16.7103 179.868 16.7637C179.618 16.817 179.266 16.8837 178.812 16.9637C178.551 17.0063 178.327 17.0837 178.14 17.1957C177.954 17.3077 177.807 17.4543 177.7 17.6357C177.599 17.8117 177.548 18.0223 177.548 18.2677C177.548 18.657 177.666 18.9317 177.9 19.0917C178.14 19.2517 178.42 19.3317 178.74 19.3317ZM185.319 23.6517C185.532 23.1183 185.748 22.5797 185.967 22.0357C186.185 21.4917 186.401 20.9557 186.615 20.4277V20.8037C186.417 20.2543 186.217 19.7023 186.015 19.1477C185.812 18.5877 185.615 18.0437 185.423 17.5157L184.903 16.0677C184.695 15.497 184.481 14.913 184.263 14.3157C184.049 13.7183 183.839 13.137 183.631 12.5717L185.471 12.5077C185.673 13.1583 185.871 13.793 186.063 14.4117C186.255 15.0303 186.449 15.6623 186.647 16.3077L187.383 18.7157H187.543L188.351 16.2997C188.564 15.6703 188.772 15.049 188.975 14.4357C189.183 13.817 189.393 13.1957 189.607 12.5717H191.423C191.257 12.9983 191.095 13.4117 190.935 13.8117C190.78 14.2063 190.609 14.6437 190.423 15.1237C190.236 15.6037 190.012 16.177 189.751 16.8437L188.871 19.0837C188.476 20.097 188.14 20.9583 187.863 21.6677C187.585 22.377 187.332 23.0197 187.103 23.5957L185.319 23.6517ZM192.995 20.5237C192.995 19.9423 192.995 19.3797 192.995 18.8357C192.995 18.2917 192.995 17.6917 192.995 17.0357V16.2357C192.995 15.6437 192.995 15.041 192.995 14.4277C192.995 13.809 192.995 13.1903 192.995 12.5717L194.459 12.4757L194.523 13.9077H194.691C194.862 13.6623 195.073 13.4223 195.323 13.1877C195.574 12.953 195.867 12.7583 196.203 12.6037C196.545 12.449 196.931 12.3717 197.363 12.3717C198.003 12.3717 198.494 12.5317 198.835 12.8517C199.182 13.1663 199.409 13.6197 199.515 14.2117L199.627 14.2517C199.654 14.3957 199.673 14.5477 199.683 14.7077C199.699 14.8623 199.707 15.0277 199.707 15.2037C199.707 15.5503 199.707 15.865 199.707 16.1477C199.707 16.425 199.707 16.721 199.707 17.0357C199.707 17.6757 199.707 18.273 199.707 18.8277C199.707 19.377 199.707 19.9423 199.707 20.5237H198.003C198.003 19.9423 198.003 19.3797 198.003 18.8357C198.003 18.2863 198.003 17.7157 198.003 17.1237V15.6997C198.003 15.1237 197.907 14.689 197.715 14.3957C197.529 14.1023 197.187 13.9557 196.691 13.9557C196.398 13.9557 196.131 14.0197 195.891 14.1477C195.651 14.2757 195.433 14.4463 195.235 14.6597C195.038 14.8677 194.862 15.097 194.707 15.3477V17.1237C194.707 17.737 194.707 18.313 194.707 18.8517C194.707 19.385 194.707 19.9423 194.707 20.5237H192.995ZM202.955 20.5237C202.955 19.9423 202.955 19.3797 202.955 18.8357C202.955 18.2863 202.955 17.7157 202.955 17.1237V15.6997C202.955 15.1237 202.859 14.689 202.667 14.3957C202.481 14.1023 202.142 13.9557 201.651 13.9557C201.358 13.9557 201.089 14.0197 200.843 14.1477C200.603 14.2703 200.385 14.4383 200.187 14.6517C199.99 14.8597 199.811 15.0917 199.651 15.3477L199.403 13.9317H199.571C199.758 13.681 199.979 13.4357 200.235 13.1957C200.497 12.9557 200.801 12.7583 201.147 12.6037C201.494 12.449 201.886 12.3717 202.323 12.3717C203.139 12.3717 203.734 12.617 204.107 13.1077C204.481 13.5983 204.667 14.297 204.667 15.2037C204.667 15.5503 204.667 15.865 204.667 16.1477C204.667 16.425 204.667 16.721 204.667 17.0357C204.667 17.6757 204.667 18.273 204.667 18.8277C204.667 19.377 204.667 19.9423 204.667 20.5237H202.955ZM210.684 20.7077C209.708 20.7077 208.906 20.5263 208.276 20.1637C207.647 19.801 207.18 19.305 206.876 18.6757C206.578 18.0463 206.428 17.3237 206.428 16.5077C206.428 15.7023 206.572 14.9877 206.86 14.3637C207.154 13.7397 207.58 13.2543 208.14 12.9077C208.7 12.5557 209.378 12.3797 210.172 12.3797C210.86 12.3797 211.452 12.5103 211.948 12.7717C212.444 13.0277 212.826 13.4117 213.092 13.9237C213.359 14.4357 213.492 15.0703 213.492 15.8277C213.492 16.0303 213.487 16.2143 213.476 16.3797C213.471 16.5397 213.455 16.6997 213.428 16.8597L211.932 16.2037C211.943 16.1237 211.951 16.0463 211.956 15.9717C211.962 15.8917 211.964 15.817 211.964 15.7477C211.964 15.0917 211.799 14.585 211.468 14.2277C211.143 13.865 210.716 13.6837 210.188 13.6837C209.778 13.6837 209.42 13.7957 209.116 14.0197C208.812 14.2437 208.575 14.5503 208.404 14.9397C208.239 15.329 208.156 15.777 208.156 16.2837V16.5397C208.156 17.105 208.252 17.5903 208.444 17.9957C208.642 18.401 208.94 18.713 209.34 18.9317C209.746 19.1503 210.255 19.2597 210.868 19.2597C211.103 19.2597 211.359 19.241 211.636 19.2037C211.919 19.161 212.202 19.097 212.484 19.0117C212.767 18.9263 213.034 18.817 213.284 18.6837L213.348 20.1717C213.146 20.2783 212.908 20.3717 212.636 20.4517C212.364 20.5317 212.063 20.593 211.732 20.6357C211.407 20.6837 211.058 20.7077 210.684 20.7077ZM207.116 16.8597V15.6917L212.404 15.6277L213.428 16.0517V16.8597H207.116ZM215.386 20.5237C215.386 19.9423 215.386 19.3797 215.386 18.8357C215.386 18.2917 215.386 17.6917 215.386 17.0357V16.2357C215.386 15.6437 215.386 15.041 215.386 14.4277C215.386 13.809 215.386 13.1903 215.386 12.5717L216.85 12.4757L216.914 13.9157H217.082C217.253 13.6703 217.469 13.4303 217.73 13.1957C217.997 12.9557 218.306 12.7583 218.658 12.6037C219.01 12.449 219.413 12.3717 219.866 12.3717C220.693 12.3717 221.303 12.6117 221.698 13.0917C222.098 13.5717 222.298 14.2757 222.298 15.2037C222.298 15.5503 222.298 15.865 222.298 16.1477C222.298 16.425 222.298 16.721 222.298 17.0357C222.298 17.6757 222.298 18.273 222.298 18.8277C222.298 19.377 222.298 19.9423 222.298 20.5237H220.586C220.586 19.9423 220.586 19.3797 220.586 18.8357C220.586 18.2863 220.586 17.7157 220.586 17.1237V15.6997C220.586 15.1237 220.487 14.689 220.29 14.3957C220.093 14.1023 219.73 13.9557 219.202 13.9557C218.893 13.9557 218.61 14.0197 218.354 14.1477C218.098 14.2703 217.866 14.4383 217.658 14.6517C217.45 14.8597 217.263 15.0917 217.098 15.3477V17.1237C217.098 17.737 217.098 18.313 217.098 18.8517C217.098 19.385 217.098 19.9423 217.098 20.5237H215.386ZM227.741 20.7157C227.192 20.7157 226.722 20.625 226.333 20.4437C225.949 20.2623 225.656 19.9797 225.453 19.5957C225.256 19.2117 225.157 18.7157 225.157 18.1077C225.157 17.6863 225.157 17.265 225.157 16.8437C225.157 16.417 225.157 15.993 225.157 15.5717C225.157 15.145 225.157 14.721 225.157 14.2997C225.157 13.8783 225.157 13.457 225.157 13.0357C225.157 12.4703 225.157 11.9477 225.157 11.4677C225.157 10.9877 225.157 10.4943 225.157 9.98768L226.845 9.65168C226.845 10.057 226.845 10.433 226.845 10.7797C226.845 11.1263 226.845 11.481 226.845 11.8437C226.845 12.201 226.845 12.5983 226.845 13.0357V17.6357C226.845 18.1797 226.954 18.5903 227.173 18.8677C227.392 19.1397 227.733 19.2757 228.197 19.2757C228.389 19.2757 228.594 19.2437 228.813 19.1797C229.037 19.1103 229.242 19.0063 229.429 18.8677L229.549 20.3077C229.426 20.3877 229.269 20.4597 229.077 20.5237C228.89 20.5823 228.68 20.6277 228.445 20.6597C228.216 20.697 227.981 20.7157 227.741 20.7157ZM223.709 13.8917V12.5717H229.485V13.8917C228.962 13.8917 228.437 13.8917 227.909 13.8917C227.381 13.8917 226.866 13.8917 226.365 13.8917H225.637H223.709ZM234.277 20.5237C234.277 19.9423 234.277 19.3797 234.277 18.8357C234.277 18.2917 234.277 17.6917 234.277 17.0357V16.2357C234.277 15.6437 234.277 15.041 234.277 14.4277C234.277 13.809 234.277 13.1903 234.277 12.5717L235.741 12.4757L235.805 13.9077H235.973C236.143 13.6623 236.354 13.4223 236.605 13.1877C236.855 12.953 237.149 12.7583 237.485 12.6037C237.826 12.449 238.213 12.3717 238.645 12.3717C239.285 12.3717 239.775 12.5317 240.117 12.8517C240.463 13.1663 240.69 13.6197 240.797 14.2117L240.909 14.2517C240.935 14.3957 240.954 14.5477 240.965 14.7077C240.981 14.8623 240.989 15.0277 240.989 15.2037C240.989 15.5503 240.989 15.865 240.989 16.1477C240.989 16.425 240.989 16.721 240.989 17.0357C240.989 17.6757 240.989 18.273 240.989 18.8277C240.989 19.377 240.989 19.9423 240.989 20.5237H239.285C239.285 19.9423 239.285 19.3797 239.285 18.8357C239.285 18.2863 239.285 17.7157 239.285 17.1237V15.6997C239.285 15.1237 239.189 14.689 238.997 14.3957C238.81 14.1023 238.469 13.9557 237.973 13.9557C237.679 13.9557 237.413 14.0197 237.173 14.1477C236.933 14.2757 236.714 14.4463 236.517 14.6597C236.319 14.8677 236.143 15.097 235.989 15.3477V17.1237C235.989 17.737 235.989 18.313 235.989 18.8517C235.989 19.385 235.989 19.9423 235.989 20.5237H234.277ZM244.237 20.5237C244.237 19.9423 244.237 19.3797 244.237 18.8357C244.237 18.2863 244.237 17.7157 244.237 17.1237V15.6997C244.237 15.1237 244.141 14.689 243.949 14.3957C243.762 14.1023 243.423 13.9557 242.933 13.9557C242.639 13.9557 242.37 14.0197 242.125 14.1477C241.885 14.2703 241.666 14.4383 241.469 14.6517C241.271 14.8597 241.093 15.0917 240.933 15.3477L240.685 13.9317H240.853C241.039 13.681 241.261 13.4357 241.517 13.1957C241.778 12.9557 242.082 12.7583 242.429 12.6037C242.775 12.449 243.167 12.3717 243.605 12.3717C244.421 12.3717 245.015 12.617 245.389 13.1077C245.762 13.5983 245.949 14.297 245.949 15.2037C245.949 15.5503 245.949 15.865 245.949 16.1477C245.949 16.425 245.949 16.721 245.949 17.0357C245.949 17.6757 245.949 18.273 245.949 18.8277C245.949 19.377 245.949 19.9423 245.949 20.5237H244.237ZM251.966 20.7077C250.99 20.7077 250.187 20.5263 249.558 20.1637C248.928 19.801 248.462 19.305 248.158 18.6757C247.859 18.0463 247.71 17.3237 247.71 16.5077C247.71 15.7023 247.854 14.9877 248.142 14.3637C248.435 13.7397 248.862 13.2543 249.422 12.9077C249.982 12.5557 250.659 12.3797 251.454 12.3797C252.142 12.3797 252.734 12.5103 253.23 12.7717C253.726 13.0277 254.107 13.4117 254.374 13.9237C254.64 14.4357 254.774 15.0703 254.774 15.8277C254.774 16.0303 254.768 16.2143 254.758 16.3797C254.752 16.5397 254.736 16.6997 254.71 16.8597L253.214 16.2037C253.224 16.1237 253.232 16.0463 253.238 15.9717C253.243 15.8917 253.246 15.817 253.246 15.7477C253.246 15.0917 253.08 14.585 252.75 14.2277C252.424 13.865 251.998 13.6837 251.47 13.6837C251.059 13.6837 250.702 13.7957 250.398 14.0197C250.094 14.2437 249.856 14.5503 249.686 14.9397C249.52 15.329 249.438 15.777 249.438 16.2837V16.5397C249.438 17.105 249.534 17.5903 249.726 17.9957C249.923 18.401 250.222 18.713 250.622 18.9317C251.027 19.1503 251.536 19.2597 252.15 19.2597C252.384 19.2597 252.64 19.241 252.918 19.2037C253.2 19.161 253.483 19.097 253.766 19.0117C254.048 18.9263 254.315 18.817 254.566 18.6837L254.63 20.1717C254.427 20.2783 254.19 20.3717 253.918 20.4517C253.646 20.5317 253.344 20.593 253.014 20.6357C252.688 20.6837 252.339 20.7077 251.966 20.7077ZM248.398 16.8597V15.6917L253.686 15.6277L254.71 16.0517V16.8597H248.398ZM259.725 20.7157C259.176 20.7157 258.707 20.625 258.317 20.4437C257.933 20.2623 257.64 19.9797 257.437 19.5957C257.24 19.2117 257.141 18.7157 257.141 18.1077C257.141 17.6863 257.141 17.265 257.141 16.8437C257.141 16.417 257.141 15.993 257.141 15.5717C257.141 15.145 257.141 14.721 257.141 14.2997C257.141 13.8783 257.141 13.457 257.141 13.0357C257.141 12.4703 257.141 11.9477 257.141 11.4677C257.141 10.9877 257.141 10.4943 257.141 9.98768L258.829 9.65168C258.829 10.057 258.829 10.433 258.829 10.7797C258.829 11.1263 258.829 11.481 258.829 11.8437C258.829 12.201 258.829 12.5983 258.829 13.0357V17.6357C258.829 18.1797 258.939 18.5903 259.157 18.8677C259.376 19.1397 259.717 19.2757 260.181 19.2757C260.373 19.2757 260.579 19.2437 260.797 19.1797C261.021 19.1103 261.227 19.0063 261.413 18.8677L261.533 20.3077C261.411 20.3877 261.253 20.4597 261.061 20.5237C260.875 20.5823 260.664 20.6277 260.429 20.6597C260.2 20.697 259.965 20.7157 259.725 20.7157ZM255.693 13.8917V12.5717H261.469V13.8917C260.947 13.8917 260.421 13.8917 259.893 13.8917C259.365 13.8917 258.851 13.8917 258.349 13.8917H257.621H255.693ZM263.198 20.5237C263.198 19.9423 263.198 19.3797 263.198 18.8357C263.198 18.2917 263.198 17.6917 263.198 17.0357V12.6277C263.198 11.961 263.198 11.313 263.198 10.6837C263.198 10.049 263.198 9.42501 263.198 8.81168L264.91 8.62768C264.91 9.26235 264.91 9.90768 264.91 10.5637C264.91 11.2197 264.91 11.9077 264.91 12.6277V13.8117H265.07C265.23 13.5877 265.433 13.3663 265.678 13.1477C265.924 12.9237 266.212 12.7397 266.542 12.5957C266.873 12.4463 267.252 12.3717 267.678 12.3717C268.505 12.3717 269.116 12.6117 269.51 13.0917C269.91 13.5717 270.11 14.2757 270.11 15.2037C270.11 15.5503 270.11 15.865 270.11 16.1477C270.11 16.425 270.11 16.721 270.11 17.0357C270.11 17.6757 270.11 18.273 270.11 18.8277C270.11 19.377 270.11 19.9423 270.11 20.5237H268.398C268.398 19.9423 268.398 19.3797 268.398 18.8357C268.398 18.2863 268.398 17.7157 268.398 17.1237V15.6997C268.398 15.1237 268.3 14.689 268.102 14.3957C267.905 14.1023 267.542 13.9557 267.014 13.9557C266.705 13.9557 266.422 14.0197 266.166 14.1477C265.91 14.2703 265.678 14.4383 265.47 14.6517C265.262 14.8597 265.076 15.0917 264.91 15.3477V17.1237C264.91 17.737 264.91 18.313 264.91 18.8517C264.91 19.385 264.91 19.9423 264.91 20.5237H263.198ZM275.986 20.7157C275.303 20.7157 274.706 20.601 274.194 20.3717C273.682 20.1423 273.252 19.833 272.906 19.4437C272.564 19.049 272.308 18.601 272.138 18.0997C271.967 17.593 271.882 17.0623 271.882 16.5077C271.882 15.713 272.042 15.0063 272.362 14.3877C272.682 13.7637 273.146 13.273 273.754 12.9157C274.362 12.553 275.095 12.3717 275.954 12.3717C276.61 12.3717 277.191 12.4757 277.698 12.6837C278.204 12.8917 278.628 13.185 278.97 13.5637C279.316 13.937 279.578 14.3743 279.754 14.8757C279.93 15.377 280.018 15.921 280.018 16.5077C280.018 17.3023 279.858 18.017 279.538 18.6517C279.218 19.2863 278.754 19.7903 278.146 20.1637C277.543 20.5317 276.823 20.7157 275.986 20.7157ZM275.978 19.2757C276.49 19.2757 276.916 19.145 277.258 18.8837C277.599 18.617 277.852 18.273 278.018 17.8517C278.188 17.4303 278.274 16.9823 278.274 16.5077C278.274 15.9583 278.178 15.4837 277.986 15.0837C277.799 14.6783 277.532 14.3663 277.186 14.1477C276.844 13.9237 276.439 13.8117 275.97 13.8117C275.463 13.8117 275.034 13.9317 274.682 14.1717C274.335 14.4063 274.071 14.729 273.89 15.1397C273.714 15.545 273.626 16.001 273.626 16.5077C273.626 16.9823 273.711 17.4303 273.882 17.8517C274.058 18.273 274.319 18.617 274.666 18.8837C275.018 19.145 275.455 19.2757 275.978 19.2757ZM284.78 20.7157C284.033 20.7157 283.412 20.521 282.916 20.1317C282.425 19.7423 282.057 19.2303 281.812 18.5957C281.572 17.9557 281.452 17.265 281.452 16.5237C281.452 15.7397 281.58 15.033 281.836 14.4037C282.097 13.7743 282.479 13.2783 282.98 12.9157C283.481 12.553 284.089 12.3717 284.804 12.3717C285.151 12.3717 285.471 12.417 285.764 12.5077C286.057 12.5983 286.316 12.7237 286.54 12.8837C286.764 13.0437 286.951 13.225 287.1 13.4277H287.26V12.6277C287.26 11.961 287.26 11.313 287.26 10.6837C287.26 10.049 287.26 9.42501 287.26 8.81168L288.972 8.62768C288.972 9.26768 288.972 9.91568 288.972 10.5717C288.972 11.2223 288.972 11.9077 288.972 12.6277V17.0357C288.972 17.6917 288.972 18.2917 288.972 18.8357C288.972 19.3797 288.972 19.9423 288.972 20.5237H287.5L287.404 19.4517H287.26C287.057 19.7237 286.831 19.953 286.58 20.1397C286.335 20.3263 286.063 20.4677 285.764 20.5637C285.465 20.665 285.137 20.7157 284.78 20.7157ZM285.364 19.2197C285.652 19.2197 285.913 19.1743 286.148 19.0837C286.383 18.9877 286.591 18.8543 286.772 18.6837C286.959 18.513 287.121 18.3103 287.26 18.0757V14.8437C287.116 14.6303 286.945 14.4543 286.748 14.3157C286.551 14.1717 286.335 14.065 286.1 13.9957C285.865 13.921 285.625 13.8837 285.38 13.8837C284.889 13.8837 284.484 14.0037 284.164 14.2437C283.844 14.4837 283.604 14.8063 283.444 15.2117C283.284 15.6117 283.204 16.0543 283.204 16.5397C283.204 17.0037 283.279 17.441 283.428 17.8517C283.583 18.257 283.817 18.5877 284.132 18.8437C284.452 19.0943 284.863 19.2197 285.364 19.2197Z" fill="#EEEEEE" fill-opacity="0.75" shape-rendering="crispEdges"/>
</g>
<rect x="6.24493" y="41.6436" width="101.5" height="35" rx="17.5" stroke="white" stroke-opacity="0.1" stroke-dasharray="8 8"/>
<rect x="13.7449" y="49.3936" width="19.5" height="19.5" rx="9.75" fill="#EDEFF0"/>
<g clip-path="url(#clip0_7_1621)">
<path d="M23.5086 61.6762C23.4673 61.6903 23.4438 61.6544 23.4158 61.6379C22.0409 60.8265 20.6676 60.0145 19.2958 59.202C19.2825 59.1953 19.2687 59.1896 19.2546 59.1851V59.1669L19.2789 59.1529C19.3135 59.1438 19.3475 59.1328 19.3808 59.1199L22.6206 57.6458C22.9093 57.5142 23.198 57.3847 23.4867 57.2544H23.5073C23.5073 57.2956 23.5073 57.3323 23.5073 57.3715C23.5084 58.8066 23.5088 60.2415 23.5086 61.6762Z" fill="#393939"/>
<path d="M23.5106 57.2554H23.4899C23.4899 57.2141 23.4941 57.1729 23.4941 57.1296C23.4941 55.5178 23.4941 53.9058 23.4941 52.2937C23.4893 52.2523 23.4921 52.2103 23.5023 52.1699H23.511C23.6805 52.4203 23.8281 52.6842 23.984 52.9428C25.2192 54.9916 26.4536 57.0401 27.6874 59.0883C27.6994 59.1085 27.7088 59.1296 27.7196 59.1518C27.6846 59.1444 27.6503 59.1343 27.6169 59.1217C27.3904 59.0194 27.1632 58.9155 26.9388 58.8111C26.5874 58.6503 26.2359 58.4897 25.8842 58.3294L24.1899 57.5618C23.9642 57.4579 23.7374 57.3569 23.5106 57.2554Z" fill="#343434"/>
<path d="M23.5037 52.1679C23.4935 52.2083 23.4907 52.2502 23.4955 52.2916C23.4955 53.9034 23.4955 55.5154 23.4955 57.1275C23.4955 57.1688 23.493 57.21 23.4914 57.2533C23.2026 57.3837 22.9139 57.5132 22.6252 57.6447L19.3854 59.1188C19.3521 59.1317 19.3181 59.1428 19.2836 59.1518C19.3772 58.9572 19.4989 58.7806 19.6098 58.5942C20.8953 56.4575 22.1817 54.3211 23.4691 52.1852C23.4776 52.1734 23.4868 52.1621 23.4967 52.1514L23.5037 52.1679Z" fill="#8C8C8C"/>
<path d="M23.5107 57.2554C23.7375 57.3568 23.9644 57.4579 24.1908 57.5602L25.8851 58.3277C26.2371 58.4878 26.5886 58.6483 26.9398 58.8095C27.1658 58.913 27.3934 59.0178 27.6178 59.12C27.6513 59.1326 27.6856 59.1427 27.7205 59.1502C27.7618 59.2017 27.7007 59.2038 27.6822 59.2149C27.3303 59.4253 26.9769 59.6327 26.6242 59.8414C25.6121 60.4403 24.6002 61.039 23.5886 61.6376C23.563 61.6525 23.5354 61.6636 23.5086 61.6764C23.5086 60.2419 23.5086 58.8073 23.5086 57.3725C23.509 57.3333 23.5103 57.2946 23.5107 57.2554Z" fill="#141414"/>
<path d="M23.494 62.4911L26.144 60.9291C26.6499 60.6305 27.1556 60.3316 27.661 60.0325L27.7068 60.0073C27.7113 60.0486 27.6828 60.0704 27.6655 60.0943C26.5107 61.7224 25.3558 63.3499 24.201 64.9769C23.9824 65.2854 23.7642 65.5956 23.5435 65.9016C23.532 65.9177 23.5142 65.9932 23.4788 65.9132C23.5068 65.8892 23.4944 65.8571 23.4944 65.8307C23.4947 64.7171 23.4946 63.6039 23.494 62.4911Z" fill="#3D3D3C"/>
<path d="M23.4938 62.4914C23.4938 63.6041 23.4938 64.7167 23.4938 65.8289C23.4938 65.8573 23.5062 65.8895 23.4781 65.9114C23.4191 65.8759 23.3936 65.8124 23.3544 65.76C22.0153 63.8737 20.6769 61.9872 19.3392 60.1004C19.3223 60.0765 19.3066 60.0509 19.2893 60.0245C19.324 60.0043 19.3425 60.0319 19.3627 60.0439C20.7169 60.8435 22.0709 61.6438 23.4245 62.4448C23.4497 62.4604 23.4711 62.4765 23.4938 62.4914Z" fill="#8C8C8C"/>
<path d="M23.5039 52.1678L23.494 52.1526C23.5122 52.141 23.5097 52.1579 23.5126 52.1666L23.5039 52.1678Z" fill="#393939"/>
</g>
<path d="M38.5624 65.1436C38.5624 64.6022 38.5624 64.0772 38.5624 63.5686C38.5624 63.0599 38.5624 62.4952 38.5624 61.8746V58.4936C38.5624 57.8589 38.5624 57.2826 38.5624 56.7646C38.5624 56.2466 38.5624 55.7122 38.5624 55.1616H45.0444V56.7926C44.6057 56.7926 44.132 56.7926 43.6234 56.7926C43.1194 56.7926 42.5244 56.7926 41.8384 56.7926H39.4304L40.4804 55.4626C40.4804 56.0132 40.4804 56.5499 40.4804 57.0726C40.4804 57.5906 40.4804 58.1669 40.4804 58.8016V61.5666C40.4804 62.1872 40.4804 62.7519 40.4804 63.2606C40.4804 63.7692 40.4804 64.2966 40.4804 64.8426L39.5564 63.5126H41.9854C42.5594 63.5126 43.103 63.5126 43.6164 63.5126C44.1297 63.5126 44.622 63.5126 45.0934 63.5126V65.1436H38.5624ZM40.0394 60.8736V59.3266H41.9014C42.5267 59.3266 43.0634 59.3266 43.5114 59.3266C43.9594 59.3266 44.391 59.3266 44.8064 59.3266V60.8736C44.3677 60.8736 43.9244 60.8736 43.4764 60.8736C43.0284 60.8736 42.501 60.8736 41.8944 60.8736H40.0394ZM49.5235 65.3186C49.0241 65.3186 48.5995 65.2416 48.2495 65.0876C47.8995 64.9289 47.6311 64.6792 47.4445 64.3386C47.2578 63.9979 47.1645 63.5546 47.1645 63.0086C47.1645 62.6679 47.1645 62.3249 47.1645 61.9796C47.1645 61.6342 47.1645 61.2819 47.1645 60.9226C47.1645 60.5586 47.1645 60.1876 47.1645 59.8096C47.1645 59.4316 47.1645 59.0396 47.1645 58.6336C47.1645 58.1249 47.1645 57.6559 47.1645 57.2266C47.1645 56.7972 47.1645 56.3586 47.1645 55.9106L48.9215 55.5816C48.9215 55.9362 48.9215 56.2722 48.9215 56.5896C48.9215 56.9022 48.9215 57.2219 48.9215 57.5486C48.9215 57.8752 48.9215 58.2369 48.9215 58.6336V62.4766C48.9215 62.9292 49.0078 63.2722 49.1805 63.5056C49.3578 63.7342 49.6378 63.8486 50.0205 63.8486C50.1791 63.8486 50.3495 63.8206 50.5315 63.7646C50.7181 63.7086 50.8931 63.6222 51.0565 63.5056L51.1755 64.9686C51.0588 65.0432 50.9118 65.1062 50.7345 65.1576C50.5618 65.2089 50.3705 65.2486 50.1605 65.2766C49.9505 65.3046 49.7381 65.3186 49.5235 65.3186ZM45.9675 59.5226V58.1716H51.1265V59.5226C50.6785 59.5226 50.2281 59.5226 49.7755 59.5226C49.3228 59.5226 48.8841 59.5226 48.4595 59.5226H47.6825H45.9675ZM52.505 65.1436C52.505 64.6396 52.505 64.1519 52.505 63.6806C52.505 63.2092 52.505 62.6842 52.505 62.1056V58.2346C52.505 57.6606 52.505 57.0959 52.505 56.5406C52.505 55.9852 52.505 55.4346 52.505 54.8886L54.283 54.7206C54.283 55.2712 54.283 55.8359 54.283 56.4146C54.283 56.9932 54.283 57.5999 54.283 58.2346V59.2076H54.444C54.584 59.0069 54.7567 58.8132 54.962 58.6266C55.172 58.4399 55.4147 58.2882 55.69 58.1716C55.97 58.0502 56.2874 57.9896 56.642 57.9896C57.356 57.9896 57.888 58.1996 58.238 58.6196C58.5927 59.0349 58.77 59.6509 58.77 60.4676C58.77 60.7709 58.77 61.0509 58.77 61.3076C58.77 61.5596 58.77 61.8256 58.77 62.1056C58.77 62.6702 58.77 63.1929 58.77 63.6736C58.77 64.1496 58.77 64.6396 58.77 65.1436H56.992C56.992 64.6396 56.992 64.1519 56.992 63.6806C56.992 63.2092 56.992 62.7146 56.992 62.1966V61.0136C56.992 60.5562 56.9127 60.2109 56.754 59.9776C56.6 59.7442 56.32 59.6276 55.914 59.6276C55.676 59.6276 55.4567 59.6766 55.256 59.7746C55.06 59.8679 54.8804 59.9962 54.717 60.1596C54.5584 60.3182 54.4137 60.4979 54.283 60.6986V62.1966C54.283 62.7286 54.283 63.2279 54.283 63.6946C54.283 64.1566 54.283 64.6396 54.283 65.1436H52.505ZM63.9524 65.3186C63.0751 65.3186 62.3564 65.1599 61.7964 64.8426C61.2364 64.5252 60.8234 64.0889 60.5574 63.5336C60.2914 62.9782 60.1584 62.3436 60.1584 61.6296C60.1584 60.9202 60.2844 60.2926 60.5364 59.7466C60.7931 59.1959 61.1688 58.7666 61.6634 58.4586C62.1581 58.1506 62.7648 57.9966 63.4834 57.9966C64.1041 57.9966 64.6338 58.1109 65.0725 58.3396C65.5158 58.5636 65.8564 58.9019 66.0944 59.3546C66.3324 59.8026 66.4514 60.3672 66.4514 61.0486C66.4514 61.2306 66.4468 61.3939 66.4375 61.5386C66.4328 61.6832 66.4188 61.8256 66.3955 61.9656L64.8485 61.3426C64.8578 61.2772 64.8648 61.2119 64.8694 61.1466C64.8741 61.0766 64.8764 61.0112 64.8764 60.9506C64.8764 60.4372 64.7481 60.0359 64.4915 59.7466C64.2348 59.4526 63.9035 59.3056 63.4974 59.3056C63.1894 59.3056 62.9188 59.3942 62.6854 59.5716C62.4521 59.7442 62.2678 59.9869 62.1324 60.2996C61.9971 60.6122 61.9294 60.9739 61.9294 61.3846V61.6576C61.9294 62.1102 62.0088 62.4999 62.1674 62.8266C62.3261 63.1486 62.5711 63.3982 62.9024 63.5756C63.2338 63.7482 63.6514 63.8346 64.1554 63.8346C64.3514 63.8346 64.5708 63.8182 64.8135 63.7856C65.0608 63.7482 65.3105 63.6922 65.5625 63.6176C65.8144 63.5429 66.0501 63.4472 66.2695 63.3306L66.3254 64.8566C66.1481 64.9452 65.9404 65.0246 65.7024 65.0946C65.4644 65.1646 65.1984 65.2182 64.9044 65.2556C64.6104 65.2976 64.2931 65.3186 63.9524 65.3186ZM60.8584 61.9656V60.8526L65.3454 60.7756L66.3955 61.1746V61.9656H60.8584ZM67.9543 65.1436C67.9543 64.6396 67.9543 64.1519 67.9543 63.6806C67.9543 63.2092 67.9543 62.6842 67.9543 62.1056V61.4056C67.9543 60.8782 67.9543 60.3439 67.9543 59.8026C67.9543 59.2612 67.9543 58.7176 67.9543 58.1716L69.4663 58.0806L69.5363 59.4106H69.6903C69.8769 59.0139 70.0846 58.7152 70.3133 58.5146C70.5419 58.3092 70.7753 58.1716 71.0133 58.1016C71.2559 58.0269 71.4823 57.9896 71.6923 57.9896C71.8043 57.9896 71.9256 57.9989 72.0563 58.0176C72.1916 58.0362 72.3176 58.0689 72.4343 58.1156L72.2733 59.8586C72.1053 59.8352 71.9513 59.8189 71.8113 59.8096C71.6759 59.7956 71.5243 59.7886 71.3563 59.7886C71.2256 59.7886 71.0856 59.8049 70.9363 59.8376C70.7869 59.8702 70.6399 59.9356 70.4953 60.0336C70.3506 60.1269 70.2129 60.2646 70.0823 60.4466C69.9516 60.6286 69.8349 60.8666 69.7323 61.1606V62.1966C69.7323 62.7286 69.7323 63.2279 69.7323 63.6946C69.7323 64.1566 69.7323 64.6396 69.7323 65.1436H67.9543ZM76.845 65.3186C75.9677 65.3186 75.249 65.1599 74.689 64.8426C74.129 64.5252 73.716 64.0889 73.45 63.5336C73.184 62.9782 73.051 62.3436 73.051 61.6296C73.051 60.9202 73.177 60.2926 73.429 59.7466C73.6857 59.1959 74.0614 58.7666 74.556 58.4586C75.0507 58.1506 75.6574 57.9966 76.376 57.9966C76.9967 57.9966 77.5264 58.1109 77.965 58.3396C78.4084 58.5636 78.749 58.9019 78.987 59.3546C79.225 59.8026 79.344 60.3672 79.344 61.0486C79.344 61.2306 79.3394 61.3939 79.33 61.5386C79.3254 61.6832 79.3114 61.8256 79.288 61.9656L77.741 61.3426C77.7504 61.2772 77.7574 61.2119 77.762 61.1466C77.7667 61.0766 77.769 61.0112 77.769 60.9506C77.769 60.4372 77.6407 60.0359 77.384 59.7466C77.1274 59.4526 76.796 59.3056 76.39 59.3056C76.082 59.3056 75.8114 59.3942 75.578 59.5716C75.3447 59.7442 75.1604 59.9869 75.025 60.2996C74.8897 60.6122 74.822 60.9739 74.822 61.3846V61.6576C74.822 62.1102 74.9014 62.4999 75.06 62.8266C75.2187 63.1486 75.4637 63.3982 75.795 63.5756C76.1264 63.7482 76.544 63.8346 77.048 63.8346C77.244 63.8346 77.4634 63.8182 77.706 63.7856C77.9534 63.7482 78.203 63.6922 78.455 63.6176C78.707 63.5429 78.9427 63.4472 79.162 63.3306L79.218 64.8566C79.0407 64.9452 78.833 65.0246 78.595 65.0946C78.357 65.1646 78.091 65.2182 77.797 65.2556C77.503 65.2976 77.1857 65.3186 76.845 65.3186ZM73.751 61.9656V60.8526L78.238 60.7756L79.288 61.1746V61.9656H73.751ZM82.8348 65.3186C82.1208 65.3186 81.5865 65.1109 81.2318 64.6956C80.8818 64.2756 80.7068 63.6572 80.7068 62.8406C80.7068 62.5326 80.7068 62.2642 80.7068 62.0356C80.7068 61.8069 80.7068 61.5736 80.7068 61.3356C80.7068 60.8876 80.7068 60.4886 80.7068 60.1386C80.7068 59.7886 80.7068 59.4572 80.7068 59.1446C80.7068 58.8319 80.7068 58.5076 80.7068 58.1716L82.4848 58.1156C82.4848 58.6149 82.4848 59.1096 82.4848 59.5996C82.4848 60.0849 82.4848 60.5936 82.4848 61.1256V62.3296C82.4848 62.7869 82.5618 63.1322 82.7158 63.3656C82.8745 63.5989 83.1568 63.7156 83.5628 63.7156C83.7915 63.7156 84.0015 63.6689 84.1928 63.5756C84.3888 63.4776 84.5662 63.3492 84.7248 63.1906C84.8835 63.0272 85.0282 62.8452 85.1588 62.6446V61.1256C85.1588 60.5936 85.1588 60.0942 85.1588 59.6276C85.1588 59.1562 85.1588 58.6709 85.1588 58.1716H86.9368C86.9368 58.6709 86.9368 59.1656 86.9368 59.6556C86.9368 60.1409 86.9368 60.7009 86.9368 61.3356V62.1056C86.9368 62.6842 86.9368 63.2092 86.9368 63.6806C86.9368 64.1519 86.9368 64.6396 86.9368 65.1436H85.4248L85.3548 63.9886H85.1938C85.0398 64.2126 84.8508 64.4272 84.6268 64.6326C84.4028 64.8332 84.1415 64.9989 83.8428 65.1296C83.5442 65.2556 83.2082 65.3186 82.8348 65.3186ZM88.7765 65.1436C88.7765 64.6396 88.7765 64.1519 88.7765 63.6806C88.7765 63.2092 88.7765 62.6842 88.7765 62.1056V61.4056C88.7765 60.8782 88.7765 60.3439 88.7765 59.8026C88.7765 59.2612 88.7765 58.7176 88.7765 58.1716L90.2885 58.0806L90.3585 59.3126H90.5195C90.6735 59.0932 90.8579 58.8832 91.0725 58.6826C91.2919 58.4772 91.5462 58.3116 91.8355 58.1856C92.1249 58.0549 92.4539 57.9896 92.8225 57.9896C93.3732 57.9896 93.7979 58.1272 94.0965 58.4026C94.3952 58.6732 94.5935 59.0652 94.6915 59.5786L94.8105 59.6066C94.8339 59.7372 94.8525 59.8749 94.8665 60.0196C94.8805 60.1596 94.8875 60.3089 94.8875 60.4676C94.8875 60.7709 94.8875 61.0509 94.8875 61.3076C94.8875 61.5596 94.8875 61.8256 94.8875 62.1056C94.8875 62.6702 94.8875 63.1929 94.8875 63.6736C94.8875 64.1496 94.8875 64.6396 94.8875 65.1436H93.1095C93.1095 64.6396 93.1095 64.1519 93.1095 63.6806C93.1095 63.2092 93.1095 62.7146 93.1095 62.1966V61.0136C93.1095 60.5562 93.0349 60.2109 92.8855 59.9776C92.7409 59.7442 92.4772 59.6276 92.0945 59.6276C91.8705 59.6276 91.6652 59.6766 91.4785 59.7746C91.2919 59.8679 91.1215 59.9962 90.9675 60.1596C90.8182 60.3229 90.6805 60.5026 90.5545 60.6986V62.1966C90.5545 62.7286 90.5545 63.2279 90.5545 63.6946C90.5545 64.1566 90.5545 64.6396 90.5545 65.1436H88.7765ZM97.4075 65.1436C97.4075 64.6396 97.4075 64.1519 97.4075 63.6806C97.4075 63.2092 97.4075 62.7146 97.4075 62.1966V61.0136C97.4075 60.5562 97.3329 60.2109 97.1835 59.9776C97.0389 59.7442 96.7752 59.6276 96.3925 59.6276C96.1639 59.6276 95.9562 59.6766 95.7695 59.7746C95.5829 59.8679 95.4125 59.9962 95.2585 60.1596C95.1045 60.3182 94.9669 60.4979 94.8455 60.6986L94.5865 59.3336H94.7475C94.9109 59.1049 95.1045 58.8879 95.3285 58.6826C95.5572 58.4772 95.8185 58.3116 96.1125 58.1856C96.4112 58.0549 96.7495 57.9896 97.1275 57.9896C97.8275 57.9896 98.3455 58.2019 98.6815 58.6266C99.0175 59.0512 99.1855 59.6649 99.1855 60.4676C99.1855 60.7709 99.1855 61.0509 99.1855 61.3076C99.1855 61.5596 99.1855 61.8256 99.1855 62.1056C99.1855 62.6702 99.1855 63.1929 99.1855 63.6736C99.1855 64.1496 99.1855 64.6396 99.1855 65.1436H97.4075Z" fill="#EEEEEE"/>
<g filter="url(#filter1_d_7_1621)">
<rect x="114.245" y="41.7869" width="93.5" height="38" rx="19" transform="rotate(-2 114.245 41.7869)" fill="#F6931A" shape-rendering="crispEdges"/>
<rect x="126.56" y="50.6125" width="19.5" height="19.5" rx="4.23913" transform="rotate(-2 126.56 50.6125)" fill="#F6931A"/>
<path d="M140.228 60.2417C140.413 60.3319 140.591 60.4379 140.758 60.5586C141.343 60.9898 141.604 61.568 141.537 62.2902C141.495 62.8255 141.325 63.3428 141.04 63.7981C140.689 64.3475 140.175 64.6557 139.547 64.7864C139.026 64.8951 138.501 64.8841 137.975 64.8321C137.784 64.8138 137.594 64.788 137.404 64.7598C137.342 64.7503 137.324 64.7705 137.312 64.829C137.189 65.4212 137.06 66.0124 136.937 66.6051C136.92 66.6889 136.896 66.7044 136.812 66.6847C136.478 66.6071 136.142 66.5376 135.807 66.4692C135.745 66.4579 135.738 66.4411 135.75 66.3832C135.877 65.7945 136 65.2048 136.128 64.6161C136.142 64.5496 136.135 64.5224 136.063 64.5078C135.804 64.4533 135.545 64.3951 135.286 64.3333C135.22 64.3172 135.202 64.3362 135.189 64.3978C135.065 64.99 134.937 65.5817 134.814 66.1739C134.8 66.2404 134.781 66.252 134.715 66.2385C134.376 66.1631 134.036 66.0909 133.694 66.0217C133.632 66.0092 133.623 65.9839 133.635 65.9254C133.763 65.3312 133.887 64.736 134.016 64.1399C134.033 64.0629 134.016 64.0384 133.941 64.0203C133.202 63.8628 132.469 63.705 131.733 63.5474C131.68 63.5364 131.664 63.5242 131.686 63.4684C131.85 63.0552 132.012 62.6422 132.172 62.2292C132.192 62.1766 132.219 62.1768 132.266 62.188C132.52 62.2452 132.773 62.3048 133.029 62.3521C133.347 62.4112 133.53 62.2808 133.597 61.9656C133.804 60.9924 134.011 60.0194 134.218 59.0466C134.376 58.3078 134.534 57.5689 134.691 56.8301C134.755 56.5309 134.589 56.2507 134.28 56.1441C134.04 56.0716 133.796 56.0146 133.548 55.9735C133.476 55.9583 133.404 55.9419 133.33 55.931C133.291 55.9251 133.285 55.91 133.292 55.8712C133.375 55.4876 133.457 55.104 133.536 54.7193C133.55 54.6504 133.591 54.671 133.629 54.6788C133.921 54.7401 134.211 54.8045 134.504 54.8652C134.946 54.9561 135.385 55.0636 135.829 55.1465C135.902 55.1604 135.929 55.1503 135.945 55.0728C136.066 54.4886 136.192 53.9031 136.312 53.322C136.327 53.2487 136.348 53.2272 136.425 53.2447C136.759 53.321 137.095 53.3918 137.43 53.4595C137.501 53.4742 137.509 53.5008 137.495 53.5667C137.37 54.1436 137.249 54.7217 137.124 55.2987C137.111 55.3602 137.118 55.3777 137.183 55.3901C137.444 55.4378 137.705 55.4898 137.964 55.5462C138.038 55.5631 138.058 55.5386 138.073 55.4721C138.19 54.9082 138.311 54.3454 138.427 53.7816C138.443 53.704 138.464 53.6758 138.553 53.6966C138.883 53.7736 139.216 53.8427 139.548 53.9099C139.613 53.9229 139.627 53.9438 139.613 54.0097C139.485 54.5984 139.364 55.1881 139.234 55.7762C139.218 55.8513 139.238 55.8726 139.305 55.8959C139.768 56.0291 140.211 56.2237 140.623 56.4745C141.01 56.7194 141.334 57.0235 141.519 57.4527C141.718 57.923 141.699 58.404 141.573 58.8863C141.395 59.5692 140.967 60.0119 140.289 60.2145C140.266 60.219 140.251 60.228 140.228 60.2417ZM137.676 63.2152L137.755 63.2124C138.04 63.1933 138.32 63.1524 138.576 63.0169C139.224 62.6741 139.334 61.7927 138.795 61.2774C138.479 60.9768 138.093 60.813 137.691 60.6792C137.196 60.5131 136.678 60.4261 136.166 60.3212C136.091 60.3061 136.078 60.3297 136.065 60.3925C135.895 61.2047 135.723 62.0162 135.548 62.8269C135.533 62.8922 135.554 62.9074 135.612 62.9188C135.832 62.9637 136.05 63.0153 136.27 63.0608C136.731 63.1628 137.202 63.2136 137.674 63.2122L137.676 63.2152ZM138.068 59.376C138.225 59.3733 138.381 59.3543 138.534 59.3194C138.939 59.2197 139.225 58.9897 139.329 58.5748C139.433 58.1599 139.323 57.7928 138.986 57.5076C138.808 57.361 138.607 57.2442 138.391 57.1617C137.91 56.9664 137.4 56.8779 136.892 56.782C136.83 56.7701 136.827 56.8081 136.818 56.8506C136.755 57.1477 136.691 57.4451 136.627 57.7427C136.535 58.1737 136.444 58.6089 136.349 59.0412C136.335 59.1028 136.347 59.1293 136.414 59.1416C136.542 59.1641 136.667 59.1982 136.794 59.2249C137.214 59.308 137.635 59.3862 138.067 59.373L138.068 59.376Z" fill="white"/>
<path d="M155.131 65.3744C154.641 65.3915 154.187 65.4073 153.767 65.422C153.347 65.4367 152.967 65.4499 152.627 65.4618C152.291 65.4735 152.002 65.4836 151.759 65.4921C151.74 64.9511 151.722 64.4264 151.704 63.9181C151.686 63.4097 151.667 62.8454 151.645 62.2251L151.527 58.8462C151.505 58.2119 151.485 57.6359 151.467 57.1182C151.449 56.6005 151.43 56.0665 151.411 55.5162C151.961 55.497 152.577 55.4755 153.258 55.4517C153.939 55.4279 154.627 55.4039 155.321 55.3796C155.97 55.357 156.517 55.3939 156.964 55.4904C157.411 55.5822 157.771 55.726 158.044 55.9219C158.322 56.113 158.524 56.3488 158.65 56.6292C158.781 56.9048 158.853 57.2198 158.865 57.5743C158.88 57.9987 158.814 58.3722 158.666 58.6949C158.519 59.0129 158.313 59.2793 158.05 59.4939C157.786 59.7039 157.486 59.8615 157.149 59.9667L157.154 60.1276C157.535 60.1936 157.882 60.3146 158.197 60.4904C158.511 60.6615 158.762 60.9072 158.951 61.2275C159.144 61.543 159.249 61.9502 159.267 62.4492C159.281 62.8597 159.226 63.2375 159.103 63.5826C158.984 63.923 158.77 64.2223 158.462 64.4806C158.153 64.7388 157.729 64.9451 157.188 65.0994C156.647 65.2537 155.961 65.3454 155.131 65.3744ZM153.622 63.8791L155.245 63.8224C155.725 63.8057 156.113 63.7384 156.408 63.6207C156.707 63.4982 156.923 63.3319 157.056 63.1218C157.188 62.9071 157.249 62.6504 157.239 62.352C157.223 61.8856 157.045 61.5509 156.707 61.3479C156.373 61.1448 155.9 61.0539 155.289 61.0752L153.072 61.1527L153.02 59.6766L155.168 59.6016C155.569 59.5876 155.895 59.5154 156.148 59.3852C156.405 59.2502 156.59 59.0756 156.704 58.8615C156.818 58.6474 156.87 58.4074 156.861 58.1416C156.846 57.7172 156.702 57.4047 156.429 57.2041C156.16 56.9987 155.76 56.9053 155.228 56.9238L153.381 56.9883C153.393 57.3334 153.406 57.6832 153.418 58.0377C153.43 58.3921 153.444 58.7885 153.46 59.2269L153.547 61.7384C153.562 62.1535 153.575 62.5313 153.587 62.8717C153.599 63.2075 153.61 63.5433 153.622 63.8791ZM160.864 65.1742C160.847 64.6705 160.83 64.1831 160.813 63.712C160.797 63.241 160.778 62.7163 160.758 62.138L160.734 61.4384C160.718 60.9907 160.704 60.5873 160.691 60.2282C160.679 59.8644 160.667 59.5216 160.656 59.1998C160.644 58.8733 160.633 58.5422 160.621 58.2064L162.396 58.0884C162.408 58.4288 162.419 58.7646 162.431 59.0958C162.443 59.4269 162.455 59.7767 162.468 60.1451C162.48 60.5089 162.495 60.9193 162.511 61.3764L162.535 62.076C162.555 62.6543 162.574 63.1789 162.59 63.65C162.606 64.121 162.623 64.6084 162.641 65.1121L160.864 65.1742ZM161.445 56.9239C161.104 56.9358 160.828 56.8613 160.617 56.7006C160.406 56.5352 160.294 56.266 160.281 55.8929C160.269 55.5524 160.363 55.29 160.562 55.1056C160.76 54.9165 161.035 54.8159 161.385 54.8037C161.734 54.7915 162.013 54.8751 162.22 55.0547C162.432 55.2341 162.543 55.487 162.554 55.8135C162.568 56.1866 162.474 56.463 162.275 56.6427C162.081 56.8176 161.804 56.9113 161.445 56.9239ZM167.502 65.1175C167.003 65.1349 166.576 65.0728 166.221 64.9311C165.865 64.7847 165.589 64.5446 165.39 64.2106C165.192 63.8767 165.083 63.4369 165.064 62.8912C165.052 62.5507 165.04 62.2079 165.028 61.8628C165.016 61.5177 165.004 61.1656 164.991 60.8065C164.978 60.4427 164.965 60.0719 164.952 59.6941C164.939 59.3164 164.925 58.9246 164.911 58.5189C164.893 58.0105 164.877 57.5418 164.862 57.1127C164.847 56.6836 164.832 56.2452 164.816 55.7975L166.561 55.4074C166.573 55.7619 166.585 56.0976 166.596 56.4148C166.607 56.7273 166.618 57.0467 166.629 57.3732C166.641 57.6997 166.653 58.0611 166.667 58.4575L166.801 62.2982C166.817 62.7506 166.915 63.0904 167.096 63.3175C167.281 63.5399 167.565 63.6444 167.947 63.631C168.106 63.6255 168.275 63.5915 168.455 63.5292C168.64 63.4668 168.812 63.3744 168.971 63.2521L169.141 64.71C169.027 64.7887 168.882 64.8568 168.707 64.9143C168.536 64.9716 168.346 65.0179 168.137 65.0533C167.928 65.0886 167.717 65.11 167.502 65.1175ZM163.746 59.4491L163.699 58.0989L168.855 57.9189L168.902 59.2691C168.454 59.2847 168.004 59.3004 167.552 59.3162C167.099 59.332 166.661 59.3473 166.236 59.3621L165.46 59.3892L163.746 59.4491ZM173.644 64.8749C172.866 64.9021 172.198 64.769 171.641 64.4756C171.089 64.1774 170.661 63.7604 170.358 63.2246C170.059 62.6887 169.897 62.0733 169.873 61.3784C169.849 60.6789 169.96 60.0493 170.206 59.4897C170.453 58.9254 170.829 58.4756 171.336 58.1404C171.847 57.8004 172.487 57.6169 173.257 57.59C173.532 57.5804 173.806 57.5919 174.078 57.6244C174.35 57.6569 174.606 57.7087 174.847 57.7797C175.092 57.8458 175.309 57.9269 175.499 58.023L175.414 59.581C175.143 59.441 174.894 59.3353 174.667 59.2638C174.445 59.1922 174.241 59.1457 174.053 59.1242C173.865 59.1027 173.697 59.0946 173.548 59.0998C172.96 59.1203 172.496 59.3257 172.155 59.7158C171.818 60.1058 171.661 60.6226 171.683 61.2662C171.698 61.6906 171.795 62.0654 171.975 62.3907C172.154 62.7113 172.41 62.9615 172.743 63.1413C173.081 63.3163 173.495 63.3953 173.984 63.3782C174.166 63.3718 174.348 63.3491 174.528 63.3101C174.709 63.2711 174.887 63.2159 175.062 63.1444C175.237 63.0683 175.404 62.9737 175.563 62.8608L175.723 64.4101C175.567 64.4903 175.385 64.5644 175.177 64.6323C174.974 64.6954 174.744 64.7478 174.489 64.7894C174.234 64.8357 173.952 64.8642 173.644 64.8749ZM180.484 64.6641C179.869 64.6856 179.329 64.6064 178.865 64.4265C178.401 64.2419 178.011 63.9823 177.696 63.6478C177.381 63.3133 177.141 62.9271 176.976 62.4892C176.811 62.0514 176.721 61.5899 176.704 61.1049C176.679 60.41 176.798 59.7848 177.058 59.2294C177.319 58.6693 177.712 58.2213 178.237 57.8854C178.767 57.5494 179.419 57.3678 180.193 57.3408C180.79 57.32 181.316 57.395 181.77 57.5659C182.229 57.732 182.616 57.9753 182.93 58.2959C183.25 58.6162 183.494 58.9953 183.664 59.433C183.833 59.866 183.926 60.339 183.944 60.852C183.969 61.5516 183.848 62.1839 183.583 62.7488C183.323 63.3136 182.93 63.7685 182.405 64.1137C181.88 64.4543 181.24 64.6377 180.484 64.6641ZM180.426 63.1953C180.827 63.1812 181.154 63.0647 181.408 62.8458C181.667 62.6219 181.855 62.3398 181.974 61.9995C182.093 61.6591 182.146 61.2977 182.132 60.9153C182.117 60.4676 182.029 60.0854 181.868 59.7688C181.712 59.4474 181.496 59.2051 181.219 59.042C180.943 58.8743 180.625 58.7966 180.266 58.8092C179.869 58.823 179.537 58.9327 179.269 59.1382C179.005 59.3388 178.809 59.6048 178.68 59.9362C178.556 60.2674 178.501 60.6359 178.516 61.0416C178.529 61.424 178.609 61.7808 178.756 62.1119C178.903 62.4429 179.116 62.711 179.394 62.9161C179.676 63.1164 180.02 63.2094 180.426 63.1953ZM185.636 64.3091C185.619 63.8054 185.602 63.318 185.585 62.847C185.569 62.3759 185.55 61.8513 185.53 61.2729L185.506 60.5734C185.49 60.1256 185.476 59.7222 185.463 59.3631C185.451 58.9993 185.439 58.6565 185.428 58.3347C185.416 58.0083 185.405 57.6771 185.393 57.3413L187.168 57.2233C187.18 57.5638 187.191 57.8996 187.203 58.2307C187.215 58.5618 187.227 58.9116 187.24 59.2801C187.252 59.6439 187.267 60.0543 187.283 60.5113L187.307 61.2109C187.327 61.7892 187.346 62.3139 187.362 62.7849C187.378 63.256 187.395 63.7434 187.413 64.247L185.636 64.3091ZM186.217 56.0588C185.876 56.0707 185.6 55.9963 185.389 55.8356C185.178 55.6702 185.066 55.4009 185.053 55.0278C185.041 54.6873 185.135 54.4249 185.334 54.2405C185.532 54.0515 185.807 53.9508 186.157 53.9386C186.506 53.9264 186.785 54.0101 186.992 54.1896C187.204 54.369 187.315 54.6219 187.327 54.9484C187.34 55.3215 187.246 55.5979 187.047 55.7777C186.853 55.9526 186.576 56.0463 186.217 56.0588ZM189.4 64.1777C189.382 63.674 189.365 63.1866 189.349 62.7156C189.332 62.2445 189.314 61.7198 189.294 61.1415L189.269 60.442C189.251 59.9149 189.232 59.3809 189.213 58.8399C189.194 58.2989 189.175 57.7556 189.156 57.2099L190.664 57.0662L190.777 58.302L190.938 58.2964C191.084 58.0672 191.266 57.8484 191.483 57.64C191.704 57.4268 191.962 57.252 192.256 57.1157C192.555 56.9745 192.897 56.8972 193.284 56.8837C193.998 56.8587 194.537 57.05 194.901 57.4576C195.27 57.8603 195.469 58.4697 195.498 59.2859C195.508 59.589 195.518 59.8689 195.527 60.1254C195.536 60.3772 195.545 60.643 195.555 60.9229C195.575 61.4872 195.593 62.0096 195.61 62.4899C195.626 62.9656 195.643 63.4553 195.661 63.959L193.884 64.0211C193.866 63.5174 193.849 63.03 193.833 62.559C193.816 62.0879 193.799 61.5936 193.781 61.0759L193.74 59.8936C193.724 59.4365 193.632 59.0942 193.466 58.8665C193.304 58.6387 193.02 58.5319 192.614 58.5461C192.376 58.5544 192.159 58.611 191.962 58.7159C191.769 58.8161 191.594 58.9506 191.436 59.1195C191.283 59.2836 191.145 59.4682 191.021 59.6733L191.074 61.1704C191.092 61.7021 191.11 62.2011 191.126 62.6675C191.142 63.1292 191.159 63.6119 191.177 64.1156L189.4 64.1777Z" fill="white"/>
</g>
<rect x="215.514" y="41.6436" width="80" height="35" rx="17.5" stroke="white" stroke-opacity="0.1" stroke-dasharray="8 8"/>
<rect x="227.014" y="49.6436" width="19" height="19" rx="9.5" fill="#26A07B"/>
<path d="M236.507 54.0099C237.911 54.0099 239.315 54.0099 240.723 54.0099C240.849 54.0099 240.883 54.0401 240.883 54.1675C240.883 54.7831 240.883 55.3965 240.883 56.0099C240.883 56.1287 240.849 56.1546 240.736 56.1524C239.762 56.1524 238.792 56.1524 237.812 56.1524C237.684 56.1524 237.659 56.187 237.661 56.3058C237.669 56.6758 237.669 57.0451 237.661 57.4138C237.661 57.5304 237.684 57.5671 237.81 57.5736C238.835 57.6074 239.855 57.7449 240.853 57.984C241.181 58.0601 241.499 58.1754 241.799 58.3274C241.92 58.3871 242.03 58.4675 242.123 58.565C242.158 58.5968 242.187 58.6357 242.206 58.6792C242.226 58.7228 242.236 58.7699 242.236 58.8176C242.236 58.8653 242.226 58.9125 242.206 58.9561C242.187 58.9996 242.158 59.0385 242.123 59.0703C241.94 59.2482 241.718 59.3806 241.475 59.457C240.883 59.6673 240.269 59.8121 239.646 59.8889C239.029 59.9833 238.407 60.041 237.784 60.0617C237.667 60.0617 237.667 60.1222 237.667 60.2086C237.667 61.6082 237.667 63.0164 237.667 64.4073C237.667 64.5498 237.63 64.5801 237.492 64.5801C236.818 64.5801 236.142 64.5801 235.469 64.5801C235.354 64.5801 235.332 64.5477 235.332 64.4418C235.332 63.0552 235.332 61.6708 235.332 60.2842C235.332 60.0682 235.332 60.0682 235.116 60.0682C234.108 60.0237 233.106 59.8804 232.125 59.6405C231.755 59.5603 231.399 59.421 231.073 59.228C230.641 58.958 230.641 58.6578 231.073 58.3922C231.509 58.1464 231.984 57.979 232.477 57.8976C233.377 57.7095 234.291 57.5975 235.209 57.5628C235.315 57.5628 235.339 57.5282 235.337 57.4289C235.337 57.0531 235.337 56.6794 235.337 56.3058C235.337 56.1848 235.313 56.1438 235.181 56.1459C234.209 56.1459 233.237 56.1459 232.268 56.1459C232.136 56.1459 232.112 56.1049 232.112 55.9839C232.112 55.3749 232.112 54.7658 232.112 54.1546C232.112 54.0207 232.155 54.0012 232.274 54.0012C233.687 54.012 235.097 54.0099 236.507 54.0099ZM236.583 59.7032C237.32 59.711 238.057 59.6793 238.79 59.6081C239.446 59.5546 240.097 59.4448 240.734 59.2799C240.991 59.2212 241.237 59.1221 241.462 58.9861C241.749 58.7982 241.745 58.5995 241.462 58.4116C241.322 58.3183 241.169 58.2455 241.008 58.1956C239.943 57.9023 238.845 57.7434 237.741 57.7226C237.639 57.7226 237.656 57.7788 237.656 57.8371C237.656 58.2691 237.656 58.714 237.656 59.1524C237.656 59.2518 237.633 59.2928 237.529 59.2971C236.831 59.323 236.134 59.3274 235.436 59.2971C235.345 59.2971 235.324 59.2604 235.324 59.174C235.324 58.7291 235.324 58.2863 235.324 57.8436C235.324 57.7442 235.296 57.7226 235.199 57.7248C234.719 57.7464 234.24 57.7874 233.762 57.8436C233.156 57.9041 232.557 58.0249 231.974 58.2042C231.802 58.2523 231.637 58.3251 231.486 58.4202C231.224 58.5995 231.227 58.7939 231.486 58.9731C231.587 59.0393 231.695 59.0944 231.808 59.1373C232.189 59.2776 232.583 59.3796 232.985 59.4418C234.174 59.6351 235.378 59.7225 236.583 59.7032Z" fill="white"/>
<path d="M255.387 65.3186C254.398 65.3186 253.6 65.1576 252.993 64.8356C252.386 64.5089 251.943 64.0492 251.663 63.4566C251.388 62.8592 251.25 62.1569 251.25 61.3496C251.25 61.1629 251.25 60.9179 251.25 60.6146C251.25 60.3112 251.25 59.9752 251.25 59.6066C251.25 59.2379 251.25 58.8692 251.25 58.5006C251.25 57.8612 251.25 57.2826 251.25 56.7646C251.25 56.2466 251.25 55.7122 251.25 55.1616H253.21C253.21 55.7122 253.21 56.2466 253.21 56.7646C253.21 57.2826 253.21 57.8612 253.21 58.5006V61.2236C253.21 61.7416 253.282 62.1849 253.427 62.5536C253.572 62.9222 253.803 63.2046 254.12 63.4006C254.442 63.5919 254.862 63.6876 255.38 63.6876C255.907 63.6876 256.327 63.5919 256.64 63.4006C256.957 63.2046 257.184 62.9222 257.319 62.5536C257.459 62.1849 257.529 61.7392 257.529 61.2166V58.5006C257.529 57.8612 257.529 57.2826 257.529 56.7646C257.529 56.2466 257.529 55.7122 257.529 55.1616H259.489C259.489 55.7122 259.489 56.2466 259.489 56.7646C259.489 57.2826 259.489 57.8612 259.489 58.5006C259.489 58.8692 259.489 59.2402 259.489 59.6136C259.489 59.9822 259.489 60.3206 259.489 60.6286C259.489 60.9366 259.489 61.1792 259.489 61.3566C259.489 62.1592 259.344 62.8592 259.055 63.4566C258.766 64.0492 258.32 64.5089 257.718 64.8356C257.116 65.1576 256.339 65.3186 255.387 65.3186ZM264.634 65.3186C264.219 65.3186 263.794 65.2812 263.36 65.2066C262.931 65.1366 262.53 65.0479 262.156 64.9406C261.788 64.8286 261.489 64.7166 261.26 64.6046L261.407 62.8266C261.729 63.0086 262.063 63.1649 262.408 63.2956C262.758 63.4262 263.108 63.5266 263.458 63.5966C263.813 63.6666 264.158 63.7016 264.494 63.7016C264.844 63.7016 265.155 63.6572 265.425 63.5686C265.696 63.4799 265.906 63.3422 266.055 63.1556C266.209 62.9689 266.286 62.7309 266.286 62.4416C266.286 62.1476 266.195 61.9049 266.013 61.7136C265.836 61.5222 265.577 61.3566 265.236 61.2166C264.9 61.0719 264.497 60.9296 264.025 60.7896C263.409 60.6029 262.882 60.3929 262.443 60.1596C262.009 59.9216 261.676 59.6206 261.442 59.2566C261.214 58.8926 261.099 58.4236 261.099 57.8496C261.099 57.2896 261.225 56.7926 261.477 56.3586C261.734 55.9199 262.117 55.5792 262.625 55.3366C263.134 55.0892 263.771 54.9656 264.536 54.9656C264.84 54.9656 265.145 54.9866 265.453 55.0286C265.761 55.0659 266.058 55.1196 266.342 55.1896C266.627 55.2549 266.888 55.3319 267.126 55.4206C267.369 55.5046 267.579 55.5932 267.756 55.6866L267.595 57.4646C267.306 57.2779 267 57.1192 266.678 56.9886C266.361 56.8579 266.046 56.7599 265.733 56.6946C265.425 56.6292 265.141 56.5966 264.879 56.5966C264.567 56.5966 264.28 56.6409 264.018 56.7296C263.762 56.8136 263.554 56.9442 263.395 57.1216C263.241 57.2942 263.164 57.5136 263.164 57.7796C263.164 58.0362 263.234 58.2509 263.374 58.4236C263.514 58.5962 263.734 58.7502 264.032 58.8856C264.331 59.0209 264.714 59.1609 265.18 59.3056C265.978 59.5482 266.608 59.8002 267.07 60.0616C267.532 60.3182 267.859 60.6262 268.05 60.9856C268.246 61.3449 268.344 61.7952 268.344 62.3366C268.344 62.9246 268.214 63.4426 267.952 63.8906C267.696 64.3386 267.294 64.6886 266.748 64.9406C266.202 65.1926 265.498 65.3186 264.634 65.3186ZM269.894 65.1436C269.894 64.6022 269.894 64.0772 269.894 63.5686C269.894 63.0599 269.894 62.4952 269.894 61.8746V58.5006C269.894 57.8612 269.894 57.2826 269.894 56.7646C269.894 56.2466 269.894 55.7122 269.894 55.1616C270.295 55.1616 270.704 55.1616 271.119 55.1616C271.539 55.1616 271.964 55.1616 272.393 55.1616C272.827 55.1616 273.266 55.1616 273.709 55.1616C274.474 55.1616 275.153 55.2712 275.746 55.4906C276.343 55.7099 276.845 56.0342 277.251 56.4636C277.662 56.8882 277.972 57.4062 278.182 58.0176C278.397 58.6289 278.504 59.3289 278.504 60.1176C278.504 60.8222 278.411 61.4802 278.224 62.0916C278.037 62.6982 277.739 63.2302 277.328 63.6876C276.917 64.1449 276.376 64.5019 275.704 64.7586C275.032 65.0152 274.213 65.1436 273.247 65.1436C272.813 65.1436 272.409 65.1436 272.036 65.1436C271.663 65.1436 271.301 65.1436 270.951 65.1436C270.606 65.1436 270.253 65.1436 269.894 65.1436ZM271.861 63.5616H273.247C274.04 63.5616 274.673 63.4122 275.144 63.1136C275.615 62.8102 275.954 62.3972 276.159 61.8746C276.364 61.3472 276.467 60.7522 276.467 60.0896C276.467 59.5856 276.406 59.1282 276.285 58.7176C276.164 58.3069 275.977 57.9546 275.725 57.6606C275.478 57.3619 275.158 57.1356 274.766 56.9816C274.374 56.8229 273.91 56.7436 273.373 56.7436H271.861C271.861 57.0842 271.861 57.4272 271.861 57.7726C271.861 58.1179 271.861 58.5076 271.861 58.9416V61.4196C271.861 61.8349 271.861 62.2129 271.861 62.5536C271.861 62.8942 271.861 63.2302 271.861 63.5616ZM282.284 65.1436C282.284 64.6022 282.284 64.0772 282.284 63.5686C282.284 63.0599 282.284 62.4952 282.284 61.8746V58.8016C282.284 58.1622 282.284 57.5836 282.284 57.0656C282.284 56.5476 282.284 56.0132 282.284 55.4626L283.033 56.8766H281.752C281.215 56.8766 280.737 56.8766 280.317 56.8766C279.901 56.8766 279.507 56.8766 279.134 56.8766V55.1616H287.38V56.8766C287.006 56.8766 286.612 56.8766 286.197 56.8766C285.781 56.8766 285.303 56.8766 284.762 56.8766H283.481L284.237 55.4626C284.237 56.0132 284.237 56.5476 284.237 57.0656C284.237 57.5836 284.237 58.1622 284.237 58.8016V61.8746C284.237 62.4952 284.237 63.0599 284.237 63.5686C284.237 64.0772 284.237 64.6022 284.237 65.1436H282.284Z" fill="#EEEEEE"/>
<rect x="302.514" y="41.6436" width="63" height="35" rx="17.5" stroke="white" stroke-opacity="0.1" stroke-dasharray="8 8"/>
<rect x="310.014" y="49.6436" width="19" height="19" rx="9.5" fill="#3E5C98"/>
<path fill-rule="evenodd" clip-rule="evenodd" d="M321.064 53.1715C321.098 53.1703 321.133 53.1761 321.166 53.1881C321.198 53.2002 321.227 53.2184 321.252 53.2419C321.278 53.2654 321.299 53.2944 321.313 53.3258C321.327 53.3571 321.335 53.3911 321.336 53.4255V53.5114L319.75 58.901L321.246 58.4489L320.928 59.5358L319.411 59.9655L318.437 63.2497H323.646C323.681 63.2485 323.715 63.2542 323.748 63.2663C323.78 63.2783 323.809 63.2966 323.834 63.32C323.86 63.3435 323.88 63.3725 323.894 63.404C323.908 63.4353 323.916 63.4691 323.917 63.5036V63.5895L323.465 65.152C323.445 65.2259 323.4 65.2913 323.338 65.3366C323.277 65.3816 323.202 65.4041 323.125 65.401H315.153L316.49 60.8493L314.995 61.3024L315.334 60.2604L316.83 59.8073L318.708 53.4206C318.729 53.3473 318.774 53.2831 318.835 53.238C318.897 53.1929 318.972 53.1693 319.048 53.1715H321.064Z" fill="white"/>
<path d="M334.103 65.1436C334.103 64.6022 334.103 64.0772 334.103 63.5686C334.103 63.0599 334.103 62.4952 334.103 61.8746V58.5006C334.103 57.8612 334.103 57.2826 334.103 56.7646C334.103 56.2466 334.103 55.7122 334.103 55.1616H336.07C336.07 55.7122 336.07 56.2466 336.07 56.7646C336.07 57.2826 336.07 57.8612 336.07 58.5006V61.5666C336.07 62.1872 336.07 62.7519 336.07 63.2606C336.07 63.7646 336.07 64.2896 336.07 64.8356L335.377 63.4286H337.288C337.787 63.4286 338.226 63.4286 338.604 63.4286C338.987 63.4286 339.341 63.4286 339.668 63.4286C339.995 63.4286 340.328 63.4286 340.669 63.4286V65.1436H334.103ZM343.307 65.1436C343.307 64.6022 343.307 64.0772 343.307 63.5686C343.307 63.0599 343.307 62.4952 343.307 61.8746V58.8016C343.307 58.1622 343.307 57.5836 343.307 57.0656C343.307 56.5476 343.307 56.0132 343.307 55.4626L344.056 56.8766H342.775C342.238 56.8766 341.76 56.8766 341.34 56.8766C340.925 56.8766 340.53 56.8766 340.157 56.8766V55.1616H348.403V56.8766C348.03 56.8766 347.635 56.8766 347.22 56.8766C346.805 56.8766 346.326 56.8766 345.785 56.8766H344.504L345.26 55.4626C345.26 56.0132 345.26 56.5476 345.26 57.0656C345.26 57.5836 345.26 58.1622 345.26 58.8016V61.8746C345.26 62.4952 345.26 63.0599 345.26 63.5686C345.26 64.0772 345.26 64.6022 345.26 65.1436H343.307ZM354.243 65.3186C353.44 65.3186 352.717 65.1949 352.073 64.9476C351.429 64.6956 350.881 64.3409 350.428 63.8836C349.975 63.4216 349.628 62.8756 349.385 62.2456C349.147 61.6109 349.028 60.9132 349.028 60.1526C349.028 59.1492 349.231 58.2579 349.637 57.4786C350.048 56.6946 350.629 56.0809 351.38 55.6376C352.131 55.1896 353.025 54.9656 354.061 54.9656C354.383 54.9656 354.7 54.9866 355.013 55.0286C355.33 55.0706 355.631 55.1289 355.916 55.2036C356.205 55.2782 356.471 55.3622 356.714 55.4556C356.961 55.5442 357.178 55.6399 357.365 55.7426L357.211 57.5766C356.852 57.3526 356.502 57.1729 356.161 57.0376C355.82 56.8976 355.491 56.7972 355.174 56.7366C354.861 56.6759 354.558 56.6456 354.264 56.6456C353.648 56.6456 353.097 56.7832 352.612 57.0586C352.131 57.3339 351.753 57.7329 351.478 58.2556C351.203 58.7782 351.065 59.4106 351.065 60.1526C351.065 60.6332 351.135 61.0882 351.275 61.5176C351.42 61.9422 351.634 62.3179 351.919 62.6446C352.204 62.9712 352.558 63.2279 352.983 63.4146C353.412 63.5966 353.912 63.6876 354.481 63.6876C354.705 63.6876 354.931 63.6736 355.16 63.6456C355.389 63.6129 355.617 63.5639 355.846 63.4986C356.075 63.4332 356.301 63.3446 356.525 63.2326C356.749 63.1206 356.971 62.9852 357.19 62.8266L357.309 64.6396C357.113 64.7562 356.894 64.8589 356.651 64.9476C356.408 65.0316 356.154 65.1016 355.888 65.1576C355.627 65.2136 355.356 65.2532 355.076 65.2766C354.796 65.3046 354.518 65.3186 354.243 65.3186Z" fill="#EEEEEE"/>
<g clip-path="url(#clip1_7_1621)">
<mask id="mask0_7_1621" style="mask-type:luminance" maskUnits="userSpaceOnUse" x="153" y="59" width="52" height="53">
<path d="M205 59.5237H153V111.524H205V59.5237Z" fill="white"/>
</mask>
<g mask="url(#mask0_7_1621)">
<path d="M171.363 92.6736C170.875 92.0236 170.388 90.8861 169.413 89.4236C168.925 88.6111 167.463 86.9861 166.975 86.3361C166.65 85.6861 166.65 85.3611 166.813 84.7111C166.975 83.7361 167.95 82.9236 169.088 82.9236C169.9 82.9236 170.713 83.5736 171.363 84.0611C171.688 84.3861 172.175 85.0361 172.5 85.3611C172.825 85.6861 172.825 85.8486 173.15 86.1736C173.475 86.6611 173.638 86.9861 173.475 86.3361C173.313 85.5236 173.15 84.2236 172.825 82.9236C172.663 81.9486 172.5 81.7861 172.338 81.1361C172.175 80.3236 172.013 79.8361 171.85 79.0236C171.688 78.5361 171.525 77.2361 171.363 76.5861C171.2 75.7736 171.2 74.3111 171.85 73.6611C172.338 73.1736 173.313 73.0111 173.963 73.3361C174.775 73.8236 175.263 74.9611 175.425 75.4486C175.75 76.2611 176.075 77.3986 176.238 78.6986C176.563 80.3236 177.05 82.7611 177.05 83.2486C177.05 82.5986 176.888 81.4611 177.05 80.8111C177.213 80.3236 177.538 79.6736 178.188 79.5111C178.675 79.3486 179.163 79.3486 179.65 79.3486C180.138 79.5111 180.625 79.8361 180.95 80.1611C181.6 81.1361 181.6 83.2486 181.6 83.0861C181.763 82.4361 181.763 81.1361 182.088 80.4861C182.25 80.1611 182.9 79.8361 183.225 79.6736C183.713 79.5111 184.363 79.5111 184.85 79.6736C185.175 79.6736 185.825 80.1611 185.988 80.4861C186.313 80.9736 186.475 82.5986 186.638 83.2486C186.638 83.4111 186.8 82.5986 187.125 82.1111C187.775 81.1361 190.05 80.8111 190.213 83.0861C190.213 84.2236 190.213 84.0611 190.213 84.8736C190.213 85.6861 190.213 86.1736 190.213 86.8236C190.213 87.4736 190.05 88.9361 189.888 89.5861C189.725 90.0736 189.238 91.2111 188.75 91.8611C188.75 91.8611 186.963 93.8111 186.8 94.7861C186.638 95.7611 186.638 95.7611 186.638 96.4111C186.638 97.0611 186.8 97.8736 186.8 97.8736C186.8 97.8736 185.5 98.0361 184.85 97.8736C184.2 97.7111 183.388 96.5736 183.225 96.0861C182.9 95.5986 182.413 95.5986 182.088 96.0861C181.763 96.7361 180.95 97.8736 180.3 97.8736C179.163 98.0361 176.888 97.8736 175.263 97.8736C175.263 97.8736 175.588 96.2486 174.938 95.5986C174.45 95.1111 173.638 94.2986 173.15 93.8111L171.363 92.6736Z" fill="white"/>
</g>
<mask id="mask1_7_1621" style="mask-type:luminance" maskUnits="userSpaceOnUse" x="153" y="59" width="52" height="53">
<path d="M205 59.5237H153V111.524H205V59.5237Z" fill="white"/>
</mask>
<g mask="url(#mask1_7_1621)">
<path d="M171.363 92.6736C170.875 92.0236 170.388 90.8861 169.413 89.4236C168.925 88.6111 167.463 86.9861 166.975 86.3361C166.65 85.6861 166.65 85.3611 166.813 84.7111C166.975 83.7361 167.95 82.9236 169.088 82.9236C169.9 82.9236 170.713 83.5736 171.363 84.0611C171.688 84.3861 172.175 85.0361 172.5 85.3611C172.825 85.6861 172.825 85.8486 173.15 86.1736C173.475 86.6611 173.638 86.9861 173.475 86.3361C173.313 85.5236 173.15 84.2236 172.825 82.9236C172.663 81.9486 172.5 81.7861 172.338 81.1361C172.175 80.3236 172.013 79.8361 171.85 79.0236C171.688 78.5361 171.525 77.2361 171.363 76.5861C171.2 75.7736 171.2 74.3111 171.85 73.6611C172.338 73.1736 173.313 73.0111 173.963 73.3361C174.775 73.8236 175.263 74.9611 175.425 75.4486C175.75 76.2611 176.075 77.3986 176.238 78.6986C176.563 80.3236 177.05 82.7611 177.05 83.2486C177.05 82.5986 176.888 81.4611 177.05 80.8111C177.213 80.3236 177.538 79.6736 178.188 79.5111C178.675 79.3486 179.163 79.3486 179.65 79.3486C180.138 79.5111 180.625 79.8361 180.95 80.1611C181.6 81.1361 181.6 83.2486 181.6 83.0861C181.763 82.4361 181.763 81.1361 182.088 80.4861C182.25 80.1611 182.9 79.8361 183.225 79.6736C183.713 79.5111 184.363 79.5111 184.85 79.6736C185.175 79.6736 185.825 80.1611 185.988 80.4861C186.313 80.9736 186.475 82.5986 186.638 83.2486C186.638 83.4111 186.8 82.5986 187.125 82.1111C187.775 81.1361 190.05 80.8111 190.213 83.0861C190.213 84.2236 190.213 84.0611 190.213 84.8736C190.213 85.6861 190.213 86.1736 190.213 86.8236C190.213 87.4736 190.05 88.9361 189.888 89.5861C189.725 90.0736 189.238 91.2111 188.75 91.8611C188.75 91.8611 186.963 93.8111 186.8 94.7861C186.638 95.7611 186.638 95.7611 186.638 96.4111C186.638 97.0611 186.8 97.8736 186.8 97.8736C186.8 97.8736 185.5 98.0361 184.85 97.8736C184.2 97.7111 183.388 96.5736 183.225 96.0861C182.9 95.5986 182.413 95.5986 182.088 96.0861C181.763 96.7361 180.95 97.8736 180.3 97.8736C179.163 98.0361 176.888 97.8736 175.263 97.8736C175.263 97.8736 175.588 96.2486 174.938 95.5986C174.45 95.1111 173.638 94.2986 173.15 93.8111L171.363 92.6736Z" stroke="black" stroke-width="1.21875" stroke-linecap="round" stroke-linejoin="round"/>
</g>
<mask id="mask2_7_1621" style="mask-type:luminance" maskUnits="userSpaceOnUse" x="153" y="59" width="52" height="53">
<path d="M205 59.5237H153V111.524H205V59.5237Z" fill="white"/>
</mask>
<g mask="url(#mask2_7_1621)">
<path d="M184.85 93.1612V87.6362" stroke="black" stroke-width="1.21875" stroke-linecap="round"/>
</g>
<mask id="mask3_7_1621" style="mask-type:luminance" maskUnits="userSpaceOnUse" x="153" y="59" width="52" height="53">
<path d="M205 59.5237H153V111.524H205V59.5237Z" fill="white"/>
</mask>
<g mask="url(#mask3_7_1621)">
<path d="M181.6 93.1612L181.438 87.6362" stroke="black" stroke-width="1.21875" stroke-linecap="round"/>
</g>
<mask id="mask4_7_1621" style="mask-type:luminance" maskUnits="userSpaceOnUse" x="153" y="59" width="52" height="53">
<path d="M205 59.5237H153V111.524H205V59.5237Z" fill="white"/>
</mask>
<g mask="url(#mask4_7_1621)">
<path d="M178.35 87.6362V93.1612" stroke="black" stroke-width="1.21875" stroke-linecap="round"/>
</g>
</g>
<defs>
<filter id="filter0_d_7_1621" x="73.4121" y="8.7738e-05" width="224.188" height="32.2791" filterUnits="userSpaceOnUse" color-interpolation-filters="sRGB">
<feFlood flood-opacity="0" result="BackgroundImageFix"/>
<feColorMatrix in="SourceAlpha" type="matrix" values="0 0 0 0 0 0 0 0 0 0 0 0 0 0 0 0 0 0 127 0" result="hardAlpha"/>
<feOffset/>
<feGaussianBlur stdDeviation="4.3138"/>
<feComposite in2="hardAlpha" operator="out"/>
<feColorMatrix type="matrix" values="0 0 0 0 0 0 0 0 0 0 0 0 0 0 0 0 0 0 0.6 0"/>
<feBlend mode="normal" in2="BackgroundImageFix" result="effect1_dropShadow_7_1621"/>
<feBlend mode="normal" in="SourceGraphic" in2="effect1_dropShadow_7_1621" result="shape"/>
</filter>
<filter id="filter1_d_7_1621" x="114.245" y="38.5237" width="94.7692" height="45.24" filterUnits="userSpaceOnUse" color-interpolation-filters="sRGB">
<feFlood flood-opacity="0" result="BackgroundImageFix"/>
<feColorMatrix in="SourceAlpha" type="matrix" values="0 0 0 0 0 0 0 0 0 0 0 0 0 0 0 0 0 0 127 0" result="hardAlpha"/>
<feOffset dy="4"/>
<feComposite in2="hardAlpha" operator="out"/>
<feColorMatrix type="matrix" values="0 0 0 0 0.964706 0 0 0 0 0.576471 0 0 0 0 0.101961 0 0 0 0.25 0"/>
<feBlend mode="normal" in2="BackgroundImageFix" result="effect1_dropShadow_7_1621"/>
<feBlend mode="normal" in="SourceGraphic" in2="effect1_dropShadow_7_1621" result="shape"/>
</filter>
<clipPath id="clip0_7_1621">
<rect width="8.47826" height="13.8009" fill="white" transform="translate(19.2559 52.1489)"/>
</clipPath>
<clipPath id="clip1_7_1621">
<rect width="52" height="52" fill="white" transform="translate(153 59.5237)"/>
</clipPath>
</defs>
</svg>
