<svg width="359" height="117" viewBox="0 0 359 117" fill="none" xmlns="http://www.w3.org/2000/svg">
<g opacity="0.25">
<g filter="url(#filter0_d_7_1463)">
<path d="M3.88242 28.5883C3.88242 26.6001 5.49419 24.9883 7.48242 24.9883H45.2824C47.2706 24.9883 48.8824 26.6001 48.8824 28.5883V66.3883C48.8824 68.3765 47.2706 69.9883 45.2824 69.9883H7.48241C5.49419 69.9883 3.88242 68.3765 3.88242 66.3883V28.5883Z" fill="url(#paint0_linear_7_1463)"/>
<path d="M7.48203 25.2129H45.2828C47.1465 25.2131 48.6576 26.7242 48.6578 28.5879V66.3887C48.6576 68.2523 47.1465 69.7635 45.2828 69.7637H7.48203C5.61837 69.7635 4.10724 68.2523 4.10703 66.3887V28.5879C4.10724 26.7242 5.61837 25.2131 7.48203 25.2129Z" stroke="#152950" stroke-width="0.45"/>
</g>
<mask id="mask0_7_1463" style="mask-type:luminance" maskUnits="userSpaceOnUse" x="9" y="38" width="34" height="20">
<path d="M42.7905 38.0383H9.73242V57.3883H42.7905V38.0383Z" fill="white"/>
</mask>
<g mask="url(#mask0_7_1463)">
<path fill-rule="evenodd" clip-rule="evenodd" d="M13.7853 38.2786C15.5308 38.2786 16.8289 39.1645 16.8289 40.4736C16.8289 41.494 16.1743 41.9833 15.5947 42.2147C16.5446 42.5012 17.4063 43.0477 17.4063 44.2466C17.4063 46.0207 15.8195 46.6246 14.1005 46.6246H9.73242V38.2786H13.7853ZM12.4079 41.4676H13.3908C13.7809 41.4676 14.0983 41.1502 14.0983 40.8549C14.0983 40.5353 13.792 40.2224 13.3908 40.2224H12.4079V41.4676ZM12.4079 44.7028H13.6289C14.1842 44.7028 14.5413 44.3546 14.5413 43.9381C14.5413 43.5436 14.16 43.1998 13.706 43.1998H12.4079V44.7028ZM15.9495 47.5348C17.6972 47.5348 18.9931 48.4207 18.9931 49.7298C18.9931 50.7503 18.3386 51.2395 17.7589 51.4709C18.7088 51.7574 19.5705 52.304 19.5705 53.5029C19.5705 55.277 17.9837 55.8809 16.2647 55.8809H11.8966V47.5348H15.9495ZM14.5721 50.7238H15.5573C15.9451 50.7238 16.2625 50.4065 16.2625 50.1111C16.2625 49.7916 15.9561 49.4786 15.5573 49.4786H14.5721V50.7238ZM14.5721 53.9591H15.7931C16.3485 53.9591 16.7055 53.6109 16.7055 53.1943C16.7055 52.7999 16.3242 52.4561 15.8702 52.4561H14.5721V53.9591ZM17.6179 46.6224V38.2763H24.3463V40.2929H20.2846V41.386H23.5837V43.2769H20.2846V44.6147H24.3463V46.6224H17.6179ZM24.4763 45.483L26.0653 43.9667C26.451 44.2863 26.9446 44.6632 27.5684 44.6632C28.1171 44.6632 28.419 44.3458 28.419 44.0307C28.419 43.1337 24.7959 43.548 24.7959 40.6852C24.7959 39.2372 26.1182 38.0383 28.1391 38.0383C29.4857 38.0383 30.4841 38.5452 31.1166 39.1469L29.5364 40.6521C29.5364 40.6521 29.078 40.2356 28.4477 40.2356C28.0818 40.2356 27.7226 40.4163 27.7226 40.7579C27.7226 41.6372 31.3987 41.2031 31.3987 44.0284C31.3987 45.7805 29.8846 46.8604 27.9893 46.8604C26.1446 46.8604 25.1155 46.1089 24.4763 45.483ZM33.4571 46.6224V40.2841H31.2554V38.2763H38.3364V40.2841H36.1326V46.6224H33.4571ZM19.6631 47.5282H22.332V52.5288C22.332 53.0356 22.8366 53.5029 23.3634 53.5029C23.8593 53.5029 24.3617 53.0797 24.3617 52.5001V47.5282H27.0218V52.467C27.0218 54.4263 25.3953 55.991 23.2928 55.991C21.1771 55.991 19.6631 54.2897 19.6631 52.3613V47.5282ZM30.3099 55.872V52.8902L27.176 47.5282H29.8736L31.6477 50.402L33.4284 47.5282H36.1326L32.9855 52.9211V55.872H30.3099Z" fill="white"/>
<path d="M42.7904 52.0967V57.3705H36.1325L34.5589 55.7969V53.6702L36.1325 52.0967H42.7904Z" fill="#FFED31"/>
<path d="M35.5199 55.0873C35.7158 55.0873 35.8746 54.9284 35.8746 54.7325C35.8746 54.5366 35.7158 54.3777 35.5199 54.3777C35.3239 54.3777 35.165 54.5366 35.165 54.7325C35.165 54.9284 35.3239 55.0873 35.5199 55.0873Z" fill="white"/>
</g>
</g>
<g opacity="0.5">
<g filter="url(#filter1_d_7_1463)">
<path d="M63.8824 22.2883C63.8824 19.6373 66.0314 17.4883 68.6824 17.4883H119.082C121.733 17.4883 123.882 19.6373 123.882 22.2883V72.6883C123.882 75.3392 121.733 77.4883 119.082 77.4883H68.6824C66.0314 77.4883 63.8824 75.3392 63.8824 72.6883V22.2883Z" fill="url(#paint1_linear_7_1463)"/>
<path d="M68.6822 17.7881H119.083C121.568 17.7882 123.583 19.803 123.583 22.2881V72.6885C123.583 75.1736 121.568 77.1884 119.083 77.1885H68.6822C66.1971 77.1884 64.1823 75.1736 64.1822 72.6885V22.2881C64.1823 19.803 66.1971 17.7882 68.6822 17.7881Z" stroke="#152950" stroke-width="0.6"/>
</g>
<path fill-rule="evenodd" clip-rule="evenodd" d="M87.1851 40.1559L99.4713 27.912C99.9856 27.3998 100.825 27.4019 101.336 27.9152L112.929 39.5476C113.441 40.062 113.44 40.9005 112.925 41.4126L100.638 53.6566L87.1841 40.1549L87.1851 40.1559ZM98.1945 37.9826C99.485 36.6974 101.573 36.7005 102.858 37.991C104.143 39.2815 104.14 41.3693 102.85 42.6546C101.559 43.9398 99.4713 43.9366 98.1861 42.6461C96.9008 41.3556 96.904 39.2678 98.1945 37.9826Z" fill="#E61E29"/>
<path fill-rule="evenodd" clip-rule="evenodd" d="M88.9128 52.0278C90.2033 50.7426 92.2912 50.7458 93.5764 52.0363C94.8616 53.3268 94.8584 55.4146 93.5679 56.6998C92.2785 57.9851 90.1896 57.9819 88.9044 56.6914C87.6192 55.4019 87.6223 53.313 88.9128 52.0278ZM79.2594 52.0574C80.5499 50.7722 82.6377 50.7754 83.923 52.0658C85.2082 53.3563 85.205 55.4442 83.9145 56.7294C82.6251 58.0146 80.5362 58.0114 79.251 56.7209C77.9658 55.4315 77.9689 53.3426 79.2594 52.0574ZM74.0108 53.2835L86.2981 41.0396L99.7522 54.5413L87.465 66.7853C86.9507 67.2974 86.1122 67.2951 85.6 66.782L74.0076 55.1495C73.4955 54.6352 73.4965 53.7967 74.0108 53.2846V53.2835Z" fill="#0074AD"/>
<path d="M91.7358 67.2273V65.5799H91.1085V65.2929H92.6895V65.5799H92.0579V67.2273H91.7358ZM92.907 67.2273V65.2917H93.3822L93.8712 66.8379L94.3432 65.2917H94.8089V67.2273H94.5143V65.6032L94.0158 67.2273H93.7244L93.2037 65.5799V67.2273H92.907Z" fill="#0074AD"/>
</g>
<g filter="url(#filter2_d_7_1463)">
<path d="M138.882 13.4683C138.882 9.88947 141.784 6.98828 145.362 6.98828H213.402C216.981 6.98828 219.882 9.88948 219.882 13.4683V81.5083C219.882 85.0871 216.981 87.9883 213.402 87.9883H145.362C141.784 87.9883 138.882 85.0871 138.882 81.5083V13.4683Z" fill="url(#paint2_linear_7_1463)"/>
<path d="M145.363 7.48828H213.402C216.705 7.48828 219.382 10.1661 219.382 13.4688V81.5078C219.382 84.8105 216.705 87.4883 213.402 87.4883H145.363C142.06 87.4883 139.382 84.8105 139.382 81.5078V13.4688C139.382 10.1661 142.06 7.48828 145.363 7.48828Z" stroke="#E30A17"/>
</g>
<path d="M183.14 27.0559L183.121 36.1004L183.102 45.1447L182.239 43.0452V43.0399L181.119 63.1745C182.22 65.8447 182.809 67.2714 182.815 67.2767C182.821 67.2821 183.447 67.3144 184.204 67.3467C186.493 67.4436 189.334 67.6536 191.492 67.8851C191.992 67.939 192.418 67.9658 192.449 67.9443C192.48 67.9228 192.487 58.7168 192.48 47.4812L192.462 27.0559H183.14Z" fill="url(#paint3_linear_7_1463)"/>
<path d="M166.277 27.0291V47.4761C166.277 58.7223 166.29 67.9336 166.309 67.9498C166.328 67.9659 167.135 67.8961 168.111 67.8045C169.086 67.713 170.432 67.5945 171.101 67.5461C172.127 67.4707 175.205 67.3038 175.555 67.2984C175.662 67.2984 175.668 66.8408 175.68 58.6362L175.699 49.9739L176.444 51.7829C176.556 52.0628 176.594 52.149 176.706 52.4235L177.826 32.2942C177.588 31.7182 177.714 32.0197 177.445 31.3629C176.531 29.1394 175.755 27.2605 175.724 27.1744L175.662 27.0237H166.277V27.0291Z" fill="url(#paint4_linear_7_1463)"/>
<path d="M166.277 27.0291L175.693 49.9901V49.9792L176.437 51.7881C180.573 61.8607 182.794 67.2659 182.806 67.2767C182.812 67.2821 183.438 67.3144 184.195 67.3467C186.485 67.4436 189.325 67.6535 191.484 67.885C191.978 67.9388 192.409 67.9658 192.434 67.9442L183.1 45.1394V45.1448L182.237 43.0453C181.392 40.994 180.829 39.6213 177.432 31.3628C176.519 29.1394 175.743 27.2605 175.712 27.1744L175.649 27.0237H170.963L166.277 27.0291Z" fill="#E30A17"/>
<g opacity="0.5">
<g filter="url(#filter3_d_7_1463)">
<path d="M234.882 22.2883C234.882 19.6373 237.031 17.4883 239.682 17.4883H290.082C292.733 17.4883 294.882 19.6373 294.882 22.2883V72.6883C294.882 75.3392 292.733 77.4883 290.082 77.4883H239.682C237.031 77.4883 234.882 75.3392 234.882 72.6883V22.2883Z" fill="#441500"/>
<path d="M239.682 17.7881H290.083C292.568 17.7882 294.583 19.803 294.583 22.2881V72.6885C294.583 75.1736 292.568 77.1884 290.083 77.1885H239.682C237.197 77.1884 235.182 75.1736 235.182 72.6885V22.2881C235.182 19.803 237.197 17.7882 239.682 17.7881Z" stroke="#152950" stroke-width="0.6"/>
</g>
<g clip-path="url(#clip0_7_1463)">
<path fill-rule="evenodd" clip-rule="evenodd" d="M264.544 34.8747C257.601 34.8747 251.97 40.5058 251.97 47.4503C251.97 54.398 257.601 60.0286 264.544 60.0286C271.493 60.0286 277.124 54.3975 277.124 47.4503C277.124 40.5053 271.493 34.8747 264.544 34.8747ZM285.378 47.4503C285.378 58.9567 276.051 68.2833 264.544 68.2833C253.041 68.2833 243.714 58.9567 243.714 47.4503C243.714 35.9469 253.041 26.6199 264.544 26.6199C276.051 26.6199 285.378 35.9469 285.378 47.4503Z" fill="#AC2318"/>
<path fill-rule="evenodd" clip-rule="evenodd" d="M276.282 47.45C276.282 53.932 271.029 59.1867 264.544 59.1867C258.067 59.1867 252.814 53.932 252.814 47.45C252.814 40.9716 258.067 35.718 264.544 35.718C271.029 35.718 276.282 40.9716 276.282 47.45Z" fill="#441500"/>
<path fill-rule="evenodd" clip-rule="evenodd" d="M266.419 54.8004C266.918 54.8004 268.31 54.0589 267.794 53.7188C267.468 53.5051 267.085 53.2189 266.378 52.6781C266.061 52.4359 265.922 52.5018 265.825 52.5018C265.533 52.5018 266.006 52.0305 265.851 51.6509C265.678 51.2371 265.58 50.6025 265.435 50.4583C265.289 50.3121 265.349 49.5458 265.654 49.2403C265.988 48.9069 266.467 47.9367 266.731 47.5655C267.044 47.1217 267.26 46.1474 267.136 46.0219C267.01 45.8975 266.439 44.7142 266.191 44.4648C266.029 44.304 265.766 43.9078 265.5 43.5864L265.438 43.4978L265.169 43.6501C264.901 43.8052 264.57 44.122 264.57 44.122C264.57 44.122 264.339 44.1987 263.805 44.0915C263.517 44.0344 263.414 43.8317 263.414 43.6014C263.414 43.3718 263.263 43.4298 263.263 43.4298C263.263 43.4298 260.568 43.5605 260.37 43.6746C260.174 43.7887 259.312 44.9693 259.312 44.9693C259.312 44.9693 258.854 49.456 259.208 49.8112C259.631 50.2322 261.833 53.7027 262.246 54.117C262.655 54.678 265.92 54.8004 266.419 54.8004ZM261.217 44.8681C260.939 44.9179 260.489 44.8392 260.278 45.2239L259.876 46.9681C259.876 46.9681 259.919 48.7197 259.958 49.0676C259.996 49.4135 260.448 50.5428 260.7 50.7969C260.923 51.0199 261.357 51.7577 261.75 52.1467C261.856 52.2508 262.072 52.3011 262.163 52.4235C262.326 52.6444 262.224 52.4925 261.931 52.059C260.854 50.4635 260.622 49.0869 260.569 48.8514C260.454 48.3381 260.539 47.1325 260.569 46.6493C260.585 46.3937 260.762 45.8197 260.931 45.6916C261.01 45.6304 261.749 45.5485 261.898 45.5065C262.128 45.4391 262.456 45.4432 262.667 45.3997C263.344 45.2602 264.588 45.6066 264.673 45.6465C265.686 46.1152 265.292 46.2786 265.308 46.3335C265.323 46.3906 263.898 49.2631 263.904 49.3979C263.91 49.5442 263.962 50.981 264.097 51.3735C264.137 51.4897 264.587 52.5765 264.668 52.7735C265.024 53.6368 263.901 52.6299 263.828 52.5905C263.755 52.5495 262.273 50.0031 262.059 49.4623C261.914 49.0988 261.967 48.5507 261.996 48.4345C262.035 48.2748 261.919 47.0449 262.148 46.8769C262.304 46.7628 262.997 46.6929 263.332 46.8396C263.636 46.9733 263.8 47.3151 263.768 47.3954C263.744 47.4633 263.263 49.0163 263.188 48.8862C263.164 48.8437 263.162 48.3521 263.098 48.3033C263.034 48.2531 262.681 48.1794 262.637 48.2359C262.593 48.294 262.508 48.8151 262.553 48.994C262.767 49.8568 263.266 49.5883 263.361 49.427C263.501 49.1879 264.179 47.2803 264.167 47.1569C264.138 46.8764 263.931 46.3927 263.49 46.2443C263.227 46.1562 262.079 46.2054 261.763 46.3703C261.279 46.6249 261.307 48.8302 261.399 49.1511C261.492 49.47 263.019 52.0346 263.091 52.2317C263.232 52.6159 264.157 53.5295 264.301 53.6156C264.362 53.6518 265.624 54.1419 265.787 53.8961C265.858 53.7893 265.823 53.4917 265.507 53.2858C265.207 53.0888 264.488 50.9924 264.49 50.828C264.493 50.6725 264.304 49.5058 264.43 49.2631C264.668 48.7996 266.386 46.2247 266.198 46.0172C265.946 45.7388 265.175 44.4388 264.814 44.9283C264.488 45.3716 262.943 44.9153 262.558 44.6338C262.53 44.612 261.619 44.794 261.217 44.8681ZM268.74 38.8165C268.893 38.8347 269.57 39.0721 269.57 39.0721C269.57 39.0721 270.223 40.0273 270.389 40.2326C270.557 40.4375 270.483 40.5862 270.483 40.5862L270.162 41.757C270.045 41.6622 269.18 41.74 268.974 41.7596C268.768 41.7773 269.161 41.5165 269.254 41.4236C269.348 41.3303 269.721 41.0695 269.672 40.9207C269.628 40.7709 269.065 39.683 269.065 39.683C269.065 39.683 268.083 39.6737 267.617 39.7297C267.151 39.7851 266.171 40.7599 266.171 40.7599L265.815 42.1693C265.815 42.1693 265.959 42.4285 266.164 42.5965C266.369 42.7645 266.965 42.708 267.188 42.6898C267.411 42.6717 267.319 42.932 267.133 43.0995C266.946 43.267 266.275 43.267 266.275 43.267L266.554 43.3603C266.863 43.6403 267.428 45.0725 267.762 45.4069C268.094 45.7388 267.751 47.4188 267.273 47.8968C266.793 48.3734 266.565 49.4031 266.274 49.6945C265.981 49.9865 265.679 49.8724 265.981 50.1737C266.285 50.4744 266.143 50.8378 266.191 51.1039C266.222 51.2745 266.27 51.5856 266.418 51.7313C266.562 51.8765 268.771 53.4077 269.659 53.4776C269.821 53.4912 269.823 54.2705 268.913 55.2282C268.913 55.2282 268.75 55.7809 267.233 55.8296C265.577 55.8815 263.948 55.6051 263.573 55.6051C263.2 55.6051 262.112 54.9865 262.112 54.9865C261.905 54.9865 258.449 50.1783 258.449 49.8465C258.449 49.5131 258.203 48.6139 258.203 48.2806C258.203 47.9487 258.588 44.9034 258.527 44.5347C258.478 44.2454 258.629 44.178 258.962 43.8446C259.295 43.5128 259.896 42.9487 260.123 42.7199C260.226 42.6178 261.023 42.6401 261.988 42.4337L262.138 42.37L261.946 42.2767C261.946 42.2767 261.635 41.8861 261.133 41.9049C260.631 41.923 260.462 41.9608 260.724 41.8493C260.985 41.7379 261.453 41.3842 261.453 41.3842L262.548 41.868H263.376L264.413 41.014L266.766 39.1028L268.74 38.8165ZM281.259 47.1812C281.197 47.18 281.135 47.191 281.077 47.2137C281.018 47.2363 280.965 47.2702 280.92 47.3135C280.875 47.3566 280.839 47.4083 280.814 47.4654C280.789 47.5225 280.776 47.584 280.774 47.6464C280.773 47.7088 280.784 47.7708 280.807 47.8289C280.829 47.887 280.863 47.9401 280.906 47.9851C280.95 48.0301 281.001 48.0662 281.058 48.0913C281.116 48.1163 281.177 48.1299 281.239 48.1312C281.365 48.1338 281.487 48.0863 281.578 47.9991C281.669 47.9119 281.722 47.7921 281.724 47.6661C281.727 47.5401 281.679 47.4183 281.592 47.3273C281.505 47.2364 281.385 47.1839 281.259 47.1812ZM247.701 40.2922C247.896 39.8412 248.238 39.5601 248.656 39.361C248.688 39.3449 248.713 39.3167 248.725 39.2824C248.736 39.2481 248.734 39.2106 248.718 39.178L248.479 38.6802C248.463 38.6479 248.435 38.6232 248.401 38.6116C248.367 38.5999 248.33 38.6022 248.297 38.6179C247.779 38.8632 247.315 39.2432 246.995 39.9786C246.417 41.3065 247.031 42.6821 248.282 43.2276L248.257 43.2172C249.509 43.7611 250.933 43.2727 251.51 41.9448C251.832 41.2095 251.794 40.6111 251.622 40.0636C251.611 40.0295 251.586 40.0012 251.555 39.9845C251.523 39.9677 251.486 39.964 251.451 39.9739L250.922 40.1383C250.888 40.1494 250.859 40.1735 250.842 40.2055C250.826 40.2376 250.822 40.2748 250.833 40.3094C250.971 40.7496 250.999 41.1919 250.803 41.6425C250.436 42.4825 249.484 42.79 248.621 42.4135C247.757 42.0386 247.333 41.1322 247.701 40.2922ZM260.352 31.5137C260.317 31.5209 260.281 31.5139 260.251 31.4942C260.221 31.4745 260.2 31.4436 260.192 31.4085L259.904 29.9898C259.897 29.9541 259.905 29.9172 259.925 29.887C259.945 29.8568 259.976 29.8358 260.012 29.8285L260.833 29.6621C261.449 29.5377 261.901 29.7451 262.014 30.3004C262.116 30.8018 261.797 31.2208 261.175 31.3478L260.352 31.5137ZM263.077 30.1101C262.883 29.155 261.838 28.679 260.749 28.9004L259.036 29.2478C259.001 29.2549 258.97 29.2757 258.95 29.3056C258.93 29.3356 258.923 29.3722 258.93 29.4075L259.826 33.8217C259.839 33.8942 259.912 33.944 259.985 33.9285L260.541 33.816C260.577 33.8085 260.608 33.7873 260.628 33.757C260.648 33.7267 260.655 33.6898 260.648 33.6542L260.397 32.417C260.39 32.3815 260.397 32.3449 260.417 32.3148C260.437 32.2848 260.468 32.2637 260.503 32.2562L261.299 32.0955C262.329 31.886 263.291 31.1679 263.077 30.1101ZM282.372 42.5908C282.355 42.5972 282.337 42.6001 282.319 42.5995C282.302 42.599 282.284 42.5949 282.268 42.5875C282.251 42.5801 282.237 42.5696 282.225 42.5566C282.212 42.5436 282.203 42.5282 282.197 42.5115L281.343 40.2373C281.337 40.2204 281.327 40.2049 281.315 40.1916C281.303 40.1783 281.288 40.1677 281.272 40.1601C281.256 40.1526 281.238 40.1484 281.22 40.1478C281.202 40.1471 281.185 40.15 281.168 40.1564L279.979 40.6023C279.946 40.6153 279.918 40.6411 279.903 40.6741C279.888 40.7071 279.887 40.7447 279.9 40.7786L280.54 42.4846C280.552 42.5185 280.551 42.556 280.536 42.5888C280.521 42.6217 280.494 42.6474 280.46 42.6603L280.012 42.8273C279.978 42.8399 279.941 42.8386 279.908 42.8237C279.875 42.8089 279.849 42.7816 279.837 42.748L279.197 41.042C279.184 41.0084 279.159 40.9812 279.126 40.9662C279.093 40.9511 279.056 40.9495 279.022 40.9616L278.357 41.211C278.34 41.2172 278.324 41.2267 278.311 41.2389C278.298 41.2512 278.287 41.266 278.28 41.2823C278.272 41.2988 278.268 41.3165 278.268 41.3345C278.267 41.3526 278.27 41.3705 278.277 41.3873L279.141 43.6937C279.148 43.7105 279.151 43.7284 279.151 43.7464C279.15 43.7644 279.146 43.7821 279.139 43.7985C279.131 43.8149 279.121 43.8296 279.107 43.8417C279.094 43.854 279.079 43.8634 279.062 43.8695L278.615 44.0375C278.598 44.0438 278.58 44.0466 278.562 44.0459C278.544 44.0452 278.527 44.0411 278.511 44.0336C278.494 44.0261 278.48 44.0155 278.468 44.0024C278.456 43.9892 278.446 43.9739 278.44 43.9572L277.278 40.8647C277.266 40.8308 277.268 40.7935 277.283 40.7607C277.298 40.7279 277.325 40.7023 277.359 40.6895L281.574 39.1074C281.608 39.0947 281.646 39.096 281.679 39.1108C281.712 39.1256 281.738 39.1529 281.751 39.1868L282.901 42.2481C282.913 42.2819 282.911 42.3191 282.896 42.3516C282.88 42.3841 282.853 42.4095 282.82 42.4223L282.372 42.5908ZM277.993 34.1286C278.02 34.1052 278.056 34.0935 278.091 34.0961C278.127 34.0987 278.16 34.1155 278.184 34.1426L278.554 34.573C278.577 34.6005 278.589 34.6361 278.586 34.672C278.583 34.7079 278.566 34.7413 278.539 34.7648L275.705 37.2029C275.691 37.2143 275.679 37.2283 275.671 37.2442C275.663 37.2601 275.658 37.2775 275.656 37.2954C275.655 37.3133 275.657 37.3312 275.662 37.3483C275.668 37.3653 275.676 37.3811 275.688 37.3947L277.149 39.0919C277.197 39.1489 277.19 39.2355 277.135 39.2852L276.762 39.6047C276.734 39.6281 276.698 39.6398 276.662 39.6373C276.626 39.6348 276.592 39.6182 276.568 39.5912L274.561 37.2558C274.538 37.2284 274.527 37.193 274.529 37.1572C274.532 37.1213 274.549 37.0881 274.576 37.0645L277.993 34.1286ZM272.308 35.3746C272.299 35.3901 272.287 35.4035 272.273 35.4143C272.258 35.4251 272.242 35.4329 272.225 35.4373C272.207 35.4417 272.189 35.4427 272.171 35.4401C272.154 35.4375 272.137 35.4315 272.121 35.4223L271.629 35.1293C271.598 35.1105 271.576 35.0804 271.567 35.0453C271.558 35.0103 271.564 34.9733 271.582 34.9422L273.49 31.7408C273.508 31.7097 273.513 31.6728 273.504 31.6379C273.496 31.603 273.474 31.573 273.443 31.5542L272.376 30.918C272.361 30.9089 272.348 30.8969 272.337 30.8826C272.326 30.8684 272.319 30.8522 272.314 30.8349C272.31 30.8177 272.309 30.7997 272.312 30.7821C272.314 30.7645 272.32 30.7476 272.329 30.7323L272.586 30.2983C272.605 30.2671 272.636 30.2446 272.671 30.2356C272.706 30.2266 272.744 30.2318 272.775 30.2501L275.869 32.0965C275.884 32.1056 275.898 32.1176 275.908 32.1319C275.919 32.1462 275.927 32.1624 275.932 32.1798C275.936 32.1971 275.937 32.2152 275.935 32.2329C275.932 32.2507 275.926 32.2678 275.917 32.2832L275.658 32.7172C275.639 32.748 275.609 32.7701 275.574 32.7789C275.539 32.7876 275.502 32.7822 275.471 32.7639L274.404 32.1271C274.373 32.1087 274.336 32.1035 274.3 32.1125C274.265 32.1216 274.235 32.1442 274.217 32.1754L272.308 35.3746ZM267.807 29.4853C266.872 29.3209 266.087 29.9525 265.924 30.8728C265.764 31.7937 266.296 32.669 267.231 32.8328C268.167 32.9977 268.947 32.3651 269.109 31.4453C269.27 30.5254 268.738 29.6486 267.807 29.4853ZM267.085 33.5904C265.638 33.3374 264.823 32.0649 265.056 30.7339C265.289 29.4034 266.507 28.4731 267.953 28.7272C269.395 28.9808 270.212 30.2517 269.978 31.5842C269.745 32.9153 268.529 33.8439 267.085 33.5904ZM255.866 30.4736C255.898 30.457 255.936 30.4538 255.97 30.4647C256.004 30.4756 256.033 30.4997 256.05 30.5317L258.134 34.5237C258.151 34.5559 258.154 34.5932 258.143 34.6276C258.132 34.662 258.108 34.6908 258.076 34.7078L257.575 34.9692C257.543 34.9859 257.506 34.9893 257.471 34.9787C257.437 34.9681 257.408 34.9444 257.391 34.9126L255.306 30.92C255.29 30.8878 255.287 30.8504 255.297 30.8159C255.308 30.7814 255.333 30.7526 255.365 30.7359L255.866 30.4736ZM252.281 37.2247C252.229 37.2781 252.229 37.3642 252.283 37.4166L253.314 38.4225C253.34 38.4478 253.354 38.4821 253.354 38.518C253.355 38.5539 253.341 38.5885 253.316 38.6143L252.919 39.0208C252.907 39.0337 252.892 39.0439 252.876 39.051C252.859 39.058 252.842 39.0618 252.824 39.062C252.806 39.0621 252.788 39.0588 252.772 39.0521C252.755 39.0454 252.74 39.0355 252.728 39.0229L249.505 35.8755C249.48 35.85 249.465 35.8155 249.465 35.7795C249.464 35.7435 249.478 35.7087 249.503 35.6827L249.899 35.2782C249.912 35.2653 249.926 35.255 249.943 35.248C249.959 35.2408 249.977 35.2369 249.995 35.2367C250.013 35.2364 250.03 35.2396 250.047 35.2463C250.063 35.2528 250.079 35.2627 250.091 35.2751L251.532 36.6828C251.585 36.7347 251.672 36.7347 251.725 36.6807L253.267 35.1009C253.292 35.075 253.306 35.0403 253.306 35.0044C253.306 34.9683 253.291 34.9339 253.266 34.9085L251.825 33.5007C251.799 33.4753 251.785 33.4409 251.784 33.4049C251.784 33.3689 251.798 33.3342 251.823 33.3083L252.218 32.9034C252.244 32.8776 252.278 32.863 252.315 32.8625C252.351 32.862 252.386 32.8757 252.412 32.9008L255.633 36.0487C255.687 36.1006 255.687 36.1867 255.635 36.2411L255.24 36.6466C255.214 36.6721 255.18 36.6866 255.143 36.687C255.107 36.6874 255.072 36.6736 255.046 36.6487L254.016 35.6427C253.99 35.6176 253.956 35.6039 253.92 35.6044C253.884 35.6048 253.849 35.6196 253.824 35.6453L252.281 37.2247ZM248.124 54.426L249.747 53.8209L248.424 53.5165L248.419 53.5026L249.212 52.4178L247.599 53.0187L247.399 52.4832L249.885 51.556L250.104 52.1467L249.297 53.1904L250.592 53.4523L250.812 54.0423L248.327 54.9695L248.125 54.426H248.124ZM281.381 54.0558L278.872 53.1992L279.06 52.647L281.068 53.333L281.496 52.0823L281.996 52.2524L281.381 54.0558ZM279.648 57.3753L277.372 56.0174L277.67 55.5175L279.491 56.6028L280.168 55.4693L280.624 55.7394L279.648 57.3753ZM278.04 59.4251L276.036 57.688L276.419 57.2483L278.42 58.9853L278.04 59.4251ZM275.157 59.8088C275.002 59.6138 274.784 59.6211 274.562 59.7963L274.108 60.1577L274.578 60.7535L275.043 60.3869C275.266 60.2127 275.301 59.9918 275.16 59.8165L275.157 59.8088ZM276.232 61.187L275.259 60.8738L274.898 61.1569L275.425 61.8227L274.968 62.1857L273.323 60.1059L274.273 59.3535C274.765 58.9651 275.263 58.9916 275.602 59.4199L275.606 59.4251C275.871 59.7606 275.858 60.1157 275.67 60.4227L276.765 60.7649L276.232 61.187ZM272.258 63.7671C271.508 64.1119 270.748 63.8206 270.42 63.1071L270.418 63.1008C270.103 62.4164 270.38 61.6086 271.111 61.2751C271.544 61.076 271.859 61.0729 272.209 61.1714L272.061 61.7268C271.803 61.6573 271.596 61.6438 271.318 61.7709C270.932 61.9482 270.781 62.4309 270.97 62.839L270.973 62.8462C271.176 63.287 271.628 63.4726 272.053 63.2767C272.247 63.188 272.396 63.0598 272.487 62.9023L272.329 62.5569L271.795 62.8032L271.586 62.3443L272.63 61.8637L273.112 62.9116C272.94 63.2903 272.637 63.5942 272.258 63.7671ZM267.593 65.1713L266.11 63.6578L266.319 65.331L265.746 65.4015L265.417 62.7716L265.952 62.7052L267.388 64.1695L267.186 62.5517L267.758 62.4797L268.085 65.1101L267.593 65.1713ZM262.721 63.3041L262.267 64.1167L262.967 64.2012L262.721 63.3041ZM263.281 65.3579L263.112 64.7398L261.998 64.603L261.685 65.1651L261.095 65.0935L262.546 62.5777L263.08 62.6409L263.886 65.4311L263.281 65.3579ZM258.425 64.324C257.695 64.044 257.368 63.2772 257.64 62.5647L257.642 62.5569C257.911 61.8523 258.66 61.4784 259.423 61.7688C259.889 61.9461 260.11 62.2095 260.253 62.5232L259.755 62.7918C259.63 62.545 259.475 62.3635 259.227 62.2692C258.809 62.1095 258.376 62.3417 258.215 62.7685L258.213 62.7752C258.05 63.1994 258.209 63.666 258.634 63.8289C258.917 63.9361 259.134 63.8895 259.396 63.7858L259.609 64.269C259.25 64.4432 258.903 64.5055 258.425 64.324ZM254.986 62.5564L256.382 60.3055L256.877 60.6119L255.481 62.8639L254.986 62.5564ZM252.966 61.0569L253.144 59.9861L252.087 60.2506L251.6 59.8015L253.193 59.4333L253.421 57.8757L253.923 58.3357L253.752 59.3478L254.747 59.0927L255.234 59.5412L253.704 59.8959L253.468 61.5189L252.966 61.0569ZM249.331 56.8003L251.521 55.3018L252.651 56.9507L252.223 57.2457L251.419 56.0733L250.975 56.3777L251.683 57.4096L251.255 57.7031L250.547 56.6717L250.088 56.9865L250.902 58.1733L250.474 58.4684L249.331 56.8003ZM247.368 47.6661C247.374 47.9269 247.591 48.1353 247.853 48.1302C247.915 48.1289 247.977 48.1154 248.034 48.0904C248.091 48.0653 248.143 48.0294 248.186 47.9845C248.229 47.9395 248.263 47.8865 248.285 47.8285C248.308 47.7704 248.319 47.7084 248.318 47.6461C248.317 47.5839 248.303 47.5224 248.278 47.4653C248.253 47.4082 248.217 47.3566 248.172 47.3135C248.127 47.2703 248.074 47.2364 248.016 47.2138C247.958 47.1911 247.896 47.18 247.834 47.1812C247.708 47.1838 247.588 47.2364 247.501 47.3273C247.413 47.4182 247.366 47.5401 247.368 47.6661Z" fill="#FEFEFE"/>
</g>
</g>
<g opacity="0.25">
<g filter="url(#filter4_d_7_1463)">
<path d="M309.882 28.5883C309.882 26.6001 311.494 24.9883 313.482 24.9883H351.282C353.271 24.9883 354.882 26.6001 354.882 28.5883V66.3883C354.882 68.3765 353.271 69.9883 351.282 69.9883H313.482C311.494 69.9883 309.882 68.3765 309.882 66.3883V28.5883Z" fill="#0070D1"/>
<path d="M313.482 25.2129H351.283C353.146 25.2131 354.658 26.7242 354.658 28.5879V66.3887C354.658 68.2523 353.146 69.7635 351.283 69.7637H313.482C311.618 69.7635 310.107 68.2523 310.107 66.3887V28.5879C310.107 26.7242 311.618 25.2131 313.482 25.2129Z" stroke="#152950" stroke-width="0.45"/>
</g>
<g clip-path="url(#clip1_7_1463)">
<path d="M321.618 51.6753C320.776 52.265 320.932 53.2809 322.853 53.9162C324.775 54.5515 327.008 54.6829 328.973 54.329C328.917 54.329 329.085 54.329 328.973 54.329V52.324L327.064 52.9727C326.334 53.2086 325.604 53.2675 324.874 53.0906C324.313 52.9137 324.425 52.5599 325.099 52.265L328.973 50.8496V48.6677L323.583 50.6138C322.91 50.8496 322.236 51.2035 321.618 51.6753ZM334.643 42.8295V48.5498C336.944 49.7292 338.741 48.5498 338.741 45.4833C338.741 42.3577 337.674 40.9424 334.587 39.8219C332.958 39.2322 331.274 38.7015 329.59 38.3477V55.3905L333.52 56.6289V42.2988C333.52 41.6501 333.52 41.1783 333.969 41.3552C334.587 41.5321 334.643 42.1808 334.643 42.8295ZM341.941 50.3189C340.313 49.7292 338.572 49.4933 336.888 49.6702C335.953 49.7317 335.075 50.0103 334.194 50.3189V52.6188L337.843 51.2035C338.572 50.9676 339.302 50.9086 340.032 51.0855C340.593 51.2624 340.481 51.6163 339.807 51.9111L334.194 54.0931V56.334L341.941 53.3265C342.502 53.0906 343.007 52.7957 343.457 52.324C343.85 51.7342 343.681 50.9086 341.941 50.3189Z" fill="white"/>
</g>
</g>
<g clip-path="url(#clip2_7_1463)">
<mask id="mask1_7_1463" style="mask-type:luminance" maskUnits="userSpaceOnUse" x="180" y="64" width="53" height="53">
<path d="M232.882 64.9883H180.882V116.988H232.882V64.9883Z" fill="white"/>
</mask>
<g mask="url(#mask1_7_1463)">
<path d="M199.245 98.1382C198.757 97.4882 198.27 96.3507 197.295 94.8882C196.807 94.0757 195.345 92.4507 194.857 91.8007C194.532 91.1507 194.532 90.8257 194.695 90.1757C194.857 89.2007 195.832 88.3882 196.97 88.3882C197.782 88.3882 198.595 89.0382 199.245 89.5257C199.57 89.8507 200.057 90.5007 200.382 90.8257C200.707 91.1507 200.707 91.3132 201.032 91.6382C201.357 92.1257 201.52 92.4507 201.357 91.8007C201.195 90.9882 201.032 89.6882 200.707 88.3882C200.545 87.4132 200.382 87.2507 200.22 86.6007C200.057 85.7882 199.895 85.3007 199.732 84.4882C199.57 84.0007 199.407 82.7007 199.245 82.0507C199.082 81.2382 199.082 79.7757 199.732 79.1257C200.22 78.6382 201.195 78.4757 201.845 78.8007C202.657 79.2882 203.145 80.4257 203.307 80.9132C203.632 81.7257 203.957 82.8632 204.12 84.1632C204.445 85.7882 204.932 88.2257 204.932 88.7132C204.932 88.0632 204.77 86.9257 204.932 86.2757C205.095 85.7882 205.42 85.1382 206.07 84.9757C206.557 84.8132 207.045 84.8132 207.532 84.8132C208.02 84.9757 208.507 85.3007 208.832 85.6257C209.482 86.6007 209.482 88.7132 209.482 88.5507C209.645 87.9007 209.645 86.6007 209.97 85.9507C210.132 85.6257 210.782 85.3007 211.107 85.1382C211.595 84.9757 212.245 84.9757 212.732 85.1382C213.057 85.1382 213.707 85.6257 213.87 85.9507C214.195 86.4382 214.357 88.0632 214.52 88.7132C214.52 88.8757 214.682 88.0632 215.007 87.5757C215.657 86.6007 217.932 86.2757 218.095 88.5507C218.095 89.6882 218.095 89.5257 218.095 90.3382C218.095 91.1507 218.095 91.6382 218.095 92.2882C218.095 92.9382 217.932 94.4007 217.77 95.0507C217.607 95.5382 217.12 96.6757 216.632 97.3257C216.632 97.3257 214.845 99.2757 214.682 100.251C214.52 101.226 214.52 101.226 214.52 101.876C214.52 102.526 214.682 103.338 214.682 103.338C214.682 103.338 213.382 103.501 212.732 103.338C212.082 103.176 211.27 102.038 211.107 101.551C210.782 101.063 210.295 101.063 209.97 101.551C209.645 102.201 208.832 103.338 208.182 103.338C207.045 103.501 204.77 103.338 203.145 103.338C203.145 103.338 203.47 101.713 202.82 101.063C202.332 100.576 201.52 99.7632 201.032 99.2757L199.245 98.1382Z" fill="white"/>
</g>
<mask id="mask2_7_1463" style="mask-type:luminance" maskUnits="userSpaceOnUse" x="180" y="64" width="53" height="53">
<path d="M232.882 64.9883H180.882V116.988H232.882V64.9883Z" fill="white"/>
</mask>
<g mask="url(#mask2_7_1463)">
<path d="M199.245 98.1382C198.757 97.4882 198.27 96.3507 197.295 94.8882C196.807 94.0757 195.345 92.4507 194.857 91.8007C194.532 91.1507 194.532 90.8257 194.695 90.1757C194.857 89.2007 195.832 88.3882 196.97 88.3882C197.782 88.3882 198.595 89.0382 199.245 89.5257C199.57 89.8507 200.057 90.5007 200.382 90.8257C200.707 91.1507 200.707 91.3132 201.032 91.6382C201.357 92.1257 201.52 92.4507 201.357 91.8007C201.195 90.9882 201.032 89.6882 200.707 88.3882C200.545 87.4132 200.382 87.2507 200.22 86.6007C200.057 85.7882 199.895 85.3007 199.732 84.4882C199.57 84.0007 199.407 82.7007 199.245 82.0507C199.082 81.2382 199.082 79.7757 199.732 79.1257C200.22 78.6382 201.195 78.4757 201.845 78.8007C202.657 79.2882 203.145 80.4257 203.307 80.9132C203.632 81.7257 203.957 82.8632 204.12 84.1632C204.445 85.7882 204.932 88.2257 204.932 88.7132C204.932 88.0632 204.77 86.9257 204.932 86.2757C205.095 85.7882 205.42 85.1382 206.07 84.9757C206.557 84.8132 207.045 84.8132 207.532 84.8132C208.02 84.9757 208.507 85.3007 208.832 85.6257C209.482 86.6007 209.482 88.7132 209.482 88.5507C209.645 87.9007 209.645 86.6007 209.97 85.9507C210.132 85.6257 210.782 85.3007 211.107 85.1382C211.595 84.9757 212.245 84.9757 212.732 85.1382C213.057 85.1382 213.707 85.6257 213.87 85.9507C214.195 86.4382 214.357 88.0632 214.52 88.7132C214.52 88.8757 214.682 88.0632 215.007 87.5757C215.657 86.6007 217.932 86.2757 218.095 88.5507C218.095 89.6882 218.095 89.5257 218.095 90.3382C218.095 91.1507 218.095 91.6382 218.095 92.2882C218.095 92.9382 217.932 94.4007 217.77 95.0507C217.607 95.5382 217.12 96.6757 216.632 97.3257C216.632 97.3257 214.845 99.2757 214.682 100.251C214.52 101.226 214.52 101.226 214.52 101.876C214.52 102.526 214.682 103.338 214.682 103.338C214.682 103.338 213.382 103.501 212.732 103.338C212.082 103.176 211.27 102.038 211.107 101.551C210.782 101.063 210.295 101.063 209.97 101.551C209.645 102.201 208.832 103.338 208.182 103.338C207.045 103.501 204.77 103.338 203.145 103.338C203.145 103.338 203.47 101.713 202.82 101.063C202.332 100.576 201.52 99.7632 201.032 99.2757L199.245 98.1382Z" stroke="black" stroke-width="1.21875" stroke-linecap="round" stroke-linejoin="round"/>
</g>
<mask id="mask3_7_1463" style="mask-type:luminance" maskUnits="userSpaceOnUse" x="180" y="64" width="53" height="53">
<path d="M232.882 64.9883H180.882V116.988H232.882V64.9883Z" fill="white"/>
</mask>
<g mask="url(#mask3_7_1463)">
<path d="M212.732 98.6258V93.1008" stroke="black" stroke-width="1.21875" stroke-linecap="round"/>
</g>
<mask id="mask4_7_1463" style="mask-type:luminance" maskUnits="userSpaceOnUse" x="180" y="64" width="53" height="53">
<path d="M232.882 64.9883H180.882V116.988H232.882V64.9883Z" fill="white"/>
</mask>
<g mask="url(#mask4_7_1463)">
<path d="M209.482 98.6258L209.32 93.1008" stroke="black" stroke-width="1.21875" stroke-linecap="round"/>
</g>
<mask id="mask5_7_1463" style="mask-type:luminance" maskUnits="userSpaceOnUse" x="180" y="64" width="53" height="53">
<path d="M232.882 64.9883H180.882V116.988H232.882V64.9883Z" fill="white"/>
</mask>
<g mask="url(#mask5_7_1463)">
<path d="M206.232 93.1008V98.6258" stroke="black" stroke-width="1.21875" stroke-linecap="round"/>
</g>
</g>
<defs>
<filter id="filter0_d_7_1463" x="-3.33786e-06" y="21.1059" width="52.7648" height="52.7648" filterUnits="userSpaceOnUse" color-interpolation-filters="sRGB">
<feFlood flood-opacity="0" result="BackgroundImageFix"/>
<feColorMatrix in="SourceAlpha" type="matrix" values="0 0 0 0 0 0 0 0 0 0 0 0 0 0 0 0 0 0 127 0" result="hardAlpha"/>
<feOffset/>
<feGaussianBlur stdDeviation="1.94121"/>
<feComposite in2="hardAlpha" operator="out"/>
<feColorMatrix type="matrix" values="0 0 0 0 0 0 0 0 0 0 0 0 0 0 0 0 0 0 0.6 0"/>
<feBlend mode="normal" in2="BackgroundImageFix" result="effect1_dropShadow_7_1463"/>
<feBlend mode="normal" in="SourceGraphic" in2="effect1_dropShadow_7_1463" result="shape"/>
</filter>
<filter id="filter1_d_7_1463" x="58.7059" y="12.3117" width="70.3531" height="70.3531" filterUnits="userSpaceOnUse" color-interpolation-filters="sRGB">
<feFlood flood-opacity="0" result="BackgroundImageFix"/>
<feColorMatrix in="SourceAlpha" type="matrix" values="0 0 0 0 0 0 0 0 0 0 0 0 0 0 0 0 0 0 127 0" result="hardAlpha"/>
<feOffset/>
<feGaussianBlur stdDeviation="2.58828"/>
<feComposite in2="hardAlpha" operator="out"/>
<feColorMatrix type="matrix" values="0 0 0 0 0 0 0 0 0 0 0 0 0 0 0 0 0 0 0.6 0"/>
<feBlend mode="normal" in2="BackgroundImageFix" result="effect1_dropShadow_7_1463"/>
<feBlend mode="normal" in="SourceGraphic" in2="effect1_dropShadow_7_1463" result="shape"/>
</filter>
<filter id="filter2_d_7_1463" x="131.894" y="-7.24792e-05" width="94.9767" height="94.9767" filterUnits="userSpaceOnUse" color-interpolation-filters="sRGB">
<feFlood flood-opacity="0" result="BackgroundImageFix"/>
<feColorMatrix in="SourceAlpha" type="matrix" values="0 0 0 0 0 0 0 0 0 0 0 0 0 0 0 0 0 0 127 0" result="hardAlpha"/>
<feOffset/>
<feGaussianBlur stdDeviation="3.49418"/>
<feComposite in2="hardAlpha" operator="out"/>
<feColorMatrix type="matrix" values="0 0 0 0 0 0 0 0 0 0 0 0 0 0 0 0 0 0 0.6 0"/>
<feBlend mode="normal" in2="BackgroundImageFix" result="effect1_dropShadow_7_1463"/>
<feBlend mode="normal" in="SourceGraphic" in2="effect1_dropShadow_7_1463" result="shape"/>
</filter>
<filter id="filter3_d_7_1463" x="229.706" y="12.3117" width="70.3531" height="70.3531" filterUnits="userSpaceOnUse" color-interpolation-filters="sRGB">
<feFlood flood-opacity="0" result="BackgroundImageFix"/>
<feColorMatrix in="SourceAlpha" type="matrix" values="0 0 0 0 0 0 0 0 0 0 0 0 0 0 0 0 0 0 127 0" result="hardAlpha"/>
<feOffset/>
<feGaussianBlur stdDeviation="2.58828"/>
<feComposite in2="hardAlpha" operator="out"/>
<feColorMatrix type="matrix" values="0 0 0 0 0 0 0 0 0 0 0 0 0 0 0 0 0 0 0.6 0"/>
<feBlend mode="normal" in2="BackgroundImageFix" result="effect1_dropShadow_7_1463"/>
<feBlend mode="normal" in="SourceGraphic" in2="effect1_dropShadow_7_1463" result="shape"/>
</filter>
<filter id="filter4_d_7_1463" x="306" y="21.1059" width="52.7648" height="52.7648" filterUnits="userSpaceOnUse" color-interpolation-filters="sRGB">
<feFlood flood-opacity="0" result="BackgroundImageFix"/>
<feColorMatrix in="SourceAlpha" type="matrix" values="0 0 0 0 0 0 0 0 0 0 0 0 0 0 0 0 0 0 127 0" result="hardAlpha"/>
<feOffset/>
<feGaussianBlur stdDeviation="1.94121"/>
<feComposite in2="hardAlpha" operator="out"/>
<feColorMatrix type="matrix" values="0 0 0 0 0 0 0 0 0 0 0 0 0 0 0 0 0 0 0.6 0"/>
<feBlend mode="normal" in2="BackgroundImageFix" result="effect1_dropShadow_7_1463"/>
<feBlend mode="normal" in="SourceGraphic" in2="effect1_dropShadow_7_1463" result="shape"/>
</filter>
<linearGradient id="paint0_linear_7_1463" x1="26.3824" y1="24.9883" x2="26.3824" y2="69.9883" gradientUnits="userSpaceOnUse">
<stop stop-color="#005EFF"/>
<stop offset="1" stop-color="#1955BC"/>
</linearGradient>
<linearGradient id="paint1_linear_7_1463" x1="93.8824" y1="17.4883" x2="93.8824" y2="77.4883" gradientUnits="userSpaceOnUse">
<stop stop-color="white"/>
<stop offset="1" stop-color="#FEFEFE"/>
</linearGradient>
<linearGradient id="paint2_linear_7_1463" x1="179.382" y1="6.98828" x2="179.382" y2="87.9883" gradientUnits="userSpaceOnUse">
<stop/>
<stop offset="1" stop-color="#0A0A0A"/>
</linearGradient>
<linearGradient id="paint3_linear_7_1463" x1="196.685" y1="57.6336" x2="181.765" y2="64.1859" gradientUnits="userSpaceOnUse">
<stop stop-color="#B20610"/>
<stop offset="0.255959" stop-color="#B20610"/>
<stop offset="1" stop-color="#590004"/>
</linearGradient>
<linearGradient id="paint4_linear_7_1463" x1="161.753" y1="35.9948" x2="177.888" y2="28.9907" gradientUnits="userSpaceOnUse">
<stop stop-color="#B20610"/>
<stop offset="0.255959" stop-color="#B20610"/>
<stop offset="1" stop-color="#590004"/>
</linearGradient>
<clipPath id="clip0_7_1463">
<rect width="42" height="42" fill="white" transform="translate(243.582 26.4883)"/>
</clipPath>
<clipPath id="clip1_7_1463">
<rect width="22.5" height="22.5" fill="white" transform="translate(321.132 36.2383)"/>
</clipPath>
<clipPath id="clip2_7_1463">
<rect width="52" height="52" fill="white" transform="translate(180.882 64.9883)"/>
</clipPath>
</defs>
</svg>
