<svg width="1580" height="1602" viewBox="0 0 1580 1602" fill="none" xmlns="http://www.w3.org/2000/svg">
<g opacity="0.05">
<path d="M814.692 0L748.289 13.9996L770.414 285.013L746.98 272.4L770.414 518.13L745.728 496.204L790.007 763.027L776.93 567.413L799.651 587.602L776.93 322.924L814.692 341.843V0Z" fill="white"/>
<path d="M540.321 39.809L482.688 75.7641L595.858 322.837L569.53 319.012L675.31 541.896L644.632 529.765L777.163 765.29L698.22 585.967L726.455 597.149L614.899 356.222L656.822 361.04L540.321 39.809Z" fill="white"/>
<path d="M296.075 171.396L254.167 224.957L444.723 418.294L418.685 423.739L594.026 596.872L561.064 595.996L765.89 771.83L630.58 630.418L660.924 631.221L473.975 443.125L515.025 433.271L296.075 171.396Z" fill="white"/>
<path d="M111.395 378.879L90.2741 443.592L335.219 559.866L312.614 573.924L536.393 676.431L505.119 686.927L757.511 781.844L582.17 695.409L610.957 685.745L371.191 573.165L406.393 549.808L111.395 378.879Z" fill="white"/>
<path d="M8.56775 637.25L10.7788 705.306L280.583 730.488L264.116 751.451L509.337 770.969L483.532 791.567L753.045 794.136L558.824 773.085L582.592 754.137L318.898 730.634L344.034 696.606L8.56775 637.25Z" fill="white"/>
<path d="M0 915.314L25.2668 978.51L287.376 909.577L279.055 934.934L516.145 869.097L498.908 897.3L753.045 807.216L563.362 854.105L579.232 828.135L323.451 896.556L335.451 855.959L0 915.314Z" fill="white"/>
<path d="M86.7103 1179.57L131.993 1230.27L354.798 1075.53L355.627 1102.21L555.973 958.963L549.398 991.4L757.511 819.507L595.233 928.672L601.299 898.819L384.254 1050.92L381.708 1008.64L86.7103 1179.57Z" fill="white"/>
<path d="M258.254 1398.1L318.083 1430.22L474.717 1208.33L484.58 1233.11L624.035 1029.75L628.908 1062.48L765.89 829.522L650.611 987.809L646.13 957.678L494.005 1175.09L477.205 1136.24L258.254 1398.1Z" fill="white"/>
<path d="M493.933 1544.59L561.093 1554.23L632.66 1291.96L650.378 1311.87L712.112 1072.9L727.837 1101.98L777.163 836.061L722.789 1024.36L708.316 997.589L639.468 1254.11L610.434 1223.36L493.933 1544.59Z" fill="white"/>
<path d="M765.322 1601.35L831.711 1587.37L809.587 1316.34L833.021 1328.97L809.587 1083.22L834.272 1105.15L790.007 838.339L803.07 1033.94L780.349 1013.75L803.07 1278.43L765.322 1259.51V1601.35Z" fill="white"/>
<path d="M1039.68 1561.54L1097.31 1525.6L984.142 1278.51L1010.47 1282.34L904.69 1059.46L935.368 1071.59L802.837 836.061L881.78 1015.38L853.545 1004.22L965.101 1245.13L923.178 1240.31L1039.68 1561.54Z" fill="white"/>
<path d="M1283.93 1429.96L1325.83 1376.39L1135.29 1183.06L1161.33 1177.61L985.974 1004.48L1018.94 1005.36L814.125 829.522L949.42 970.933L919.076 970.13L1106.02 1158.23L1064.98 1168.08L1283.93 1429.96Z" fill="white"/>
<path d="M1468.6 1222.47L1489.73 1157.76L1244.78 1041.49L1267.4 1027.43L1043.61 924.935L1074.88 914.439L822.489 819.507L997.83 905.943L969.043 915.607L1208.82 1028.19L1173.61 1051.54L1468.6 1222.47Z" fill="white"/>
<path d="M1571.43 964.116L1569.22 896.06L1299.43 870.863L1315.88 849.901L1070.66 830.383L1096.47 809.785L826.955 807.216L1021.18 828.266L997.408 847.214L1261.1 870.717L1235.97 904.746L1571.43 964.116Z" fill="white"/>
<path d="M1580 686.037L1554.73 622.842L1292.62 691.774L1300.94 666.432L1063.87 732.255L1081.09 704.051L826.955 794.136L1016.64 747.247L1000.77 773.217L1256.56 704.796L1244.55 745.393L1580 686.037Z" fill="white"/>
<path d="M1493.29 421.797L1448.01 371.083L1225.2 525.823L1224.37 499.152L1024.03 642.389L1030.6 609.966L822.489 781.844L984.767 672.68L978.701 702.533L1195.75 550.435L1198.29 592.711L1493.29 421.797Z" fill="white"/>
<path d="M1321.75 203.249L1261.92 171.133L1105.28 393.024L1095.42 368.237L955.966 571.603L951.093 538.874L814.125 771.83L929.39 613.557L933.87 643.688L1085.99 426.264L1102.8 465.11L1321.75 203.249Z" fill="white"/>
<path d="M1086.07 56.7574L1018.91 47.1226L947.34 309.392L929.622 289.495L867.888 528.451L852.163 499.371L802.837 765.29L857.211 576.989L871.685 603.777L940.532 347.245L969.566 377.988L1086.07 56.7574Z" fill="white"/>
</g>
</svg>
