<svg width="275" height="143" viewBox="0 0 275 143" fill="none" xmlns="http://www.w3.org/2000/svg">
<g filter="url(#filter0_d_7_1064)">
<g clip-path="url(#clip0_7_1064)">
<path d="M8.62759 16.6277C8.62759 12.2094 12.2093 8.62769 16.6276 8.62769H257.628C262.046 8.62769 265.628 12.2094 265.628 16.6277V125.628C265.628 130.046 262.046 133.628 257.628 133.628H16.6276C12.2093 133.628 8.62759 130.046 8.62759 125.628V16.6277Z" fill="#006341"/>
<g opacity="0.05">
<path d="M142.254 -79.3723L129.813 -76.7496L133.958 -25.9775L129.568 -28.3404L133.958 17.695L129.334 13.5873L137.629 63.5746L135.179 26.9278L139.436 30.7101L135.179 -18.8751L142.254 -15.3308V-79.3723Z" fill="white"/>
<path d="M90.8522 -71.9144L80.0553 -65.1785L101.257 -18.8915L96.3243 -19.6081L116.141 22.1473L110.394 19.8747L135.223 63.9985L120.433 30.4038L125.723 32.4987L104.824 -12.637L112.678 -11.7345L90.8522 -71.9144Z" fill="white"/>
<path d="M45.0947 -47.2627L37.2436 -37.2286L72.9428 -1.00847L68.0648 0.0116193L100.913 32.4467L94.7383 32.2826L133.111 65.2237L107.762 38.7314L113.446 38.8818L78.423 3.64348L86.1133 1.79746L45.0947 -47.2627Z" fill="white"/>
<path d="M10.4966 -8.39251L6.5397 3.73098L52.428 25.5139L48.1932 28.1476L90.1165 47.3515L84.2575 49.3179L131.541 67.0998L98.6924 50.9068L104.085 49.0964L59.1673 28.0054L65.7621 23.6296L10.4966 -8.39251Z" fill="white"/>
<path d="M-8.76731 40.0112L-8.35309 52.761L42.1925 57.4786L39.1076 61.4058L85.0477 65.0623L80.2134 68.9211L130.704 69.4025L94.3186 65.4589L98.7715 61.909L49.3704 57.506L54.0795 51.1311L-8.76731 40.0112Z" fill="white"/>
<path d="M-10.3724 92.1043L-5.63887 103.943L43.4651 91.0295L41.9063 95.7799L86.3231 83.4458L83.0938 88.7295L130.704 71.8529L95.1688 80.6372L98.1419 75.7719L50.2234 88.5901L52.4716 80.9845L-10.3724 92.1043Z" fill="white"/>
<path d="M5.87205 141.61L14.3554 151.108L56.096 122.119L56.2514 127.118L93.7845 100.281L92.5527 106.358L131.541 74.1556L101.14 94.6067L102.276 89.014L61.6144 117.508L61.1375 109.588L5.87205 141.61Z" fill="white"/>
<path d="M38.0094 182.551L49.2178 188.567L78.562 146.998L80.4096 151.642L106.535 113.543L107.448 119.674L133.111 76.0317L111.514 105.685L110.675 100.041L82.1755 140.771L79.0279 133.493L38.0094 182.551Z" fill="white"/>
<path d="M82.1618 209.995L94.7437 211.8L108.151 162.666L111.471 166.396L123.036 121.627L125.982 127.075L135.223 77.2569L125.036 112.534L122.325 107.518L109.427 155.574L103.987 149.815L82.1618 209.995Z" fill="white"/>
<path d="M133.004 220.628L145.442 218.008L141.297 167.233L145.687 169.598L141.297 123.56L145.922 127.668L137.629 77.6836L140.076 114.328L135.819 110.545L140.076 160.131L133.004 156.586V220.628Z" fill="white"/>
<path d="M184.403 213.17L195.2 206.437L173.998 160.147L178.931 160.863L159.114 119.108L164.861 121.381L140.033 77.2569L154.822 110.852L149.532 108.759L170.431 153.892L162.577 152.99L184.403 213.17Z" fill="white"/>
<path d="M230.16 188.518L238.012 178.484L202.315 142.264L207.193 141.244L174.342 108.809L180.517 108.973L142.147 76.0317L167.494 102.524L161.809 102.374L196.832 137.612L189.142 139.458L230.16 188.518Z" fill="white"/>
<path d="M264.759 149.648L268.716 137.524L222.827 115.741L227.065 113.108L185.139 93.9066L190.998 91.9402L143.714 74.1556L176.563 90.3486L171.17 92.159L216.091 113.25L209.493 117.626L264.759 149.648Z" fill="white"/>
<path d="M284.023 101.247L283.608 88.4971L233.065 83.7767L236.148 79.8495L190.207 76.1931L195.042 72.3342L144.551 71.8529L180.937 75.7965L176.484 79.3463L225.885 83.7494L221.176 90.1243L284.023 101.247Z" fill="white"/>
<path d="M285.628 49.1511L280.894 37.312L231.79 50.2259L233.349 45.4782L188.935 57.8095L192.161 52.5258L144.551 69.4025L180.086 60.6182L177.113 65.4835L225.035 52.6653L222.784 60.2709L285.628 49.1511Z" fill="white"/>
<path d="M269.383 -0.352106L260.9 -9.85291L219.159 19.1363L219.004 14.1398L181.471 40.9739L182.702 34.8999L143.714 67.0998L174.116 46.6487L172.979 52.2414L213.641 23.7472L214.118 31.6673L269.383 -0.352106Z" fill="white"/>
<path d="M237.246 -41.2953L226.037 -47.3119L196.693 -5.74247L194.846 -10.3862L168.72 27.7127L167.807 21.5812L142.147 65.2236L163.741 35.5726L164.58 41.2173L193.08 0.484745L196.227 7.76212L237.246 -41.2953Z" fill="white"/>
<path d="M193.093 -68.7393L180.511 -70.5443L167.104 -21.4103L163.785 -25.1379L152.219 19.6286L149.273 14.1808L140.033 63.9984L150.219 28.7219L152.931 33.7403L165.829 -14.3189L171.268 -8.55934L193.093 -68.7393Z" fill="white"/>
</g>
<g clip-path="url(#clip1_7_1064)">
<path d="M137.499 109.372C158.415 109.372 175.371 92.4162 175.371 71.5C175.371 50.5837 158.415 33.6277 137.499 33.6277C116.583 33.6277 99.6269 50.5837 99.6269 71.5C99.6269 92.4162 116.583 109.372 137.499 109.372Z" fill="white"/>
<path d="M141.294 50.0012C140.962 49.9425 139.358 49.6686 137.48 49.6686C135.602 49.6686 133.997 49.9425 133.665 50.0012C133.469 50.0403 133.411 49.8447 133.548 49.7469C133.684 49.6491 137.48 46.7539 137.48 46.7539L141.412 49.7469C141.568 49.8447 141.49 50.0403 141.294 50.0012ZM134.741 68.7417C134.741 68.7417 134.545 68.82 134.487 68.996C135.289 69.6024 135.836 70.9914 137.48 70.9914C139.142 70.9914 139.69 69.6024 140.473 68.996C140.414 68.82 140.218 68.7417 140.218 68.7417C140.218 68.7417 139.181 68.996 137.48 68.996C135.778 68.996 134.741 68.7417 134.741 68.7417ZM137.499 66.4138C137.03 66.4138 136.932 66.2378 136.619 66.2378C136.325 66.2378 135.739 66.4725 135.621 66.6877C135.621 66.8051 135.68 66.9029 135.758 66.9811C136.423 67.0789 136.736 67.4506 137.519 67.4506C138.301 67.4506 138.595 67.0789 139.279 66.9811C139.358 66.8833 139.397 66.7855 139.416 66.6877C139.299 66.4725 138.712 66.2378 138.419 66.2378C138.047 66.2378 137.949 66.4138 137.499 66.4138ZM175.293 73.5736C175.254 74.4734 175.156 75.3733 175.058 76.2536C170.774 76.9578 169.248 73.1432 164.847 73.3388C165.101 74.2778 165.316 75.2168 165.493 76.1949C169.112 76.1949 170.579 79.5791 174.608 79.0705C174.393 80.1073 174.139 81.1245 173.846 82.1418C170.657 82.4548 169.542 79.2857 165.845 79.3835C165.884 79.9117 165.884 80.4399 165.884 80.968L165.864 81.8483L173.024 84.587C172.652 85.6043 172.222 86.6019 171.772 87.58C169.62 87.4627 168.877 84.7044 165.61 84.9196C165.512 85.6238 165.395 86.3281 165.238 87.0127C168.075 86.8171 168.701 89.4384 170.735 89.6341C170.207 90.573 169.659 91.4925 169.072 92.3923C167.86 91.7468 166.823 89.7906 164.534 89.6732C164.769 88.9494 164.984 88.206 165.14 87.4627C163.106 87.4627 160.798 86.6802 158.841 84.9C159.467 81.3006 153.892 77.6425 153.892 75.0211C153.892 72.1651 155.34 70.5805 155.34 66.7268C155.34 63.8707 153.951 60.7604 151.858 58.6476C151.447 58.2368 151.036 57.9043 150.567 57.6109C152.484 59.9974 153.97 62.8144 153.97 66.0813C153.97 69.7002 152.288 71.6173 152.288 74.9625C152.288 78.3076 157.179 81.2028 157.179 84.6653C157.179 86.0151 156.748 87.3453 155.32 89.9471C157.511 92.138 160.387 93.3313 162.226 93.3313C162.832 93.3313 163.145 93.1552 163.36 92.6857C163.536 92.2749 163.712 91.8641 163.888 91.4533C165.884 91.5316 166.784 93.3313 167.899 94.0551C167.292 94.8571 166.666 95.6592 166.001 96.4026C165.258 95.5809 164.28 94.2116 162.813 93.8204C162.558 94.329 162.284 94.818 161.991 95.3071C163.243 95.6396 164.104 96.9112 164.769 97.7328C164.045 98.4761 163.302 99.1804 162.539 99.8651C162.05 99.1217 161.306 98.1631 160.465 97.635C160.152 98.0653 159.819 98.4761 159.487 98.8674C160.211 99.3564 160.837 100.237 161.248 100.941C160.348 101.665 159.428 102.33 158.47 102.975C158 99.1217 152.758 96.5004 154.166 92.0402C153.697 92.8227 153.149 93.8008 153.149 94.9941C153.149 98.2218 156.592 100.784 156.866 103.993C156.161 104.423 155.418 104.814 154.675 105.206C154.557 101.684 150.899 97.811 150.899 94.9158C150.899 91.6881 155.125 88.4408 155.125 84.6262C155.125 80.8115 150.234 78.1707 150.234 74.806C150.234 71.4608 152.308 69.5242 152.308 65.2401C152.308 62.0906 150.821 58.9215 148.513 56.8871C148.102 56.5349 147.711 56.2415 147.221 55.9872C149.393 58.589 150.664 60.9755 150.664 64.5554C150.664 68.5852 148.278 70.8349 148.278 74.7864C148.278 78.738 153.071 80.9485 153.071 84.6262C153.071 88.3038 148.61 91.4142 148.61 95.2093C148.61 98.6522 152.542 102.095 152.601 106.184C151.74 106.555 150.86 106.907 149.98 107.22C150.488 103.093 146.048 98.8283 146.048 95.4636C146.048 91.7859 150.684 88.6168 150.684 84.6457C150.684 80.6746 145.97 78.8358 145.97 74.7473C145.97 70.6784 148.865 68.4092 148.865 63.9099C148.865 60.4082 147.124 57.2392 144.6 55.283L144.444 55.1656C144.209 54.9895 144.013 55.2047 144.17 55.4199C145.97 57.65 146.928 59.9192 146.928 63.2643C146.928 67.3919 143.622 70.737 143.622 74.7277C143.622 79.4422 148.082 80.792 148.082 84.6457C148.082 88.4995 143.309 91.5903 143.309 95.6983C143.309 99.4934 147.828 103.719 147.045 108.12C146.146 108.355 145.226 108.551 144.287 108.727C145.128 103.269 140.707 99.3369 140.707 95.757C140.707 91.8837 145.657 88.4408 145.657 84.6457C145.657 81.0854 142.116 79.9117 141.646 76.2536C141.588 75.7645 141.177 75.3928 140.629 75.4711C139.905 75.608 138.986 76.0775 137.538 76.0775C136.091 76.0775 135.171 75.608 134.447 75.4711C133.9 75.3733 133.489 75.7449 133.43 76.2536C132.961 79.9117 129.42 81.0658 129.42 84.6457C129.42 88.4212 134.369 91.8837 134.369 95.757C134.369 99.3369 129.929 103.269 130.789 108.727C129.85 108.551 128.931 108.355 128.031 108.12C127.249 103.738 131.767 99.5129 131.767 95.6983C131.767 91.5903 126.994 88.4995 126.994 84.6457C126.994 80.7724 131.454 79.4422 131.454 74.7277C131.454 70.737 128.129 67.3919 128.129 63.2643C128.129 59.9192 129.087 57.65 130.887 55.4199C131.063 55.2047 130.868 54.9895 130.613 55.1656L130.457 55.283C127.933 57.2392 126.192 60.3887 126.192 63.9099C126.192 68.4092 129.087 70.6784 129.087 74.7473C129.087 78.8162 124.373 80.6746 124.373 84.6457C124.373 88.6168 129.009 91.7859 129.009 95.4636C129.009 98.8283 124.588 103.093 125.077 107.22C124.177 106.907 123.317 106.575 122.456 106.184C122.515 102.095 126.447 98.6522 126.447 95.2093C126.447 91.4142 121.986 88.3234 121.986 84.6262C121.986 80.9289 126.779 78.738 126.779 74.7864C126.779 70.8349 124.392 68.5852 124.392 64.5554C124.392 60.956 125.644 58.589 127.835 55.9872C127.346 56.2415 126.955 56.5154 126.544 56.8871C124.236 58.9215 122.749 62.1101 122.749 65.2401C122.749 69.5242 124.823 71.4608 124.823 74.806C124.823 78.1511 119.932 80.792 119.932 84.6262C119.932 88.4408 124.158 91.6881 124.158 94.9158C124.158 97.811 120.519 101.665 120.382 105.206C119.639 104.834 118.915 104.423 118.191 103.993C118.465 100.784 121.908 98.2218 121.908 94.9941C121.908 93.8008 121.36 92.8227 120.891 92.0402C122.299 96.5004 117.057 99.1413 116.587 102.975C115.629 102.33 114.709 101.665 113.809 100.941C114.22 100.237 114.846 99.3564 115.57 98.8674C115.237 98.4761 114.905 98.0653 114.592 97.635C113.751 98.1436 112.988 99.1021 112.518 99.8651C111.755 99.1804 111.012 98.4761 110.288 97.7328C110.953 96.9112 111.814 95.6396 113.066 95.3071C112.773 94.818 112.499 94.329 112.244 93.8204C110.797 94.2116 109.799 95.5809 109.056 96.4026C108.391 95.6396 107.745 94.8571 107.158 94.0551C108.254 93.3313 109.173 91.5316 111.168 91.4533C111.345 91.8641 111.501 92.2749 111.697 92.6857C111.912 93.1552 112.225 93.3313 112.831 93.3313C114.67 93.3313 117.546 92.138 119.737 89.9471C118.309 87.3453 117.878 86.0151 117.878 84.6653C117.878 81.2223 122.769 78.3271 122.769 74.9625C122.769 71.5978 121.086 69.7002 121.086 66.0813C121.086 62.8144 122.554 59.9974 124.49 57.6109C124.021 57.9043 123.59 58.2368 123.199 58.6476C121.106 60.7604 119.717 63.8707 119.717 66.7268C119.717 70.5805 121.165 72.1651 121.165 75.0211C121.165 77.6425 115.59 81.3006 116.216 84.9C114.279 86.6802 111.951 87.4627 109.917 87.4627C110.093 88.206 110.308 88.9494 110.523 89.6732C108.234 89.7906 107.197 91.7468 105.985 92.3923C105.398 91.4925 104.83 90.573 104.322 89.6341C106.356 89.4189 106.963 86.7975 109.819 87.0127C109.662 86.3281 109.545 85.6238 109.447 84.9196C106.18 84.7044 105.437 87.4627 103.285 87.58C102.835 86.6019 102.405 85.6043 102.033 84.587L109.193 81.8483L109.173 80.968C109.173 80.4399 109.193 79.9117 109.212 79.3835C105.535 79.3053 104.4 82.4548 101.211 82.1418C100.918 81.1441 100.664 80.1073 100.448 79.0705C104.478 79.5596 105.926 76.1753 109.564 76.1949C109.721 75.2168 109.936 74.2778 110.21 73.3388C105.828 73.1432 104.283 76.9578 99.9985 76.2536C99.8811 75.3733 99.8029 74.4734 99.7638 73.5736C104.752 74.1213 106.611 70.0328 111.149 70.5414C111.579 69.4655 112.068 68.4092 112.636 67.3919C106.943 66.3943 105.026 71.1478 99.7246 70.424C100.214 50.0012 116.939 33.6277 137.499 33.6277C158.059 33.6277 174.765 50.0012 175.332 70.4045C170.031 71.1283 168.114 66.3747 162.421 67.3724C162.989 68.3896 163.478 69.4264 163.908 70.5219C168.446 70.0328 170.324 74.1213 175.293 73.5736ZM121.223 57.6891C118.426 56.5545 115.061 56.8088 112.186 58.6672C111.736 55.9872 110.288 53.6006 108.215 52.1726C107.921 51.977 107.628 52.153 107.647 52.4856C108.078 58.1586 104.772 63.0687 100.703 67.3919C104.909 68.6635 108.469 63.2447 113.927 65.1423C115.863 62.2275 118.348 59.704 121.223 57.6891ZM137.499 54.2657C133.978 54.2657 131.044 56.2611 130.261 58.8237C130.202 59.0193 130.281 59.1563 130.515 59.0389C131.141 58.7455 131.865 58.6281 132.648 58.6281C134.076 58.6281 135.347 59.1563 136.091 60.0757C136.423 61.1712 136.443 62.7361 136.071 63.6556C135.484 63.5186 135.269 63.0687 134.682 63.0687C134.095 63.0687 133.665 63.4795 132.687 63.4795C131.709 63.4795 131.591 63.01 130.946 63.01C130.183 63.01 130.046 63.7925 130.046 64.6728C130.046 68.5852 133.645 73.9844 137.48 73.9844C141.314 73.9844 144.913 68.6048 144.913 64.6728C144.913 63.7925 144.737 63.0491 143.935 62.9318C143.544 63.2252 143.172 63.4599 142.272 63.4599C141.294 63.4599 141.02 63.0491 140.453 63.0491C139.749 63.0491 139.827 64.5163 139.005 64.5945C138.458 63.2643 138.438 61.582 138.888 60.0561C139.631 59.1367 140.903 58.6085 142.331 58.6085C143.113 58.6085 143.837 58.7455 144.463 59.0193C144.698 59.1171 144.776 58.9998 144.718 58.8041C143.955 56.2415 141.001 54.2657 137.499 54.2657ZM143.094 59.8801C142.253 59.8801 141.255 60.1344 140.649 60.8386C140.59 61.0342 140.59 61.3081 140.668 61.4842C142.194 60.956 143.544 60.9364 144.189 61.6602C144.541 61.3472 144.639 61.0538 144.639 60.7408C144.639 60.2322 144.131 59.8801 143.094 59.8801ZM130.789 61.6602C131.533 60.9169 133.078 60.956 134.702 61.5428C134.78 60.7408 133.332 59.8605 131.904 59.8605C130.868 59.8605 130.339 60.2126 130.339 60.7212C130.339 61.0734 130.437 61.3472 130.789 61.6602ZM155.027 48.4167C152.249 48.6123 149.843 49.5708 147.887 51.1554C148.708 48.8079 149.765 46.7539 151.095 44.7585C147.554 45.1302 144.6 46.4213 142.448 48.6318L140.766 44.2108L144.502 40.9048L139.494 40.5527L137.499 35.8969L135.504 40.5527L130.496 40.9048L134.232 44.2108L132.55 48.6318C130.398 46.4213 127.444 45.1302 123.903 44.7585C125.234 46.7539 126.29 48.8079 127.112 51.1554C125.155 49.5708 122.749 48.6123 119.971 48.4167C121.634 50.5489 123.121 52.8377 124.197 55.283C124.314 55.5568 124.588 55.6546 124.882 55.4981C128.677 53.6006 132.961 52.5443 137.499 52.5443C142.038 52.5443 146.322 53.6006 150.117 55.4981C150.41 55.6351 150.664 55.5568 150.782 55.283C151.877 52.8377 153.344 50.5489 155.027 48.4167ZM161.071 65.1423C166.51 63.2643 170.09 68.6635 174.295 67.3919C170.227 63.0687 166.901 58.139 167.351 52.4856C167.37 52.153 167.077 51.9574 166.784 52.1726C164.71 53.6006 163.262 55.9872 162.813 58.6672C159.937 56.8088 156.553 56.5545 153.775 57.6891C156.631 59.704 159.115 62.2275 161.071 65.1423Z" fill="#006341"/>
<path d="M166.001 104.325H164.084V109.509H163.399V104.325H161.482V103.679H166.021V104.325H166.001ZM166.823 103.679H167.84L169.816 108.237H169.835L171.831 103.679H172.828V109.509H172.124V104.618H172.105L170.011 109.509H169.601L167.507 104.618V109.509H166.823V103.679Z" fill="#006341"/>
</g>
</g>
<path d="M16.6276 9.12769H257.628C261.77 9.12769 265.128 12.4856 265.128 16.6277V125.628C265.128 129.77 261.77 133.128 257.628 133.128H16.6276C12.4855 133.128 9.12759 129.77 9.12759 125.628V16.6277C9.12759 12.4856 12.4855 9.12769 16.6276 9.12769Z" stroke="#152950"/>
</g>
<defs>
<filter id="filter0_d_7_1064" x="-3.8147e-06" y="8.7738e-05" width="274.255" height="142.255" filterUnits="userSpaceOnUse" color-interpolation-filters="sRGB">
<feFlood flood-opacity="0" result="BackgroundImageFix"/>
<feColorMatrix in="SourceAlpha" type="matrix" values="0 0 0 0 0 0 0 0 0 0 0 0 0 0 0 0 0 0 127 0" result="hardAlpha"/>
<feOffset/>
<feGaussianBlur stdDeviation="4.3138"/>
<feComposite in2="hardAlpha" operator="out"/>
<feColorMatrix type="matrix" values="0 0 0 0 0 0 0 0 0 0 0 0 0 0 0 0 0 0 0.6 0"/>
<feBlend mode="normal" in2="BackgroundImageFix" result="effect1_dropShadow_7_1064"/>
<feBlend mode="normal" in="SourceGraphic" in2="effect1_dropShadow_7_1064" result="shape"/>
</filter>
<clipPath id="clip0_7_1064">
<path d="M8.62759 16.6277C8.62759 12.2094 12.2093 8.62769 16.6276 8.62769H257.628C262.046 8.62769 265.628 12.2094 265.628 16.6277V125.628C265.628 130.046 262.046 133.628 257.628 133.628H16.6276C12.2093 133.628 8.62759 130.046 8.62759 125.628V16.6277Z" fill="white"/>
</clipPath>
<clipPath id="clip1_7_1064">
<rect width="75.725" height="75.8815" fill="white" transform="translate(99.6276 33.6277)"/>
</clipPath>
</defs>
</svg>
