<svg width="18" height="18" viewBox="0 0 18 18" fill="none" xmlns="http://www.w3.org/2000/svg">
<path d="M14.7271 3.76719C13.643 3.26826 12.4986 2.9143 11.323 2.71436C11.1621 3.00344 11.0166 3.30088 10.8869 3.60542C9.63473 3.41573 8.3613 3.41573 7.10911 3.60542C6.9794 3.30092 6.83385 3.00348 6.67305 2.71436C5.49673 2.91599 4.35154 3.27079 3.26639 3.7698C1.11207 6.97397 0.528069 10.0985 0.820066 13.1788C2.08169 14.1158 3.4938 14.8285 4.99502 15.2858C5.33306 14.8287 5.63217 14.3439 5.8892 13.8363C5.40101 13.653 4.92983 13.4269 4.4811 13.1606C4.5992 13.0745 4.7147 12.9857 4.82631 12.8996C6.13201 13.5169 7.55708 13.8369 9 13.8369C10.4429 13.8369 11.8679 13.5169 13.1736 12.8996C13.2866 12.9923 13.4021 13.081 13.5188 13.1606C13.0693 13.4273 12.5972 13.6539 12.1082 13.8377C12.3649 14.345 12.664 14.8294 13.0023 15.2858C14.5049 14.8304 15.918 14.118 17.1799 13.1801C17.5225 9.60804 16.5946 6.51214 14.7271 3.76719ZM6.25906 11.2845C5.44535 11.2845 4.77311 10.5422 4.77311 9.62889C4.77311 8.71569 5.42199 7.96682 6.25646 7.96682C7.09094 7.96682 7.758 8.71569 7.74375 9.62889C7.72943 10.5422 7.08834 11.2845 6.25906 11.2845ZM11.7409 11.2845C10.9259 11.2845 10.2563 10.5422 10.2563 9.62889C10.2563 8.71569 10.9051 7.96682 11.7409 7.96682C12.5767 7.96682 13.2386 8.71569 13.2242 9.62889C13.21 10.5422 12.5702 11.2845 11.7409 11.2845Z" fill="#FAF8FF"/>
</svg>
