<svg width="230" height="118" viewBox="0 0 230 118" fill="none" xmlns="http://www.w3.org/2000/svg">
<path d="M107.142 0.597656C107.161 0.735419 107.168 0.923045 107.159 1.16504C107.122 2.14778 106.841 3.7438 106.453 5.74902C105.687 9.7183 104.528 15.1709 104.245 20.0322C104.064 23.1592 105.229 26.9422 107.222 31.2432C109.221 35.5573 112.087 40.4619 115.378 45.8486C117.704 49.655 119.94 51.7556 121.889 52.7764C122.503 53.0976 123.116 53.1794 123.707 53.0195C124.286 52.8632 124.789 52.4904 125.227 52.0049C126.095 51.0435 126.818 49.5143 127.45 47.7871C128.086 46.0459 128.65 44.0404 129.174 42.082C129.7 40.1141 130.185 38.2009 130.666 36.6094C131.511 33.8195 131.941 31.7505 132.204 30.2607C132.335 29.5232 132.426 28.9145 132.502 28.46C132.582 27.9851 132.643 27.6921 132.71 27.5117C132.736 27.4442 132.759 27.3919 132.78 27.3525C132.801 27.3733 132.826 27.3979 132.854 27.4297C133.189 27.8166 133.611 28.6503 134.099 29.7822C135.04 31.9642 136.167 35.1189 137.218 37.1348C140.164 42.7823 140.977 45.8843 143.195 56.1455C143.671 58.3497 143.671 59.0245 143.761 59.7764C143.774 59.8843 143.799 60.0277 143.866 60.1543C143.901 60.2208 143.966 60.3186 144.081 60.3906C144.212 60.4718 144.361 60.492 144.499 60.4619C144.621 60.4353 144.71 60.3751 144.764 60.3311C144.821 60.2848 144.867 60.2332 144.903 60.1875C144.975 60.0964 145.042 59.9848 145.105 59.8672C145.352 59.4023 145.678 58.5508 146.08 57.3662C146.891 54.9767 148.054 51.0937 149.554 45.8604C151.896 37.6936 156.256 31.0981 161.836 23.6289C168.6 14.5753 174.176 9.73426 175.633 8.33203C175.585 8.50386 175.525 8.7039 175.45 8.93457C174.081 13.1055 172.492 17.4341 171.074 21.6035C169.662 25.7532 168.43 29.7225 167.812 33.0957C165.472 45.8653 169.854 56.5269 173.99 63.8809C175.717 66.9516 177.885 68.4883 179.212 69.3037C180.95 70.3714 182.965 69.8961 184.93 68.7002C186.905 67.4979 188.969 65.491 190.937 63.2012C194.879 58.6138 198.545 52.7637 200.478 49.5371C201.97 47.0459 202.49 44.4337 202.686 42.377C202.784 41.3484 202.801 40.4518 202.816 39.7822C202.823 39.4434 202.829 39.1738 202.844 38.9678C202.851 38.8654 202.861 38.789 202.87 38.7344C202.881 38.6734 202.888 38.6681 202.877 38.6895C202.928 38.5887 202.972 38.5318 202.999 38.5C203.023 38.5162 203.056 38.542 203.099 38.585C203.191 38.6776 203.3 38.8189 203.423 39.0156C203.926 39.8167 204.502 41.264 205.119 43.0596C205.73 44.8411 206.365 46.9124 206.994 48.9326C207.62 50.9465 208.242 52.9126 208.823 54.4619C210.67 59.3887 211.483 64.2989 211.111 67.6533C211.079 67.9382 211.033 68.2513 210.986 68.5771C210.939 68.8985 210.89 69.2322 210.858 69.542C210.826 69.8483 210.807 70.156 210.827 70.4209C210.844 70.6529 210.897 70.9953 211.14 71.2246C211.831 71.8779 212.604 72.1684 213.424 72.1191C214.223 72.0712 215.009 71.705 215.761 71.167C217.258 70.0955 218.786 68.2167 220.245 66.1621C221.708 64.1029 223.155 61.7893 224.453 59.8438C225.106 58.8644 225.724 57.9744 226.296 57.2393C226.873 56.4987 227.385 55.941 227.824 55.6035C228.195 55.3175 228.537 55.1055 228.81 54.9883C228.946 54.9298 229.048 54.9027 229.116 54.8945C229.119 54.8941 229.122 54.8938 229.125 54.8936C229.132 54.9132 229.141 54.9401 229.15 54.9766C229.185 55.1312 229.205 55.3694 229.196 55.7051C229.178 56.3721 229.057 57.3086 228.862 58.4766C228.47 60.8177 227.803 63.9473 227.148 67.5088C226.05 73.4741 225.64 80.2067 225.577 85.834C225.513 91.4484 225.794 96.0134 226.096 97.6348L226.098 97.6445C226.273 98.4911 226.447 99.4138 226.623 100.356L226.624 100.358V100.361C226.988 102.308 225.599 104.146 223.65 104.265L11.597 117.141C7.96805 117.361 4.50794 114.5 2.42029 110.6C0.33579 106.704 -0.237151 102.029 1.63416 98.8643C2.43167 97.5156 3.23769 96.1067 4.04822 94.6406C7.41891 88.5438 8.47298 81.5495 9.42224 74.9766C11.0143 63.9522 6.23747 51.7395 4.57751 47.5371C4.2991 46.8323 3.92119 46.0312 3.5697 45.3145C11.5835 51.5156 18.1329 57.7206 21.2592 60.8994C22.3769 62.036 22.7044 63.572 22.9681 64.2969C23.0289 64.4638 23.1 64.6386 23.1869 64.7578C23.2115 64.7916 23.2529 64.8422 23.3129 64.8887C23.3708 64.9335 23.4871 65.0052 23.6498 65.0029C23.8286 65.0003 23.9587 64.9111 24.0326 64.8301C24.0987 64.7576 24.1318 64.6821 24.1478 64.6396C24.1805 64.5531 24.1927 64.4634 24.1996 64.4004C24.2073 64.3293 24.2115 64.2498 24.2133 64.167C24.2167 64.0011 24.2122 63.7928 24.2015 63.5527C24.1592 62.5992 24.0191 60.9838 23.8842 59.0859C23.6116 55.2537 23.3557 50.2124 23.89 46.5781C25.1804 37.8009 29.3426 27.8334 33.1088 19.5928C36.1389 12.9628 39.1267 9.42102 40.0941 8.44434C40.1049 8.597 40.1094 8.79021 40.098 9.02539C40.0428 10.1711 39.7241 12.0405 39.3031 14.2734C38.4698 18.6927 37.2468 24.4675 37.0629 28.3076C36.9102 31.4972 38.1631 35.7537 40.1674 40.499C42.1796 45.2632 44.9815 50.5931 47.9974 55.9561C48.56 56.9564 49.1049 57.5429 49.6742 57.8857C50.2432 58.2283 50.7888 58.2957 51.2367 58.3545L51.2533 58.3564C53.3859 58.6366 55.374 58.0316 57.1381 57.1074C58.8983 56.1852 60.4721 54.9253 61.7797 53.8525C63.3723 52.5459 64.5045 50.6807 65.3636 48.7266C66.2237 46.7702 66.8279 44.6801 67.3402 42.8994C67.8787 41.028 68.184 38.9577 68.3978 37.0752C68.6012 35.2853 68.7199 33.7096 68.8763 32.5518C69.1702 32.918 69.5589 33.5534 70.015 34.3906C71.0675 36.3225 72.3377 39.0486 73.4642 41.2559C76.1106 46.4407 77.3023 50.8238 77.5267 52.4795C77.543 52.5995 77.5847 52.8184 77.7494 52.9795C77.849 53.0769 77.9841 53.1431 78.139 53.1504C78.2806 53.157 78.3974 53.1127 78.476 53.0713C78.6239 52.9932 78.7451 52.8664 78.8363 52.7568C78.9359 52.6372 79.04 52.4879 79.1478 52.3174C79.5753 51.6411 80.1618 50.4608 80.8881 48.8467C82.347 45.6045 84.4138 40.5106 86.9652 33.9287C89.7871 26.6492 95.4682 17.7556 102.299 6.93164C105.136 2.43579 106.297 1.19134 107.14 0.589844C107.14 0.592349 107.142 0.595087 107.142 0.597656Z" fill="#0D1B35"/>
<path d="M107.142 0.597656C107.161 0.735419 107.168 0.923045 107.159 1.16504C107.122 2.14778 106.841 3.7438 106.453 5.74902C105.687 9.7183 104.528 15.1709 104.245 20.0322C104.064 23.1592 105.229 26.9422 107.222 31.2432C109.221 35.5573 112.087 40.4619 115.378 45.8486C117.704 49.655 119.94 51.7556 121.889 52.7764C122.503 53.0976 123.116 53.1794 123.707 53.0195C124.286 52.8632 124.789 52.4904 125.227 52.0049C126.095 51.0435 126.818 49.5143 127.45 47.7871C128.086 46.0459 128.65 44.0404 129.174 42.082C129.7 40.1141 130.185 38.2009 130.666 36.6094C131.511 33.8195 131.941 31.7505 132.204 30.2607C132.335 29.5232 132.426 28.9145 132.502 28.46C132.582 27.9851 132.643 27.6921 132.71 27.5117C132.736 27.4442 132.759 27.3919 132.78 27.3525C132.801 27.3733 132.826 27.3979 132.854 27.4297C133.189 27.8166 133.611 28.6503 134.099 29.7822C135.04 31.9642 136.167 35.1189 137.218 37.1348C140.164 42.7823 140.977 45.8843 143.195 56.1455C143.671 58.3497 143.671 59.0245 143.761 59.7764C143.774 59.8843 143.799 60.0277 143.866 60.1543C143.901 60.2208 143.966 60.3186 144.081 60.3906C144.212 60.4718 144.361 60.492 144.499 60.4619C144.621 60.4353 144.71 60.3751 144.764 60.3311C144.821 60.2848 144.867 60.2332 144.903 60.1875C144.975 60.0964 145.042 59.9848 145.105 59.8672C145.352 59.4023 145.678 58.5508 146.08 57.3662C146.891 54.9767 148.054 51.0937 149.554 45.8604C151.896 37.6936 156.256 31.0981 161.836 23.6289C168.6 14.5753 174.176 9.73426 175.633 8.33203C175.585 8.50386 175.525 8.7039 175.45 8.93457C174.081 13.1055 172.492 17.4341 171.074 21.6035C169.662 25.7532 168.43 29.7225 167.812 33.0957C165.472 45.8653 169.854 56.5269 173.99 63.8809C175.717 66.9516 177.885 68.4883 179.212 69.3037C180.95 70.3714 182.965 69.8961 184.93 68.7002C186.905 67.4979 188.969 65.491 190.937 63.2012C194.879 58.6138 198.545 52.7637 200.478 49.5371C201.97 47.0459 202.49 44.4337 202.686 42.377C202.784 41.3484 202.801 40.4518 202.816 39.7822C202.823 39.4434 202.829 39.1738 202.844 38.9678C202.851 38.8654 202.861 38.789 202.87 38.7344C202.881 38.6734 202.888 38.6681 202.877 38.6895C202.928 38.5887 202.972 38.5318 202.999 38.5C203.023 38.5162 203.056 38.542 203.099 38.585C203.191 38.6776 203.3 38.8189 203.423 39.0156C203.926 39.8167 204.502 41.264 205.119 43.0596C205.73 44.8411 206.365 46.9124 206.994 48.9326C207.62 50.9465 208.242 52.9126 208.823 54.4619C210.67 59.3887 211.483 64.2989 211.111 67.6533C211.079 67.9382 211.033 68.2513 210.986 68.5771C210.939 68.8985 210.89 69.2322 210.858 69.542C210.826 69.8483 210.807 70.156 210.827 70.4209C210.844 70.6529 210.897 70.9953 211.14 71.2246C211.831 71.8779 212.604 72.1684 213.424 72.1191C214.223 72.0712 215.009 71.705 215.761 71.167C217.258 70.0955 218.786 68.2167 220.245 66.1621C221.708 64.1029 223.155 61.7893 224.453 59.8438C225.106 58.8644 225.724 57.9744 226.296 57.2393C226.873 56.4987 227.385 55.941 227.824 55.6035C228.195 55.3175 228.537 55.1055 228.81 54.9883C228.946 54.9298 229.048 54.9027 229.116 54.8945C229.119 54.8941 229.122 54.8938 229.125 54.8936C229.132 54.9132 229.141 54.9401 229.15 54.9766C229.185 55.1312 229.205 55.3694 229.196 55.7051C229.178 56.3721 229.057 57.3086 228.862 58.4766C228.47 60.8177 227.803 63.9473 227.148 67.5088C226.05 73.4741 225.64 80.2067 225.577 85.834C225.513 91.4484 225.794 96.0134 226.096 97.6348L226.098 97.6445C226.273 98.4911 226.447 99.4138 226.623 100.356L226.624 100.358V100.361C226.988 102.308 225.599 104.146 223.65 104.265L11.597 117.141C7.96805 117.361 4.50794 114.5 2.42029 110.6C0.33579 106.704 -0.237151 102.029 1.63416 98.8643C2.43167 97.5156 3.23769 96.1067 4.04822 94.6406C7.41891 88.5438 8.47298 81.5495 9.42224 74.9766C11.0143 63.9522 6.23747 51.7395 4.57751 47.5371C4.2991 46.8323 3.92119 46.0312 3.5697 45.3145C11.5835 51.5156 18.1329 57.7206 21.2592 60.8994C22.3769 62.036 22.7044 63.572 22.9681 64.2969C23.0289 64.4638 23.1 64.6386 23.1869 64.7578C23.2115 64.7916 23.2529 64.8422 23.3129 64.8887C23.3708 64.9335 23.4871 65.0052 23.6498 65.0029C23.8286 65.0003 23.9587 64.9111 24.0326 64.8301C24.0987 64.7576 24.1318 64.6821 24.1478 64.6396C24.1805 64.5531 24.1927 64.4634 24.1996 64.4004C24.2073 64.3293 24.2115 64.2498 24.2133 64.167C24.2167 64.0011 24.2122 63.7928 24.2015 63.5527C24.1592 62.5992 24.0191 60.9838 23.8842 59.0859C23.6116 55.2537 23.3557 50.2124 23.89 46.5781C25.1804 37.8009 29.3426 27.8334 33.1088 19.5928C36.1389 12.9628 39.1267 9.42102 40.0941 8.44434C40.1049 8.597 40.1094 8.79021 40.098 9.02539C40.0428 10.1711 39.7241 12.0405 39.3031 14.2734C38.4698 18.6927 37.2468 24.4675 37.0629 28.3076C36.9102 31.4972 38.1631 35.7537 40.1674 40.499C42.1796 45.2632 44.9815 50.5931 47.9974 55.9561C48.56 56.9564 49.1049 57.5429 49.6742 57.8857C50.2432 58.2283 50.7888 58.2957 51.2367 58.3545L51.2533 58.3564C53.3859 58.6366 55.374 58.0316 57.1381 57.1074C58.8983 56.1852 60.4721 54.9253 61.7797 53.8525C63.3723 52.5459 64.5045 50.6807 65.3636 48.7266C66.2237 46.7702 66.8279 44.6801 67.3402 42.8994C67.8787 41.028 68.184 38.9577 68.3978 37.0752C68.6012 35.2853 68.7199 33.7096 68.8763 32.5518C69.1702 32.918 69.5589 33.5534 70.015 34.3906C71.0675 36.3225 72.3377 39.0486 73.4642 41.2559C76.1106 46.4407 77.3023 50.8238 77.5267 52.4795C77.543 52.5995 77.5847 52.8184 77.7494 52.9795C77.849 53.0769 77.9841 53.1431 78.139 53.1504C78.2806 53.157 78.3974 53.1127 78.476 53.0713C78.6239 52.9932 78.7451 52.8664 78.8363 52.7568C78.9359 52.6372 79.04 52.4879 79.1478 52.3174C79.5753 51.6411 80.1618 50.4608 80.8881 48.8467C82.347 45.6045 84.4138 40.5106 86.9652 33.9287C89.7871 26.6492 95.4682 17.7556 102.299 6.93164C105.136 2.43579 106.297 1.19134 107.14 0.589844C107.14 0.592349 107.142 0.595087 107.142 0.597656Z" fill="url(#paint0_linear_1_988)" fill-opacity="0.25"/>
<path d="M107.142 0.597656C107.161 0.735419 107.168 0.923045 107.159 1.16504C107.122 2.14778 106.841 3.7438 106.453 5.74902C105.687 9.7183 104.528 15.1709 104.245 20.0322C104.064 23.1592 105.229 26.9422 107.222 31.2432C109.221 35.5573 112.087 40.4619 115.378 45.8486C117.704 49.655 119.94 51.7556 121.889 52.7764C122.503 53.0976 123.116 53.1794 123.707 53.0195C124.286 52.8632 124.789 52.4904 125.227 52.0049C126.095 51.0435 126.818 49.5143 127.45 47.7871C128.086 46.0459 128.65 44.0404 129.174 42.082C129.7 40.1141 130.185 38.2009 130.666 36.6094C131.511 33.8195 131.941 31.7505 132.204 30.2607C132.335 29.5232 132.426 28.9145 132.502 28.46C132.582 27.9851 132.643 27.6921 132.71 27.5117C132.736 27.4442 132.759 27.3919 132.78 27.3525C132.801 27.3733 132.826 27.3979 132.854 27.4297C133.189 27.8166 133.611 28.6503 134.099 29.7822C135.04 31.9642 136.167 35.1189 137.218 37.1348C140.164 42.7823 140.977 45.8843 143.195 56.1455C143.671 58.3497 143.671 59.0245 143.761 59.7764C143.774 59.8843 143.799 60.0277 143.866 60.1543C143.901 60.2208 143.966 60.3186 144.081 60.3906C144.212 60.4718 144.361 60.492 144.499 60.4619C144.621 60.4353 144.71 60.3751 144.764 60.3311C144.821 60.2848 144.867 60.2332 144.903 60.1875C144.975 60.0964 145.042 59.9848 145.105 59.8672C145.352 59.4023 145.678 58.5508 146.08 57.3662C146.891 54.9767 148.054 51.0937 149.554 45.8604C151.896 37.6936 156.256 31.0981 161.836 23.6289C168.6 14.5753 174.176 9.73426 175.633 8.33203C175.585 8.50386 175.525 8.7039 175.45 8.93457C174.081 13.1055 172.492 17.4341 171.074 21.6035C169.662 25.7532 168.43 29.7225 167.812 33.0957C165.472 45.8653 169.854 56.5269 173.99 63.8809C175.717 66.9516 177.885 68.4883 179.212 69.3037C180.95 70.3714 182.965 69.8961 184.93 68.7002C186.905 67.4979 188.969 65.491 190.937 63.2012C194.879 58.6138 198.545 52.7637 200.478 49.5371C201.97 47.0459 202.49 44.4337 202.686 42.377C202.784 41.3484 202.801 40.4518 202.816 39.7822C202.823 39.4434 202.829 39.1738 202.844 38.9678C202.851 38.8654 202.861 38.789 202.87 38.7344C202.881 38.6734 202.888 38.6681 202.877 38.6895C202.928 38.5887 202.972 38.5318 202.999 38.5C203.023 38.5162 203.056 38.542 203.099 38.585C203.191 38.6776 203.3 38.8189 203.423 39.0156C203.926 39.8167 204.502 41.264 205.119 43.0596C205.73 44.8411 206.365 46.9124 206.994 48.9326C207.62 50.9465 208.242 52.9126 208.823 54.4619C210.67 59.3887 211.483 64.2989 211.111 67.6533C211.079 67.9382 211.033 68.2513 210.986 68.5771C210.939 68.8985 210.89 69.2322 210.858 69.542C210.826 69.8483 210.807 70.156 210.827 70.4209C210.844 70.6529 210.897 70.9953 211.14 71.2246C211.831 71.8779 212.604 72.1684 213.424 72.1191C214.223 72.0712 215.009 71.705 215.761 71.167C217.258 70.0955 218.786 68.2167 220.245 66.1621C221.708 64.1029 223.155 61.7893 224.453 59.8438C225.106 58.8644 225.724 57.9744 226.296 57.2393C226.873 56.4987 227.385 55.941 227.824 55.6035C228.195 55.3175 228.537 55.1055 228.81 54.9883C228.946 54.9298 229.048 54.9027 229.116 54.8945C229.119 54.8941 229.122 54.8938 229.125 54.8936C229.132 54.9132 229.141 54.9401 229.15 54.9766C229.185 55.1312 229.205 55.3694 229.196 55.7051C229.178 56.3721 229.057 57.3086 228.862 58.4766C228.47 60.8177 227.803 63.9473 227.148 67.5088C226.05 73.4741 225.64 80.2067 225.577 85.834C225.513 91.4484 225.794 96.0134 226.096 97.6348L226.098 97.6445C226.273 98.4911 226.447 99.4138 226.623 100.356L226.624 100.358V100.361C226.988 102.308 225.599 104.146 223.65 104.265L11.597 117.141C7.96805 117.361 4.50794 114.5 2.42029 110.6C0.33579 106.704 -0.237151 102.029 1.63416 98.8643C2.43167 97.5156 3.23769 96.1067 4.04822 94.6406C7.41891 88.5438 8.47298 81.5495 9.42224 74.9766C11.0143 63.9522 6.23747 51.7395 4.57751 47.5371C4.2991 46.8323 3.92119 46.0312 3.5697 45.3145C11.5835 51.5156 18.1329 57.7206 21.2592 60.8994C22.3769 62.036 22.7044 63.572 22.9681 64.2969C23.0289 64.4638 23.1 64.6386 23.1869 64.7578C23.2115 64.7916 23.2529 64.8422 23.3129 64.8887C23.3708 64.9335 23.4871 65.0052 23.6498 65.0029C23.8286 65.0003 23.9587 64.9111 24.0326 64.8301C24.0987 64.7576 24.1318 64.6821 24.1478 64.6396C24.1805 64.5531 24.1927 64.4634 24.1996 64.4004C24.2073 64.3293 24.2115 64.2498 24.2133 64.167C24.2167 64.0011 24.2122 63.7928 24.2015 63.5527C24.1592 62.5992 24.0191 60.9838 23.8842 59.0859C23.6116 55.2537 23.3557 50.2124 23.89 46.5781C25.1804 37.8009 29.3426 27.8334 33.1088 19.5928C36.1389 12.9628 39.1267 9.42102 40.0941 8.44434C40.1049 8.597 40.1094 8.79021 40.098 9.02539C40.0428 10.1711 39.7241 12.0405 39.3031 14.2734C38.4698 18.6927 37.2468 24.4675 37.0629 28.3076C36.9102 31.4972 38.1631 35.7537 40.1674 40.499C42.1796 45.2632 44.9815 50.5931 47.9974 55.9561C48.56 56.9564 49.1049 57.5429 49.6742 57.8857C50.2432 58.2283 50.7888 58.2957 51.2367 58.3545L51.2533 58.3564C53.3859 58.6366 55.374 58.0316 57.1381 57.1074C58.8983 56.1852 60.4721 54.9253 61.7797 53.8525C63.3723 52.5459 64.5045 50.6807 65.3636 48.7266C66.2237 46.7702 66.8279 44.6801 67.3402 42.8994C67.8787 41.028 68.184 38.9577 68.3978 37.0752C68.6012 35.2853 68.7199 33.7096 68.8763 32.5518C69.1702 32.918 69.5589 33.5534 70.015 34.3906C71.0675 36.3225 72.3377 39.0486 73.4642 41.2559C76.1106 46.4407 77.3023 50.8238 77.5267 52.4795C77.543 52.5995 77.5847 52.8184 77.7494 52.9795C77.849 53.0769 77.9841 53.1431 78.139 53.1504C78.2806 53.157 78.3974 53.1127 78.476 53.0713C78.6239 52.9932 78.7451 52.8664 78.8363 52.7568C78.9359 52.6372 79.04 52.4879 79.1478 52.3174C79.5753 51.6411 80.1618 50.4608 80.8881 48.8467C82.347 45.6045 84.4138 40.5106 86.9652 33.9287C89.7871 26.6492 95.4682 17.7556 102.299 6.93164C105.136 2.43579 106.297 1.19134 107.14 0.589844C107.14 0.592349 107.142 0.595087 107.142 0.597656Z" stroke="url(#paint1_linear_1_988)"/>
<path d="M107.142 0.597656C107.161 0.735419 107.168 0.923045 107.159 1.16504C107.122 2.14778 106.841 3.7438 106.453 5.74902C105.687 9.7183 104.528 15.1709 104.245 20.0322C104.064 23.1592 105.229 26.9422 107.222 31.2432C109.221 35.5573 112.087 40.4619 115.378 45.8486C117.704 49.655 119.94 51.7556 121.889 52.7764C122.503 53.0976 123.116 53.1794 123.707 53.0195C124.286 52.8632 124.789 52.4904 125.227 52.0049C126.095 51.0435 126.818 49.5143 127.45 47.7871C128.086 46.0459 128.65 44.0404 129.174 42.082C129.7 40.1141 130.185 38.2009 130.666 36.6094C131.511 33.8195 131.941 31.7505 132.204 30.2607C132.335 29.5232 132.426 28.9145 132.502 28.46C132.582 27.9851 132.643 27.6921 132.71 27.5117C132.736 27.4442 132.759 27.3919 132.78 27.3525C132.801 27.3733 132.826 27.3979 132.854 27.4297C133.189 27.8166 133.611 28.6503 134.099 29.7822C135.04 31.9642 136.167 35.1189 137.218 37.1348C140.164 42.7823 140.977 45.8843 143.195 56.1455C143.671 58.3497 143.671 59.0245 143.761 59.7764C143.774 59.8843 143.799 60.0277 143.866 60.1543C143.901 60.2208 143.966 60.3186 144.081 60.3906C144.212 60.4718 144.361 60.492 144.499 60.4619C144.621 60.4353 144.71 60.3751 144.764 60.3311C144.821 60.2848 144.867 60.2332 144.903 60.1875C144.975 60.0964 145.042 59.9848 145.105 59.8672C145.352 59.4023 145.678 58.5508 146.08 57.3662C146.891 54.9767 148.054 51.0937 149.554 45.8604C151.896 37.6936 156.256 31.0981 161.836 23.6289C168.6 14.5753 174.176 9.73426 175.633 8.33203C175.585 8.50386 175.525 8.7039 175.45 8.93457C174.081 13.1055 172.492 17.4341 171.074 21.6035C169.662 25.7532 168.43 29.7225 167.812 33.0957C165.472 45.8653 169.854 56.5269 173.99 63.8809C175.717 66.9516 177.885 68.4883 179.212 69.3037C180.95 70.3714 182.965 69.8961 184.93 68.7002C186.905 67.4979 188.969 65.491 190.937 63.2012C194.879 58.6138 198.545 52.7637 200.478 49.5371C201.97 47.0459 202.49 44.4337 202.686 42.377C202.784 41.3484 202.801 40.4518 202.816 39.7822C202.823 39.4434 202.829 39.1738 202.844 38.9678C202.851 38.8654 202.861 38.789 202.87 38.7344C202.881 38.6734 202.888 38.6681 202.877 38.6895C202.928 38.5887 202.972 38.5318 202.999 38.5C203.023 38.5162 203.056 38.542 203.099 38.585C203.191 38.6776 203.3 38.8189 203.423 39.0156C203.926 39.8167 204.502 41.264 205.119 43.0596C205.73 44.8411 206.365 46.9124 206.994 48.9326C207.62 50.9465 208.242 52.9126 208.823 54.4619C210.67 59.3887 211.483 64.2989 211.111 67.6533C211.079 67.9382 211.033 68.2513 210.986 68.5771C210.939 68.8985 210.89 69.2322 210.858 69.542C210.826 69.8483 210.807 70.156 210.827 70.4209C210.844 70.6529 210.897 70.9953 211.14 71.2246C211.831 71.8779 212.604 72.1684 213.424 72.1191C214.223 72.0712 215.009 71.705 215.761 71.167C217.258 70.0955 218.786 68.2167 220.245 66.1621C221.708 64.1029 223.155 61.7893 224.453 59.8438C225.106 58.8644 225.724 57.9744 226.296 57.2393C226.873 56.4987 227.385 55.941 227.824 55.6035C228.195 55.3175 228.537 55.1055 228.81 54.9883C228.946 54.9298 229.048 54.9027 229.116 54.8945C229.119 54.8941 229.122 54.8938 229.125 54.8936C229.132 54.9132 229.141 54.9401 229.15 54.9766C229.185 55.1312 229.205 55.3694 229.196 55.7051C229.178 56.3721 229.057 57.3086 228.862 58.4766C228.47 60.8177 227.803 63.9473 227.148 67.5088C226.05 73.4741 225.64 80.2067 225.577 85.834C225.513 91.4484 225.794 96.0134 226.096 97.6348L226.098 97.6445C226.273 98.4911 226.447 99.4138 226.623 100.356L226.624 100.358V100.361C226.988 102.308 225.599 104.146 223.65 104.265L11.597 117.141C7.96805 117.361 4.50794 114.5 2.42029 110.6C0.33579 106.704 -0.237151 102.029 1.63416 98.8643C2.43167 97.5156 3.23769 96.1067 4.04822 94.6406C7.41891 88.5438 8.47298 81.5495 9.42224 74.9766C11.0143 63.9522 6.23747 51.7395 4.57751 47.5371C4.2991 46.8323 3.92119 46.0312 3.5697 45.3145C11.5835 51.5156 18.1329 57.7206 21.2592 60.8994C22.3769 62.036 22.7044 63.572 22.9681 64.2969C23.0289 64.4638 23.1 64.6386 23.1869 64.7578C23.2115 64.7916 23.2529 64.8422 23.3129 64.8887C23.3708 64.9335 23.4871 65.0052 23.6498 65.0029C23.8286 65.0003 23.9587 64.9111 24.0326 64.8301C24.0987 64.7576 24.1318 64.6821 24.1478 64.6396C24.1805 64.5531 24.1927 64.4634 24.1996 64.4004C24.2073 64.3293 24.2115 64.2498 24.2133 64.167C24.2167 64.0011 24.2122 63.7928 24.2015 63.5527C24.1592 62.5992 24.0191 60.9838 23.8842 59.0859C23.6116 55.2537 23.3557 50.2124 23.89 46.5781C25.1804 37.8009 29.3426 27.8334 33.1088 19.5928C36.1389 12.9628 39.1267 9.42102 40.0941 8.44434C40.1049 8.597 40.1094 8.79021 40.098 9.02539C40.0428 10.1711 39.7241 12.0405 39.3031 14.2734C38.4698 18.6927 37.2468 24.4675 37.0629 28.3076C36.9102 31.4972 38.1631 35.7537 40.1674 40.499C42.1796 45.2632 44.9815 50.5931 47.9974 55.9561C48.56 56.9564 49.1049 57.5429 49.6742 57.8857C50.2432 58.2283 50.7888 58.2957 51.2367 58.3545L51.2533 58.3564C53.3859 58.6366 55.374 58.0316 57.1381 57.1074C58.8983 56.1852 60.4721 54.9253 61.7797 53.8525C63.3723 52.5459 64.5045 50.6807 65.3636 48.7266C66.2237 46.7702 66.8279 44.6801 67.3402 42.8994C67.8787 41.028 68.184 38.9577 68.3978 37.0752C68.6012 35.2853 68.7199 33.7096 68.8763 32.5518C69.1702 32.918 69.5589 33.5534 70.015 34.3906C71.0675 36.3225 72.3377 39.0486 73.4642 41.2559C76.1106 46.4407 77.3023 50.8238 77.5267 52.4795C77.543 52.5995 77.5847 52.8184 77.7494 52.9795C77.849 53.0769 77.9841 53.1431 78.139 53.1504C78.2806 53.157 78.3974 53.1127 78.476 53.0713C78.6239 52.9932 78.7451 52.8664 78.8363 52.7568C78.9359 52.6372 79.04 52.4879 79.1478 52.3174C79.5753 51.6411 80.1618 50.4608 80.8881 48.8467C82.347 45.6045 84.4138 40.5106 86.9652 33.9287C89.7871 26.6492 95.4682 17.7556 102.299 6.93164C105.136 2.43579 106.297 1.19134 107.14 0.589844C107.14 0.592349 107.142 0.595087 107.142 0.597656Z" stroke="url(#paint2_linear_1_988)"/>
<defs>
<linearGradient id="paint0_linear_1_988" x1="107.855" y1="0" x2="107.855" y2="119.195" gradientUnits="userSpaceOnUse">
<stop stop-color="#FF2A2A" stop-opacity="0"/>
<stop offset="1" stop-color="#FF2A2A"/>
</linearGradient>
<linearGradient id="paint1_linear_1_988" x1="-13.9869" y1="119.195" x2="87.2545" y2="69.8104" gradientUnits="userSpaceOnUse">
<stop stop-color="#FF2A2A"/>
<stop offset="1" stop-color="#FF2A2A" stop-opacity="0"/>
</linearGradient>
<linearGradient id="paint2_linear_1_988" x1="227.963" y1="2.44251" x2="169.116" y2="79.4424" gradientUnits="userSpaceOnUse">
<stop stop-color="#FF2A2A"/>
<stop offset="1" stop-color="#FF2A2A" stop-opacity="0"/>
</linearGradient>
</defs>
</svg>
